<?xml version="1.0" encoding="iso-8859-1"?>
<!-- Generator: Adobe Illustrator 21.0.0, SVG Export Plug-In . SVG Version: 6.00 Build 0)  -->
<svg xmlns="http://www.w3.org/2000/svg" xmlns:xlink="http://www.w3.org/1999/xlink" version="1.1" id="accident" x="0px" y="0px" viewBox="0 0 300 300" style="enable-background:new 0 0 300 300;" xml:space="preserve" width="512" height="512">
<g>
	<path style="fill:#EEEEF0;" d="M107.567,256.556c-16.786,2.197-27.568,5.61-27.568,9.444c0,6.627,32.235,12.001,72,12.001   c39.766,0,72.001-5.374,72.001-12.001c0-3.833-10.783-7.247-27.566-9.444C182.757,262.608,167.75,266,151.999,266   C136.251,266,121.243,262.608,107.567,256.556"/>
	<path style="fill:#FFF35F;" d="M264.002,145.853C264.002,83.993,213.855,38,151.999,38C90.144,38,40.001,83.993,40.001,145.853   c0,61.855,50.144,116.146,111.999,116.146C213.855,261.998,264.002,207.708,264.002,145.853"/>
	<path style="fill:#54596E;" d="M264.002,145.853H268c0.011-32.021-13.019-60.087-34.049-80.027   c-21.026-19.947-50.029-31.831-81.952-31.827c-31.922-0.004-60.925,11.88-81.948,31.827c-21.03,19.94-34.06,48.006-34.053,80.027   c0.008,32.018,12.962,62.008,33.908,84.024C90.842,251.895,119.883,266,151.999,266c32.121,0,61.158-14.105,82.096-36.123   c20.942-22.017,33.9-52.007,33.904-84.024H264.002H260c0.004,29.834-12.112,57.918-31.701,78.51   C208.698,244.958,181.738,258,151.999,258c-29.735,0-56.699-13.042-76.296-33.638c-19.593-20.592-31.709-48.676-31.705-78.51   c0.011-29.838,12.055-55.696,31.56-74.223c19.509-18.511,46.508-29.628,76.44-29.632c29.933,0.004,56.931,11.121,76.445,29.632   c19.506,18.526,31.545,44.385,31.556,74.223H264.002"/>
	<path style="fill:#EEE361;" d="M259.067,132.075c-6.868,53.565-52.167,97.924-107.067,97.924   c-54.896,0-100.199-44.358-107.067-97.924c-0.591,4.539-0.93,9.177-0.93,13.922c0,1.026,0.014,2.046,0.043,3.068   c0.831,28.633,12.77,55.445,31.659,75.297c19.444,20.435,46.139,33.434,75.598,33.635c0.051,0.001,0.102,0.001,0.153,0.001   c0.181,0.001,0.364,0.002,0.545,0.002l0,0l0,0c0.178,0,0.354-0.001,0.531-0.002c0.055,0,0.112,0,0.167-0.001   c29.463-0.201,56.154-13.2,75.602-33.635c19.57-20.571,31.681-48.621,31.701-78.422   C259.998,141.215,259.659,136.596,259.067,132.075"/>
	<path style="fill:#54596E;" d="M152.53,257.998c-0.177,0.001-0.353,0.002-0.531,0.002C152.178,258,152.352,257.999,152.53,257.998    M151.454,257.998c0.182,0.001,0.363,0.002,0.545,0.002C151.818,258,151.636,257.999,151.454,257.998 M44.045,149.065   C45.663,207.195,93,257.598,151.302,257.997c-29.459-0.201-56.154-13.2-75.598-33.635   C56.815,204.511,44.876,177.698,44.045,149.065 M260,145.94c-0.02,29.801-12.131,57.851-31.701,78.422   c-19.448,20.435-46.139,33.434-75.602,33.635c59.327-0.406,107.303-52.584,107.303-112C260,145.979,260,145.959,260,145.94"/>
	<path style="fill:#FFF35F;" d="M92.001,85.999v-42c0-9.941,8.059-18,18-18s18,8.059,18,18v10"/>
	<path style="fill:#54596E;" d="M96,85.999v-42c0.014-7.731,6.269-13.986,14-14.001c7.731,0.015,13.986,6.27,14,14.001v10   c0,2.209,1.791,4,4,4c2.209,0,4-1.791,4-4l0-10c-0.002-12.152-9.848-21.998-22-22c-12.152,0.002-21.998,9.848-22,22v42   c0,2.209,1.791,4,4,4C94.21,89.999,96.001,88.208,96,85.999L96,85.999z"/>
	<circle style="fill:#FF9999;" cx="110.001" cy="43.999" r="14"/>
	<circle style="fill:#54596E;" cx="152.001" cy="185.999" r="16"/>
	<path style="fill:#54596E;" d="M73.576,42.322l-28-12c-2.031-0.87-4.382,0.07-5.252,2.101c-0.87,2.03,0.071,4.382,2.101,5.252   l28,12c2.031,0.87,4.382-0.07,5.252-2.101C76.547,45.544,75.607,43.192,73.576,42.322"/>
	<path style="fill:#54596E;" d="M59.343,54.053l-24,4c-2.179,0.363-3.651,2.424-3.288,4.604c0.363,2.179,2.424,3.651,4.603,3.288   l24-4c2.179-0.363,3.651-2.424,3.288-4.604C63.583,55.162,61.522,53.689,59.343,54.053"/>
	<path style="fill:#54596E;" d="M116.001,125.999c-13.258,0.002-23.998,10.743-24,24c0,2.209,1.791,4,4,4c2.209,0,4-1.791,4-4   c0.002-4.432,1.784-8.406,4.686-11.314c2.908-2.901,6.882-4.684,11.314-4.687c2.208,0,3.999-1.791,3.999-3.999   C120,127.79,118.209,126,116.001,125.999L116.001,125.999z"/>
	<path style="fill:#54596E;" d="M212,149.999c-0.002-13.257-10.742-23.998-24-24c-2.209,0-4,1.79-4,4c0,2.209,1.791,4,4,4   c4.432,0.002,8.406,1.784,11.314,4.686c2.901,2.908,4.684,6.883,4.686,11.314c0,2.209,1.791,4,4,4   C210.21,153.999,212.001,152.208,212,149.999L212,149.999z"/>
</g>















</svg>
