<?xml version="1.0" encoding="iso-8859-1"?>
<!-- Generator: Adobe Illustrator 21.0.0, SVG Export Plug-In . SVG Version: 6.00 Build 0)  -->
<svg xmlns="http://www.w3.org/2000/svg" xmlns:xlink="http://www.w3.org/1999/xlink" version="1.1" id="angel" x="0px" y="0px" viewBox="0 0 300 300" style="enable-background:new 0 0 300 300;" xml:space="preserve" width="512" height="512">
<g>
	<path style="fill:#FFFFFF;" d="M261.004,153.851c0-61.855-50.142-107.85-112.002-107.85c-61.855,0-111.998,45.994-111.998,107.85   c0,61.859,50.143,116.15,111.998,116.15C210.861,270.001,261.004,215.71,261.004,153.851"/>
	<path style="fill:#54596E;" d="M261.004,153.851h4.001c0.011-32.018-13.023-60.085-34.053-80.021   C209.93,53.879,180.927,41.997,149.002,42c-31.922-0.004-60.924,11.879-81.946,31.83c-21.029,19.936-34.064,48.003-34.053,80.021   c0.007,32.021,12.964,62.01,33.906,84.03c20.938,22.016,49.977,36.121,82.094,36.117c32.12,0.004,61.16-14.102,82.097-36.117   c20.941-22.021,33.898-52.009,33.906-84.03H261.004h-4.001c0.007,29.838-12.11,57.924-31.701,78.516   C205.701,252.958,178.741,266,149.002,266c-29.735,0-56.695-13.041-76.296-33.633c-19.594-20.592-31.708-48.678-31.701-78.516   c0.007-29.834,12.048-55.693,31.557-74.22C92.072,61.124,119.068,50.003,149.002,50c29.934,0.004,56.934,11.124,76.443,29.632   c19.505,18.526,31.55,44.386,31.557,74.22H261.004"/>
	<path style="fill:#EEEEF0;" d="M256.071,140.077c-6.869,53.566-52.167,97.926-107.069,97.926   c-54.898,0-100.197-44.359-107.065-97.926c-0.59,4.521-0.929,9.141-0.931,13.87c0.018,29.804,12.127,57.85,31.701,78.42   c19.372,20.351,45.929,33.326,75.251,33.628c0.058,0.001,0.119,0.001,0.177,0.002c0.058,0,0.112,0.001,0.17,0.001   c0.051,0,0.1,0.001,0.151,0.001c0.183,0.001,0.364,0.001,0.547,0.001l0,0l0,0c0.18,0,0.36,0,0.54-0.001   c0.055,0,0.103-0.001,0.158-0.001c0.047,0,0.092-0.001,0.139-0.001c0.069-0.001,0.14-0.001,0.209-0.002   c29.325-0.302,55.883-13.277,75.254-33.628c19.57-20.57,31.683-48.618,31.701-78.422C257,149.216,256.661,144.597,256.071,140.077"/>
	<path style="fill:#54596E;" d="M149.542,265.999c-0.18,0.001-0.36,0.001-0.54,0.001C149.181,266,149.364,266,149.542,265.999    M148.455,265.999C148.637,266,148.82,266,149.002,266C148.819,266,148.638,266,148.455,265.999 M149.839,265.997   c-0.047,0-0.092,0.001-0.139,0.001C149.747,265.998,149.791,265.997,149.839,265.997 M148.134,265.997   c0.058,0,0.112,0.001,0.17,0.001C148.247,265.998,148.192,265.997,148.134,265.997 M41.006,153.947c0,0.019,0,0.037,0,0.056   c0,59.297,47.791,111.384,106.952,111.992c-29.322-0.302-55.879-13.277-75.251-33.628C53.133,211.796,41.023,183.75,41.006,153.947    M257.002,153.945c-0.018,29.804-12.131,57.852-31.701,78.422c-19.372,20.351-45.929,33.326-75.254,33.628   c59.164-0.608,106.955-52.695,106.955-111.992C257.003,153.983,257.002,153.964,257.002,153.945"/>
	<path style="fill:#54596E;" d="M209.004,154.001c-0.003-11.048-8.953-19.998-20-20c-11.047,0.002-19.997,8.952-20,20   c0,2.209,1.791,4,4,4c2.209,0,4-1.791,4-4c0.012-6.627,5.375-11.988,12-12.001c6.625,0.013,11.988,5.374,12,12.001   c0,2.209,1.791,4,4,4C207.213,158.001,209.004,156.21,209.004,154.001L209.004,154.001z"/>
	<path style="fill:#54596E;" d="M125.004,154.001c-0.003-11.048-8.953-19.998-20-20c-11.047,0.002-19.997,8.952-20,20   c0,2.209,1.791,4,4,4c2.209,0,4-1.791,4-4c0.012-6.627,5.375-11.988,12-12.001c6.625,0.013,11.988,5.374,12,12.001   c0,2.209,1.791,4,4,4C123.213,158.001,125.004,156.21,125.004,154.001L125.004,154.001z"/>
	<path style="fill:#54596E;" d="M112.192,186.428c11.275,2.301,23.722,3.572,36.812,3.572c13.082,0,25.523-1.271,36.792-3.568   c2.164-0.442,3.561-2.555,3.12-4.719c-0.442-2.164-2.554-3.562-4.718-3.119c-10.704,2.184-22.63,3.407-35.193,3.407   c-12.57,0-24.502-1.225-35.212-3.412c-2.165-0.442-4.278,0.954-4.72,3.119C108.63,183.874,110.027,185.987,112.192,186.428   L112.192,186.428z"/>
	<path style="fill:#FFFFFF;" d="M213.004,106.001l40.742-58.967c1.678-2.59,5.314-2.976,7.498-0.794l8.332,8.334   c1.893,1.893,1.893,4.961,0,6.854l-4.572,4.573l4.582,11.457c2.018,5.04,0.4,10.807-3.943,14.063l-24.639,18.479"/>
	<path style="fill:#54596E;" d="M216.295,108.275l40.742-58.967l0.067-0.101l0.717-0.39l0.591,0.247l8.335,8.337l0.248,0.6   l-0.248,0.598l-4.572,4.573c-1.135,1.135-1.481,2.822-0.885,4.313l4.582,11.457c0.389,0.973,0.574,1.975,0.574,2.97   c-0.002,2.465-1.139,4.859-3.205,6.41l-24.637,18.479c-1.767,1.325-2.126,3.832-0.8,5.6c1.326,1.768,3.833,2.126,5.6,0.801   l24.639-18.48c4.121-3.095,6.405-7.884,6.403-12.809c0-1.992-0.374-4.012-1.147-5.941l-3.602-9.007l2.708-2.708   c1.719-1.717,2.595-4.005,2.591-6.255c0.005-2.251-0.871-4.539-2.591-6.256l-8.332-8.333c-1.724-1.735-4.029-2.602-6.252-2.594   c-2.847-0.012-5.729,1.403-7.433,4.042l3.358,2.174l-3.291-2.274l-40.742,58.967c-1.256,1.817-0.801,4.309,1.016,5.564   C212.547,110.548,215.039,110.093,216.295,108.275L216.295,108.275z"/>
	<path style="fill:#FFF35F;" d="M149.004,90.001c-32.75,0-68-9.387-68-30s35.25-30,68-30s68,9.387,68,30   S181.754,90.001,149.004,90.001z M149.004,46.001c-34.121,0-52,10.402-52,14s17.879,14,52,14s52-10.402,52-14   S183.125,46.001,149.004,46.001z"/>
	<path style="fill:#54596E;" d="M149.004,90.001v-4c-15.987,0.012-32.638-2.331-44.856-7.008c-6.11-2.322-11.073-5.23-14.311-8.451   c-3.245-3.26-4.808-6.568-4.834-10.541c0.026-3.974,1.589-7.282,4.834-10.542c4.844-4.852,13.626-8.908,24.225-11.52   c10.591-2.641,22.948-3.941,34.941-3.939c15.987-0.012,32.638,2.331,44.855,7.008c6.11,2.322,11.073,5.23,14.311,8.451   c3.245,3.26,4.808,6.568,4.834,10.542c-0.026,3.973-1.589,7.281-4.834,10.541c-4.844,4.852-13.626,8.908-24.225,11.52   c-10.591,2.641-22.948,3.941-34.941,3.939V90.001V94c16.763-0.012,34.112-2.362,47.707-7.532   c6.796-2.601,12.693-5.904,17.088-10.241c4.388-4.298,7.231-9.893,7.205-16.226c0.026-6.334-2.818-11.929-7.205-16.227   c-6.605-6.485-16.532-10.735-27.921-13.599c-11.396-2.834-24.305-4.173-36.874-4.175c-16.763,0.012-34.112,2.362-47.707,7.532   c-6.796,2.601-12.693,5.904-17.088,10.241c-4.388,4.298-7.231,9.893-7.205,16.227c-0.026,6.333,2.818,11.928,7.205,16.226   c6.605,6.485,16.532,10.735,27.921,13.599c11.396,2.834,24.305,4.173,36.874,4.175V90.001z M149.004,46.001v-4   c-17.471,0.002-30.887,2.654-40.114,5.874c-4.62,1.617-8.184,3.358-10.786,5.098c-1.304,0.88-2.372,1.745-3.262,2.745   c-0.444,0.505-0.849,1.047-1.193,1.719c-0.336,0.67-0.638,1.502-0.644,2.564c0.006,1.062,0.307,1.894,0.644,2.563   c0.654,1.247,1.483,2.1,2.468,2.966c1.729,1.479,4.036,2.885,7.048,4.292c9.001,4.175,24.334,8.168,45.84,8.178   c17.471-0.002,30.887-2.654,40.114-5.874c4.62-1.617,8.184-3.358,10.786-5.098c1.304-0.88,2.372-1.745,3.262-2.745   c0.444-0.505,0.849-1.047,1.193-1.719c0.336-0.67,0.638-1.502,0.644-2.563c-0.006-1.062-0.307-1.895-0.644-2.564   c-0.654-1.247-1.483-2.1-2.468-2.966c-1.729-1.479-4.036-2.885-7.048-4.292c-9.001-4.175-24.334-8.168-45.839-8.178V46.001V50   c16.65-0.002,29.234,2.547,37.477,5.428c4.115,1.433,7.153,2.967,8.969,4.189c0.905,0.603,1.5,1.14,1.722,1.397l0.096,0.117   l0.261-0.185l-0.278,0.155l0.017,0.029l0.261-0.185l-0.278,0.155L199.215,60l-2.211,0.001c0.01,0.69,0.204,1.015,0.246,1.102   L199.215,60l-2.211,0.001h2.316l-2.09-1.063c-0.058,0.121-0.219,0.45-0.226,1.063h2.316l-2.09-1.063l0.523,0.266l-0.484-0.336   l-0.039,0.07l0.523,0.266l-0.484-0.336c-0.04,0.143-1.348,1.392-3.594,2.589c-3.386,1.869-8.916,4.04-16.394,5.7   c-7.483,1.666-16.933,2.845-28.277,2.845c-16.65,0.002-29.234-2.547-37.477-5.428c-4.115-1.433-7.153-2.967-8.969-4.189   c-0.905-0.603-1.5-1.14-1.722-1.397l-0.096-0.117l-0.261,0.184l0.278-0.154l-0.017-0.029l-0.261,0.184l0.278-0.154l-1.967,1.103   h2.213c-0.01-0.691-0.204-1.016-0.246-1.103l-1.967,1.103h2.213h-2.311l2.086,1.062c0.058-0.121,0.219-0.45,0.226-1.062h-2.311   l2.086,1.062l-0.523-0.267l0.484,0.337l0.039-0.07l-0.523-0.267l0.484,0.337c0.04-0.143,1.348-1.392,3.594-2.589   c3.386-1.869,8.916-4.04,16.394-5.7C128.21,51.179,137.66,50,149.004,50V46.001z"/>
	<path style="fill:#54596E;" d="M262.175,63.172l-12,12c-1.562,1.562-1.562,4.095,0,5.657c1.562,1.562,4.095,1.562,5.657,0l12-12   c1.562-1.562,1.562-4.095,0-5.657C266.27,61.611,263.738,61.611,262.175,63.172"/>
	<path style="fill:#FFFFFF;" d="M86.996,106.001L46.254,47.035c-1.678-2.59-5.314-2.976-7.496-0.794l-8.334,8.334   c-1.893,1.893-1.893,4.961,0,6.854l4.572,4.573l-4.582,11.457c-2.018,5.04-0.4,10.807,3.943,14.063l24.639,18.479"/>
	<path style="fill:#54596E;" d="M90.287,103.727L49.545,44.76l-3.291,2.274l3.358-2.175c-1.704-2.638-4.586-4.053-7.433-4.041   c-2.222-0.008-4.529,0.858-6.255,2.599l0.006-0.006l-8.334,8.334c-1.72,1.717-2.596,4.005-2.591,6.256   c-0.005,2.25,0.871,4.538,2.591,6.255l2.707,2.708L26.7,75.973c-0.772,1.927-1.147,3.947-1.146,5.939   c-0.002,4.925,2.282,9.714,6.402,12.808l24.64,18.48c1.767,1.325,4.274,0.968,5.599-0.8c1.326-1.767,0.968-4.273-0.799-5.599   l-24.639-18.48c-2.065-1.55-3.202-3.944-3.204-6.409c0-0.995,0.185-1.996,0.574-2.967l4.583-11.46   c0.596-1.491,0.25-3.179-0.885-4.313l-4.572-4.573l-0.248-0.598l0.248-0.599l8.334-8.334l0.006-0.006l0.587-0.245l0.717,0.391   l0.067,0.1l40.742,58.967c1.255,1.817,3.747,2.272,5.564,1.017C91.087,108.037,91.543,105.545,90.287,103.727L90.287,103.727z"/>
	<path style="fill:#54596E;" d="M32.168,68.83l12,12c1.562,1.562,4.095,1.562,5.657,0c1.562-1.562,1.562-4.095,0-5.657l-12-12   c-1.562-1.562-4.095-1.562-5.657,0C30.606,64.735,30.606,67.267,32.168,68.83"/>
</g>















</svg>
