<?xml version="1.0" encoding="iso-8859-1"?>
<!-- Generator: Adobe Illustrator 21.0.0, SVG Export Plug-In . SVG Version: 6.00 Build 0)  -->
<svg xmlns="http://www.w3.org/2000/svg" xmlns:xlink="http://www.w3.org/1999/xlink" version="1.1" id="baby" x="0px" y="0px" viewBox="0 0 300 300" style="enable-background:new 0 0 300 300;" xml:space="preserve" width="512" height="512">
<g>
	<path style="fill:#EEEEF0;" d="M194.434,250.557c-13.676,6.053-28.685,9.443-44.434,9.441c-0.004,0-0.008,0-0.012,0   c-15.746,0-30.751-3.391-44.425-9.441c-16.784,2.198-27.566,5.612-27.566,9.445c0,6.624,32.237,12,72.003,12   s71.999-5.376,71.999-12C221.999,256.169,211.217,252.754,194.434,250.557"/>
	<path style="fill:#FFD578;" d="M261.998,139.853c0-61.855-50.143-107.852-111.998-107.852   c-61.858,0-112.001,45.996-112.001,107.852c0,61.854,50.143,116.146,112.001,116.146   C211.855,255.999,261.998,201.707,261.998,139.853"/>
	<path style="fill:#54596E;" d="M261.998,139.853H266c0.01-32.021-13.024-60.089-34.052-80.024   c-21.024-19.949-50.03-31.83-81.948-31.83c-31.922,0-60.927,11.881-81.952,31.83C47.02,79.764,33.986,107.831,34,139.853   c0.003,32.018,12.962,62.006,33.904,84.026c20.936,22.018,49.975,36.123,82.096,36.119c32.117,0.004,61.156-14.102,82.092-36.119   c20.943-22.021,33.901-52.009,33.908-84.026H261.998h-3.999c0.003,29.837-12.109,57.921-31.703,78.511   c-19.6,20.594-46.562,33.638-76.296,33.638c-29.738,0-56.699-13.044-76.299-33.638c-19.594-20.59-31.707-48.674-31.703-78.511   c0.01-29.837,12.051-55.696,31.559-74.222C93.068,47.119,120.064,36.003,150,35.999c29.933,0.004,56.928,11.12,76.44,29.632   c19.508,18.525,31.549,44.385,31.559,74.222H261.998"/>
	<path style="fill:#EEC877;" d="M257.064,126.075c-6.868,53.566-52.166,97.924-107.064,97.924   c-54.902,0-100.2-44.357-107.068-97.924c-0.59,4.521-0.932,9.139-0.935,13.867c0.02,29.805,12.128,57.852,31.703,78.421   c19.6,20.594,46.562,33.638,76.299,33.638l0,0l0,0c29.734,0,56.696-13.044,76.296-33.638   c19.574-20.569,31.683-48.618,31.703-78.423C257.996,135.213,257.657,130.597,257.064,126.075"/>
	<path style="fill:#54596E;" d="M41.998,139.942c0,0.019,0,0.038,0,0.058c0,59.646,48.352,112.001,108.002,112.001   c-29.738,0-56.699-13.044-76.299-33.638C54.126,197.794,42.018,169.747,41.998,139.942 M257.999,139.94   c-0.02,29.805-12.128,57.854-31.703,78.423c-19.6,20.594-46.562,33.638-76.296,33.638c59.647,0,107.999-52.354,107.999-112.001   C257.999,139.98,257.999,139.96,257.999,139.94"/>
	<circle style="fill:#54596E;" cx="209.999" cy="112" r="20"/>
	<circle style="fill:#FFFFFF;" cx="201.999" cy="118" r="6"/>
	<circle style="fill:#FFFFFF;" cx="219.999" cy="102" r="10"/>
	<circle style="fill:#54596E;" cx="89.999" cy="112" r="20"/>
	<circle style="fill:#FFFFFF;" cx="81.999" cy="118" r="6"/>
	<circle style="fill:#FFFFFF;" cx="99.999" cy="102" r="10"/>
	<path style="fill:#FFF35F;" d="M175.417,160.51c-7-1.315-13.645-0.016-19.137,3.086c-3.875,2.187-8.688,2.187-12.562,0   c-5.492-3.102-12.137-4.401-19.137-3.086c-11.004,2.067-19.906,10.893-22.039,21.884C99.069,200.316,112.702,216,129.999,216   c4.941,0,9.578-1.283,13.605-3.531c3.965-2.215,8.824-2.215,12.789,0c4.027,2.248,8.664,3.531,13.605,3.531   c17.297,0,30.93-15.684,27.457-33.606C195.323,171.402,186.42,162.577,175.417,160.51z"/>
	<path style="fill:#54596E;" d="M175.417,160.51l0.74-3.932c-2.077-0.391-4.137-0.581-6.159-0.58   c-5.688-0.002-11.056,1.495-15.687,4.115c-1.314,0.742-2.81,1.121-4.312,1.121s-2.999-0.38-4.317-1.124   c-4.627-2.615-9.994-4.113-15.683-4.111c-2.019-0.001-4.08,0.187-6.161,0.58c-12.646,2.4-22.744,12.408-25.223,25.052   c-0.417,2.146-0.618,4.276-0.617,6.364c0.002,17.675,14.324,32.002,32.001,32.004c5.636,0.002,10.955-1.469,15.555-4.038   c1.375-0.769,2.906-1.153,4.445-1.154c1.538,0.001,3.07,0.386,4.444,1.153c4.602,2.57,9.92,4.041,15.556,4.039   c17.676-0.002,31.998-14.327,32-32.003c0-2.09-0.201-4.22-0.616-6.364c-2.479-12.645-12.578-22.652-25.227-25.054L175.417,160.51   l-0.739,3.931c9.358,1.733,17.064,9.376,18.851,18.715c0.319,1.646,0.47,3.264,0.47,4.841c-0.002,6.641-2.68,12.616-7.03,16.973   c-4.356,4.351-10.33,7.028-16.971,7.031c-4.247-0.002-8.202-1.098-11.656-3.024c-2.59-1.446-5.47-2.169-8.344-2.168   c-2.873-0.001-5.754,0.72-8.347,2.169c-3.452,1.926-7.407,3.021-11.653,3.023c-6.641-0.003-12.615-2.682-16.972-7.032   c-4.35-4.356-7.028-10.332-7.03-16.973c0-1.575,0.152-3.191,0.471-4.841c1.786-9.338,9.493-16.98,18.851-18.714   c1.593-0.301,3.154-0.441,4.679-0.442c4.285,0.002,8.277,1.119,11.751,3.08c2.559,1.441,5.406,2.155,8.249,2.155   c2.84,0,5.689-0.713,8.246-2.154c3.476-1.964,7.467-3.08,11.753-3.082c1.522,0.001,3.084,0.143,4.678,0.443L175.417,160.51z"/>
	<path style="fill:#FFFFFF;" d="M177.999,212h4c-0.002-17.675-14.324-31.998-32-32c-17.676,0.002-31.998,14.325-32,32   c0.002,17.674,14.324,31.997,32,31.999c17.675-0.002,31.997-14.325,32-31.999H177.999h-4c-0.002,6.64-2.68,12.614-7.029,16.97   c-4.356,4.35-10.33,7.027-16.971,7.03c-6.641-0.003-12.615-2.681-16.971-7.03c-4.349-4.355-7.027-10.33-7.029-16.97   c0.002-6.641,2.68-12.615,7.029-16.971c4.356-4.35,10.33-7.027,16.971-7.03c6.64,0.003,12.615,2.681,16.971,7.03   c4.349,4.355,7.027,10.33,7.029,16.971H177.999z"/>
	<circle style="fill:#FF9999;" cx="149.999" cy="188" r="16"/>
	<path style="fill:#54596E;" d="M165.999,188h4c-0.002-11.048-8.953-19.998-20-20c-11.047,0.002-19.998,8.952-20,20   c0.002,11.047,8.953,19.997,20,19.999c11.046-0.002,19.997-8.952,20-19.999H165.999h-4c-0.012,6.626-5.375,11.987-12,12   c-6.625-0.013-11.988-5.374-12-12c0.012-6.627,5.375-11.988,12-12.001c6.625,0.013,11.988,5.374,12,12.001H165.999z"/>
</g>















</svg>
