<?xml version="1.0" encoding="iso-8859-1"?>
<!-- Generator: Adobe Illustrator 21.0.0, SVG Export Plug-In . SVG Version: 6.00 Build 0)  -->
<svg xmlns="http://www.w3.org/2000/svg" xmlns:xlink="http://www.w3.org/1999/xlink" version="1.1" id="brain" x="0px" y="0px" viewBox="0 0 300 300" style="enable-background:new 0 0 300 300;" xml:space="preserve" width="512" height="512">
<g>
	<path style="fill:#EEEEF0;" d="M105.569,250.557C88.783,252.753,78,256.167,78,260.001c0,6.626,32.234,12,72,12   c39.766,0,72-5.374,72-12c0-3.834-10.782-7.247-27.568-9.444c-13.675,6.052-28.683,9.442-44.432,9.44c-0.006,0-0.007,0-0.013,0   C134.244,259.997,119.24,256.607,105.569,250.557"/>
	<path style="fill:#FFF35F;" d="M134,35.999c-4.527,0-8.656,1.562-12.008,4.099c-3.648-4.89-9.426-8.099-15.992-8.099   c-11.047,0-20,8.954-20,20l0.043,0.409c-1.309-0.268-2.66-0.409-4.043-0.409c-11.047,0-20,8.954-20,20   c0,2.517,0.516,4.9,1.363,7.119C57.754,82.66,54,88.873,54,95.999c0,11.046,8.953,20,20,20s20-8.954,20-20   c0-2.517-0.516-4.9-1.363-7.119c0.477-0.303,0.922-0.639,1.371-0.979c3.648,4.89,9.426,8.099,15.992,8.099c11.047,0,20-8.954,20-20   l-0.043-0.409c1.309,0.268,2.66,0.409,4.043,0.409c11.047,0,20-8.954,20-20S145.047,35.999,134,35.999z"/>
	<path style="fill:#54596E;" d="M134,35.999v-4c-5.457-0.003-10.449,1.896-14.422,4.909l2.414,3.189l3.206-2.393   c-4.341-5.833-11.304-9.708-19.198-9.706c-13.258,0.002-23.998,10.743-24,24l0.022,0.417l0.043,0.409l3.978-0.417l0.801-3.919   c-1.567-0.321-3.188-0.491-4.844-0.49c-13.258,0.002-23.998,10.743-24,24c-0.001,3.065,0.631,5.943,1.626,8.546l3.737-1.427   l-2.136-3.383C54.522,79.959,50,87.439,50,95.999c0.002,13.256,10.742,23.997,24,23.999c13.257-0.002,23.998-10.743,24-23.999   c0.001-3.066-0.631-5.944-1.626-8.547l-3.737,1.428l2.145,3.376c0.655-0.417,1.189-0.825,1.644-1.169L94.008,87.9l-3.206,2.392   C95.143,96.125,102.106,100,110,99.998c13.257-0.002,23.998-10.743,24-23.999l-0.022-0.418l-0.043-0.409l-3.978,0.418l-0.802,3.918   c1.567,0.321,3.188,0.491,4.844,0.49c13.257-0.002,23.998-10.743,24-23.999c-0.002-13.257-10.742-23.998-24-24V35.999v3.999   c4.432,0.003,8.406,1.785,11.314,4.687c2.901,2.908,4.684,6.883,4.686,11.314c-0.002,4.431-1.785,8.405-4.686,11.313   c-2.908,2.901-6.882,4.684-11.314,4.687c-1.11-0.001-2.191-0.114-3.242-0.328c-1.244-0.255-2.548,0.103-3.489,0.956   s-1.423,2.116-1.291,3.38l0.043,0.409L130,75.999h-4c-0.002,4.431-1.785,8.405-4.686,11.313c-2.908,2.901-6.882,4.684-11.314,4.687   c-5.239-0.002-9.831-2.545-12.786-6.491c-0.639-0.857-1.588-1.419-2.646-1.568s-2.126,0.127-2.978,0.773   c-0.444,0.338-0.801,0.602-1.098,0.79c-1.601,1.017-2.268,3.032-1.592,4.804c0.7,1.835,1.099,3.725,1.1,5.692   c-0.002,4.431-1.785,8.405-4.686,11.313c-2.908,2.901-6.882,4.684-11.314,4.687c-4.432-0.003-8.406-1.785-11.314-4.687   c-2.901-2.908-4.684-6.883-4.686-11.313c0-5.693,2.986-10.639,7.499-13.499c1.613-1.02,2.282-3.027,1.601-4.81   c-0.7-1.835-1.099-3.725-1.1-5.691c0.002-4.432,1.785-8.406,4.686-11.314c2.908-2.901,6.882-4.684,11.314-4.687   c1.11,0.001,2.191,0.114,3.241,0.328c1.244,0.254,2.548-0.103,3.489-0.956s1.423-2.117,1.291-3.38l-0.043-0.409L86,51.999h4   c0.002-4.432,1.785-8.406,4.686-11.314c2.908-2.901,6.882-4.684,11.314-4.687c5.239,0.002,9.83,2.545,12.786,6.491   c0.639,0.856,1.586,1.418,2.644,1.568c1.058,0.15,2.124-0.127,2.976-0.771c2.73-2.061,5.996-3.285,9.594-3.288V35.999z"/>
	<path style="fill:#ADF2A2;" d="M152.426,32.056c-7.495,38.705-41.533,67.943-82.425,67.943c-8.025,0-15.758-1.192-23.106-3.295   c-5.724,13.064-8.897,27.604-8.897,43.146C37.998,201.709,88.145,256,150,256s112.001-54.291,112.001-116.15   C262.002,78.808,213.155,33.244,152.426,32.056"/>
	<path style="fill:#54596E;" d="M152.426,32.056l-3.928-0.763c-7.137,36.851-39.556,64.712-78.497,64.705   c-7.627,0-14.985-1.134-22.005-3.14c-1.929-0.553-3.961,0.404-4.767,2.241c-5.941,13.561-9.232,28.66-9.228,44.75   c0.004,32.021,12.961,62.01,33.906,84.029c20.938,22.017,49.973,36.122,82.094,36.118c32.12,0.004,61.156-14.102,82.094-36.118   c20.945-22.02,33.902-52.009,33.906-84.029c0.011-31.598-12.681-59.342-33.232-79.215c-20.54-19.889-48.917-31.966-80.264-32.581   c-1.943-0.036-3.633,1.333-4.005,3.239L152.426,32.056l-0.077,3.997c29.382,0.578,55.793,11.879,74.857,30.328   c19.057,18.467,30.784,44.024,30.795,73.469c0.004,29.838-12.11,57.924-31.704,78.516c-19.598,20.592-46.561,33.633-76.296,33.633   s-56.698-13.041-76.3-33.633C54.11,197.773,41.996,169.688,42,139.85c0-15,3.055-28.98,8.558-41.54l-3.663-1.605l-1.101,3.847   c7.675,2.194,15.784,3.449,24.206,3.446c42.843-0.008,78.497-30.623,86.352-71.18L152.426,32.056l-0.077,3.997L152.426,32.056"/>
	<path style="fill:#A4E29D;" d="M257.066,126.071c-6.865,53.569-52.167,97.93-107.065,97.93c-54.898,0-100.2-44.36-107.065-97.93   c-0.594,4.523-0.932,9.143-0.935,13.87c0.021,29.804,12.131,57.854,31.701,78.424c19.372,20.35,45.933,33.326,75.255,33.628   c0.051,0,0.099,0.001,0.15,0.001c0.067,0.001,0.13,0.001,0.198,0.002c0.047,0,0.097,0,0.144,0.001   c0.185,0.001,0.368,0.001,0.553,0.001l0,0l0,0c0.185,0,0.368,0,0.553-0.001c0.047-0.001,0.097-0.001,0.145-0.001   c0.065-0.001,0.128-0.001,0.193-0.002c0.051,0,0.104-0.001,0.154-0.001c29.322-0.302,55.883-13.278,75.251-33.628   c19.573-20.57,31.683-48.621,31.704-78.425C257.997,135.213,257.659,130.595,257.066,126.071"/>
	<path style="fill:#54596E;" d="M149.447,251.997c0.186,0.001,0.367,0.001,0.553,0.001   C149.815,251.998,149.632,251.998,149.447,251.997 M150.553,251.997c-0.185,0.001-0.368,0.001-0.553,0.001   C150.186,251.998,150.368,251.998,150.553,251.997 M150.891,251.994c-0.065,0.001-0.128,0.001-0.193,0.002   C150.763,251.995,150.825,251.995,150.891,251.994 M149.105,251.994c0.065,0.001,0.132,0.001,0.198,0.002   C149.235,251.995,149.172,251.995,149.105,251.994 M42,139.941c0,0.021,0,0.039,0,0.059c0,59.298,47.791,111.385,106.956,111.993   c-29.322-0.302-55.883-13.278-75.255-33.628C54.13,197.795,42.021,169.745,42,139.941 M258,139.94   c-0.021,29.804-12.131,57.854-31.704,78.425c-19.368,20.35-45.929,33.326-75.251,33.628C210.21,251.385,258,199.298,258,140   C258,139.98,258,139.96,258,139.94"/>
	<path style="fill:#54596E;" d="M198.301,196.586c4.734,0.011,7.688-4.912,5.473-8.996c-10.195-18.789-30.445-31.591-53.758-31.591   c-23.219,0-43.398,12.696-53.633,31.358c-2.234,4.072,0.699,9.006,5.434,9.017l39.195-3.911c5.988-0.598,12.023-0.585,18.008,0.038   L198.301,196.586z"/>
	<path style="fill:#54596E;" d="M198.301,196.586v3.999l0.396-0.019l-0.381-3.907l0,3.925l0.381-0.018l-0.381-3.907l0,3.925   c2.893,0.01,5.525-1.194,7.325-3.054c1.81-1.855,2.878-4.359,2.881-7.038c0.002-1.614-0.401-3.284-1.233-4.812   c-10.885-20.063-32.475-33.678-57.273-33.681c-24.698,0.003-46.212,13.505-57.14,33.435c-0.845,1.533-1.259,3.218-1.256,4.849   c0.003,2.674,1.069,5.175,2.875,7.028c1.796,1.858,4.422,3.063,7.31,3.062l0.409-0.02l39.195-3.911c2.8-0.279,5.61-0.42,8.421-0.42   c2.931,0,5.859,0.15,8.773,0.456l39.285,4.086l0.414,0.021V196.586l0.414-3.979l-39.281-4.085   c-3.192-0.334-6.399-0.499-9.604-0.498c-3.076-0.001-6.152,0.152-9.216,0.459l-39.195,3.911l0.397,3.98l0.012-4   c-0.739-0.012-1.211-0.26-1.607-0.649c-0.386-0.393-0.605-0.933-0.602-1.442c0.003-0.315,0.069-0.631,0.269-1   c9.542-17.396,28.387-29.287,50.127-29.284c21.827-0.003,40.738,11.986,50.242,29.499c0.195,0.362,0.262,0.679,0.264,0.995   c0.003,0.513-0.218,1.055-0.604,1.448c-0.396,0.389-0.867,0.635-1.602,0.645l-0.396,0.019l0.381,3.903v-3.921l-0.381,0.018   l0.381,3.903v-3.921V196.586l0.414-3.979L198.301,196.586z"/>
	<path style="fill:#54596E;" d="M191.172,118.827l20,20c1.562,1.562,4.095,1.562,5.657,0c1.562-1.562,1.562-4.095,0-5.657l-20-20   c-1.562-1.562-4.095-1.562-5.657,0C189.609,114.732,189.609,117.265,191.172,118.827"/>
	<path style="fill:#54596E;" d="M196.828,138.827l20-20c1.562-1.562,1.562-4.095,0-5.657c-1.562-1.562-4.095-1.562-5.657,0l-20,20   c-1.562,1.562-1.562,4.095,0,5.657C192.734,140.389,195.266,140.389,196.828,138.827"/>
	<path style="fill:#54596E;" d="M83.172,118.827l20,20c1.562,1.562,4.095,1.562,5.657,0c1.562-1.562,1.562-4.095,0-5.657l-20-20   c-1.562-1.562-4.095-1.562-5.657,0C81.609,114.732,81.609,117.265,83.172,118.827"/>
	<path style="fill:#54596E;" d="M88.828,138.827l20-20c1.562-1.562,1.562-4.095,0-5.657c-1.562-1.562-4.095-1.562-5.657,0l-20,20   c-1.562,1.562-1.562,4.095,0,5.657C84.734,140.389,87.266,140.389,88.828,138.827"/>
	<path style="fill:#FFF35F;" d="M126,51.999c0-11.046-8.953-20-20-20s-20,8.954-20,20"/>
	<path style="fill:#54596E;" d="M130,51.999c-0.002-13.257-10.742-23.998-24-24c-13.258,0.002-23.998,10.743-24,24   c0,2.209,1.791,4,4,4c2.209,0,4-1.791,4-4c0.002-4.432,1.784-8.406,4.686-11.314c2.908-2.901,6.882-4.684,11.314-4.687   c4.432,0.003,8.406,1.785,11.314,4.687c2.901,2.908,4.684,6.883,4.686,11.314c0,2.209,1.791,4,4,4   C128.209,55.999,130,54.208,130,51.999L130,51.999z"/>
</g>















</svg>
