<?xml version="1.0" encoding="iso-8859-1"?>
<!-- Generator: Adobe Illustrator 21.0.0, SVG Export Plug-In . SVG Version: 6.00 Build 0)  -->
<svg xmlns="http://www.w3.org/2000/svg" xmlns:xlink="http://www.w3.org/1999/xlink" version="1.1" id="cat" x="0px" y="0px" viewBox="0 0 300 300" style="enable-background:new 0 0 300 300;" xml:space="preserve" width="512" height="512">
<g>
	<path style="fill:#EEEEF0;" d="M194.434,250.557c-13.676,6.053-28.685,9.443-44.434,9.441h-0.012   c-15.746,0-30.751-3.391-44.424-9.441c-16.783,2.198-27.563,5.612-27.563,9.445c0,6.624,32.234,12,71.999,12   s71.999-5.376,71.999-12C221.999,256.169,211.217,252.754,194.434,250.557"/>
	<path style="fill:#D8D8D8;" d="M261.998,139.853c0-61.855-50.143-107.852-111.998-107.852S37.999,77.997,37.999,139.853   c0,61.854,50.146,116.146,112.001,116.146S261.998,201.707,261.998,139.853"/>
	<path style="fill:#54596E;" d="M261.998,139.853H266c0.01-32.021-13.02-60.089-34.052-80.024   c-21.025-19.949-50.026-31.83-81.948-31.83c-31.922,0-60.927,11.881-81.948,31.83C47.02,79.764,33.99,107.831,34,139.853   c0.003,32.018,12.962,62.006,33.904,84.026c20.936,22.018,49.975,36.123,82.096,36.119c32.117,0.004,61.156-14.102,82.092-36.119   c20.946-22.021,33.901-52.009,33.908-84.026H261.998h-3.999c0.007,29.837-12.109,57.921-31.703,78.511   c-19.6,20.594-46.562,33.638-76.296,33.638c-29.738,0-56.699-13.044-76.3-33.638c-19.59-20.59-31.706-48.674-31.703-78.511   c0.01-29.837,12.051-55.696,31.559-74.222C93.068,47.119,120.067,36.003,150,35.999c29.933,0.004,56.928,11.12,76.443,29.632   c19.504,18.525,31.545,44.385,31.556,74.222H261.998"/>
	<path style="fill:#CBCBCD;" d="M257.064,126.075C250.2,179.642,204.898,223.999,150,223.999c-54.898,0-100.2-44.357-107.068-97.924   c-0.59,4.521-0.932,9.139-0.935,13.867c0.02,29.805,12.132,57.852,31.703,78.421c19.601,20.594,46.562,33.638,76.3,33.638l0,0l0,0   c29.734,0,56.696-13.044,76.296-33.638c19.573-20.568,31.685-48.617,31.703-78.42C257.996,135.215,257.658,130.598,257.064,126.075   "/>
	<path style="fill:#54596E;" d="M257.999,139.943c-0.018,29.803-12.13,57.852-31.703,78.42   c-19.6,20.594-46.562,33.638-76.296,33.638c59.647,0,107.999-52.354,107.999-112.001   C257.999,139.981,257.999,139.962,257.999,139.943 M41.998,139.942c0,0.019,0,0.038,0,0.058   c0,59.646,48.352,112.001,108.002,112.001c-29.738,0-56.699-13.044-76.3-33.638C54.13,197.794,42.018,169.747,41.998,139.942"/>
	<circle style="fill:#54596E;" cx="209.999" cy="112" r="20"/>
	<circle style="fill:#FFFFFF;" cx="201.999" cy="118" r="6"/>
	<circle style="fill:#FFFFFF;" cx="219.999" cy="102" r="10"/>
	<circle style="fill:#54596E;" cx="89.999" cy="112" r="20"/>
	<circle style="fill:#FFFFFF;" cx="81.999" cy="118" r="6"/>
	<circle style="fill:#FFFFFF;" cx="99.999" cy="102" r="10"/>
	<path style="fill:#AAAAAA;" d="M168.82,200h-37.641c-7.281,0-13.18-5.9-13.18-13.178v-25.645c0-7.277,5.898-13.178,13.18-13.178   h37.641c7.281,0,13.18,5.9,13.18,13.178v25.645C181.999,194.1,176.101,200,168.82,200z"/>
	<path style="fill:#54596E;" d="M152.035,166.168l15.133-12.519c2.305-1.905,0.957-5.649-2.031-5.649h-30.273   c-2.988,0-4.336,3.744-2.031,5.649l15.133,12.519C149.144,167.145,150.851,167.145,152.035,166.168z"/>
	<line style="fill:#FFFFFF;" x1="149.999" y1="184" x2="149.999" y2="168"/>
	<path style="fill:#54596E;" d="M153.999,184v-16c0-2.21-1.791-4-4-4c-2.209,0-4,1.79-4,4v16c0,2.209,1.791,4,4,4   C152.208,188,153.999,186.209,153.999,184"/>
	<path style="fill:#54596E;" d="M145.999,186c0.003,9.943,8.059,17.997,18,17.999c9.941-0.002,17.997-8.056,18-17.999   c0-2.21-1.791-4-4-4c-2.209,0-4,1.79-4,4c-0.01,5.521-4.481,9.989-10,10c-5.52-0.011-9.99-4.479-10-10c0-2.21-1.791-4-4-4   C147.79,182,146,183.79,145.999,186L145.999,186z"/>
	<path style="fill:#54596E;" d="M117.999,186c0.003,9.943,8.059,17.997,18,17.999c9.941-0.002,17.997-8.056,18-17.999   c0-2.21-1.791-4-4-4c-2.209,0-4,1.79-4,4c-0.01,5.521-4.481,9.989-10,10c-5.52-0.011-9.99-4.479-10-10c0-2.21-1.791-4-4-4   C119.79,182,118,183.79,117.999,186L117.999,186z"/>
	<path style="fill:#54596E;" d="M177.647,175.989l78.555-8c1.099-0.112,1.899-1.094,1.787-2.192   c-0.112-1.099-1.093-1.899-2.192-1.787l-78.555,8c-1.099,0.112-1.899,1.094-1.787,2.192   C175.567,175.301,176.548,176.102,177.647,175.989"/>
	<path style="fill:#54596E;" d="M180.689,163.877l65.332-24c1.037-0.381,1.569-1.53,1.188-2.567   c-0.381-1.036-1.53-1.568-2.567-1.188l-65.332,24c-1.037,0.381-1.569,1.53-1.188,2.567   C178.503,163.726,179.652,164.258,180.689,163.877"/>
	<path style="fill:#54596E;" d="M122.756,172.01l-78.555-8c-1.099-0.112-2.08,0.688-2.192,1.787   c-0.112,1.099,0.688,2.08,1.787,2.192l78.555,8c1.099,0.112,2.08-0.688,2.192-1.787   C124.656,173.104,123.856,172.122,122.756,172.01"/>
	<path style="fill:#54596E;" d="M120.689,160.122l-65.332-24c-1.037-0.381-2.186,0.151-2.567,1.188   c-0.381,1.037,0.151,2.187,1.188,2.567l65.332,24c1.037,0.381,2.186-0.151,2.567-1.188   C122.257,161.652,121.726,160.503,120.689,160.122"/>
</g>















</svg>
