<?xml version="1.0" encoding="iso-8859-1"?>
<!-- Generator: Adobe Illustrator 21.0.0, SVG Export Plug-In . SVG Version: 6.00 Build 0)  -->
<svg xmlns="http://www.w3.org/2000/svg" xmlns:xlink="http://www.w3.org/1999/xlink" version="1.1" id="cold" x="0px" y="0px" viewBox="0 0 300 300" style="enable-background:new 0 0 300 300;" xml:space="preserve" width="512" height="512">
<g>
	<path style="fill:#EEEEF0;" d="M194.431,250.558C180.757,256.61,165.749,260,150.002,260c-15.749,0-30.758-3.391-44.433-9.442   c-16.786,2.197-27.568,5.61-27.568,9.442c0,6.627,32.232,12,72.001,12c39.765,0,71.997-5.373,71.997-12   C221.999,256.168,211.217,252.755,194.431,250.558"/>
	<path style="fill:#FFF35F;" d="M262,139.853c0-61.855-50.146-107.851-111.998-107.851C88.146,32.002,38,77.998,38,139.853   c0,61.856,50.146,116.149,112.002,116.149C211.854,256.002,262,201.709,262,139.853"/>
	<path style="fill:#54596E;" d="M262,139.853h3.999c0.011-32.022-13.02-60.089-34.049-80.024   C210.925,39.877,181.922,27.996,150.002,28c-31.924-0.004-60.927,11.878-81.952,31.829c-21.029,19.936-34.06,48.002-34.049,80.024   c0.004,32.02,12.959,62.009,33.904,84.027C88.843,245.895,117.88,260,150.002,260c32.118,0,61.155-14.105,82.093-36.12   c20.945-22.019,33.9-52.008,33.904-84.027H262h-3.999c0.004,29.837-12.11,57.923-31.703,78.513   C206.698,238.957,179.736,252,150.002,252c-29.738,0-56.7-13.043-76.3-33.634c-19.593-20.59-31.707-48.676-31.703-78.513   c0.011-29.837,12.053-55.698,31.558-74.221C93.07,47.121,120.066,36,150.002,36c29.932,0,56.928,11.12,76.441,29.632   c19.505,18.522,31.547,44.384,31.558,74.221H262"/>
	<path style="fill:#EEE361;" d="M257.068,126.076c-6.87,53.565-52.168,97.927-107.067,97.927s-100.2-44.361-107.067-97.927   c-0.592,4.521-0.934,9.14-0.937,13.869c0.021,29.802,12.13,57.852,31.703,78.421C93.302,238.957,120.264,252,150.002,252l0,0l0,0   c29.734,0,56.696-13.043,76.297-33.634c19.574-20.57,31.683-48.618,31.703-78.423C257.998,135.214,257.656,130.596,257.068,126.076   "/>
	<path style="fill:#54596E;" d="M41.999,139.945c0,0.019,0,0.038,0,0.057C41.998,199.645,90.351,252,150.002,252   c-29.738,0-56.7-13.043-76.3-33.634C54.129,197.796,42.02,169.747,41.999,139.945 M258.001,139.943   c-0.02,29.805-12.129,57.853-31.703,78.423C206.698,238.957,179.736,252,150.002,252c59.647,0,108-52.354,108-111.998   C258.001,139.982,258.001,139.962,258.001,139.943"/>
	<circle style="fill:#ADF2A2;" cx="110" cy="112" r="20"/>
	<circle style="fill:#ADF2A2;" cx="190" cy="112" r="20"/>
	<circle style="fill:#54596E;" cx="114" cy="104" r="8"/>
	<circle style="fill:#54596E;" cx="186" cy="104" r="8"/>
	<path style="fill:#54596E;" d="M106,192h86.342l6.83,6.829c1.562,1.562,4.094,1.562,5.657,0c1.562-1.562,1.562-4.095,0-5.656   l-8-8.001C196.083,184.426,195.053,184,194,184h-88c-2.209,0-4,1.79-4,4C102,190.209,103.791,192,106,192L106,192z"/>
	<path style="fill:#E8CD5B;" d="M170,196h-40c-2.209,0-4,1.79-4,4c0,2.209,1.791,4,4,4h40c2.209,0,4-1.791,4-4   C174,197.791,172.209,196,170,196"/>
	<path style="fill:#ADF2A2;" d="M154,140h-4h-16v28c0,4.418,3.582,8,8,8s8-3.582,8-8v-12c0,4.418,3.582,8,8,8s8-3.582,8-8v-16H154z"/>
	<path style="fill:#54596E;" d="M154,140v-4h-4h-16c-1.053,0-2.084,0.426-2.829,1.171S130,138.947,130,140v28   c0.003,6.629,5.371,11.997,12,11.999c6.629-0.002,11.997-5.37,12-11.999v-12c0-1.054-0.427-2.084-1.171-2.829   C152.084,152.427,151.053,152,150,152c-1.053,0-2.084,0.426-2.829,1.171S146,154.947,146,156c0.003,6.629,5.371,11.997,12,11.999   c6.629-0.002,11.997-5.37,12-11.999l0-16c0-1.054-0.427-2.084-1.172-2.829S167.053,136,166,136h-12V140V144h8L162,156   c-0.004,2.206-1.793,3.995-4,4c-2.207-0.005-3.996-1.794-4-4c0-1.054-0.427-2.084-1.171-2.829C152.084,152.427,151.053,152,150,152   c-1.053,0-2.084,0.426-2.829,1.171S146,154.947,146,156v12c-0.004,2.206-1.793,3.995-4,4c-2.207-0.005-3.996-1.794-4-4v-24h12h4   V140z"/>
	<path style="fill:#FF9999;" d="M174,132c0-13.255-10.746-24-24-24s-24,10.745-24,24s10.746,8,24,8S174,145.255,174,132z"/>
	<path style="fill:#54596E;" d="M174,132h4c-0.003-15.466-12.535-27.998-28-28c-15.465,0.002-27.997,12.534-28,28   c0.002,2.146,0.234,4.047,0.808,5.788c0.429,1.3,1.071,2.511,1.935,3.532c1.292,1.548,3.037,2.543,4.737,3.051   c1.713,0.52,3.411,0.65,5.12,0.654c4.785-0.028,9.98-1.043,15.401-1.026c5.419-0.017,10.614,0.999,15.4,1.027   c1.521-0.002,3.029-0.109,4.551-0.495c2.258-0.535,4.668-1.965,6.096-4.292c1.439-2.309,1.945-5.038,1.952-8.239H174h-4   c0.002,1.548-0.184,2.624-0.401,3.27c-0.164,0.489-0.325,0.734-0.456,0.893c-0.2,0.221-0.376,0.367-0.965,0.561   c-0.575,0.182-1.531,0.309-2.778,0.305c-3.55,0.028-9.097-1.011-15.4-1.027c-6.304,0.017-11.851,1.055-15.401,1.026   c-1.108,0.002-1.989-0.095-2.572-0.247c-0.9-0.271-1.008-0.397-1.31-0.811c-0.29-0.432-0.725-1.627-0.718-3.969   c0.002-5.536,2.233-10.511,5.858-14.143c3.632-3.626,8.607-5.855,14.142-5.858c5.535,0.003,10.51,2.232,14.142,5.858   c3.626,3.632,5.856,8.606,5.858,14.143H174z"/>
</g>















</svg>
