<?xml version="1.0" encoding="iso-8859-1"?>
<!-- Generator: Adobe Illustrator 21.0.0, SVG Export Plug-In . SVG Version: 6.00 Build 0)  -->
<svg xmlns="http://www.w3.org/2000/svg" xmlns:xlink="http://www.w3.org/1999/xlink" version="1.1" id="confused" x="0px" y="0px" viewBox="0 0 300 300" style="enable-background:new 0 0 300 300;" xml:space="preserve" width="512" height="512">
<g>
	<path style="fill:#EEEEF0;" d="M194.431,250.558C180.757,256.61,165.749,260,150.002,260c-15.749,0-30.758-3.391-44.433-9.442   c-16.786,2.197-27.568,5.61-27.568,9.442c0,6.627,32.232,12,72.001,12c39.765,0,71.997-5.373,71.997-12   C221.999,256.168,211.217,252.755,194.431,250.558"/>
	<path style="fill:#FFF35F;" d="M262,139.853c0-61.855-50.146-107.851-111.998-107.851C88.146,32.002,38,77.998,38,139.853   c0,61.856,50.146,116.149,112.002,116.149C211.854,256.002,262,201.709,262,139.853"/>
	<path style="fill:#54596E;" d="M262,139.853h3.999c0.011-32.022-13.02-60.089-34.049-80.024   C210.925,39.877,181.922,27.996,150.002,28c-31.924-0.004-60.927,11.878-81.952,31.829c-21.029,19.936-34.06,48.002-34.049,80.024   c0.004,32.02,12.959,62.009,33.904,84.027C88.843,245.895,117.88,260,150.002,260c32.118,0,61.155-14.105,82.093-36.12   c20.945-22.019,33.9-52.008,33.904-84.027H262h-3.999c0.004,29.837-12.11,57.923-31.703,78.513   C206.698,238.957,179.736,252,150.002,252c-29.738,0-56.7-13.043-76.301-33.634c-19.593-20.59-31.707-48.676-31.703-78.513   c0.011-29.837,12.053-55.698,31.558-74.221C93.07,47.121,120.066,36,150.002,36c29.932,0,56.928,11.12,76.441,29.632   c19.506,18.522,31.547,44.384,31.558,74.221H262"/>
	<path style="fill:#EEE361;" d="M257.069,126.076c-6.87,53.565-52.168,97.927-107.067,97.927c-54.899,0-100.2-44.361-107.067-97.927   c-0.594,4.539-0.933,9.177-0.933,13.926c0,1.016,0.014,2.032,0.042,3.043c0.825,28.645,12.764,55.466,31.657,75.321   C93.302,238.957,120.264,252,150.002,252l0,0l0,0c29.734,0,56.696-13.043,76.297-33.634c19.574-20.57,31.683-48.618,31.703-78.423   C257.999,135.214,257.656,130.596,257.069,126.076"/>
	<path style="fill:#54596E;" d="M42.044,143.044C43.652,201.416,91.367,252,150.002,252c-29.738,0-56.7-13.043-76.301-33.634   C54.808,198.51,42.869,171.689,42.044,143.044 M258.001,139.943c-0.02,29.805-12.129,57.853-31.703,78.423   C206.698,238.957,179.736,252,150.002,252c59.647,0,108-52.354,108-111.998C258.001,139.982,258.001,139.962,258.001,139.943"/>
	<path style="fill:#54596E;" d="M182,188c0-17.673-14.328-32-32-32s-32,14.327-32,32H182z"/>
	<path style="fill:#54596E;" d="M182,188h4c-0.003-19.884-16.117-35.998-36-36c-19.883,0.002-35.997,16.116-36,36   c0,1.053,0.427,2.083,1.171,2.828S116.947,192,118,192h64c1.053,0,2.083-0.428,2.828-1.172c0.745-0.745,1.171-1.775,1.171-2.828   H182v-4h-64v4h4c0.002-7.745,3.128-14.72,8.202-19.8c5.08-5.073,12.054-8.198,19.799-8.201c7.744,0.003,14.719,3.128,19.798,8.201   c5.073,5.08,8.199,12.055,8.202,19.8H182v-4V188z"/>
	<path style="fill:#FF9999;" d="M166,184c0-8.837-7.164-16-16-16s-16,7.163-16,16"/>
	<circle style="fill:#FFF35F;" cx="200" cy="118" r="10"/>
	<path style="fill:#54596E;" d="M210,118h4c-0.002-7.733-6.266-13.998-14-14c-7.734,0.002-13.998,6.267-14,14   c0.002,7.732,6.266,13.997,14,13.999c7.734-0.002,13.997-6.267,14-13.999H210h-4c-0.006,3.312-2.688,5.993-6,6   c-3.313-0.007-5.994-2.688-6-6c0.006-3.312,2.688-5.994,6-6.001c3.312,0.007,5.994,2.688,6,6.001H210z"/>
	<circle style="fill:#FFF35F;" cx="100" cy="118" r="10"/>
	<path style="fill:#54596E;" d="M110,118h4c-0.002-7.733-6.266-13.998-14-14c-7.734,0.002-13.998,6.267-14,14   c0.002,7.732,6.266,13.997,14,13.999c7.734-0.002,13.997-6.267,14-13.999H110h-4c-0.006,3.312-2.688,5.993-6,6   c-3.313-0.007-5.994-2.688-6-6c0.006-3.312,2.688-5.994,6-6.001c3.312,0.007,5.994,2.688,6,6.001H110z"/>
	<path style="fill:#54596E;" d="M178,100h32c2.209,0,4-1.791,4-4c0-2.21-1.791-4-4-4h-32c-2.209,0-4,1.79-4,4   C174,98.209,175.791,100,178,100"/>
	<path style="fill:#54596E;" d="M79.227,103.328l31.258-6.84c2.158-0.473,3.525-2.604,3.052-4.763s-2.604-3.524-4.763-3.053   l-31.258,6.84c-2.158,0.473-3.525,2.604-3.052,4.763S77.068,103.799,79.227,103.328"/>
</g>















</svg>
