<?xml version="1.0" encoding="iso-8859-1"?>
<!-- Generator: Adobe Illustrator 21.0.0, SVG Export Plug-In . SVG Version: 6.00 Build 0)  -->
<svg xmlns="http://www.w3.org/2000/svg" xmlns:xlink="http://www.w3.org/1999/xlink" version="1.1" id="cry" x="0px" y="0px" viewBox="0 0 300 300" style="enable-background:new 0 0 300 300;" xml:space="preserve" width="512" height="512">
<g>
	<path style="fill:#EEEEF0;" d="M194.43,250.558C180.755,256.61,165.749,260,150.002,260c-15.749,0-30.755-3.39-44.43-9.44   C88.785,252.754,78,256.167,78,260C78,266.626,110.239,272,150.002,272S222,266.626,222,260   C222,256.167,211.216,252.754,194.43,250.558"/>
	<ellipse style="fill:#A1B7FF;" cx="92.001" cy="256.001" rx="30" ry="5.333"/>
	<ellipse style="fill:#A1B7FF;" cx="208.001" cy="256.001" rx="30" ry="5.333"/>
	<path style="fill:#FFF35F;" d="M262,139.852C262,77.997,211.858,32,150.002,32S38,77.997,38,139.852S88.146,256,150.002,256   S262,201.708,262,139.852"/>
	<path style="fill:#54596E;" d="M262,139.852h4c0.012-32.019-13.021-60.088-34.05-80.022C210.924,39.878,181.922,28,150.002,28   c-31.924,0-60.926,11.879-81.952,31.83C47.021,79.764,33.992,107.833,34,139.852s12.962,62.009,33.908,84.026   C88.843,245.896,117.881,260,150.002,260c32.117,0,61.155-14.104,82.094-36.121c20.943-22.018,33.9-52.008,33.904-84.026H262h-4   c0.008,29.837-12.107,57.922-31.7,78.515c-19.6,20.592-46.563,33.633-76.298,33.637c-29.739-0.004-56.698-13.045-76.298-33.637   c-19.592-20.593-31.707-48.678-31.703-78.515c0.012-29.833,12.052-55.693,31.558-74.219C93.072,47.12,120.066,36.004,150.002,36   c29.932,0.004,56.93,11.119,76.443,29.633c19.506,18.525,31.546,44.386,31.554,74.219H262"/>
	<path style="fill:#EEE361;" d="M257.066,126.075C250.199,179.643,204.9,224,150.002,224S49.805,179.643,42.934,126.075   c-0.592,4.521-0.93,9.14-0.933,13.867c0.02,29.805,12.13,57.853,31.703,78.425c19.6,20.592,46.559,33.633,76.298,33.637l0,0l0,0   C179.737,252,206.7,238.958,226.3,218.367c19.572-20.571,31.682-48.617,31.699-78.42   C257.997,135.217,257.658,130.597,257.066,126.075"/>
	<path style="fill:#54596E;" d="M257.999,139.947c-0.017,29.803-12.128,57.849-31.699,78.42   c-19.6,20.592-46.563,33.633-76.298,33.637c59.647,0,107.997-52.355,107.997-112.002   C257.999,139.983,257.999,139.965,257.999,139.947 M42.001,139.942c0,0.02,0,0.04,0,0.06c0,59.646,48.354,112.002,108.001,112.002   c-29.739-0.004-56.698-13.045-76.298-33.637C54.131,197.794,42.021,169.747,42.001,139.942"/>
	<path style="fill:#54596E;" d="M179.091,154.653c-5.052-11.007-16.182-18.648-29.09-18.651   c-12.63,0.003-23.563,7.321-28.757,17.949c-0.971,1.984-0.15,4.38,1.834,5.352c1.984,0.971,4.38,0.15,5.352-1.834   c3.908-7.977,12.092-13.471,21.571-13.468c9.686-0.003,18.02,5.734,21.82,13.993c0.922,2.007,3.297,2.887,5.305,1.964   C179.133,159.036,180.013,156.661,179.091,154.653L179.091,154.653z"/>
	<path style="fill:#54596E;" d="M82.001,108.001h32c1.053,0,2.084-0.428,2.828-1.172l8-8c1.562-1.562,1.562-4.095,0-5.657   c-1.562-1.562-4.095-1.562-5.657,0.001L112.344,100l-30.343,0.001c-2.209,0-4,1.79-4,4   C78.001,106.21,79.792,108.001,82.001,108.001z"/>
	<polygon style="fill:#A1B7FF;" points="110.001,256.001 74.001,256.001 82.001,108.001 110.001,108.001  "/>
	<path style="fill:#54596E;" d="M218.001,100.001h-30.343l-6.829-6.829c-1.562-1.562-4.095-1.562-5.658,0s-1.562,4.096,0.001,5.658   l8,7.999c0.745,0.744,1.775,1.172,2.828,1.172h32c2.209,0,4-1.791,4-4C222.001,101.792,220.21,100.001,218.001,100.001z"/>
	<polygon style="fill:#A1B7FF;" points="190.001,256.001 226.001,256.001 218.001,108.001 190.001,108.001  "/>
</g>















</svg>
