<?xml version="1.0" encoding="iso-8859-1"?>
<!-- Generator: Adobe Illustrator 21.0.0, SVG Export Plug-In . SVG Version: 6.00 Build 0)  -->
<svg xmlns="http://www.w3.org/2000/svg" xmlns:xlink="http://www.w3.org/1999/xlink" version="1.1" id="dead-sick" x="0px" y="0px" viewBox="0 0 300 300" style="enable-background:new 0 0 300 300;" xml:space="preserve" width="512" height="512">
<g>
	<path style="fill:#EEEEF0;" d="M105.568,244.557c-16.786,2.197-27.569,5.61-27.569,9.442c0,6.63,32.236,12.003,71.999,12.003   s72.003-5.373,72.003-12.003c0-3.832-10.783-7.245-27.57-9.442c-13.675,6.052-28.685,9.442-44.434,9.442   C134.249,254,119.243,250.61,105.568,244.557"/>
	<path style="fill:#ADF2A2;" d="M262.001,133.854c0-61.855-50.148-107.852-112.003-107.852s-112,45.996-112,107.852   s50.144,116.147,112,116.147S262.001,195.709,262.001,133.854"/>
	<path style="fill:#54596E;" d="M262.001,133.854H266c0.012-32.023-13.02-60.087-34.052-80.024   C210.924,33.877,181.922,22,149.998,22c-31.921,0-60.922,11.878-81.946,31.83C47.02,73.767,33.988,101.831,34,133.854   c0.004,32.019,12.96,62.005,33.906,84.025C88.844,239.897,117.881,254,149.998,254c32.121,0,61.158-14.103,82.096-36.12   c20.942-22.021,33.902-52.007,33.906-84.025H262.001h-4.002c0.004,29.836-12.11,57.92-31.7,78.511   c-19.602,20.595-46.563,33.634-76.301,33.638c-29.734-0.004-56.695-13.043-76.297-33.638c-19.59-20.591-31.708-48.675-31.7-78.511   c0.008-29.837,12.05-55.694,31.554-74.222C93.071,41.122,120.067,30.004,149.998,30c29.935,0.004,56.931,11.121,76.443,29.632   c19.508,18.527,31.546,44.385,31.558,74.222H262.001"/>
	<path style="fill:#A4E29D;" d="M257.065,120.074c-6.87,53.571-52.169,97.929-107.067,97.929   c-54.899,0-100.197-44.357-107.064-97.929c-0.592,4.524-0.931,9.142-0.933,13.873c0.017,29.802,12.13,57.849,31.7,78.418   c19.602,20.595,46.563,33.634,76.297,33.638l0,0l0,0c29.738-0.004,56.699-13.043,76.301-33.638   c19.57-20.569,31.679-48.617,31.7-78.42C257.996,129.214,257.658,124.597,257.065,120.074"/>
	<path style="fill:#54596E;" d="M42.001,133.947c0,0.019,0,0.038,0,0.057c0,59.646,48.352,111.999,107.997,111.999   c-29.734-0.004-56.695-13.043-76.297-33.638C54.131,191.795,42.018,163.749,42.001,133.947 M257.999,133.945   c-0.021,29.803-12.13,57.851-31.7,78.42c-19.602,20.595-46.563,33.634-76.301,33.638c59.65,0,108.001-52.354,108.001-111.999   C257.999,133.984,257.999,133.964,257.999,133.945"/>
	<path style="fill:#54596E;" d="M95.171,132.83l20,20c1.562,1.562,4.095,1.562,5.657,0c1.562-1.562,1.562-4.095,0-5.657l-20-20   c-1.562-1.562-4.095-1.562-5.657,0C93.609,128.735,93.609,131.267,95.171,132.83"/>
	<path style="fill:#54596E;" d="M100.828,152.83l20-20c1.562-1.562,1.562-4.095,0-5.657c-1.562-1.562-4.095-1.562-5.657,0l-20,20   c-1.562,1.562-1.562,4.095,0,5.657C96.733,154.391,99.266,154.391,100.828,152.83"/>
	<path style="fill:#54596E;" d="M175.171,132.83l20,20c1.562,1.562,4.095,1.562,5.657,0c1.562-1.562,1.562-4.095,0-5.657l-20-20   c-1.562-1.562-4.095-1.562-5.657,0C173.609,128.735,173.609,131.267,175.171,132.83"/>
	<path style="fill:#54596E;" d="M180.828,152.83l20-20c1.562-1.562,1.562-4.095,0-5.657c-1.562-1.562-4.095-1.562-5.657,0l-20,20   c-1.562,1.562-1.562,4.095,0,5.657C176.733,154.391,179.266,154.391,180.828,152.83"/>
	<path style="fill:#54596E;" d="M174,206.001h-52l4-18c4-14,9.85-22,22-22s18,8,22,22L174,206.001z"/>
	<path style="fill:#54596E;" d="M174,206.001v-4h-47.014l2.919-13.133L126,188.001l3.846,1.099   c1.904-6.715,4.232-11.646,7.029-14.628c1.402-1.504,2.896-2.568,4.665-3.312c1.77-0.737,3.857-1.157,6.459-1.16   c2.603,0.003,4.689,0.423,6.459,1.16c2.638,1.114,4.729,2.953,6.675,5.912c1.929,2.947,3.588,7,5.019,12.027l3.846-1.099   l-3.905,0.867l4,18L174,206.001v-4V206.001l3.905-0.868l-4-18l-0.059-0.231c-2.096-7.285-4.693-13.354-8.858-17.872   c-2.079-2.246-4.576-4.057-7.445-5.251c-2.869-1.2-6.07-1.78-9.542-1.777c-3.473-0.003-6.674,0.577-9.543,1.777   c-4.321,1.792-7.729,4.968-10.293,8.924c-2.581,3.967-4.442,8.727-6.011,14.199l-0.059,0.231l-4,18   c-0.264,1.186,0.025,2.424,0.785,3.371S120.785,210,122,210h52c1.214,0,2.36-0.549,3.12-1.496c0.76-0.947,1.048-2.186,0.785-3.371   L174,206.001z"/>
	<path style="fill:#FFF35F;" d="M162,206.001h-40v12v4v42c0,3.313,4.686,6,8,6s8-2.687,8-6v-42h12v23.572   c0,3.985,2.723,7.679,6.656,8.318c5.014,0.815,9.344-3.032,9.344-7.891v-24c6.627,0,12-9.373,12-16H162z"/>
	<path style="fill:#54596E;" d="M162,206.001v-4h-40c-1.053,0-2.084,0.426-2.828,1.171c-0.745,0.745-1.172,1.775-1.172,2.829v12v4   v42c-0.001,1.788,0.643,3.374,1.482,4.594c1.281,1.841,2.971,3.07,4.758,3.967c1.802,0.878,3.714,1.425,5.76,1.438   c2.718-0.035,5.241-0.946,7.503-2.457c1.119-0.771,2.166-1.716,3.015-2.948c0.84-1.22,1.484-2.806,1.482-4.594V226h4l0,19.574   c0.005,2.905,0.977,5.661,2.7,7.875c1.715,2.208,4.271,3.898,7.314,4.391l0.006,0.001c0.664,0.107,1.327,0.16,1.98,0.159   c6.631-0.003,11.997-5.372,12-11.998v-24h-4V226c2.617,0.002,4.992-0.936,6.929-2.267c2.918-2.018,5.063-4.89,6.607-7.986   c1.524-3.111,2.449-6.458,2.464-9.746c0-1.054-0.427-2.084-1.172-2.829c-0.745-0.744-1.775-1.171-2.828-1.171h-16V206.001v4h16v-4   h-4c0.036,2.252-1.068,5.729-2.815,8.225c-0.858,1.26-1.852,2.28-2.773,2.905c-0.934,0.634-1.716,0.868-2.412,0.87   c-1.053,0-2.084,0.426-2.828,1.171c-0.745,0.745-1.172,1.775-1.172,2.829v24c-0.004,2.203-1.793,3.994-4,3.999l-0.707-0.058   l0.006,0.001c-0.89-0.147-1.663-0.623-2.292-1.419c-0.621-0.789-1.01-1.872-1.006-2.951v-23.572c0-1.054-0.427-2.084-1.172-2.829   c-0.745-0.744-1.775-1.171-2.828-1.171h-12c-1.053,0-2.084,0.426-2.828,1.171c-0.745,0.745-1.172,1.775-1.172,2.829v42h0.285   l-0.274-0.095l-0.01,0.095h0.285l-0.274-0.095l-0.326,0.451c-0.353,0.382-1.042,0.863-1.781,1.177   c-0.732,0.325-1.52,0.476-1.903,0.467c-0.597,0.035-2.073-0.397-2.983-1.059c-0.466-0.315-0.798-0.662-0.932-0.865l-0.096-0.171   l-0.275,0.095H126l-0.01-0.095l-0.275,0.095H126v-42l0-4l0-8.002L162,210V206.001z"/>
	<ellipse style="fill:#FFF35F;" cx="186" cy="266.001" rx="16" ry="8"/>
	<path style="fill:#54596E;" d="M202,266.001h4c0.007-2.215-0.934-4.218-2.204-5.698c-1.929-2.242-4.55-3.687-7.571-4.726   c-3.028-1.02-6.505-1.574-10.226-1.576c-4.963,0.011-9.483,0.97-13.102,2.765c-1.808,0.91-3.414,2.035-4.694,3.537   c-1.269,1.48-2.211,3.483-2.204,5.698c-0.007,2.214,0.934,4.217,2.204,5.697c1.929,2.242,4.55,3.687,7.571,4.726   c3.028,1.02,6.505,1.574,10.226,1.576c4.963-0.011,9.483-0.97,13.102-2.765c1.808-0.91,3.414-2.035,4.694-3.537   c1.269-1.48,2.211-3.483,2.204-5.697H202h-4c-0.007,0,0.039,0.096-0.311,0.53c-0.5,0.628-1.937,1.627-4.023,2.313   c-2.079,0.705-4.759,1.158-7.665,1.156c-3.873,0.011-7.353-0.821-9.525-1.922c-1.088-0.538-1.824-1.137-2.164-1.548   c-0.35-0.435-0.304-0.53-0.311-0.53c0.007-0.001-0.039-0.097,0.311-0.531c0.5-0.628,1.937-1.627,4.023-2.313   c2.079-0.705,4.759-1.158,7.665-1.156c3.873-0.011,7.353,0.821,9.525,1.922c1.088,0.538,1.824,1.137,2.164,1.548   c0.35,0.435,0.304,0.53,0.311,0.531H202z"/>
	<path style="fill:#ADF2A2;" d="M106,102.001c0,0,0.572-42.286-25.715-53.143"/>
	<path style="fill:#54596E;" d="M109.999,102.05l0.001-0.266c-0.007-1.851-0.126-12.766-3.564-24.88   c-1.728-6.058-4.289-12.435-8.216-18.122c-3.916-5.677-9.279-10.683-16.409-13.621c-2.042-0.844-4.381,0.128-5.224,2.17   c-0.843,2.042,0.129,4.381,2.171,5.225c5.465,2.261,9.615,6.063,12.882,10.776c4.893,7.048,7.58,16.127,8.929,23.722   c1.363,7.592,1.434,13.671,1.432,14.73L102,101.952c-0.028,2.209,1.741,4.021,3.95,4.049   C108.159,106.028,109.972,104.26,109.999,102.05L109.999,102.05z"/>
	<line style="fill:#ADF2A2;" x1="82" y1="66.001" x2="102" y2="50.001"/>
	<path style="fill:#54596E;" d="M84.498,69.125l20-16c1.725-1.38,2.005-3.897,0.625-5.622c-1.38-1.726-3.897-2.005-5.622-0.625   l-20,16c-1.725,1.38-2.005,3.897-0.625,5.622C80.256,70.225,82.773,70.504,84.498,69.125"/>
	<line style="fill:#ADF2A2;" x1="94" y1="94.001" x2="118" y2="90.001"/>
	<path style="fill:#54596E;" d="M94.657,97.947l24-4c2.179-0.363,3.651-2.424,3.288-4.604c-0.363-2.179-2.424-3.651-4.603-3.288   l-24,4c-2.179,0.363-3.651,2.424-3.288,4.604C90.417,96.837,92.478,98.31,94.657,97.947"/>
	<line style="fill:#ADF2A2;" x1="90" y1="78.001" x2="114" y2="70.001"/>
	<path style="fill:#54596E;" d="M91.265,81.795l24-8c2.096-0.698,3.228-2.964,2.53-5.06c-0.699-2.096-2.964-3.229-5.06-2.529l-24,8   c-2.096,0.698-3.228,2.964-2.53,5.06C86.903,81.362,89.169,82.495,91.265,81.795"/>
</g>















</svg>
