<?xml version="1.0" encoding="iso-8859-1"?>
<!-- Generator: Adobe Illustrator 21.0.0, SVG Export Plug-In . SVG Version: 6.00 Build 0)  -->
<svg xmlns="http://www.w3.org/2000/svg" xmlns:xlink="http://www.w3.org/1999/xlink" version="1.1" id="dead" x="0px" y="0px" viewBox="0 0 300 300" style="enable-background:new 0 0 300 300;" xml:space="preserve" width="512" height="512">
<g>
	<path style="fill:#EEEEF0;" d="M194.433,250.557c-13.676,6.053-28.685,9.443-44.433,9.441c-0.004,0-0.008,0-0.012,0   c-15.746,0-30.751-3.391-44.425-9.441c-16.784,2.198-27.566,5.612-27.566,9.445c0,6.624,32.237,12,72.003,12   c39.762,0,71.999-5.376,71.999-12C221.999,256.169,211.217,252.754,194.433,250.557"/>
	<path style="fill:#FFFFFF;" d="M261.998,139.853c0-61.855-50.143-107.852-111.998-107.852S37.999,77.997,37.999,139.853   c0,61.854,50.146,116.146,112.001,116.146S261.998,201.707,261.998,139.853"/>
	<path style="fill:#54596E;" d="M261.998,139.853H266c0.01-32.021-13.024-60.089-34.052-80.024   c-21.025-19.949-50.026-31.83-81.948-31.83s-60.927,11.881-81.948,31.83C47.02,79.764,33.99,107.831,34,139.853   c0.003,32.018,12.962,62.006,33.904,84.026c20.936,22.018,49.975,36.123,82.096,36.119c32.117,0.004,61.157-14.102,82.092-36.119   c20.946-22.021,33.901-52.009,33.908-84.026H261.998h-3.999c0.007,29.837-12.109,57.921-31.703,78.511   c-19.6,20.594-46.562,33.638-76.296,33.638c-29.738,0-56.699-13.044-76.299-33.638c-19.59-20.59-31.706-48.674-31.703-78.511   c0.01-29.837,12.051-55.696,31.559-74.222C93.068,47.119,120.064,36.003,150,35.999c29.933,0.004,56.928,11.12,76.443,29.632   c19.505,18.525,31.545,44.385,31.556,74.222H261.998"/>
	<path style="fill:#EEEEF0;" d="M257.064,126.075c-6.868,53.566-52.166,97.924-107.064,97.924   c-54.898,0-100.2-44.357-107.068-97.924c-0.59,4.521-0.932,9.138-0.935,13.865c0.02,29.805,12.132,57.854,31.703,78.423   c19.6,20.594,46.562,33.638,76.299,33.638l0,0l0,0c29.734,0,56.696-13.044,76.296-33.638   c19.573-20.568,31.685-48.616,31.703-78.419C257.996,135.215,257.658,130.598,257.064,126.075"/>
	<path style="fill:#54596E;" d="M257.999,139.944c-0.018,29.803-12.13,57.851-31.703,78.419   c-19.6,20.594-46.562,33.638-76.296,33.638c59.647,0,107.999-52.354,107.999-112.001   C257.999,139.981,257.999,139.963,257.999,139.944 M41.998,139.94c0,0.02,0,0.04,0,0.06c0,59.646,48.356,112.001,108.002,112.001   c-29.738,0-56.699-13.044-76.299-33.638C54.13,197.794,42.018,169.745,41.998,139.94"/>
	<path style="fill:#54596E;" d="M72.047,159.722c8.282,6.268,19.576,11.271,32.901,14.786c13.324,3.506,28.684,5.49,45.051,5.491   c16.564-0.001,32.097-2.034,45.532-5.619c13.436-3.596,24.78-8.707,33.014-15.115c1.742-1.359,2.052-3.872,0.693-5.614   c-1.359-1.741-3.872-2.052-5.613-0.692c-7.016,5.485-17.48,10.318-30.157,13.693c-12.678,3.386-27.563,5.35-43.469,5.349   c-15.717,0.001-30.436-1.917-43.015-5.229c-12.578-3.302-23.009-8.031-30.104-13.424c-1.76-1.335-4.27-0.99-5.604,0.771   C69.941,155.878,70.287,158.388,72.047,159.722L72.047,159.722z"/>
	<path style="fill:#54596E;" d="M125.999,108h4c-0.003-8.839-7.162-15.998-16-16c-8.838,0.002-15.997,7.161-16,16   c0.003,8.838,7.162,15.997,16,15.999c8.838-0.002,15.997-7.161,16-15.999H125.999h-4c-0.008,4.415-3.584,7.991-8,8   c-4.416-0.009-7.992-3.585-8-8c0.008-4.416,3.584-7.992,8-8.001c4.416,0.009,7.992,3.585,8,8.001H125.999z"/>
	<path style="fill:#54596E;" d="M193.999,108h4c-0.003-8.839-7.162-15.998-16-16c-8.838,0.002-15.997,7.161-16,16   c0.003,8.838,7.162,15.997,16,15.999c8.838-0.002,15.997-7.161,16-15.999H193.999h-4c-0.008,4.415-3.584,7.991-8,8   c-4.416-0.009-7.992-3.585-8-8c0.008-4.416,3.584-7.992,8-8.001c4.416,0.009,7.992,3.585,8,8.001H193.999z"/>
	<circle style="fill:#54596E;" cx="225.999" cy="152" r="8"/>
	<circle style="fill:#54596E;" cx="73.999" cy="152" r="8"/>
	<path style="fill:#54596E;" d="M145.999,164v20c0,2.209,1.791,4,4,4c2.209,0,4-1.791,4-4v-20c0-2.21-1.791-4-4-4   C147.79,160,145.999,161.79,145.999,164"/>
	<path style="fill:#54596E;" d="M110.421,162.211l-8,16c-0.988,1.976-0.187,4.378,1.789,5.366s4.379,0.188,5.367-1.789l8-16   c0.988-1.976,0.187-4.378-1.789-5.366S111.409,160.234,110.421,162.211"/>
	<path style="fill:#54596E;" d="M182.421,165.788l8,16c0.988,1.977,3.391,2.777,5.367,1.789s2.777-3.391,1.789-5.366l-8-16   c-0.988-1.977-3.391-2.777-5.367-1.789S181.433,163.812,182.421,165.788"/>
</g>















</svg>
