<?xml version="1.0" encoding="iso-8859-1"?>
<!-- Generator: Adobe Illustrator 21.0.0, SVG Export Plug-In . SVG Version: 6.00 Build 0)  -->
<svg xmlns="http://www.w3.org/2000/svg" xmlns:xlink="http://www.w3.org/1999/xlink" version="1.1" id="devil" x="0px" y="0px" viewBox="0 0 300 300" style="enable-background:new 0 0 300 300;" xml:space="preserve" width="512" height="512">
<g>
	<path style="fill:#EEEEF0;" d="M194.354,256.396c-13.673,6.05-28.684,9.442-44.427,9.442c-15.742,0-30.752-3.392-44.427-9.442   c-16.786,2.197-27.572,5.61-27.572,9.442c0,6.626,32.236,12,71.999,12c39.768,0,72.003-5.374,72.003-12   C221.93,262.006,211.144,258.592,194.354,256.396"/>
	<path style="fill:#FFFFFF;" d="M256.335,26.164L176.71,64.783l13.223,4.536c8.652,2.966,16.422,8.047,22.609,14.781l12.727,45.145   L256.335,26.164z"/>
	<path style="fill:#54596E;" d="M256.335,26.164l-1.746-3.6l-79.625,38.618c-1.456,0.705-2.345,2.227-2.247,3.841   c0.098,1.615,1.165,3.017,2.695,3.542l13.223,4.536c8.022,2.75,15.225,7.46,20.962,13.704l2.946-2.706l-3.85,1.085l12.727,45.145   c0.481,1.709,2.039,2.898,3.814,2.914c1.776,0.017,3.353-1.146,3.865-2.846l31.066-103.08c0.459-1.525-0.023-3.164-1.235-4.198   c-1.212-1.033-2.907-1.25-4.34-0.555L256.335,26.164l-3.83-1.154l-27.108,89.946l-9.005-31.942   c-0.172-0.609-0.477-1.156-0.905-1.621c-6.638-7.225-14.974-12.677-24.258-15.858l-4.046-1.389l70.897-34.383L256.335,26.164   l-3.83-1.154L256.335,26.164z"/>
	<path style="fill:#FFFFFF;" d="M40.71,26.164l79.625,38.618l-13.227,4.536C98.46,72.285,90.687,77.366,84.503,84.1l-12.727,45.145   L40.71,26.164z"/>
	<path style="fill:#54596E;" d="M40.71,26.164l-1.746,3.599l70.894,34.384l-4.048,1.388c-9.279,3.182-17.619,8.633-24.254,15.859   c-0.428,0.466-0.732,1.011-0.904,1.62l-9.005,31.942L44.54,25.01L40.71,26.164l-1.746,3.599L40.71,26.164l-3.83,1.153   l31.066,103.08c0.512,1.7,2.09,2.862,3.865,2.846c1.776-0.016,3.333-1.205,3.814-2.914l12.727-45.145l-3.85-1.085l2.946,2.705   c5.732-6.242,12.938-10.953,20.957-13.703l13.227-4.536c1.53-0.525,2.597-1.927,2.695-3.542c0.098-1.614-0.792-3.136-2.247-3.841   L42.455,22.565c-1.434-0.695-3.128-0.479-4.34,0.555c-1.212,1.034-1.695,2.673-1.235,4.198L40.71,26.164z"/>
	<path style="fill:#FF9999;" d="M261.8,140.56c-2.687-59.248-51.739-102.722-111.873-102.722   c-59.98,0-108.938,43.25-111.857,102.269c-9.482,1.363-14.985,11.66-10.29,20.312c4.727,8.714,10.447,16.82,16.939,24.271   c15.698,44.002,56.876,77.147,105.208,77.147c48.04,0,89.001-32.752,104.908-76.353c6.654-7.516,12.519-15.714,17.361-24.538   C276.959,152.26,271.393,141.848,261.8,140.56"/>
	<path style="fill:#54596E;" d="M261.8,140.56l3.994-0.182c-1.383-30.69-14.832-57.415-35.698-76.359   c-20.863-18.956-49.135-30.184-80.169-30.18c-30.951-0.004-59.161,11.168-80.012,30.033c-20.851,18.858-34.339,45.46-35.84,76.037   l3.994,0.197l-0.567-3.959c-4.546,0.646-8.438,2.938-11.145,6.114c-2.706,3.175-4.282,7.248-4.286,11.546   c0,2.844,0.705,5.783,2.19,8.517c4.877,8.99,10.766,17.337,17.439,24.991l3.018-2.627l-3.77,1.343   c8.119,22.746,22.797,42.659,41.729,56.928c18.928,14.264,42.159,22.879,67.248,22.879c24.94,0,48.04-8.513,66.902-22.623   c18.865-14.119,33.539-33.827,41.765-56.364l-3.758-1.367l2.994,2.647c6.835-7.721,12.878-16.155,17.873-25.259   c1.513-2.754,2.23-5.716,2.226-8.588c0-4.321-1.591-8.418-4.333-11.605c-2.734-3.187-6.673-5.472-11.262-6.082L261.8,140.56   l3.994-0.182L261.8,140.56l-0.532,3.963c2.608,0.354,4.731,1.604,6.264,3.372c1.524,1.772,2.399,4.054,2.399,6.39   c-0.004,1.56-0.378,3.151-1.245,4.739c-4.684,8.544-10.376,16.498-16.845,23.81c-0.335,0.374-0.591,0.803-0.764,1.28   c-7.682,21.063-21.442,39.535-39.043,52.696c-17.605,13.161-39.003,21.024-62.108,21.028c-23.242-0.004-44.763-7.962-62.435-21.269   c-17.664-13.308-31.424-31.964-39.007-53.225c-0.169-0.477-0.421-0.902-0.752-1.284c-6.311-7.244-11.857-15.111-16.435-23.55   c-0.855-1.579-1.221-3.159-1.225-4.703c0-2.32,0.863-4.585,2.372-6.354c1.513-1.765,3.616-3.014,6.193-3.388   c1.903-0.271,3.333-1.844,3.427-3.762c1.414-28.446,13.871-52.977,33.22-70.498c19.354-17.511,45.618-27.966,74.643-27.97   c29.1,0.004,55.423,10.51,74.788,28.104c19.366,17.604,31.786,42.245,33.086,70.802c0.091,1.93,1.552,3.525,3.467,3.781   L261.8,140.56"/>
	<path style="fill:#EE9295;" d="M150.48,257.836c-0.011,0-0.016,0-0.027,0C150.463,257.836,150.47,257.836,150.48,257.836    M149.37,257.836c0.01,0,0.018,0,0.028,0C149.388,257.836,149.381,257.836,149.37,257.836"/>
	<path style="fill:#54596E;" d="M175.308,254.607c-7.967,2.062-16.282,3.183-24.828,3.23c-0.01,0-0.017,0-0.027,0   c-0.175,0.001-0.351,0.002-0.526,0.002l0,0l0,0c-0.175,0-0.354-0.001-0.529-0.002c-0.01,0-0.018,0-0.028,0   c-8.545-0.047-16.857-1.168-24.823-3.23c-6.92,0.435-13.332,1.041-19.048,1.789c13.675,6.051,28.685,9.442,44.427,9.442   c15.743,0,30.753-3.393,44.427-9.442C188.638,255.648,182.226,255.04,175.308,254.607"/>
	<path style="fill:#54596E;" d="M251.362,183.499c-0.111,0.194-0.206,0.399-0.284,0.614c-7.682,21.063-21.442,39.535-39.043,52.696   c-10.953,8.188-23.372,14.324-36.758,17.795c0.011,0,0.021,0.001,0.031,0.002C210.547,245.485,239.053,217.945,251.362,183.499    M48.259,182.828c12.176,34.761,40.821,62.597,76.289,71.778c0.011-0.001,0.018-0.002,0.029-0.002   c-13.517-3.504-26.05-9.727-37.084-18.035c-17.664-13.308-31.424-31.964-39.007-53.225   C48.422,183.165,48.346,182.993,48.259,182.828"/>
	<path style="fill:#EE9295;" d="M256.994,131.914c-6.866,53.566-52.168,97.924-107.067,97.924   c-54.898,0-100.197-44.357-107.063-97.924c-0.595,4.538-0.934,9.179-0.934,13.925c0,12.814,2.233,25.296,6.329,36.99   c0.087,0.165,0.162,0.337,0.226,0.517c7.583,21.261,21.344,39.917,39.007,53.225c11.034,8.309,23.567,14.531,37.084,18.035   c7.958,2.063,16.26,3.184,24.794,3.231c0.011,0,0.017,0,0.028,0c0.176,0.001,0.353,0.002,0.529,0.002   c0.175,0,0.352-0.001,0.526-0.002c0.011,0,0.016,0,0.027,0c8.536-0.048,16.838-1.169,24.796-3.231   c13.386-3.471,25.806-9.607,36.758-17.795c17.601-13.161,31.361-31.633,39.043-52.696c0.078-0.215,0.173-0.42,0.284-0.614   c4.249-11.89,6.566-24.599,6.566-37.661C257.928,141.092,257.589,136.452,256.994,131.914z"/>
	<path style="fill:#54596E;" d="M150.453,257.836c-0.175,0.001-0.351,0.002-0.526,0.002   C150.102,257.838,150.279,257.837,150.453,257.836 M149.398,257.836c0.175,0.001,0.354,0.002,0.529,0.002   C149.751,257.838,149.574,257.837,149.398,257.836 M124.577,254.605c-0.011,0-0.018,0.001-0.029,0.002   c7.966,2.062,16.278,3.183,24.823,3.23C140.837,257.788,132.535,256.667,124.577,254.605 M175.276,254.605   c-7.958,2.063-16.261,3.184-24.796,3.231c8.546-0.047,16.861-1.168,24.828-3.23C175.297,254.606,175.287,254.605,175.276,254.605"/>
	<path style="fill:#54596E;" d="M82.761,157.838c-6.605-0.015-10.723,6.849-7.633,12.542c14.215,26.196,42.445,44.045,74.953,44.045   c32.371,0,60.504-17.701,74.773-43.721c3.113-5.678-0.977-12.557-7.578-12.57l-54.645,5.452   c-8.352,0.833-16.762,0.815-25.105-0.053L82.761,157.838z"/>
	<path style="fill:#54596E;" d="M82.761,157.838l0.546-3.963c-0.007,0.002-0.192-0.037-0.568-0.039   c-3.608-0.01-6.853,1.478-9.087,3.779c-2.244,2.297-3.568,5.402-3.571,8.711c-0.003,1.997,0.497,4.061,1.53,5.96   c14.906,27.474,44.476,46.135,78.469,46.138c33.85-0.002,63.318-18.511,78.281-45.797c1.051-1.913,1.557-3.992,1.555-6.003   c-0.003-3.303-1.322-6.404-3.561-8.702c-2.229-2.301-5.468-3.792-9.073-3.788l-0.403,0.02l-54.645,5.452   c-3.958,0.394-7.929,0.591-11.899,0.592c-4.138-0.001-8.275-0.215-12.396-0.644l-54.765-5.695L82.761,157.838l0.546-3.963   L82.761,157.838l-0.414,3.979l54.766,5.695c4.395,0.456,8.809,0.685,13.223,0.685c4.235,0,8.471-0.21,12.692-0.631l54.645-5.452   l-0.397-3.979l-0.006,3.999c1.452,0.012,2.532,0.545,3.359,1.376c0.817,0.835,1.29,1.975,1.287,3.115   c-0.003,0.701-0.164,1.411-0.57,2.157c-13.576,24.752-40.374,41.646-71.265,41.644c-31.022,0.003-57.913-17.033-71.437-41.953   c-0.402-0.746-0.559-1.448-0.562-2.146c-0.003-1.143,0.471-2.282,1.291-3.118c0.829-0.831,1.913-1.363,3.368-1.373v-3.844   l-0.525,3.809c0-0.004,0.164,0.033,0.525,0.035v-3.844l-0.525,3.809l0.133,0.017L82.761,157.838z"/>
	<path style="fill:#FFFFFF;" d="M172.386,166.405l29.688-4.566v12.075c0,2.258-1.648,4.179-3.883,4.521l-25.805,3.97   c-14.797,2.276-29.848,2.357-44.668,0.24L97.999,178.4c-2.254-0.322-3.926-2.253-3.926-4.529v-12.032l33.645,4.807   C142.538,168.762,157.589,168.681,172.386,166.405z"/>
	<path style="fill:#FFFFFF;" d="M150.081,210.425c-21.48,0-41.062-7.826-55.996-20.672c0.031-2.066,1.859-3.647,3.914-3.354   l29.719,4.246c14.82,2.117,29.871,2.036,44.668-0.24l25.723-3.956c2.082-0.321,3.965,1.292,3.965,3.401v3.148   C187.714,203.901,169.687,210.425,150.081,210.425z"/>
	<circle style="fill:#54596E;" cx="185.929" cy="125.838" r="8"/>
	<circle style="fill:#54596E;" cx="113.929" cy="125.838" r="8"/>
	<path style="fill:#54596E;" d="M81.929,109.838c0.003,6.629,5.371,11.997,12,11.999h108c6.629-0.002,11.997-5.37,12-11.999   c0-2.21-1.791-4-4-4c-2.209,0-4,1.79-4,4c-0.004,2.206-1.793,3.995-4,4h-108c-2.207-0.005-3.996-1.794-4-4c0-2.21-1.791-4-4-4   C83.72,105.838,81.929,107.628,81.929,109.838L81.929,109.838z"/>
</g>















</svg>
