<?xml version="1.0" encoding="iso-8859-1"?>
<!-- Generator: Adobe Illustrator 21.0.0, SVG Export Plug-In . SVG Version: 6.00 Build 0)  -->
<svg xmlns="http://www.w3.org/2000/svg" xmlns:xlink="http://www.w3.org/1999/xlink" version="1.1" id="eyes-cry" x="0px" y="0px" viewBox="0 0 300 300" style="enable-background:new 0 0 300 300;" xml:space="preserve" width="512" height="512">
<g>
	<path style="fill:#EEEEF0;" d="M105.569,250.557c-16.787,2.197-27.57,5.611-27.57,9.444c0,6.628,32.237,12,72.003,12   c39.766,0,71.999-5.372,71.999-12c0-3.833-10.781-7.247-27.567-9.443c-13.675,6.051-28.684,9.443-44.432,9.443   S119.244,256.608,105.569,250.557"/>
	<path style="fill:#FFF35F;" d="M262.002,139.853c0-61.856-50.147-107.854-112-107.854c-61.857,0-112,45.997-112,107.854   c0,61.857,50.144,116.148,112,116.148C211.855,256.001,262.002,201.71,262.002,139.853"/>
	<path style="fill:#54596E;" d="M262.002,139.853h3.997c0.011-32.023-13.02-60.087-34.047-80.025   c-21.027-19.949-50.029-31.831-81.95-31.828c-31.924-0.003-60.926,11.879-81.95,31.828c-21.031,19.938-34.062,48.002-34.051,80.025   c0.004,32.016,12.961,62.008,33.907,84.025c20.936,22.018,49.974,36.123,82.093,36.123s61.158-14.105,82.093-36.123   c20.943-22.018,33.9-52.01,33.904-84.025H262.002h-4c0.004,29.838-12.111,57.92-31.703,78.513   C206.7,238.959,179.736,252,150.002,252c-29.738,0-56.698-13.041-76.297-33.635c-19.592-20.593-31.711-48.675-31.703-78.513   c0.011-29.837,12.052-55.696,31.556-74.222C93.069,47.12,120.069,36.003,150.002,36c29.933,0.003,56.929,11.12,76.441,29.631   c19.508,18.525,31.549,44.385,31.56,74.222H262.002"/>
	<path style="fill:#EEE361;" d="M257.068,126.075c-6.867,53.565-52.167,97.924-107.066,97.924S49.803,179.641,42.936,126.075   c-0.594,4.523-0.932,9.143-0.935,13.871c0.018,29.803,12.131,57.847,31.703,78.419c19.37,20.352,45.927,33.328,75.252,33.63   c0.058,0.001,0.119,0.001,0.177,0.002c0.056,0,0.114,0.001,0.17,0.001c0.051,0,0.1,0.001,0.151,0.001   C149.636,252,149.82,252,150.002,252l0,0l0,0c0.187,0,0.373,0,0.559-0.001c0.047-0.001,0.091-0.001,0.138-0.001   c0.074,0,0.146-0.001,0.22-0.002c0.043,0,0.083-0.001,0.127-0.001c29.321-0.302,55.882-13.278,75.252-33.63   c19.573-20.573,31.683-48.618,31.703-78.423C257.999,135.215,257.658,130.598,257.068,126.075"/>
	<path style="fill:#54596E;" d="M149.455,251.999C149.637,252,149.82,252,150.002,252C149.82,252,149.636,252,149.455,251.999    M150.561,251.999C150.375,252,150.189,252,150.002,252C150.188,252,150.376,252,150.561,251.999 M149.134,251.997   c0.058,0,0.112,0.001,0.17,0.001C149.248,251.998,149.19,251.997,149.134,251.997 M150.92,251.996   c-0.074,0.001-0.146,0.002-0.22,0.002C150.772,251.998,150.847,251.997,150.92,251.996 M42.002,139.946c0,0.018,0,0.035,0,0.054   c0,59.296,47.789,111.387,106.955,111.995c-29.324-0.302-55.882-13.278-75.252-33.63C54.133,197.793,42.019,169.749,42.002,139.946    M258.002,139.942c-0.02,29.805-12.13,57.85-31.703,78.423c-19.37,20.352-45.931,33.328-75.252,33.63   c59.167-0.608,106.956-52.699,106.956-111.995C258.002,139.98,258.002,139.961,258.002,139.942"/>
	<circle style="fill:#54596E;" cx="210.001" cy="132" r="20"/>
	<circle style="fill:#FFFFFF;" cx="202.001" cy="138" r="6"/>
	<circle style="fill:#FFFFFF;" cx="220.001" cy="122" r="10"/>
	<circle style="fill:#54596E;" cx="90.001" cy="132" r="20"/>
	<circle style="fill:#FFFFFF;" cx="82.001" cy="138" r="6"/>
	<circle style="fill:#FFFFFF;" cx="100.001" cy="122" r="10"/>
	<path style="fill:#55A6FF;" d="M219.145,168.857c0,3.944-3.199,7.143-7.145,7.143s-7.145-3.198-7.145-7.143   c0-3.945,5.715-12.857,7.145-12.857S219.145,164.912,219.145,168.857z"/>
	<path style="fill:#55A6FF;" d="M99.145,168.857c0,3.944-3.199,7.143-7.145,7.143s-7.145-3.198-7.145-7.143   c0-3.945,5.715-12.857,7.145-12.857S99.145,164.912,99.145,168.857z"/>
	<path style="fill:#55A6FF;" d="M99.145,196.857c0,3.944-3.199,7.143-7.145,7.143s-7.145-3.198-7.145-7.143   c0-3.945,5.715-12.857,7.145-12.857S99.145,192.912,99.145,196.857z"/>
	<path style="fill:#54596E;" d="M126.658,147.427c4.095,8.934,13.131,15.132,23.604,15.135c10.244-0.003,19.117-5.939,23.331-14.562   c0.971-1.984,0.149-4.38-1.835-5.351c-1.984-0.972-4.38-0.149-5.351,1.835c-2.927,5.97-9.053,10.082-16.146,10.079   c-7.253,0.003-13.491-4.293-16.333-10.473c-0.922-2.008-3.297-2.889-5.304-1.967C126.617,143.045,125.737,145.42,126.658,147.427   L126.658,147.427z"/>
</g>















</svg>
