<?xml version="1.0" encoding="iso-8859-1"?>
<!-- Generator: Adobe Illustrator 21.0.0, SVG Export Plug-In . SVG Version: 6.00 Build 0)  -->
<svg xmlns="http://www.w3.org/2000/svg" xmlns:xlink="http://www.w3.org/1999/xlink" version="1.1" id="fat" x="0px" y="0px" viewBox="0 0 300 300" style="enable-background:new 0 0 300 300;" xml:space="preserve" width="512" height="512">
<g>
	<path style="fill:#EEEEF0;" d="M105.57,250.558C88.784,252.755,78,256.168,78,259.999c0,6.629,32.235,12.002,72,12.002   s72-5.373,72-12.002c0-3.831-10.783-7.244-27.57-9.441c-13.675,6.052-28.682,9.441-44.43,9.441S119.245,256.609,105.57,250.558"/>
	<path style="fill:#FFF35F;" d="M262.001,139.854c0-61.855-50.145-107.852-112.001-107.852   c-61.855,0-112.001,45.996-112.001,107.852S88.145,256,150,256C211.856,256,262.001,201.71,262.001,139.854"/>
	<path style="fill:#54596E;" d="M262.001,139.854H266c0.012-32.022-13.021-60.089-34.049-80.026   C210.927,39.879,181.92,27.999,150,27.999c-31.924,0-60.927,11.88-81.951,31.829C47.021,79.766,33.988,107.832,34,139.854   c0.004,32.018,12.962,62.005,33.908,84.025c20.933,22.016,49.972,36.119,82.092,36.119c32.121,0,61.159-14.104,82.093-36.119   c20.945-22.021,33.904-52.008,33.907-84.025H262.001h-3.999c0.004,29.833-12.112,57.919-31.703,78.51   c-19.599,20.596-46.563,33.637-76.298,33.637s-56.699-13.041-76.298-33.637c-19.591-20.591-31.707-48.677-31.703-78.51   c0.012-29.838,12.053-55.695,31.558-74.224C93.069,47.122,120.064,36.002,150,36.002c29.932,0,56.931,11.12,76.444,29.629   c19.504,18.528,31.546,44.386,31.558,74.224H262.001"/>
	<path style="fill:#EEE361;" d="M257.065,126.077C250.2,179.643,204.9,224.001,150,224.001S49.801,179.643,42.936,126.077   c-0.592,4.521-0.934,9.139-0.937,13.866c0.02,29.801,12.131,57.851,31.703,78.421c19.599,20.596,46.563,33.637,76.298,33.637l0,0   l0,0c29.735,0,56.699-13.041,76.298-33.637c19.572-20.57,31.684-48.621,31.703-78.422   C257.999,135.215,257.656,130.598,257.065,126.077"/>
	<path style="fill:#54596E;" d="M41.999,139.943c0,0.019,0,0.038,0,0.057c0,59.647,48.354,112.001,108.001,112.001   c-29.735,0-56.699-13.041-76.298-33.637C54.13,197.794,42.019,169.744,41.999,139.943 M258.001,139.942   c-0.02,29.801-12.131,57.852-31.703,78.422c-19.599,20.596-46.563,33.637-76.298,33.637c59.647,0,108.001-52.354,108.001-112.001   C258.001,139.98,258.001,139.961,258.001,139.942"/>
	<path style="fill:#54596E;" d="M210,100.001c-0.002-11.048-8.953-19.998-20-20c-11.047,0.002-19.998,8.952-20,20   c0,2.209,1.791,4,4,4c2.209,0,4-1.791,4-4c0.012-6.627,5.375-11.988,12-12.001c6.625,0.013,11.988,5.374,12,12.001   c0,2.209,1.791,4,4,4C208.209,104.001,210,102.21,210,100.001L210,100.001z"/>
	<path style="fill:#54596E;" d="M126,100.001c-0.002-11.048-8.953-19.998-20-20c-11.047,0.002-19.998,8.952-20,20   c0,2.209,1.791,4,4,4c2.209,0,4-1.791,4-4c0.012-6.627,5.375-11.988,12-12.001c6.625,0.013,11.988,5.374,12,12.001   c0,2.209,1.791,4,4,4C124.209,104.001,126,102.21,126,100.001L126,100.001z"/>
	<path style="fill:#54596E;" d="M113.188,152.428C124.463,154.729,136.908,156,150,156c13.084,0,25.521-1.271,36.792-3.568   c2.164-0.442,3.561-2.555,3.12-4.719c-0.442-2.164-2.554-3.562-4.718-3.119c-10.706,2.184-22.628,3.407-35.193,3.407   c-12.573,0-24.502-1.225-35.212-3.412c-2.165-0.442-4.278,0.954-4.72,3.119C109.626,149.873,111.023,151.986,113.188,152.428   L113.188,152.428z"/>
	<path style="fill:#54596E;" d="M90,180c15.465-0.002,27.997-12.534,28-27.999c-0.003-15.466-12.535-27.998-28-28   c-2.209,0-4,1.79-4,4c0,2.209,1.791,4,4,4c5.535,0.002,10.51,2.231,14.142,5.857c3.626,3.632,5.856,8.606,5.858,14.143   c-0.002,5.535-2.233,10.51-5.858,14.142c-3.632,3.626-8.607,5.855-14.142,5.858c-2.209,0-4,1.79-4,4   C86,178.21,87.791,180.001,90,180L90,180z"/>
	<path style="fill:#54596E;" d="M210,172.001c-5.535-0.003-10.51-2.232-14.142-5.858c-3.626-3.632-5.856-8.606-5.858-14.142   c0.002-5.536,2.233-10.511,5.858-14.143c3.632-3.626,8.607-5.855,14.142-5.858c2.208,0,3.999-1.791,3.999-3.999   c0-2.209-1.791-3.999-3.999-3.999c-15.465,0.001-27.997,12.533-28,27.999c0.003,15.465,12.535,27.997,28,27.999   c2.208,0,3.999-1.791,3.999-3.999C213.999,173.792,212.208,172.002,210,172.001L210,172.001z"/>
	<circle style="fill:#FF9C9C;" cx="78" cy="152.001" r="16"/>
	<circle style="fill:#FF9C9C;" cx="222" cy="152.001" r="16"/>
</g>















</svg>
