<?xml version="1.0" encoding="iso-8859-1"?>
<!-- Generator: Adobe Illustrator 21.0.0, SVG Export Plug-In . SVG Version: 6.00 Build 0)  -->
<svg xmlns="http://www.w3.org/2000/svg" xmlns:xlink="http://www.w3.org/1999/xlink" version="1.1" id="female" x="0px" y="0px" viewBox="0 0 300 300" style="enable-background:new 0 0 300 300;" xml:space="preserve" width="512" height="512">
<g>
	<path style="fill:#EEEEF0;" d="M194.432,250.558c-13.675,6.051-28.684,9.443-44.432,9.443s-30.757-3.393-44.432-9.443   c-16.786,2.196-27.567,5.61-27.567,9.443c0,6.628,32.233,12,71.999,12c39.766,0,71.999-5.372,71.999-12   C221.999,256.168,211.218,252.754,194.432,250.558"/>
	<path style="fill:#FFF35F;" d="M262,139.853c0-61.856-50.144-107.854-112-107.854S38,77.996,38,139.853   c0,61.857,50.144,116.148,112,116.148S262,201.71,262,139.853"/>
	<path style="fill:#54596E;" d="M262,139.853h4c0.011-32.023-13.023-60.087-34.051-80.025C210.926,39.878,181.92,27.996,150,27.999   c-31.92-0.003-60.926,11.879-81.95,31.828c-21.028,19.938-34.062,48.002-34.051,80.025c0.007,32.016,12.961,62.008,33.907,84.025   c20.936,22.018,49.974,36.123,82.093,36.123s61.158-14.105,82.093-36.123c20.943-22.018,33.9-52.01,33.907-84.025H262h-4   c0.004,29.838-12.111,57.92-31.703,78.513C206.698,238.959,179.738,252,150,252s-56.698-13.041-76.297-33.635   C54.111,197.772,41.996,169.69,42,139.853c0.011-29.837,12.052-55.696,31.556-74.222C93.071,47.12,120.067,36.003,150,36   c29.933,0.003,56.929,11.12,76.441,29.631c19.508,18.525,31.549,44.385,31.56,74.222H262"/>
	<path style="fill:#EEE361;" d="M257.066,126.075c-6.867,53.565-52.167,97.924-107.066,97.924S49.801,179.641,42.934,126.075   c-0.594,4.522-0.932,9.141-0.935,13.867c0.02,29.805,12.13,57.85,31.703,78.423c19.37,20.352,45.927,33.328,75.252,33.63   c0.058,0.001,0.119,0.001,0.177,0.002c0.056,0,0.114,0.001,0.17,0.001c0.051,0,0.1,0.001,0.151,0.001   C149.635,252,149.819,252,150,252l0,0l0,0c0.182,0,0.365,0,0.546-0.001c0.051,0,0.101-0.001,0.152-0.001   c0.054,0,0.109-0.001,0.163-0.001c0.062-0.001,0.123-0.001,0.185-0.002c29.325-0.302,55.882-13.278,75.252-33.63   c19.573-20.573,31.683-48.619,31.703-78.424C257.998,135.215,257.659,130.597,257.066,126.075"/>
	<path style="fill:#54596E;" d="M150.546,251.999C150.365,252,150.182,252,150,252C150.182,252,150.364,252,150.546,251.999    M149.453,251.999C149.635,252,149.818,252,150,252C149.819,252,149.635,252,149.453,251.999 M150.861,251.997   c-0.054,0-0.109,0.001-0.163,0.001C150.752,251.998,150.806,251.997,150.861,251.997 M149.132,251.997   c0.058,0,0.112,0.001,0.17,0.001C149.246,251.998,149.188,251.997,149.132,251.997 M42,139.942c0,0.02,0,0.038,0,0.058   c0,59.296,47.789,111.387,106.955,111.995c-29.324-0.302-55.882-13.278-75.252-33.63C54.13,197.792,42.02,169.747,42,139.942    M258,139.941c-0.02,29.805-12.13,57.851-31.703,78.424c-19.37,20.352-45.927,33.328-75.252,33.63   C210.212,251.387,258,199.296,258,140C258,139.98,258,139.961,258,139.941"/>
	<circle style="fill:#FF7D7D;" cx="150" cy="180" r="12"/>
	<path style="fill:#54596E;" d="M206,119.999c11.046-0.002,19.997-8.952,20-19.999c0-2.21-1.791-4-4-4c-2.209,0-4,1.79-4,4   c-0.012,6.626-5.375,11.987-12,12c-2.209,0-4,1.79-4,4C202,118.209,203.791,120,206,119.999L206,119.999z"/>
	<path style="fill:#54596E;" d="M207.652,122.326c4.662-3.948,7.077-9.609,7.072-15.27c0.004-4.559-1.563-9.174-4.74-12.919   c-1.429-1.686-3.953-1.894-5.638-0.465c-1.685,1.429-1.893,3.953-0.464,5.639c1.915,2.262,2.839,4.994,2.842,7.745   c-0.005,3.421-1.435,6.783-4.244,9.167c-1.686,1.428-1.894,3.952-0.466,5.638C203.443,123.547,205.967,123.755,207.652,122.326   L207.652,122.326z"/>
	<path style="fill:#FF7D7D;" d="M126,184h48c2.209,0,4-1.791,4-4c0-2.21-1.791-4-4-4h-48c-2.209,0-4,1.79-4,4   C122,182.209,123.791,184,126,184"/>
	<circle style="fill:#54596E;" cx="204" cy="122" r="10"/>
	<path style="fill:#54596E;" d="M94,112c-6.625-0.013-11.988-5.374-12-12c0-2.21-1.791-4-4-4c-2.209,0-4,1.79-4,4   c0.002,11.047,8.953,19.997,20,19.999c2.208,0,3.999-1.791,3.999-3.999C97.999,113.791,96.208,112.001,94,112L94,112z"/>
	<path style="fill:#54596E;" d="M97.52,116.224c-2.81-2.384-4.24-5.747-4.245-9.167c0.004-2.752,0.927-5.483,2.843-7.745   c1.429-1.686,1.221-4.209-0.464-5.638c-1.685-1.429-4.209-1.222-5.637,0.464c-3.179,3.745-4.745,8.361-4.741,12.919   c-0.005,5.661,2.411,11.321,7.073,15.27c1.685,1.428,4.208,1.22,5.637-0.465C99.413,120.176,99.205,117.652,97.52,116.224   L97.52,116.224z"/>
	<circle style="fill:#54596E;" cx="96" cy="122" r="10"/>
</g>















</svg>
