<?xml version="1.0" encoding="iso-8859-1"?>
<!-- Generator: Adobe Illustrator 21.0.0, SVG Export Plug-In . SVG Version: 6.00 Build 0)  -->
<svg xmlns="http://www.w3.org/2000/svg" xmlns:xlink="http://www.w3.org/1999/xlink" version="1.1" id="fulllaugh" x="0px" y="0px" viewBox="0 0 300 300" style="enable-background:new 0 0 300 300;" xml:space="preserve" width="512" height="512">
<g>
	<path style="fill:#FFF35F;" d="M260.533,122.313c-8.466-52.811-54.757-90.31-110.604-90.31   c-56.042,0-102.471,37.756-110.701,90.858c-7.641,2.589-11.637,11.511-7.479,19.1c2.122,3.861,4.491,7.563,6.987,11.181   c6.544,56.136,53.814,102.861,111.193,102.861c57.448,0,104.763-46.831,111.222-103.056c2.552-3.715,4.971-7.528,7.125-11.499   C272.442,133.774,268.308,124.784,260.533,122.313"/>
	<path style="fill:#54596E;" d="M260.533,122.313l3.947-0.634c-8.78-54.843-56.912-93.72-114.551-93.68   c-28.923,0-55.448,9.751-75.816,26.424c-20.367,16.665-34.577,40.283-38.841,67.825l3.955,0.613l-1.284-3.788   c-7.174,2.442-11.86,9.125-11.868,16.453c-0.004,2.792,0.695,5.674,2.167,8.353c2.211,4.024,4.654,7.841,7.198,11.531l3.296-2.269   l-3.975,0.464c3.394,29.045,17.286,55.591,37.763,74.926c20.469,19.33,47.612,31.471,77.405,31.467   c29.825,0.004,57.001-12.165,77.478-31.532c20.485-19.376,34.369-45.97,37.719-75.063l-3.975-0.455l3.3,2.264   c2.605-3.796,5.097-7.723,7.341-11.856c1.447-2.662,2.138-5.523,2.134-8.296c-0.008-7.441-4.841-14.218-12.185-16.559   L260.533,122.313l3.947-0.634L260.533,122.313l-1.211,3.812c3.983,1.252,6.613,4.995,6.605,8.934   c-0.004,1.472-0.349,2.976-1.167,4.479c-2.069,3.812-4.41,7.507-6.906,11.145c-0.37,0.541-0.602,1.154-0.675,1.809   c-3.113,27.131-16.12,52.059-35.268,70.158c-19.156,18.104-44.364,29.35-71.983,29.35c-27.586,0-52.766-11.218-71.914-29.284   c-19.14-18.063-32.155-42.946-35.309-70.036c-0.077-0.65-0.309-1.269-0.679-1.805c-2.443-3.544-4.739-7.138-6.771-10.84   c-0.829-1.517-1.179-3.024-1.183-4.508c-0.008-3.873,2.544-7.572,6.438-8.877c1.41-0.479,2.439-1.703,2.666-3.175   c3.967-25.562,17.087-47.371,36.004-62.861c18.916-15.481,43.625-24.61,70.747-24.615c54.058,0.041,98.504,36.171,106.653,86.944   c0.236,1.488,1.305,2.728,2.74,3.183L260.533,122.313"/>
	<path style="fill:#EEEEF0;" d="M194.358,250.557c-13.674,6.052-28.683,9.443-44.429,9.441c-0.005,0-0.01,0-0.015,0   c-15.742,0-30.745-3.392-44.413-9.441c-16.786,2.197-27.571,5.611-27.571,9.445c0,6.626,32.236,11.999,71.999,11.999   c39.767,0,71.999-5.373,71.999-11.999C221.928,256.168,211.144,252.754,194.358,250.557"/>
	<path style="fill:#EEE361;" d="M150.269,251.999c-0.113,0-0.227,0-0.34,0s-0.227,0-0.34,0c0.113,0,0.227,0,0.34,0   C150.042,251.999,150.156,251.999,150.269,251.999 M149.259,251.997c0.076,0.001,0.148,0.001,0.224,0.001   C149.41,251.998,149.332,251.998,149.259,251.997 M150.601,251.997c-0.08,0.001-0.153,0.001-0.233,0.001   C150.445,251.998,150.523,251.998,150.601,251.997 M148.925,251.994c0.061,0.001,0.122,0.001,0.182,0.002   C149.045,251.995,148.987,251.995,148.925,251.994 M150.938,251.994c-0.065,0.001-0.133,0.001-0.198,0.002   C150.807,251.995,150.87,251.995,150.938,251.994 M148.59,251.99c0.054,0.001,0.109,0.002,0.163,0.002   C148.698,251.992,148.645,251.991,148.59,251.99 M151.278,251.99c-0.065,0.001-0.123,0.002-0.189,0.002   C151.151,251.992,151.216,251.991,151.278,251.99 M148.257,251.985c0.055,0.001,0.11,0.002,0.166,0.003   C148.369,251.987,148.312,251.986,148.257,251.985 M151.613,251.985c-0.065,0.001-0.133,0.002-0.198,0.003   C151.481,251.987,151.545,251.986,151.613,251.985 M147.93,251.98c0.049,0.001,0.097,0.002,0.145,0.003   C148.028,251.981,147.977,251.98,147.93,251.98 M151.933,251.98c-0.054,0.001-0.105,0.002-0.159,0.003   C151.827,251.981,151.879,251.98,151.933,251.98 M152.25,251.973c-0.04,0.001-0.085,0.002-0.125,0.003   C152.167,251.975,152.208,251.974,152.25,251.973 M147.605,251.973c0.043,0.001,0.088,0.002,0.132,0.003   C147.693,251.975,147.648,251.974,147.605,251.973 M152.568,251.965c-0.029,0.001-0.064,0.002-0.093,0.003   C152.505,251.967,152.538,251.966,152.568,251.965 M147.287,251.965c0.035,0.001,0.066,0.002,0.102,0.003   C147.352,251.967,147.323,251.966,147.287,251.965 M146.969,251.956c0.032,0.001,0.061,0.002,0.092,0.003   C147.029,251.958,147.002,251.957,146.969,251.956 M152.889,251.956c-0.029,0.001-0.059,0.002-0.088,0.003   C152.829,251.958,152.86,251.957,152.889,251.956 M153.16,251.948c-0.004,0-0.005,0-0.008,0   C153.154,251.948,153.159,251.948,153.16,251.948"/>
	<path style="fill:#54596E;" d="M175.314,248.767c-7.133,1.847-14.547,2.939-22.154,3.182c-0.002,0-0.007,0-0.008,0   c-0.087,0.003-0.176,0.006-0.263,0.008c-0.029,0.001-0.06,0.002-0.088,0.003c-0.08,0.002-0.153,0.004-0.233,0.006   c-0.03,0.001-0.063,0.002-0.093,0.003c-0.076,0.002-0.148,0.003-0.224,0.005c-0.042,0.001-0.083,0.002-0.125,0.003   c-0.065,0.001-0.128,0.003-0.193,0.004c-0.054,0.001-0.105,0.002-0.159,0.003c-0.054,0.001-0.106,0.002-0.161,0.003   c-0.067,0.001-0.131,0.002-0.198,0.003c-0.044,0.001-0.093,0.002-0.137,0.002c-0.062,0.001-0.126,0.002-0.189,0.002   c-0.051,0.001-0.1,0.002-0.151,0.002c-0.067,0.001-0.131,0.001-0.198,0.002c-0.043,0-0.095,0.001-0.139,0.001   c-0.078,0.001-0.156,0.001-0.233,0.001c-0.033,0-0.066,0.001-0.099,0.001c-0.113,0-0.227,0-0.34,0c-0.113,0-0.227,0-0.34,0   c-0.036,0-0.07-0.001-0.106-0.001c-0.076,0-0.148,0-0.224-0.001c-0.051,0-0.101-0.001-0.152-0.001   c-0.061-0.001-0.122-0.001-0.182-0.002c-0.058,0-0.114-0.001-0.172-0.002c-0.054,0-0.109-0.001-0.163-0.002   c-0.054,0-0.113-0.001-0.167-0.002c-0.055-0.001-0.11-0.002-0.166-0.003c-0.062-0.001-0.121-0.002-0.182-0.003   c-0.049-0.001-0.097-0.002-0.145-0.003c-0.065-0.001-0.128-0.003-0.193-0.004c-0.044-0.001-0.088-0.002-0.132-0.003   c-0.073-0.002-0.144-0.003-0.216-0.005c-0.035-0.001-0.066-0.002-0.102-0.003c-0.072-0.002-0.153-0.004-0.226-0.006   c-0.032-0.001-0.061-0.002-0.092-0.003c-7.701-0.225-15.207-1.321-22.424-3.188c-6.92,0.435-13.328,1.041-19.045,1.789   c13.668,6.05,28.672,9.441,44.413,9.441c0.005,0,0.01,0,0.015,0c15.746,0.002,30.756-3.39,44.429-9.441   C188.642,249.809,182.234,249.202,175.314,248.767"/>
	<path style="fill:#54596E;" d="M42.594,152.099c5.046,45.889,38.34,85.38,81.951,96.669c0.006-0.001,0.018-0.002,0.024-0.002   c-17.565-4.555-33.467-13.703-46.554-26.051c-19.14-18.063-32.155-42.946-35.309-70.036   C42.683,152.481,42.646,152.288,42.594,152.099 M257.287,151.918c-0.05,0.188-0.086,0.379-0.108,0.573   c-3.113,27.131-16.12,52.059-35.268,70.158c-13.1,12.38-29.029,21.553-46.625,26.116c0.009,0,0.018,0.001,0.027,0.001   C218.985,237.464,252.309,197.885,257.287,151.918"/>
	<path style="fill:#EEE361;" d="M256.997,126.076c-6.869,53.566-52.168,97.927-107.068,97.927S49.73,179.643,42.861,126.076   c-0.594,4.54-0.931,9.178-0.931,13.925c0,4.07,0.226,8.109,0.664,12.098c0.051,0.189,0.089,0.383,0.112,0.58   c3.154,27.09,16.169,51.973,35.309,70.036c13.087,12.348,28.99,21.496,46.554,26.051c7.212,1.87,14.708,2.966,22.399,3.19   c0.033,0.001,0.06,0.002,0.092,0.003c0.074,0.002,0.152,0.004,0.226,0.006c0.036,0.001,0.065,0.002,0.102,0.003   c0.072,0.002,0.144,0.003,0.216,0.005c0.043,0.001,0.088,0.002,0.132,0.003c0.064,0.001,0.129,0.003,0.193,0.004   c0.047,0.001,0.098,0.002,0.145,0.003c0.06,0.001,0.122,0.002,0.182,0.003c0.054,0.001,0.111,0.002,0.166,0.003   c0.057,0.001,0.11,0.001,0.167,0.002c0.054,0.001,0.108,0.002,0.163,0.002c0.057,0.001,0.115,0.002,0.172,0.002   c0.062,0.001,0.12,0.001,0.182,0.002c0.051,0,0.102,0.001,0.152,0.001c0.073,0.001,0.151,0.001,0.224,0.001   c0.035,0,0.071,0.001,0.106,0.001c0.113,0,0.227,0,0.34,0s0.227,0,0.34,0c0.034,0,0.065-0.001,0.099-0.001   c0.08,0,0.153,0,0.233-0.001c0.045,0,0.094-0.001,0.139-0.001c0.065-0.001,0.133-0.001,0.198-0.002   c0.051,0,0.101-0.001,0.151-0.002c0.065,0,0.124-0.001,0.189-0.002c0.045,0,0.091-0.001,0.137-0.002   c0.065-0.001,0.133-0.002,0.198-0.003c0.052-0.001,0.109-0.002,0.161-0.003c0.054-0.001,0.105-0.002,0.159-0.003   c0.064-0.001,0.129-0.003,0.193-0.004c0.04-0.001,0.085-0.002,0.125-0.003c0.075-0.002,0.149-0.003,0.224-0.005   c0.029-0.001,0.064-0.002,0.093-0.003c0.079-0.002,0.154-0.004,0.233-0.006c0.029-0.001,0.059-0.002,0.088-0.003   c0.089-0.003,0.175-0.005,0.263-0.008c0.004,0,0.005,0,0.008,0c7.598-0.242,14.999-1.334,22.127-3.183   c17.595-4.563,33.525-13.736,46.625-26.116c19.148-18.1,32.155-43.027,35.268-70.158c0.022-0.194,0.058-0.386,0.108-0.573   c0.425-3.929,0.644-7.908,0.644-11.917C257.931,135.254,257.59,130.616,256.997,126.076z"/>
	<path style="fill:#54596E;" d="M150.368,251.998c-0.034,0-0.065,0.001-0.099,0.001   C150.302,251.999,150.335,251.998,150.368,251.998 M149.483,251.998c0.036,0,0.07,0.001,0.106,0.001   C149.554,251.999,149.518,251.998,149.483,251.998 M150.74,251.996c-0.045,0-0.094,0.001-0.139,0.001   C150.644,251.997,150.696,251.996,150.74,251.996 M149.107,251.996c0.051,0,0.102,0.001,0.152,0.001   C149.209,251.997,149.157,251.996,149.107,251.996 M151.089,251.992c-0.05,0.001-0.101,0.002-0.151,0.002   C150.989,251.994,151.038,251.993,151.089,251.992 M148.753,251.992c0.058,0.001,0.114,0.002,0.172,0.002   C148.868,251.994,148.81,251.993,148.753,251.992 M151.414,251.988c-0.045,0.001-0.091,0.002-0.137,0.002   C151.321,251.99,151.371,251.989,151.414,251.988 M148.423,251.988c0.054,0.001,0.113,0.002,0.167,0.002   C148.533,251.989,148.48,251.989,148.423,251.988 M151.773,251.982c-0.052,0.001-0.109,0.002-0.161,0.003   C151.667,251.984,151.719,251.983,151.773,251.982 M148.075,251.982c0.062,0.001,0.121,0.002,0.182,0.003   C148.197,251.984,148.135,251.983,148.075,251.982 M147.737,251.976c0.065,0.001,0.128,0.003,0.193,0.004   C147.866,251.979,147.8,251.977,147.737,251.976 M152.125,251.976c-0.064,0.001-0.129,0.003-0.193,0.004   C151.998,251.979,152.06,251.977,152.125,251.976 M147.389,251.968c0.072,0.002,0.144,0.003,0.216,0.005   C147.533,251.971,147.461,251.97,147.389,251.968 M152.475,251.968c-0.075,0.002-0.149,0.003-0.224,0.005   C152.326,251.971,152.398,251.97,152.475,251.968 M147.062,251.959c0.073,0.002,0.153,0.004,0.226,0.006   C147.213,251.963,147.135,251.961,147.062,251.959 M152.801,251.959c-0.079,0.002-0.154,0.004-0.233,0.006   C152.648,251.963,152.721,251.961,152.801,251.959 M153.152,251.948c-0.089,0.003-0.174,0.005-0.263,0.008   C152.976,251.954,153.065,251.951,153.152,251.948 M124.57,248.766c-0.006,0-0.018,0.001-0.024,0.002   c7.217,1.867,14.723,2.964,22.424,3.188C139.277,251.731,131.782,250.636,124.57,248.766 M175.287,248.766   c-7.128,1.849-14.529,2.94-22.127,3.183c7.606-0.242,15.021-1.335,22.154-3.182C175.305,248.767,175.296,248.766,175.287,248.766"/>
	<path style="fill:#54596E;" d="M238.398,128.867c8.684-0.019,14.094,9.005,10.031,16.489   c-18.684,34.438-55.801,57.903-98.535,57.903c-42.555,0-79.539-23.271-98.301-57.478c-4.094-7.464,1.281-16.507,9.961-16.526   l33.66-7.314c36.066-7.839,73.387-7.921,109.488-0.241L238.398,128.867z"/>
	<path style="fill:#54596E;" d="M238.398,128.867l0.442,3.975l-0.416-3.74l0,3.763l0.416-0.022l-0.416-3.74l0,3.763   c2.25,0.01,4.014,0.86,5.325,2.184c1.301,1.328,2.058,3.136,2.055,4.979c-0.003,1.121-0.265,2.262-0.892,3.425   c-17.991,33.159-53.769,55.812-95.018,55.809c-41.075,0.002-76.725-22.462-94.794-55.401c-0.636-1.165-0.902-2.313-0.905-3.44   c-0.003-1.839,0.751-3.646,2.049-4.974c1.308-1.323,3.068-2.176,5.317-2.189l0.842-0.091l33.66-7.314   c17.932-3.898,36.178-5.851,54.426-5.852c17.891,0.001,35.782,1.868,53.38,5.614l33.696,7.167c0.434,0.092,0.833,0.111,1.274,0.062   L238.398,128.867l0.832-3.913l-33.695-7.167c-18.147-3.863-36.597-5.789-55.045-5.788c-18.818-0.001-37.634,2.014-56.125,6.033   l-33.66,7.314l0.85,3.909l-0.008-4c-4.4-0.001-8.319,1.809-11.028,4.603c-2.719,2.79-4.319,6.559-4.323,10.56   c-0.003,2.44,0.61,4.958,1.89,7.287c19.455,35.473,57.774,59.551,101.808,59.554c44.22-0.003,82.676-24.28,102.051-59.995   c1.258-2.318,1.861-4.816,1.858-7.237c-0.003-4.008-1.609-7.781-4.334-10.571c-2.716-2.794-6.641-4.6-11.045-4.59l-0.468,0.026   L238.398,128.867l0.832-3.913L238.398,128.867z"/>
	<path style="fill:#FF9999;" d="M161.93,196.001c8.836,0,16-7.164,16-16c0-8.837-7.164-16-16-16c-4.805,0-9.066,2.163-12,5.518   c-2.934-3.354-7.195-5.518-12-5.518c-8.836,0-16,7.163-16,16c0,8.836,7.164,16,16,16H161.93z"/>
	<path style="fill:#F3F3F3;" d="M223.043,148.001H76.816c-3.805,0-6.887-3.084-6.887-6.888v-9.112l65.305-9.329   c12.395-1.771,24.984-1.678,37.348,0.274l57.348,9.055v9.112C229.93,144.917,226.848,148.001,223.043,148.001z"/>
	<path style="fill:#FFF35F;" d="M129.93,69.773c-2.867-6.779-9.578-11.536-17.402-11.536c-7.473,0-13.93,4.338-16.992,10.632"/>
	<path style="fill:#54596E;" d="M133.614,68.215c-3.469-8.216-11.607-13.974-21.086-13.978c-9.051,0.003-16.885,5.257-20.589,12.881   c-0.967,1.986-0.141,4.381,1.846,5.348c1.986,0.967,4.381,0.141,5.348-1.846c2.421-4.965,7.501-8.387,13.395-8.384   c6.169-0.004,11.453,3.752,13.718,9.095c0.86,2.034,3.207,2.986,5.242,2.126C133.522,72.597,134.474,70.25,133.614,68.215   L133.614,68.215z"/>
	<path style="fill:#FFF35F;" d="M201.93,69.773c-2.867-6.779-9.578-11.536-17.402-11.536c-7.473,0-13.93,4.338-16.992,10.632"/>
	<path style="fill:#54596E;" d="M205.614,68.215c-3.469-8.216-11.607-13.974-21.086-13.978c-9.051,0.003-16.885,5.257-20.589,12.881   c-0.967,1.986-0.141,4.381,1.846,5.348c1.986,0.967,4.381,0.141,5.348-1.846c2.421-4.965,7.501-8.387,13.395-8.384   c6.169-0.004,11.453,3.752,13.718,9.095c0.86,2.034,3.207,2.986,5.242,2.126C205.522,72.597,206.474,70.25,205.614,68.215   L205.614,68.215z"/>
</g>















</svg>
