<?xml version="1.0" encoding="iso-8859-1"?>
<!-- Generator: Adobe Illustrator 21.0.0, SVG Export Plug-In . SVG Version: 6.00 Build 0)  -->
<svg xmlns="http://www.w3.org/2000/svg" xmlns:xlink="http://www.w3.org/1999/xlink" version="1.1" id="fullsad" x="0px" y="0px" viewBox="0 0 300 300" style="enable-background:new 0 0 300 300;" xml:space="preserve" width="512" height="512">
<g>
	<path style="fill:#EEEEF0;" d="M105.563,250.557c-16.783,2.197-27.564,5.611-27.564,9.445c0,6.625,32.236,11.998,71.999,11.998   s72.003-5.373,72.003-11.998c0-3.834-10.781-7.248-27.565-9.445c-13.676,6.053-28.687,9.445-44.438,9.445   C134.249,260.002,119.239,256.61,105.563,250.557"/>
	<path style="fill:#FF9999;" d="M262,139.855c0-61.857-50.144-107.852-112.002-107.852C88.144,32.003,38,77.998,38,139.855   c0,61.854,50.144,116.147,111.998,116.147C211.856,256.002,262,201.708,262,139.855"/>
	<path style="fill:#54596E;" d="M262,139.855h3.999c0.012-32.024-13.023-60.09-34.053-80.026C210.925,39.88,181.921,28,149.998,28   S89.075,39.88,68.049,59.829c-21.03,19.937-34.061,48.002-34.048,80.026c0.004,32.017,12.962,62.004,33.906,84.025   c20.936,22.018,49.973,36.122,82.091,36.122c32.122,0,61.159-14.104,82.095-36.122c20.944-22.021,33.902-52.009,33.906-84.025H262   H258c0.004,29.834-12.112,57.919-31.703,78.51c-19.599,20.596-46.563,33.634-76.299,33.639   c-29.736-0.005-56.696-13.043-76.295-33.639C54.108,197.774,41.992,169.689,42,139.855c0.008-29.838,12.051-55.696,31.557-74.222   c19.514-18.51,46.51-29.631,76.441-29.635c29.935,0.004,56.932,11.125,76.445,29.635c19.506,18.525,31.545,44.384,31.557,74.222   H262"/>
	<path style="fill:#EE9295;" d="M257.065,126.077c-6.869,53.565-52.168,97.926-107.067,97.926s-100.194-44.36-107.067-97.926   c-0.591,4.522-0.928,9.143-0.931,13.871c0.017,29.799,12.128,57.848,31.703,78.417c19.599,20.596,46.559,33.634,76.295,33.639l0,0   l0,0c29.736-0.005,56.7-13.043,76.299-33.639c19.572-20.57,31.684-48.621,31.703-78.422   C257.997,135.215,257.656,130.598,257.065,126.077"/>
	<path style="fill:#54596E;" d="M42,139.948c0,0.018,0,0.035,0,0.054c0,59.646,48.351,112.002,107.998,112.002   c-29.736-0.005-56.696-13.043-76.295-33.639C54.128,197.795,42.017,169.747,42,139.948 M258,139.943   c-0.02,29.801-12.131,57.852-31.703,78.422c-19.599,20.596-46.563,33.634-76.299,33.639c59.647,0,108.002-52.355,108.002-112.002   C258,139.982,258,139.962,258,139.943"/>
	<path style="fill:#54596E;" d="M179.089,154.653c-5.052-11.007-16.182-18.648-29.09-18.651   c-12.63,0.003-23.563,7.321-28.757,17.949c-0.971,1.984-0.15,4.38,1.834,5.352c1.984,0.971,4.38,0.15,5.352-1.834   c3.908-7.977,12.092-13.471,21.571-13.468c9.686-0.003,18.02,5.734,21.82,13.993c0.922,2.007,3.297,2.887,5.305,1.964   C179.131,159.036,180.011,156.661,179.089,154.653L179.089,154.653z"/>
	<path style="fill:#54596E;" d="M186.671,89.782l-8,12c-0.821,1.231-0.897,2.802-0.198,4.106c0.698,1.306,2.047,2.112,3.527,2.112   h20c2.209,0,3.999-1.791,3.999-3.999c0-2.209-1.79-3.999-3.999-3.999l-12.526-0.001l3.854-5.781   c1.225-1.839,0.729-4.322-1.109-5.548C190.38,87.448,187.896,87.944,186.671,89.782L186.671,89.782z"/>
	<path style="fill:#54596E;" d="M106.671,94.22l3.854,5.78l-12.526,0.001c-2.209,0-4,1.79-4,4c0,2.209,1.791,4,4,4l20-0.001   c1.48,0,2.828-0.807,3.527-2.112c0.698-1.305,0.623-2.875-0.198-4.106l-8-12c-1.226-1.839-3.71-2.335-5.548-1.109   C105.941,89.899,105.445,92.382,106.671,94.22L106.671,94.22z"/>
	<circle style="fill:#FF7D7D;" cx="149.999" cy="168.001" r="8"/>
</g>















</svg>
