<?xml version="1.0" encoding="iso-8859-1"?>
<!-- Generator: Adobe Illustrator 21.0.0, SVG Export Plug-In . SVG Version: 6.00 Build 0)  -->
<svg xmlns="http://www.w3.org/2000/svg" xmlns:xlink="http://www.w3.org/1999/xlink" version="1.1" id="glasses" x="0px" y="0px" viewBox="0 0 300 300" style="enable-background:new 0 0 300 300;" xml:space="preserve" width="512" height="512">
<g>
	<ellipse style="opacity:0.1;fill:#54596E;" cx="154" cy="262" rx="72" ry="12"/>
	<path style="fill:#FFF35F;stroke:#54596E;stroke-width:8;stroke-linecap:round;stroke-linejoin:round;stroke-miterlimit:10;" d="   M266,141.852C266,79.996,215.856,34,154,34S42,79.996,42,141.852S92.144,258,154,258S266,203.708,266,141.852z"/>
	<path style="fill:none;stroke:#54596E;stroke-width:8;stroke-linecap:round;stroke-miterlimit:10;" d="M118,114   c0-6.627-5.373-12-12-12s-12,5.373-12,12"/>
	<path style="opacity:0.4;fill:#FFFFFF;" d="M104.886,138H75.114C59.035,138,46,124.965,46,108.886V82h88v26.886   C134,124.965,120.965,138,104.886,138z"/>
	<path style="fill:none;stroke:#54596E;stroke-width:8;stroke-linecap:round;stroke-miterlimit:10;" d="M42,102L42,102   c0-13.255,10.745-24,24-24h59.935C132.598,78,138,83.402,138,90.065V98"/>
	<path style="fill:none;stroke:#54596E;stroke-width:8;stroke-linecap:round;stroke-miterlimit:10;" d="M214,114   c0-6.627-5.373-12-12-12s-12,5.373-12,12"/>
	<path style="opacity:0.4;fill:#FFFFFF;" d="M203.114,138h29.772C248.965,138,262,124.965,262,108.886V82h-88v26.886   C174,124.965,187.035,138,203.114,138z"/>
	<path style="fill:none;stroke:#54596E;stroke-width:8;stroke-linecap:round;stroke-miterlimit:10;" d="M266,102L266,102   c0-13.255-10.745-24-24-24h-59.935C175.402,78,170,83.402,170,90.065V98"/>
	<path style="opacity:0.1;fill:#54596E;" d="M154,226c-54.899,0-100.198-44.358-107.067-97.926C46.339,132.614,46,137.252,46,142   c0,59.647,48.353,112,108,112s108-52.353,108-112c0-4.748-0.339-9.386-0.933-13.926C254.198,181.642,208.899,226,154,226z"/>
	<path style="fill:#54596E;stroke:#54596E;stroke-width:8;stroke-linecap:round;stroke-linejoin:round;stroke-miterlimit:10;" d="   M122,158c0,17.673,14.327,32,32,32s32-14.327,32-32H122z"/>
	
		<line style="fill:none;stroke:#FFFFFF;stroke-width:8;stroke-linecap:round;stroke-linejoin:round;stroke-miterlimit:10;" x1="130" y1="166" x2="178" y2="166"/>
	
		<line style="fill:none;stroke:#54596E;stroke-width:8;stroke-linecap:round;stroke-miterlimit:10;" x1="170" y1="90" x2="138" y2="90"/>
	<line style="fill:none;stroke:#FFFFFF;stroke-width:8;stroke-miterlimit:10;" x1="194" y1="130" x2="234" y2="130"/>
	<line style="fill:none;stroke:#FFFFFF;stroke-width:8;stroke-miterlimit:10;" x1="74" y1="130" x2="114" y2="130"/>
</g>















</svg>
