<?xml version="1.0" encoding="iso-8859-1"?>
<!-- Generator: Adobe Illustrator 21.0.0, SVG Export Plug-In . SVG Version: 6.00 Build 0)  -->
<svg xmlns="http://www.w3.org/2000/svg" xmlns:xlink="http://www.w3.org/1999/xlink" version="1.1" id="group" x="0px" y="0px" viewBox="0 0 300 300" style="enable-background:new 0 0 300 300;" xml:space="preserve" width="512" height="512">
<g>
	<path style="fill:#ADF2A2;" d="M30.805,111.923c0-37.81,30.651-65.921,68.459-65.921s68.459,28.111,68.459,65.921   c0,37.809-30.651,70.997-68.459,70.997S30.805,149.732,30.805,111.923"/>
	<path style="fill:#54596E;" d="M30.805,111.923h4c0.01-17.81,7.178-33.189,18.804-44.239C65.242,56.65,81.356,50.002,99.265,50   c17.912,0.003,34.022,6.65,45.655,17.685c11.626,11.05,18.794,26.43,18.804,44.239c0.007,17.815-7.237,34.611-18.949,46.919   c-11.722,12.311-27.796,20.075-45.51,20.078c-17.711-0.003-33.788-7.768-45.51-20.078c-11.712-12.308-18.952-29.104-18.949-46.919   H30.805h-3.997c0.003,19.995,8.087,38.697,21.151,52.434c13.058,13.733,31.21,22.562,51.305,22.562   c20.098,0,38.25-8.828,51.308-22.562c13.062-13.736,21.145-32.438,21.151-52.434c0.01-19.996-8.146-37.582-21.296-50.041   c-13.147-12.476-31.263-19.884-51.163-19.881c-19.897-0.003-38.016,7.405-51.16,19.881c-13.151,12.459-21.31,30.045-21.296,50.041   H30.805"/>
	<path style="fill:#54596E;" d="M116.732,138c0-13.256-8.057-24-18.001-24c-9.94,0-17.997,10.744-17.997,24S88.791,162,98.731,162   C108.675,162,116.732,151.256,116.732,138"/>
	<path style="fill:#A4E29D;" d="M34.853,109.451c-0.031,0.818-0.047,1.643-0.048,2.473h-1.554l0,0h1.554   c-0.003,17.815,7.237,34.611,18.949,46.919c6.502,6.829,14.344,12.258,23.061,15.74c0.615-4.954,1.741-9.72,3.325-14.252   C57.528,152.996,40.045,133.126,34.853,109.451"/>
	<path style="fill:#54596E;" d="M34.806,111.923h-1.554c0,0.03,0,0.061,0,0.092c0,28.508,18.072,54.291,43.383,64.18   c0.054-0.538,0.115-1.077,0.181-1.612c-8.718-3.482-16.559-8.911-23.061-15.74C42.043,146.535,34.802,129.739,34.806,111.923    M33.821,103.503c-0.358,2.746-0.565,5.551-0.569,8.42h1.554c0-0.83,0.016-1.654,0.048-2.473   C34.424,107.493,34.078,105.508,33.821,103.503"/>
	<circle style="fill:#54596E;" cx="131.266" cy="90.459" r="8"/>
	<circle style="fill:#54596E;" cx="67.266" cy="90.459" r="8"/>
	<path style="fill:#FF9999;" d="M132.273,111.465c0-37.809,30.651-65.924,68.459-65.924s68.459,28.115,68.459,65.924   s-30.651,70.994-68.459,70.994S132.273,149.274,132.273,111.465"/>
	<path style="fill:#54596E;" d="M132.273,111.465h4c0.01-17.812,7.178-33.189,18.804-44.239   c11.633-11.037,27.743-17.681,45.655-17.685c17.912,0.004,34.022,6.647,45.655,17.685c11.626,11.05,18.794,26.427,18.804,44.239   c0.007,17.812-7.237,34.608-18.949,46.919c-11.722,12.312-27.796,20.075-45.51,20.075c-17.714,0-33.789-7.764-45.51-20.075   c-11.712-12.311-18.955-29.106-18.949-46.919H132.273h-4c0.007,19.996,8.09,38.694,21.155,52.431   c13.055,13.737,31.21,22.564,51.305,22.562c20.095,0.003,38.25-8.824,51.305-22.562c13.065-13.736,21.148-32.435,21.155-52.431   c0.01-19.999-8.149-37.582-21.3-50.044c-13.144-12.473-31.263-19.884-51.16-19.881c-19.897-0.003-38.016,7.408-51.16,19.881   c-13.151,12.462-21.31,30.045-21.3,50.044H132.273"/>
	<path style="fill:#EE9295;" d="M265.143,108.993c-5.377,24.521-23.934,44.956-47.724,51.614c1.583,4.593,2.697,9.423,3.286,14.445   c9.711-3.403,18.425-9.198,25.537-16.668c11.712-12.311,18.955-29.106,18.949-46.919   C265.19,110.635,265.174,109.811,265.143,108.993"/>
	<path style="fill:#54596E;" d="M266.175,103.042c-0.257,2.007-0.603,3.991-1.032,5.95c0.031,0.818,0.047,1.643,0.048,2.473   c0.007,17.812-7.237,34.608-18.949,46.919c-7.112,7.47-15.826,13.265-25.537,16.668c0.062,0.53,0.119,1.063,0.169,1.598   c26.606-9.132,45.87-35.662,45.87-65.096C266.745,108.654,266.538,105.819,266.175,103.042"/>
	<path style="fill:#EE9295;" d="M136.321,108.993c-0.031,0.818-0.047,1.643-0.048,2.473h-1.554l0,0h1.554   c0,1.021,0.023,2.04,0.07,3.054c0.455-0.073,0.911-0.142,1.368-0.206C137.18,112.565,136.715,110.788,136.321,108.993"/>
	<path style="fill:#54596E;" d="M136.273,111.465h-1.554c0,0.029,0,0.06,0,0.089c0,1.079,0.026,2.157,0.078,3.228   c0.513-0.093,1.029-0.181,1.547-0.263C136.297,113.505,136.273,112.486,136.273,111.465 M135.289,103.042   c-0.359,2.748-0.565,5.553-0.569,8.423h1.554c0-0.83,0.016-1.654,0.048-2.473C135.891,107.034,135.546,105.049,135.289,103.042"/>
	<path style="fill:#54596E;" d="M229.531,140.33c-5.052-11.008-16.184-18.647-29.09-18.651c-12.63,0.003-23.563,7.321-28.757,17.949   c-0.971,1.984-0.15,4.38,1.834,5.352c1.984,0.972,4.38,0.15,5.352-1.834c3.908-7.977,12.092-13.471,21.571-13.468   c9.684-0.004,18.021,5.735,21.82,13.993c0.922,2.007,3.297,2.887,5.305,1.965C229.574,144.712,230.453,142.337,229.531,140.33   L229.531,140.33z"/>
	<circle style="fill:#54596E;" cx="232.732" cy="90" r="8"/>
	<circle style="fill:#54596E;" cx="168.732" cy="90" r="8"/>
	<path style="fill:#FFF35F;" d="M80.273,183.464c0-37.809,30.651-65.925,68.459-65.925s68.459,28.116,68.459,65.925   s-30.651,70.994-68.459,70.994S80.273,221.273,80.273,183.464"/>
	<path style="fill:#54596E;" d="M80.273,183.464h4c0.01-17.813,7.178-33.189,18.804-44.239   c11.633-11.033,27.743-17.682,45.655-17.685c17.912,0.003,34.022,6.651,45.655,17.685c11.626,11.05,18.794,26.426,18.804,44.239   c0.007,17.815-7.237,34.611-18.949,46.919c-11.722,12.312-27.796,20.075-45.51,20.075s-33.788-7.764-45.51-20.075   c-11.712-12.308-18.955-29.104-18.949-46.919H80.273h-4c0.007,19.995,8.09,38.697,21.155,52.435   c13.055,13.732,31.21,22.561,51.305,22.561s38.25-8.828,51.305-22.561c13.065-13.737,21.148-32.439,21.155-52.435   c0.01-19.996-8.149-37.582-21.3-50.041c-13.144-12.476-31.263-19.884-51.16-19.881c-19.897-0.003-38.016,7.405-51.16,19.881   c-13.151,12.459-21.31,30.045-21.3,50.041H80.273"/>
	<path style="fill:#EEE361;" d="M84.321,180.994c-0.031,0.817-0.047,1.642-0.048,2.471H82.72l0,0h1.554   c-0.007,17.815,7.237,34.611,18.949,46.919c11.722,12.312,27.796,20.075,45.51,20.075s33.788-7.764,45.51-20.075   c11.712-12.308,18.955-29.104,18.949-46.919c0-0.829-0.016-1.652-0.048-2.471c-6.581,30.012-32.91,53.907-64.411,53.907   S90.902,211.005,84.321,180.994"/>
	<path style="fill:#54596E;" d="M83.289,175.045c-0.358,2.742-0.565,5.547-0.569,8.419h1.554c0-0.829,0.016-1.653,0.048-2.471   C83.892,179.035,83.546,177.051,83.289,175.045 M214.176,175.045c-0.257,2.006-0.603,3.989-1.032,5.948   c0.031,0.818,0.047,1.642,0.048,2.471c0.007,17.815-7.237,34.611-18.949,46.919c-11.722,12.312-27.796,20.075-45.51,20.075   s-33.788-7.764-45.51-20.075c-11.712-12.308-18.955-29.104-18.949-46.919H82.72c0,0.03,0,0.062,0,0.092   c0,36.459,29.554,68.46,66.013,68.46s66.013-32.001,66.013-68.46C214.745,180.652,214.538,177.817,214.176,175.045"/>
	<path style="fill:#54596E;" d="M119.643,211.348c5.052,11.007,16.182,18.648,29.09,18.651c12.63-0.003,23.563-7.321,28.757-17.949   c0.971-1.984,0.149-4.381-1.835-5.352c-1.984-0.971-4.38-0.148-5.351,1.836c-3.908,7.975-12.092,13.469-21.571,13.466   c-9.686,0.003-18.021-5.734-21.82-13.993c-0.923-2.008-3.298-2.887-5.306-1.964C119.599,206.966,118.72,209.341,119.643,211.348   L119.643,211.348z"/>
	<circle style="fill:#54596E;" cx="180.732" cy="162" r="8"/>
	<circle style="fill:#54596E;" cx="116.732" cy="162" r="8"/>
</g>















</svg>
