<?xml version="1.0" encoding="iso-8859-1"?>
<!-- Generator: Adobe Illustrator 21.0.0, SVG Export Plug-In . SVG Version: 6.00 Build 0)  -->
<svg xmlns="http://www.w3.org/2000/svg" xmlns:xlink="http://www.w3.org/1999/xlink" version="1.1" id="happy-cry" x="0px" y="0px" viewBox="0 0 300 300" style="enable-background:new 0 0 300 300;" xml:space="preserve" width="512" height="512">
<g>
	<path style="fill:#EEEEF0;" d="M194.43,250.558C180.755,256.609,165.747,260,150,260c-15.747,0-30.756-3.391-44.431-9.442   c-16.786,2.197-27.57,5.61-27.57,9.442c0,6.627,32.236,12,72.001,12c39.765,0,72.001-5.373,72.001-12   C222.001,256.168,211.216,252.755,194.43,250.558"/>
	<path style="fill:#FFF35F;" d="M261.998,139.853c0-61.855-50.142-107.851-111.998-107.851S37.998,77.998,37.998,139.853   c0,61.856,50.146,116.149,112.002,116.149S261.998,201.709,261.998,139.853"/>
	<path style="fill:#54596E;" d="M261.998,139.853h4.002c0.008-32.022-13.024-60.089-34.053-80.024   C210.923,39.877,181.92,27.996,150,28c-31.924-0.004-60.927,11.878-81.948,31.829c-21.033,19.936-34.064,48.002-34.053,80.024   c0.004,32.02,12.963,62.009,33.908,84.027C88.841,245.895,117.882,260,150,260c32.118,0,61.155-14.105,82.093-36.12   c20.945-22.019,33.9-52.008,33.908-84.027H261.998H258c0.004,29.837-12.11,57.923-31.703,78.513   C206.696,238.957,179.734,252,150,252c-29.738,0-56.7-13.043-76.297-33.634C54.11,197.776,41.993,169.69,42,139.853   c0.008-29.837,12.049-55.698,31.558-74.221C93.068,47.121,120.064,36,150,36c29.932,0,56.928,11.12,76.441,29.632   c19.505,18.522,31.547,44.384,31.558,74.221H261.998"/>
	<path style="fill:#54596E;" d="M105.999,160c0,25.405,19.699,46,44,46s44-20.595,44-46H105.999z"/>
	<path style="fill:#54596E;" d="M105.999,160h-4c-0.001,13.743,5.334,26.237,13.997,35.291c8.653,9.057,20.708,14.712,34.003,14.708   c13.296,0.004,25.35-5.651,34.003-14.708c8.663-9.054,13.997-21.548,13.997-35.291c0-1.054-0.427-2.084-1.172-2.829   c-0.745-0.744-1.775-1.171-2.828-1.171h-88c-1.053,0-2.084,0.426-2.828,1.171c-0.745,0.745-1.172,1.775-1.172,2.829H105.999V164h88   V160h-4c-0.001,11.661-4.516,22.167-11.778,29.762c-7.272,7.592-17.217,12.234-28.222,12.238   c-11.005-0.004-20.95-4.646-28.222-12.238C114.515,182.167,110,171.662,109.999,160H105.999V164V160z"/>
	<path style="fill:#EEE361;" d="M257.067,126.076c-6.87,53.565-52.168,97.927-107.067,97.927   c-54.899,0-100.197-44.361-107.067-97.927c-0.592,4.521-0.93,9.142-0.933,13.872c0.018,29.802,12.13,57.849,31.703,78.418   C93.3,238.957,120.262,252,150,252l0,0l0,0c29.734,0,56.696-13.043,76.297-33.634c19.574-20.57,31.683-48.618,31.703-78.423   C257.997,135.214,257.658,130.596,257.067,126.076"/>
	<path style="fill:#54596E;" d="M42.001,139.948c0,0.018,0,0.036,0,0.054C42,199.645,90.353,252,150,252   c-29.738,0-56.7-13.043-76.297-33.634C54.131,197.796,42.018,169.75,42.001,139.948 M257.999,139.943   c-0.02,29.805-12.129,57.853-31.703,78.423C206.696,238.957,179.734,252,150,252c59.647,0,108-52.354,108-111.998   C258,139.982,257.999,139.962,257.999,139.943"/>
	<path style="fill:#54596E;" d="M103.982,91.454l9.656,5.641l-13.554,7.395c-1.94,1.058-2.654,3.487-1.596,5.427   c1.058,1.939,3.488,2.654,5.428,1.597l19.771-10.788c1.266-0.691,2.063-2.011,2.084-3.453c0.021-1.441-0.737-2.785-1.982-3.512   l-15.771-9.213c-1.908-1.115-4.357-0.472-5.472,1.437C101.431,87.89,102.074,90.339,103.982,91.454L103.982,91.454z"/>
	<path style="fill:#54596E;" d="M191.753,84.546l-15.771,9.213c-1.245,0.727-2.003,2.07-1.982,3.512   c0.021,1.442,0.818,2.762,2.084,3.453l19.771,10.787c1.939,1.058,4.368,0.344,5.427-1.596c1.058-1.938,0.344-4.368-1.595-5.426   l-13.554-7.396l9.656-5.64c1.907-1.115,2.55-3.564,1.436-5.471C196.11,84.076,193.66,83.432,191.753,84.546L191.753,84.546z"/>
	<path style="fill:#55A6FF;" d="M91.064,134.13c-2.525,4.912-8.555,6.846-13.467,4.32c-4.91-2.525-6.846-8.554-4.32-13.466   c2.525-4.911,15.346-12.35,17.125-11.435C92.179,114.464,93.589,129.219,91.064,134.13z"/>
	<path style="fill:#55A6FF;" d="M61.39,203.274c-0.721,5.475-5.746,9.328-11.221,8.606c-5.477-0.722-9.328-5.746-8.607-11.222   c0.723-5.476,10.285-16.8,12.268-16.538S62.113,197.798,61.39,203.274z"/>
	<path style="fill:#55A6FF;" d="M229.152,136.397c4.377,6.105,2.977,14.604-3.129,18.98c-6.105,4.378-14.604,2.977-18.98-3.128   c-4.377-6.105-5.422-26.239-3.211-27.824S224.775,130.292,229.152,136.397z"/>
	<polyline style="fill:#FFFFFF;" points="117.999,172 181.999,172 181.999,164 117.999,164  "/>
</g>















</svg>
