<?xml version="1.0" encoding="iso-8859-1"?>
<!-- Generator: Adobe Illustrator 21.0.0, SVG Export Plug-In . SVG Version: 6.00 Build 0)  -->
<svg xmlns="http://www.w3.org/2000/svg" xmlns:xlink="http://www.w3.org/1999/xlink" version="1.1" id="_happy-laugh" x="0px" y="0px" viewBox="0 0 300 300" style="enable-background:new 0 0 300 300;" xml:space="preserve" width="512" height="512">
<g>
	<path style="fill:#EEEEF0;" d="M194.434,250.557c-13.676,6.053-28.685,9.444-44.434,9.444c-15.75,0-30.76-3.392-44.437-9.444   C88.78,252.754,78,256.168,78,260.001c0,6.625,32.235,11.998,72,11.998c39.761,0,72-5.373,72-11.998   C222,256.168,211.217,252.754,194.434,250.557"/>
	<path style="fill:#FFF35F;" d="M209.596,47.998C207.742,38.869,199.673,32,189.997,32c-4.165,0-8.03,1.279-11.234,3.461   C169.583,33.205,159.947,32,150,32c-9.947,0-19.587,1.205-28.767,3.461c-3.204-2.182-7.07-3.461-11.234-3.461   c-9.676,0-17.741,6.869-19.595,15.998c-31.475,18.599-52.405,51.908-52.405,91.854c0,61.855,50.145,116.149,112.001,116.149   s111.997-54.294,111.997-116.149C261.997,99.906,241.067,66.597,209.596,47.998"/>
	<path style="fill:#54596E;" d="M209.596,47.998l3.917-0.8c-2.224-10.966-11.904-19.189-23.516-19.197   c-4.987-0.004-9.648,1.539-13.482,4.149l2.248,3.311l0.956-3.886c-9.49-2.33-19.449-3.574-29.719-3.574   c-10.27,0-20.233,1.244-29.719,3.574l0.953,3.886l2.248-3.311c-3.834-2.61-8.495-4.153-13.482-4.149   c-11.612,0.008-21.288,8.231-23.516,19.197l3.921,0.8l-2.035-3.444C55.756,63.794,33.98,98.478,34,139.853   c0.004,32.018,12.962,62.009,33.904,84.028c20.937,22.017,49.976,36.12,82.096,36.12c32.117,0,61.155-14.104,82.092-36.12   c20.945-22.02,33.9-52.011,33.908-84.028c0.016-41.375-21.76-76.059-54.369-95.299L209.596,47.998l3.917-0.8L209.596,47.998   l-2.035,3.444c30.337,17.957,50.421,49.893,50.436,88.41c0.008,29.837-12.108,57.923-31.699,78.514   c-19.603,20.591-46.563,33.633-76.298,33.637c-29.739-0.004-56.699-13.046-76.298-33.637   c-19.595-20.591-31.707-48.677-31.703-78.514c0.02-38.518,20.099-70.453,50.44-88.41c0.972-0.575,1.661-1.543,1.886-2.649   c1.48-7.286,7.936-12.801,15.674-12.793c3.342,0.004,6.412,1.02,8.983,2.767c0.933,0.634,2.11,0.843,3.204,0.575   C131.058,37.165,140.376,36,150,36c9.624,0,18.942,1.165,27.81,3.342c1.094,0.268,2.271,0.059,3.204-0.575   c2.57-1.747,5.641-2.763,8.983-2.767c7.739-0.008,14.198,5.507,15.678,12.793c0.224,1.106,0.913,2.074,1.885,2.649L209.596,47.998"/>
	<path style="fill:#EEE361;" d="M257.064,126.075c-6.869,53.565-52.168,97.924-107.065,97.924c-54.9,0-100.2-44.358-107.068-97.924   c-0.592,4.52-0.93,9.142-0.933,13.868c0.021,29.803,12.128,57.854,31.703,78.423c19.599,20.591,46.559,33.633,76.298,33.637l0,0   l0,0c29.735-0.004,56.695-13.046,76.298-33.637c19.571-20.569,31.682-48.618,31.699-78.421   C257.995,135.218,257.657,130.596,257.064,126.075"/>
	<path style="fill:#54596E;" d="M257.997,139.945c-0.017,29.803-12.128,57.852-31.699,78.421   c-19.603,20.591-46.563,33.633-76.298,33.637c59.643,0,107.997-52.354,107.997-112.001   C257.997,139.983,257.997,139.964,257.997,139.945 M41.999,139.943c0,0.02,0,0.039,0,0.059   c0,59.647,48.354,112.001,108.001,112.001c-29.739-0.004-56.699-13.046-76.298-33.637C54.127,197.797,42.02,169.746,41.999,139.943   "/>
	<path style="fill:#54596E;" d="M205.999,84.001c-0.003-8.839-7.162-15.998-16-16c-8.838,0.002-15.997,7.161-16,16   c0,2.209,1.791,4,4,4c2.209,0,4-1.791,4-4c0.008-4.416,3.584-7.992,8-8.001c4.416,0.009,7.992,3.585,8,8.001c0,2.209,1.791,4,4,4   C204.208,88.001,205.999,86.21,205.999,84.001L205.999,84.001z"/>
	<path style="fill:#54596E;" d="M125.999,84.001c-0.003-8.839-7.162-15.998-16-16c-8.838,0.002-15.997,7.161-16,16   c0,2.209,1.791,4,4,4c2.209,0,4-1.791,4-4c0.008-4.416,3.584-7.992,8-8.001c4.416,0.009,7.992,3.585,8,8.001c0,2.209,1.791,4,4,4   C124.208,88.001,125.999,86.21,125.999,84.001L125.999,84.001z"/>
	<ellipse style="fill:#F9BBED;" cx="97.999" cy="100.001" rx="20" ry="8"/>
	<ellipse style="fill:#F9BBED;" cx="201.999" cy="100.001" rx="20" ry="8"/>
	<path style="fill:#54596E;" d="M85.999,124.001c0,31.545,29.549,57.117,66,57.117s66-25.572,66-57.117H85.999z"/>
	<path style="fill:#54596E;" d="M85.999,124.001h-4c-0.005,17.05,8.014,32.439,20.713,43.412   c12.706,10.991,30.123,17.701,49.287,17.704c19.163-0.003,36.581-6.713,49.287-17.704c12.699-10.973,20.718-26.362,20.713-43.412   c0-1.054-0.427-2.084-1.172-2.829c-0.745-0.744-1.775-1.171-2.828-1.171h-132c-1.053,0-2.084,0.426-2.828,1.171   c-0.745,0.745-1.172,1.775-1.172,2.829H85.999V128h132v-3.999h-4c-0.005,14.494-6.76,27.662-17.948,37.363   c-11.182,9.681-26.764,15.757-44.052,15.754c-17.288,0.003-32.87-6.073-44.052-15.754c-11.188-9.701-17.943-22.869-17.948-37.363   H85.999V128V124.001z"/>
	<path style="fill:#FFFFFF;" d="M93.999,136.001h116c2.209,0,4-1.791,4-4c0-2.21-1.791-4-4-4h-116c-2.209,0-4,1.79-4,4   C89.999,134.21,91.789,136.001,93.999,136.001"/>
</g>















</svg>
