<?xml version="1.0" encoding="iso-8859-1"?>
<!-- Generator: Adobe Illustrator 21.0.0, SVG Export Plug-In . SVG Version: 6.00 Build 0)  -->
<svg xmlns="http://www.w3.org/2000/svg" xmlns:xlink="http://www.w3.org/1999/xlink" version="1.1" id="happy-sad" x="0px" y="0px" viewBox="0 0 300 300" style="enable-background:new 0 0 300 300;" xml:space="preserve" width="512" height="512">
<g>
	<circle style="fill:#D8D8D8;" cx="110" cy="110" r="84"/>
	<path style="fill:#54596E;" d="M194,110h4c-0.003-48.603-39.397-87.998-88-88c-48.603,0.002-87.998,39.397-88,88   c0.003,48.602,39.397,87.997,88,87.999c48.603-0.002,87.997-39.397,88-87.999H194h-4c-0.002,22.104-8.948,42.078-23.431,56.568   C152.079,181.052,132.104,189.998,110,190c-22.104-0.003-42.079-8.948-56.569-23.432C38.948,152.079,30.002,132.104,30,110   c0.002-22.104,8.948-42.079,23.431-56.569C67.921,38.948,87.896,30.002,110,30c22.104,0.003,42.079,8.948,56.569,23.432   C181.052,67.921,189.998,87.896,190,110H194z"/>
	<path style="fill:#54596E;" d="M133.377,155.311c-5.261-5.716-13.856-9-23.504-9.034c-9.554,0.032-18.07,3.255-23.348,8.861   c-1.504,1.617-1.412,4.148,0.206,5.653c1.618,1.504,4.149,1.411,5.653-0.206c3.187-3.5,9.792-6.342,17.488-6.31   c7.774-0.034,14.432,2.869,17.582,6.413c1.485,1.635,4.014,1.757,5.65,0.272C134.74,159.476,134.862,156.947,133.377,155.311   L133.377,155.311z"/>
	<circle style="fill:#54596E;" cx="74" cy="110" r="8"/>
	<circle style="fill:#54596E;" cx="146" cy="110" r="8"/>
	<circle style="fill:#ADADAD;" cx="146" cy="134" r="8"/>
	<circle style="fill:#ADADAD;" cx="74" cy="134" r="8"/>
	<circle style="fill:#FFF35F;" cx="190" cy="190" r="84"/>
	<path style="fill:#54596E;" d="M274,190h4c-0.003-48.603-39.397-87.998-88-88c-48.603,0.002-87.998,39.397-88,88   c0.003,48.602,39.397,87.997,88,87.999c48.603-0.002,87.997-39.397,88-87.999H274h-4c-0.002,22.104-8.948,42.078-23.431,56.568   C232.079,261.052,212.104,269.998,190,270c-22.104-0.003-42.079-8.948-56.569-23.432C118.948,232.079,110.002,212.104,110,190   c0.002-22.104,8.948-42.079,23.431-56.569C147.921,118.948,167.896,110.002,190,110c22.104,0.003,42.079,8.948,56.569,23.432   C261.052,147.921,269.998,167.896,270,190H274z"/>
	<path style="fill:#54596E;" d="M166.495,196.966c5.262,5.715,13.857,8.999,23.505,9.033c9.554-0.032,18.07-3.255,23.346-8.861   c1.504-1.619,1.411-4.149-0.208-5.653c-1.618-1.504-4.149-1.411-5.653,0.208c-3.185,3.498-9.79,6.34-17.486,6.308   c-7.774,0.034-14.433-2.869-17.585-6.414c-1.486-1.636-4.016-1.756-5.651-0.271C165.13,192.802,165.009,195.332,166.495,196.966   L166.495,196.966z"/>
	<circle style="fill:#54596E;" cx="154" cy="154" r="8"/>
	<circle style="fill:#54596E;" cx="226" cy="154" r="8"/>
	<circle style="fill:#FF927D;" cx="226" cy="178" r="8"/>
	<circle style="fill:#FF927D;" cx="154" cy="178" r="8"/>
</g>















</svg>
