<?xml version="1.0" encoding="iso-8859-1"?>
<!-- Generator: Adobe Illustrator 21.0.0, SVG Export Plug-In . SVG Version: 6.00 Build 0)  -->
<svg xmlns="http://www.w3.org/2000/svg" xmlns:xlink="http://www.w3.org/1999/xlink" version="1.1" id="happy-tongue" x="0px" y="0px" viewBox="0 0 300 300" style="enable-background:new 0 0 300 300;" xml:space="preserve" width="512" height="512">
<g>
	<path style="fill:#EEEEF0;" d="M194.427,250.558c-13.675,6.051-28.681,9.441-44.427,9.441c-15.749,0-30.756-3.39-44.431-9.441   c-16.787,2.197-27.573,5.61-27.573,9.441c0,6.629,32.239,12.002,72.004,12.002c39.761,0,72-5.373,72-12.002   C222,256.168,211.214,252.755,194.427,250.558"/>
	<path style="fill:#FFF35F;" d="M261.997,139.854c0-61.855-50.141-107.852-111.997-107.852S37.999,77.999,37.999,139.854   S88.144,256,150,256S261.997,201.71,261.997,139.854"/>
	<path style="fill:#54596E;" d="M261.997,139.854H266c0.008-32.022-13.021-60.089-34.053-80.026   C210.923,39.879,181.92,27.999,150,27.999c-31.924,0-60.927,11.88-81.951,31.829C47.017,79.766,33.988,107.832,34,139.854   c0.004,32.018,12.958,62.005,33.904,84.025c20.937,22.016,49.976,36.119,82.096,36.119c32.117,0,61.155-14.104,82.092-36.119   c20.945-22.021,33.9-52.008,33.908-84.025H261.997h-3.999c0.008,29.833-12.108,57.919-31.703,78.51   c-19.599,20.596-46.559,33.637-76.294,33.637c-29.739,0-56.699-13.041-76.298-33.637c-19.595-20.591-31.707-48.677-31.703-78.51   c0.012-29.838,12.049-55.695,31.558-74.224C93.069,47.122,120.064,36.002,150,36.002c29.932,0,56.927,11.12,76.44,29.629   c19.509,18.528,31.55,44.386,31.558,74.224H261.997"/>
	<path style="fill:#54596E;" d="M105.998,160.001c0,25.405,19.699,46,44,46s44-20.595,44-46H105.998z"/>
	<path style="fill:#54596E;" d="M105.998,160.001h-4c-0.001,13.743,5.334,26.237,13.997,35.291   c8.653,9.057,20.708,14.712,34.003,14.708c13.296,0.004,25.35-5.651,34.003-14.708c8.663-9.054,13.997-21.548,13.997-35.291   c0-1.054-0.427-2.084-1.172-2.829c-0.745-0.744-1.775-1.171-2.828-1.171h-88c-1.053,0-2.084,0.426-2.828,1.171   c-0.745,0.745-1.172,1.775-1.172,2.829H105.998V164h88v-3.999h-4c-0.001,11.661-4.516,22.167-11.778,29.762   c-7.272,7.592-17.217,12.234-28.222,12.238c-11.005-0.004-20.95-4.646-28.222-12.238c-7.262-7.595-11.777-18.101-11.778-29.762   H105.998V164V160.001z"/>
	<path style="fill:#EEE361;" d="M257.065,126.077c-6.869,53.565-52.168,97.924-107.065,97.924c-54.9,0-100.2-44.358-107.068-97.924   c-0.592,4.521-0.93,9.139-0.933,13.866c0.02,29.801,12.127,57.851,31.703,78.421c19.599,20.596,46.559,33.637,76.298,33.637l0,0   l0,0c29.735,0,56.695-13.041,76.294-33.637c19.575-20.569,31.686-48.62,31.703-78.419   C257.995,135.217,257.657,130.599,257.065,126.077"/>
	<path style="fill:#54596E;" d="M257.997,139.945c-0.017,29.799-12.128,57.85-31.703,78.419   c-19.599,20.596-46.559,33.637-76.294,33.637c59.643,0,107.997-52.354,107.997-112.001   C257.997,139.981,257.997,139.963,257.997,139.945 M41.999,139.943c0,0.019,0,0.038,0,0.057   c0,59.647,48.354,112.001,108.001,112.001c-29.739,0-56.699-13.041-76.298-33.637C54.126,197.794,42.018,169.744,41.999,139.943"/>
	<path style="fill:#54596E;" d="M103.981,91.454l9.656,5.641l-13.554,7.395c-1.939,1.058-2.654,3.487-1.596,5.427   c1.058,1.939,3.488,2.654,5.428,1.597l19.771-10.788c1.266-0.691,2.063-2.011,2.084-3.453c0.021-1.441-0.737-2.785-1.982-3.512   l-15.771-9.213c-1.908-1.115-4.357-0.472-5.472,1.437C101.43,87.891,102.073,90.34,103.981,91.454L103.981,91.454z"/>
	<path style="fill:#54596E;" d="M191.752,84.547l-15.771,9.213c-1.245,0.727-2.003,2.07-1.982,3.512   c0.021,1.442,0.818,2.762,2.084,3.453l19.771,10.787c1.939,1.058,4.368,0.344,5.427-1.596c1.058-1.938,0.344-4.368-1.595-5.426   l-13.554-7.396l9.656-5.64c1.907-1.115,2.55-3.564,1.436-5.471C196.109,84.076,193.659,83.433,191.752,84.547L191.752,84.547z"/>
	<ellipse style="fill:#F9BBED;" cx="97.998" cy="128.001" rx="20" ry="8"/>
	<ellipse style="fill:#F9BBED;" cx="201.998" cy="128.001" rx="20" ry="8"/>
	<path style="fill:#FF7D7D;" d="M149.998,240.001L149.998,240.001c-11.045,0-20-8.954-20-20v-56h40v56   C169.998,231.047,161.043,240.001,149.998,240.001z"/>
	<path style="fill:#54596E;" d="M149.998,240.001v-4c-4.431-0.003-8.405-1.785-11.313-4.687c-2.902-2.908-4.685-6.883-4.687-11.313   v-52.002h32l0,52.002c-0.002,4.431-1.785,8.405-4.687,11.313c-2.908,2.901-6.883,4.684-11.313,4.687V240.001V244   c13.256-0.002,23.997-10.743,24-23.999v-60h-48v60c0.003,13.256,10.744,23.997,24,23.999V240.001z"/>
	<polyline style="fill:#54596E;" points="153.998,192.001 153.998,164.001 145.998,164.001 145.998,192.001  "/>
</g>















</svg>
