<?xml version="1.0" encoding="iso-8859-1"?>
<!-- Generator: Adobe Illustrator 21.0.0, SVG Export Plug-In . SVG Version: 6.00 Build 0)  -->
<svg xmlns="http://www.w3.org/2000/svg" xmlns:xlink="http://www.w3.org/1999/xlink" version="1.1" id="happy" x="0px" y="0px" viewBox="0 0 300 300" style="enable-background:new 0 0 300 300;" xml:space="preserve" width="512" height="512">
<g>
	<path style="fill:#EEEEF0;" d="M194.437,250.557c-13.676,6.053-28.686,9.445-44.435,9.445c-15.751,0-30.762-3.393-44.438-9.445   c-16.784,2.197-27.565,5.611-27.565,9.445c0,6.625,32.236,11.998,72.003,11.998c39.763,0,71.999-5.373,71.999-11.998   C222.001,256.168,211.22,252.754,194.437,250.557"/>
	<path style="fill:#FFF35F;" d="M262,139.855c0-61.857-50.144-107.852-111.998-107.852C88.144,32.003,38,77.998,38,139.855   c0,61.854,50.144,116.147,112.002,116.147C211.856,256.002,262,201.708,262,139.855"/>
	<path style="fill:#54596E;" d="M262,139.855h3.999c0.012-32.024-13.019-60.09-34.048-80.026C210.925,39.88,181.921,28,150.002,28   c-31.923,0-60.927,11.881-81.949,31.829c-21.034,19.937-34.065,48.002-34.052,80.026c0.004,32.017,12.962,62.004,33.906,84.025   c20.936,22.018,49.973,36.122,82.095,36.122c32.118,0,61.155-14.104,82.091-36.122c20.944-22.021,33.902-52.009,33.906-84.025H262   h-4c0.004,29.834-12.108,57.919-31.703,78.51c-19.599,20.596-46.559,33.634-76.295,33.639c-29.74-0.005-56.7-13.043-76.299-33.639   C54.112,197.774,41.996,169.689,42,139.855c0.012-29.838,12.051-55.696,31.557-74.222c19.514-18.51,46.51-29.631,76.445-29.635   c29.931,0.004,56.928,11.125,76.441,29.635c19.506,18.525,31.545,44.384,31.557,74.222H262"/>
	<path style="fill:#EEE361;" d="M257.065,126.077c-6.869,53.565-52.168,97.926-107.063,97.926   c-54.899,0-100.198-44.36-107.067-97.926c-0.591,4.521-0.932,9.139-0.935,13.866c0.02,29.801,12.131,57.852,31.703,78.422   c19.599,20.596,46.559,33.634,76.299,33.639l0,0l0,0c29.736-0.005,56.696-13.043,76.295-33.639   c19.576-20.57,31.683-48.619,31.703-78.42C257.997,135.216,257.656,130.598,257.065,126.077"/>
	<path style="fill:#54596E;" d="M258,139.945c-0.02,29.801-12.127,57.85-31.703,78.42c-19.599,20.596-46.559,33.634-76.295,33.639   c59.647,0,107.998-52.355,107.998-112.002C258,139.983,258,139.963,258,139.945 M42,139.943c0,0.02,0,0.039,0,0.059   c0,59.646,48.355,112.002,108.002,112.002c-29.74-0.005-56.7-13.043-76.299-33.639C54.131,197.794,42.02,169.744,42,139.943"/>
	<path style="fill:#54596E;" d="M206,124.001c-0.003-8.839-7.162-15.998-16-16c-8.838,0.002-15.997,7.161-16,16c0,2.209,1.791,4,4,4   c2.209,0,4-1.791,4-4c0.008-4.416,3.584-7.992,8-8.001c4.416,0.009,7.992,3.585,8,8.001c0,2.209,1.791,4,4,4   C204.21,128.001,206,126.21,206,124.001L206,124.001z"/>
	<path style="fill:#54596E;" d="M126,124.001c-0.003-8.839-7.162-15.998-16-16c-8.838,0.002-15.997,7.161-16,16c0,2.209,1.791,4,4,4   c2.209,0,4-1.791,4-4c0.008-4.416,3.584-7.992,8-8.001c4.416,0.009,7.992,3.585,8,8.001c0,2.209,1.791,4,4,4   C124.21,128.001,126,126.21,126,124.001L126,124.001z"/>
	<path style="fill:#54596E;" d="M72.048,159.723c8.282,6.268,19.576,11.271,32.901,14.786C118.274,178.015,133.633,180,150,180   c16.564-0.001,32.097-2.034,45.532-5.619c13.436-3.596,24.78-8.707,33.014-15.115c1.742-1.359,2.052-3.872,0.693-5.614   c-1.359-1.741-3.872-2.052-5.613-0.692c-7.016,5.485-17.48,10.318-30.157,13.693c-12.678,3.386-27.563,5.35-43.469,5.349   c-15.717,0.001-30.436-1.917-43.015-5.229c-12.578-3.302-23.009-8.031-30.104-13.424c-1.76-1.335-4.27-0.99-5.604,0.771   C69.943,155.879,70.288,158.389,72.048,159.723L72.048,159.723z"/>
	<ellipse style="fill:#F9BBED;" cx="98" cy="140.001" rx="20" ry="8"/>
	<ellipse style="fill:#F9BBED;" cx="202" cy="140.001" rx="20" ry="8"/>
</g>















</svg>
