<?xml version="1.0" encoding="iso-8859-1"?>
<!-- Generator: Adobe Illustrator 21.0.0, SVG Export Plug-In . SVG Version: 6.00 Build 0)  -->
<svg xmlns="http://www.w3.org/2000/svg" xmlns:xlink="http://www.w3.org/1999/xlink" version="1.1" id="hearts" x="0px" y="0px" viewBox="0 0 300 300" style="enable-background:new 0 0 300 300;" xml:space="preserve" width="512" height="512">
<g>
	<path style="fill:#EEEEF0;" d="M194.434,250.557c-13.676,6.053-28.684,9.443-44.433,9.441c-0.004,0-0.008,0-0.012,0   c-15.746,0-30.751-3.391-44.423-9.441c-16.783,2.198-27.564,5.612-27.564,9.445c0,6.624,32.234,12,71.999,12   c39.762,0,71.999-5.376,71.999-12C222,256.169,211.217,252.754,194.434,250.557"/>
	<path style="fill:#FFF35F;" d="M262.002,139.853c0-61.855-50.146-107.852-112.001-107.852S37.999,77.997,37.999,139.853   c0,61.854,50.146,116.146,112.001,116.146S262.002,201.707,262.002,139.853"/>
	<path style="fill:#54596E;" d="M262.002,139.853H266c0.01-32.021-13.02-60.089-34.052-80.024   c-21.025-19.949-50.026-31.83-81.948-31.83c-31.922,0-60.924,11.881-81.948,31.83c-21.031,19.936-34.062,48.003-34.052,80.024   c0.003,32.018,12.962,62.006,33.904,84.026c20.939,22.018,49.975,36.123,82.096,36.119c32.117,0.004,61.157-14.102,82.092-36.119   c20.946-22.021,33.901-52.009,33.908-84.026H262.002h-4.002c0.007,29.837-12.109,57.921-31.703,78.511   c-19.597,20.594-46.558,33.638-76.296,33.638c-29.738,0-56.699-13.044-76.299-33.638c-19.59-20.59-31.706-48.674-31.699-78.511   c0.01-29.837,12.051-55.696,31.556-74.222C93.069,47.119,120.068,36.003,150,35.999c29.933,0.004,56.928,11.12,76.443,29.632   c19.504,18.525,31.545,44.385,31.556,74.222H262.002"/>
	<path style="fill:#EEE361;" d="M257.068,126.075c-6.871,53.566-52.169,97.924-107.068,97.924   c-54.898,0-100.196-44.357-107.068-97.924c-0.59,4.522-0.928,9.14-0.931,13.869c0.018,29.803,12.13,57.851,31.699,78.419   c19.6,20.594,46.562,33.638,76.299,33.638l0,0l0,0c29.738,0,56.699-13.044,76.296-33.638c19.573-20.568,31.684-48.617,31.703-78.42   C257.997,135.215,257.658,130.598,257.068,126.075"/>
	<path style="fill:#54596E;" d="M42.002,139.944c0,0.019,0,0.037,0,0.056c0,59.646,48.352,112.001,107.999,112.001   c-29.738,0-56.699-13.044-76.299-33.638C54.131,197.795,42.02,169.747,42.002,139.944 M257.999,139.943   c-0.018,29.803-12.13,57.852-31.703,78.42c-19.597,20.594-46.558,33.638-76.296,33.638c59.647,0,107.999-52.354,107.999-112.001   C257.999,139.981,257.999,139.962,257.999,139.943"/>
	<path style="fill:#54596E;" d="M118,148c0,17.673,14.326,32,32,32s32-14.327,32-32H118z"/>
	<path style="fill:#54596E;" d="M118,148h-4c0.002,19.883,16.115,35.997,36,35.999c19.885-0.002,35.997-16.116,36-35.999   c0-1.054-0.427-2.084-1.172-2.829C184.084,144.427,183.053,144,182,144h-64c-1.053,0-2.084,0.426-2.828,1.171S114,146.946,114,148   H118v4h64v-4h-4c-0.002,7.744-3.128,14.719-8.201,19.799c-5.08,5.073-12.054,8.198-19.799,8.201   c-7.745-0.003-14.72-3.128-19.799-8.201c-5.073-5.08-8.199-12.055-8.201-19.799H118v4V148z"/>
	<path style="fill:#FFFFFF;" d="M126,160h48c2.209,0,4-1.791,4-4c0-2.21-1.791-4-4-4h-48c-2.209,0-4,1.79-4,4   C122,158.209,123.791,160,126,160"/>
	<path style="fill:#FF80C3;" d="M72,76.667c-9.572-9.573-25.094-9.573-34.666,0c-9.574,9.572-9.574,25.094,0,34.666L72,146   l34.666-34.667c9.574-9.572,9.574-25.094,0-34.666C97.094,67.094,81.572,67.094,72,76.667z"/>
	<path style="fill:#54596E;" d="M72,76.667l2.829-2.829c-5.557-5.561-12.878-8.356-20.162-8.352   c-7.284-0.005-14.605,2.79-20.162,8.353c-5.56,5.556-8.356,12.877-8.352,20.161c-0.005,7.283,2.792,14.604,8.352,20.161   l34.666,34.667c0.755,0.755,1.76,1.171,2.828,1.171c1.069,0,2.073-0.416,2.828-1.171l34.666-34.667   c5.561-5.558,8.357-12.879,8.352-20.161c0.005-7.285-2.792-14.607-8.353-20.163c-5.556-5.56-12.877-8.355-20.161-8.351   c-7.284-0.005-14.605,2.79-20.162,8.353L72,76.667l2.829-2.829L72,76.667l2.829,2.827c4.015-4.014,9.24-6.004,14.504-6.009   c5.263,0.005,10.489,1.996,14.504,6.01c4.014,4.014,6.005,9.24,6.009,14.505c-0.005,5.26-1.995,10.487-6.009,14.504l-31.838,31.839   l-31.837-31.839c-4.014-4.016-6.005-9.241-6.009-14.504c0.005-5.264,1.995-10.489,6.009-14.505   c4.016-4.015,9.241-6.005,14.505-6.01c5.263,0.005,10.489,1.996,14.504,6.01c0.755,0.755,1.761,1.172,2.829,1.172   c1.069-0.001,2.073-0.418,2.828-1.173L72,76.667z"/>
	<path style="fill:#FF80C3;" d="M228,76.667c-9.572-9.573-25.094-9.573-34.666,0c-9.574,9.572-9.574,25.094,0,34.666L228,146   l34.666-34.667c9.574-9.572,9.574-25.094,0-34.666C253.094,67.094,237.572,67.094,228,76.667z"/>
	<path style="fill:#54596E;" d="M228,76.667l2.829-2.829c-5.557-5.561-12.878-8.356-20.162-8.352   c-7.284-0.005-14.605,2.79-20.162,8.353c-5.56,5.556-8.356,12.877-8.352,20.161c-0.005,7.283,2.792,14.604,8.352,20.161   l34.666,34.667c0.755,0.755,1.76,1.171,2.828,1.171c1.069,0,2.073-0.416,2.828-1.171l34.666-34.667   c5.561-5.558,8.357-12.879,8.352-20.161c0.005-7.285-2.792-14.607-8.353-20.163c-5.556-5.56-12.877-8.355-20.161-8.351   c-7.284-0.005-14.605,2.79-20.162,8.353L228,76.667l2.829-2.829L228,76.667l2.829,2.827c4.015-4.014,9.24-6.004,14.504-6.009   c5.263,0.005,10.489,1.996,14.504,6.01c4.014,4.014,6.005,9.24,6.009,14.505c-0.005,5.26-1.995,10.487-6.009,14.504l-31.838,31.839   l-31.837-31.839c-4.014-4.016-6.005-9.241-6.009-14.504c0.005-5.264,1.995-10.489,6.009-14.505   c4.016-4.015,9.241-6.005,14.505-6.01c5.263,0.005,10.489,1.996,14.504,6.01c0.755,0.755,1.761,1.172,2.829,1.172   c1.069-0.001,2.073-0.418,2.828-1.173L228,76.667z"/>
	<path style="fill:#FFFFFF;" d="M55.172,81.171l-12,12c-1.562,1.562-1.562,4.095,0,5.657c1.562,1.562,4.095,1.562,5.657,0l12-12   c1.562-1.562,1.562-4.095,0-5.657C59.266,79.609,56.734,79.609,55.172,81.171"/>
	<path style="fill:#FFFFFF;" d="M211.172,81.171l-12,12c-1.562,1.562-1.562,4.095,0,5.657c1.562,1.562,4.095,1.562,5.657,0l12-12   c1.562-1.562,1.562-4.095,0-5.657C215.266,79.609,212.734,79.609,211.172,81.171"/>
</g>















</svg>
