<?xml version="1.0" encoding="iso-8859-1"?>
<!-- Generator: Adobe Illustrator 21.0.0, SVG Export Plug-In . SVG Version: 6.00 Build 0)  -->
<svg xmlns="http://www.w3.org/2000/svg" xmlns:xlink="http://www.w3.org/1999/xlink" version="1.1" id="hypno" x="0px" y="0px" viewBox="0 0 300 300" style="enable-background:new 0 0 300 300;" xml:space="preserve" width="512" height="512">
<g>
	<path style="fill:#EEEEF0;" d="M194.437,250.557c-13.677,6.053-28.688,9.445-44.437,9.445c-15.749,0-30.76-3.393-44.437-9.445   c-16.783,2.197-27.562,5.611-27.562,9.445C78.001,266.627,110.233,272,150,272c39.767,0,71.999-5.373,71.999-11.998   C221.999,256.168,211.219,252.754,194.437,250.557"/>
	<path style="fill:#FFF35F;" d="M262.002,139.855c0-61.857-50.148-107.852-112.002-107.852   c-61.854,0-112.002,45.994-112.002,107.852c0,61.854,50.148,116.147,112.002,116.147   C211.854,256.002,262.002,201.708,262.002,139.855"/>
	<path style="fill:#54596E;" d="M262.002,139.855h4c0.008-32.024-13.023-60.09-34.052-80.026C210.923,39.88,181.923,28,150,28   c-31.923,0-60.927,11.881-81.949,31.829c-21.03,19.937-34.061,48.002-34.053,80.026c0.008,32.017,12.962,62.004,33.906,84.025   c20.936,22.018,49.977,36.122,82.095,36.122c32.118,0,61.159-14.104,82.095-36.122c20.944-22.021,33.898-52.009,33.906-84.025   H262.002h-4.004c0.008,29.834-12.108,57.919-31.699,78.51c-19.603,20.596-46.563,33.634-76.299,33.639   c-29.736-0.005-56.7-13.043-76.299-33.639c-19.591-20.591-31.707-48.676-31.703-78.51c0.012-29.838,12.051-55.696,31.561-74.222   c19.51-18.51,46.506-29.631,76.441-29.635c29.935,0.004,56.932,11.125,76.441,29.635c19.506,18.525,31.549,44.384,31.557,74.222   H262.002"/>
	<path style="fill:#EEE361;" d="M257.068,126.077c-6.869,53.565-52.168,97.926-107.067,97.926   c-54.899,0-100.198-44.36-107.068-97.926c-0.593,4.54-0.931,9.178-0.931,13.925c0,1.121,0.017,2.241,0.051,3.357   c0.903,28.522,12.826,55.224,31.648,75.006C93.3,238.96,120.264,251.999,150,252.003l0,0l0,0   c29.736-0.005,56.696-13.043,76.299-33.639c19.571-20.569,31.682-48.62,31.699-78.419   C257.995,135.218,257.659,130.598,257.068,126.077"/>
	<path style="fill:#54596E;" d="M42.053,143.359C43.824,201.599,91.474,252.003,150,252.003   c-29.736-0.005-56.7-13.043-76.299-33.639C54.879,198.583,42.956,171.881,42.053,143.359 M257.998,139.946   c-0.017,29.799-12.128,57.85-31.699,78.419c-19.603,20.596-46.563,33.634-76.299,33.639c59.647,0,107.998-52.355,107.998-112.002   C257.998,139.983,257.998,139.964,257.998,139.946"/>
	<path style="fill:#54596E;" d="M120.668,108.001h-15.623l15.515-12.928c1.289-1.075,1.772-2.855,1.2-4.435   c-0.572-1.578-2.082-2.638-3.761-2.638H94c-2.209,0-4,1.79-4,4c0,2.209,1.791,4,4,4L106.953,96l-15.514,12.928   c-1.29,1.074-1.772,2.856-1.2,4.435C90.81,114.941,92.321,116,94,116h26.668c2.208,0,3.999-1.791,3.999-3.999   C124.667,109.792,122.876,108.002,120.668,108.001L120.668,108.001z"/>
	<path style="fill:#54596E;" d="M208.668,108.001h-15.623l15.515-12.928c1.289-1.075,1.772-2.855,1.2-4.435   c-0.572-1.578-2.082-2.638-3.761-2.638h-24c-2.209,0-4,1.79-4,4c0,2.209,1.791,4,4,4L194.953,96l-15.514,12.928   c-1.29,1.074-1.772,2.856-1.2,4.435C178.81,114.941,180.321,116,182,116h26.668c2.208,0,3.999-1.791,3.999-3.999   C212.667,109.792,210.876,108.002,208.668,108.001L208.668,108.001z"/>
	<path style="fill:#54596E;" d="M194,168.001c0,0-21.91-40-44-40s-44,40-44,40c0,22.092,21.91,40,44,40S194,190.093,194,168.001z"/>
	<path style="fill:#54596E;" d="M194,168.001l3.508-1.922c-0.075-0.128-5.63-10.288-14.137-20.622   c-4.263-5.168-9.259-10.391-14.825-14.442c-5.557-4.025-11.781-6.992-18.545-7.014c-6.764,0.021-12.989,2.988-18.546,7.014   c-8.338,6.079-15.447,14.785-20.613,22.007c-5.15,7.221-8.297,12.963-8.349,13.058c-0.326,0.594-0.492,1.244-0.492,1.922   c0.006,12.408,6.144,23.45,15.076,31.289c8.952,7.849,20.792,12.695,32.924,12.71c12.132-0.015,23.972-4.861,32.924-12.71   c8.932-7.839,15.07-18.881,15.076-31.289c0-0.678-0.166-1.328-0.492-1.922L194,168.001h-4c0.006,9.683-4.811,18.641-12.356,25.279   c-7.526,6.628-17.686,10.735-27.644,10.721c-9.958,0.015-20.118-4.093-27.644-10.721c-7.545-6.639-12.363-15.597-12.356-25.279h-4   l3.508,1.921l0.224-0.399c1.164-2.065,6.839-11.785,14.592-20.785c3.868-4.499,8.259-8.808,12.724-11.882   c4.475-3.097,8.935-4.871,12.951-4.855c4.281-0.021,9.079,2.012,13.843,5.486c7.144,5.171,13.938,13.34,18.804,20.181   c2.44,3.421,4.416,6.509,5.773,8.729c0.679,1.11,1.203,2.004,1.555,2.613l0.395,0.694l0.122,0.219L194,168.001h-4H194z"/>
	<path style="fill:#FF9999;" d="M162,200.001c8.836,0,16-7.164,16-16c0-8.837-7.164-16-16-16c-4.805,0-9.066,2.163-12,5.518   c-2.934-3.354-7.195-5.518-12-5.518c-8.836,0-16,7.163-16,16c0,8.836,7.164,16,16,16H162z"/>
	<path style="fill:#FFFFFF;" d="M177.34,156.001c-6.758-9.084-17.012-20-27.34-20s-20.582,10.916-27.34,20H177.34z"/>
</g>















</svg>
