<?xml version="1.0" encoding="iso-8859-1"?>
<!-- Generator: Adobe Illustrator 21.0.0, SVG Export Plug-In . SVG Version: 6.00 Build 0)  -->
<svg xmlns="http://www.w3.org/2000/svg" xmlns:xlink="http://www.w3.org/1999/xlink" version="1.1" id="hypnotised" x="0px" y="0px" viewBox="0 0 300 300" style="enable-background:new 0 0 300 300;" xml:space="preserve" width="512" height="512">
<g>
	<path style="fill:#EEEEF0;" d="M105.567,250.555c-16.784,2.197-27.567,5.611-27.567,9.444c0,6.628,32.236,12.002,72.003,12.002   c39.763,0,71.999-5.374,71.999-12.002c0-3.833-10.783-7.247-27.566-9.444c-13.676,6.053-28.683,9.444-44.433,9.444   C134.252,260,119.243,256.608,105.567,250.555"/>
	<path style="fill:#ADF2A2;" d="M262.001,139.852c0-61.854-50.145-107.851-111.999-107.851c-61.855,0-112,45.996-112,107.851   S88.147,256,150.002,256C211.857,256,262.001,201.707,262.001,139.852"/>
	<path style="fill:#54596E;" d="M262.001,139.852h3.999c0.011-32.023-13.021-60.09-34.051-80.026   c-21.023-19.95-50.027-31.827-81.948-31.827c-31.924,0-60.928,11.877-81.951,31.827c-21.03,19.937-34.062,48.003-34.051,80.026   c0.007,32.017,12.964,62.008,33.906,84.025C88.843,245.895,117.883,260,150.002,260c32.119,0,61.155-14.104,82.093-36.122   c20.945-22.018,33.899-52.009,33.906-84.025H262.001h-3.999c0.004,29.835-12.112,57.92-31.704,78.513   c-19.599,20.594-46.561,33.633-76.297,33.636c-29.739-0.003-56.698-13.042-76.3-33.636c-19.592-20.593-31.707-48.678-31.7-78.513   c0.011-29.835,12.051-55.696,31.558-74.223C93.07,47.122,120.067,36,150.002,35.997C179.933,36,206.93,47.122,226.444,65.629   c19.507,18.526,31.547,44.388,31.558,74.223H262.001"/>
	<path style="fill:#A4E29D;" d="M257.068,126.075c-6.869,53.564-52.169,97.924-107.066,97.924   c-54.901,0-100.197-44.359-107.066-97.924c-0.594,4.521-0.931,9.142-0.934,13.871c0.018,29.8,12.128,57.847,31.7,78.419   c19.602,20.594,46.561,33.633,76.3,33.636l0,0l0,0c29.736-0.003,56.698-13.042,76.297-33.636   c19.573-20.573,31.683-48.621,31.703-78.424C257.999,135.213,257.658,130.594,257.068,126.075"/>
	<path style="fill:#54596E;" d="M42.002,139.946c0,0.019,0,0.037,0,0.056c0,59.646,48.351,111.999,108,111.999   c-29.739-0.003-56.698-13.042-76.3-33.636C54.13,197.792,42.02,169.746,42.002,139.946 M258.002,139.941   c-0.02,29.803-12.131,57.851-31.703,78.424c-19.599,20.594-46.561,33.633-76.297,33.636c59.646,0,108-52.354,108-111.999   C258.002,139.981,258.002,139.961,258.002,139.941"/>
	<circle style="fill:#FFF35F;" cx="98.001" cy="116" r="20"/>
	<circle style="fill:#FFF35F;" cx="198.001" cy="116" r="20"/>
	<path style="fill:#54596E;" d="M119.172,90.828c5.854,5.856,8.764,13.494,8.769,21.17c-0.005,7.675-2.915,15.313-8.77,21.174   c-4.53,4.527-10.432,6.775-16.371,6.78c-5.939-0.005-11.841-2.254-16.372-6.781c-3.467-3.471-5.185-7.983-5.19-12.532   c0.005-4.55,1.723-9.062,5.19-12.53c2.838-2.894,7.748-4.829,12.138-4.796c1.77,0,3.437,0.294,4.859,0.852   c1.426,0.562,2.605,1.363,3.552,2.454c2.285,2.581,4.019,6.963,3.981,10.678c0,1.821-0.373,3.451-1.089,4.774   c-0.728,1.323-1.756,2.41-3.491,3.297c-2.769,1.413-5.466,2.294-7.362,2.269c-1.548-0.043-2.515-0.356-3.74-1.525   c-0.963-0.966-1.429-2.196-1.434-3.462c0.005-1.268,0.471-2.497,1.434-3.462c0.62-0.618,1.393-0.91,2.206-0.915   c0.812,0.005,1.586,0.297,2.204,0.913c1.561,1.562,4.094,1.563,5.657,0.002c1.563-1.562,1.564-4.094,0.002-5.656   c-2.161-2.166-5.032-3.263-7.863-3.258c-2.831-0.005-5.702,1.092-7.863,3.257c-2.51,2.506-3.781,5.831-3.776,9.119   c-0.005,3.286,1.266,6.61,3.777,9.119c2.652,2.706,6.18,3.91,9.397,3.867c4.018-0.025,7.651-1.479,10.958-3.121   c3.123-1.56,5.486-3.936,6.934-6.644c1.46-2.708,2.049-5.678,2.049-8.574c-0.039-5.935-2.328-11.701-5.934-15.916   c-1.861-2.152-4.195-3.694-6.681-4.665c-2.491-0.974-5.137-1.401-7.776-1.401c-6.525,0.033-13.125,2.523-17.795,7.138   c-5.015,5.01-7.538,11.617-7.533,18.188c-0.005,6.569,2.518,13.176,7.533,18.189c6.073,6.074,14.069,9.128,22.029,9.123   c7.959,0.005,15.956-3.048,22.029-9.123c7.4-7.402,11.117-17.135,11.112-26.83c0.005-9.696-3.712-19.43-11.112-26.827   c-1.562-1.562-4.095-1.562-5.657,0C117.609,86.733,117.61,89.266,119.172,90.828L119.172,90.828z"/>
	<path style="fill:#54596E;" d="M172.352,85.17c-7.402,7.397-11.118,17.131-11.114,26.827c-0.005,9.695,3.712,19.429,11.113,26.829   c6.073,6.076,14.069,9.129,22.028,9.124c7.959,0.005,15.955-3.049,22.027-9.123c5.016-5.013,7.54-11.62,7.535-18.189   c0.005-6.57-2.519-13.178-7.536-18.188c-4.668-4.613-11.267-7.104-17.792-7.137c-2.639,0-5.285,0.428-7.776,1.401   c-2.486,0.971-4.82,2.513-6.682,4.666c-3.604,4.214-5.894,9.98-5.933,15.916c0,2.896,0.589,5.865,2.049,8.573   c1.448,2.707,3.81,5.084,6.932,6.643c3.31,1.644,6.942,3.096,10.961,3.122c3.217,0.043,6.745-1.162,9.395-3.865   c2.512-2.51,3.784-5.834,3.78-9.121c0.005-3.289-1.268-6.614-3.78-9.121c-2.159-2.163-5.028-3.26-7.859-3.255   c-2.831-0.005-5.701,1.092-7.862,3.257c-1.562,1.562-1.561,4.096,0.002,5.657c1.563,1.562,4.096,1.562,5.658-0.001   c0.618-0.617,1.391-0.909,2.203-0.914c0.811,0.005,1.584,0.297,2.203,0.913c0.966,0.968,1.432,2.197,1.437,3.464   c-0.005,1.265-0.471,2.495-1.436,3.463c-1.225,1.169-2.191,1.481-3.739,1.524c-1.896,0.025-4.593-0.855-7.365-2.27   c-1.733-0.886-2.76-1.972-3.488-3.296c-0.716-1.322-1.089-2.952-1.089-4.773c-0.039-3.716,1.696-8.098,3.98-10.678   c0.948-1.092,2.127-1.894,3.553-2.455c1.422-0.558,3.088-0.852,4.859-0.852c4.389-0.033,9.299,1.902,12.136,4.795   c3.469,3.47,5.188,7.981,5.192,12.531c-0.005,4.549-1.723,9.061-5.192,12.532c-4.531,4.527-10.433,6.776-16.371,6.781   c-5.939-0.005-11.84-2.253-16.371-6.781c-5.855-5.86-8.766-13.498-8.77-21.173c0.005-7.676,2.916-15.313,8.77-21.17   c1.562-1.562,1.562-4.095,0-5.656C176.446,83.609,173.914,83.609,172.352,85.17L172.352,85.17z"/>
	<path style="fill:#54596E;" d="M170.001,188h-40c-6.627,0-12-5.373-12-12s5.373-12,12-12h40c6.627,0,12,5.373,12,12   S176.628,188,170.001,188z"/>
</g>















</svg>
