<?xml version="1.0" encoding="iso-8859-1"?>
<!-- Generator: Adobe Illustrator 21.0.0, SVG Export Plug-In . SVG Version: 6.00 Build 0)  -->
<svg xmlns="http://www.w3.org/2000/svg" xmlns:xlink="http://www.w3.org/1999/xlink" version="1.1" id="injuried" x="0px" y="0px" viewBox="0 0 300 300" style="enable-background:new 0 0 300 300;" xml:space="preserve" width="512" height="512">
<g>
	<path style="fill:#EEEEF0;" d="M196.43,254.558c-13.675,6.051-28.683,9.441-44.43,9.441c-15.747,0-30.755-3.391-44.43-9.441   C90.783,256.754,80,260.167,80,263.999C80,270.625,112.235,276,152,276c39.764,0,72-5.375,72-12.001   C223.999,260.167,213.216,256.754,196.43,254.558"/>
	<path style="fill:#ADF2A2;" d="M263.998,143.854C263.998,81.996,213.854,36,152,36C90.146,36,39.998,81.996,39.998,143.854   C39.998,205.707,90.146,260,152,260C213.854,260,263.998,205.707,263.998,143.854"/>
	<path style="fill:#54596E;" d="M263.998,143.854H268c0.011-32.022-13.021-60.088-34.052-80.026   c-21.023-19.95-50.027-31.83-81.949-31.826c-31.922-0.004-60.926,11.876-81.949,31.826c-21.03,19.938-34.062,48.004-34.052,80.026   c0.007,32.018,12.964,62.007,33.906,84.025c20.938,22.019,49.977,36.12,82.095,36.12c32.118,0,61.157-14.102,82.095-36.12   c20.941-22.019,33.899-52.008,33.906-84.025H263.998h-3.999c0.007,29.835-12.108,57.918-31.702,78.512   c-19.598,20.593-46.561,33.636-76.297,33.636S95.3,242.958,75.702,222.365C56.108,201.771,43.993,173.688,44,143.854   c0.011-29.84,12.051-55.697,31.556-74.222C95.069,51.118,122.064,40.003,152,39.999c29.935,0.004,56.931,11.119,76.443,29.633   c19.505,18.524,31.546,44.382,31.556,74.222H263.998"/>
	<path style="fill:#A4E29D;" d="M259.067,130.074c-6.868,53.568-52.171,97.925-107.068,97.925   c-54.897,0-100.2-44.356-107.068-97.925c-0.591,4.522-0.929,9.144-0.931,13.87c0.018,29.801,12.128,57.849,31.702,78.421   c19.368,20.352,45.93,33.329,75.253,33.63c0.029,0.001,0.056,0.001,0.085,0.001c0.087,0.001,0.175,0.002,0.262,0.002   c0.044,0.001,0.085,0.001,0.128,0.001c0.19,0.001,0.378,0.002,0.569,0.002l0,0l0,0c0.191,0,0.379-0.001,0.569-0.002   c0.044,0,0.085,0,0.129-0.001c0.091,0,0.177-0.001,0.268-0.002c0.029,0,0.05,0,0.079-0.001   c29.323-0.301,55.885-13.278,75.252-33.63c19.575-20.573,31.685-48.619,31.702-78.422   C259.996,139.217,259.659,134.597,259.067,130.074"/>
	<path style="fill:#54596E;" d="M151.431,255.999c0.189,0.001,0.38,0.002,0.569,0.002C151.809,256.001,151.621,256,151.431,255.999    M152.568,255.999c-0.19,0.001-0.378,0.002-0.569,0.002C152.189,256.001,152.379,256,152.568,255.999 M151.04,255.996   c0.087,0.001,0.175,0.002,0.262,0.002C151.215,255.998,151.127,255.997,151.04,255.996 M152.965,255.996   c-0.091,0.001-0.177,0.002-0.268,0.002C152.784,255.998,152.878,255.997,152.965,255.996 M44.001,143.944c0,0.019,0,0.036,0,0.055   c0,59.297,47.787,111.388,106.955,111.996c-29.323-0.301-55.885-13.278-75.253-33.63C56.129,201.793,44.019,173.745,44.001,143.944    M259.999,143.943c-0.017,29.803-12.127,57.849-31.702,78.422c-19.368,20.352-45.93,33.329-75.252,33.63   c59.167-0.608,106.954-52.699,106.954-111.996C259.999,143.98,259.999,143.962,259.999,143.943"/>
	<path style="fill:#54596E;" d="M118.399,183.199l12.616-9.463l5.656,8.482c0.742,1.112,1.991,1.78,3.328,1.78   c1.337,0,2.586-0.668,3.328-1.78l4.672-7.008l4.672,7.008c0.742,1.112,1.991,1.78,3.328,1.78c1.337,0,2.586-0.668,3.328-1.78   l4.672-7.008l4.672,7.008c1.225,1.838,3.709,2.335,5.547,1.109c1.838-1.226,2.335-3.709,1.11-5.547l-8-12.001   c-0.742-1.113-1.991-1.78-3.328-1.78c-1.338,0-2.586,0.667-3.328,1.78l-4.672,7.008l-4.672-7.008   c-0.742-1.113-1.991-1.78-3.328-1.78c-1.338,0-2.586,0.667-3.328,1.78l-4.672,7.008l-4.672-7.008   c-0.61-0.915-1.57-1.538-2.653-1.724c-1.083-0.186-2.196,0.083-3.075,0.743l-16,12c-1.768,1.325-2.126,3.832-0.8,5.6   C114.125,184.167,116.632,184.525,118.399,183.199L118.399,183.199z"/>
	<path style="fill:#54596E;" d="M62.828,49.171l-20-20c-1.562-1.562-4.095-1.562-5.657,0c-1.562,1.562-1.562,4.095,0,5.657l20,20   c1.562,1.562,4.095,1.562,5.657,0C64.39,53.266,64.39,50.733,62.828,49.171"/>
	<path style="fill:#54596E;" d="M76,40V28c0-2.21-1.791-4-4-4c-2.209,0-4,1.79-4,4v12c0,2.209,1.791,4,4,4   C74.208,44,76,42.209,76,40"/>
	<path style="fill:#54596E;" d="M52,60H36c-2.209,0-4,1.79-4,4c0,2.209,1.791,4,4,4h16c2.209,0,4-1.791,4-4   C56,61.79,54.208,60,52,60"/>
	<path style="fill:#54596E;" d="M132.168,120.112c-3.469-8.215-11.607-13.973-21.086-13.977c-9.048,0.003-16.88,5.256-20.588,12.879   c-0.968,1.985-0.142,4.38,1.844,5.348c1.986,0.968,4.38,0.142,5.348-1.844c2.425-4.966,7.506-8.387,13.396-8.384   c6.169-0.004,11.453,3.752,13.718,9.094c0.86,2.034,3.207,2.986,5.242,2.126C132.076,124.494,133.028,122.147,132.168,120.112   L132.168,120.112z"/>
	<path style="fill:#FFFFFF;" d="M102,46.936l145.16,157.139c5.145-8.591,9.238-17.861,12.098-27.594L131.164,37.812   C120.875,39.6,111.085,42.692,102,46.936z"/>
	<path style="fill:#54596E;" d="M102,46.936l-2.938,2.714l145.16,157.139c0.852,0.922,2.1,1.394,3.35,1.265   c1.25-0.13,2.375-0.847,3.02-1.924c5.315-8.877,9.547-18.457,12.504-28.521c0.395-1.347,0.053-2.812-0.899-3.842L134.102,35.097   c-0.926-1.002-2.28-1.461-3.623-1.227c-10.634,1.848-20.763,5.047-30.172,9.44c-1.151,0.537-1.988,1.607-2.232,2.854   s0.125,2.552,0.987,3.485L102,46.936l1.692,3.624c8.763-4.093,18.212-7.079,28.156-8.808l-0.685-3.94l-2.938,2.714l128.094,138.669   l2.938-2.714l-3.838-1.128c-2.762,9.4-6.718,18.361-11.692,26.666l3.432,2.056l2.938-2.715L104.938,44.221L102,46.936l1.692,3.624   L102,46.936z"/>
	<path style="fill:#D8D8D8;" d="M152,36c-6.855,0-13.555,0.596-20.07,1.685l127.535,138.059C262.398,165.52,264,154.81,264,143.852   c0-1.344-0.055-2.671-0.102-4L169.062,37.189C163.5,36.404,157.8,36,152,36z"/>
	<path style="fill:#54596E;" d="M152,36v-4c-7.087-0.001-14.009,0.615-20.73,1.739c-1.448,0.241-2.65,1.262-3.125,2.649   c-0.475,1.389-0.149,2.932,0.846,4.01l127.535,138.059c0.978,1.059,2.46,1.511,3.863,1.178c1.403-0.334,2.523-1.403,2.92-2.789   c3.031-10.563,4.69-21.646,4.69-32.994c0-1.453-0.058-2.828-0.104-4.142c-0.034-0.958-0.409-1.87-1.059-2.573L172,34.475   c-0.628-0.68-1.464-1.117-2.379-1.246C163.872,32.417,157.986,31.999,152,32V36v3.999c5.615,0.001,11.127,0.392,16.503,1.15   l0.559-3.96l-2.938,2.714l94.836,102.662l2.938-2.714l-3.998,0.141c0.048,1.345,0.099,2.624,0.099,3.859   c0,10.567-1.544,20.904-4.38,30.788l3.845,1.104l2.938-2.715L134.867,34.97l-2.938,2.715l0.659,3.944   c6.31-1.054,12.787-1.629,19.411-1.63V36z"/>
</g>















</svg>
