<?xml version="1.0" encoding="iso-8859-1"?>
<!-- Generator: Adobe Illustrator 21.0.0, SVG Export Plug-In . SVG Version: 6.00 Build 0)  -->
<svg xmlns="http://www.w3.org/2000/svg" xmlns:xlink="http://www.w3.org/1999/xlink" version="1.1" id="inloved" x="0px" y="0px" viewBox="0 0 300 300" style="enable-background:new 0 0 300 300;" xml:space="preserve" width="512" height="512">
<g>
	<path style="fill:#EEEEF0;" d="M102.689,251.069c-16.784,2.197-27.567,5.611-27.567,9.445c0,6.626,32.238,12,72.003,12   c39.762,0,71.999-5.374,71.999-12c0-3.834-10.783-7.248-27.566-9.445c-13.676,6.053-28.685,9.443-44.433,9.441   c-0.006,0-0.008,0-0.014,0C131.367,260.511,116.361,257.12,102.689,251.069"/>
	<path style="fill:#FFF35F;" d="M259.122,140.364c0-61.854-50.143-107.851-111.997-107.851   c-61.858,0-112.001,45.997-112.001,107.851c0,61.857,50.143,116.151,112.001,116.151   C208.979,256.516,259.122,202.222,259.122,140.364"/>
	<path style="fill:#54596E;" d="M259.122,140.364h4c0.012-32.019-13.019-60.085-34.051-80.023   c-21.023-19.949-50.025-31.831-81.946-31.827C115.2,28.51,86.198,40.392,65.175,60.341c-21.031,19.938-34.063,48.005-34.051,80.023   c0.004,32.019,12.963,62.008,33.904,84.027c20.938,22.019,49.976,36.123,82.096,36.119c32.116,0.004,61.155-14.101,82.092-36.119   c20.946-22.02,33.9-52.009,33.904-84.027H259.122h-4c0.008,29.84-12.109,57.923-31.701,78.516   c-19.6,20.592-46.562,33.632-76.296,33.636c-29.738-0.004-56.699-13.044-76.3-33.636c-19.592-20.593-31.705-48.676-31.701-78.516   c0.008-29.835,12.052-55.695,31.555-74.219c19.515-18.511,46.509-29.628,76.446-29.632c29.933,0.004,56.927,11.121,76.442,29.632   c19.507,18.523,31.547,44.384,31.555,74.219H259.122"/>
	<path style="fill:#EEE361;" d="M254.191,126.589c-6.869,53.565-52.171,97.925-107.066,97.925   c-54.899,0-100.201-44.359-107.07-97.925c-0.591,4.521-0.928,9.14-0.931,13.867c0.021,29.805,12.129,57.853,31.701,78.424   c19.6,20.592,46.562,33.632,76.3,33.636l0,0l0,0c29.734-0.004,56.695-13.044,76.296-33.636   c19.572-20.571,31.684-48.617,31.701-78.422C255.119,135.73,254.782,131.111,254.191,126.589"/>
	<path style="fill:#54596E;" d="M255.122,140.458c-0.017,29.805-12.129,57.851-31.701,78.422   c-19.6,20.592-46.562,33.632-76.296,33.636c59.646,0,107.997-52.354,107.997-112.001   C255.122,140.496,255.122,140.477,255.122,140.458 M39.124,140.456c0,0.02,0,0.039,0,0.059   c0,59.646,48.355,112.001,108.001,112.001c-29.738-0.004-56.699-13.044-76.3-33.636C51.253,198.309,39.145,170.261,39.124,140.456"/>
	<path style="fill:#54596E;" d="M207.123,124.514c-0.003-11.048-8.953-19.998-20-20c-11.047,0.002-19.997,8.952-20,20   c0,2.209,1.791,4,4,4c2.209,0,4-1.791,4-4c0.012-6.627,5.375-11.988,12-12.001c6.625,0.013,11.988,5.374,12,12.001   c0,2.209,1.791,4,4,4C205.333,128.514,207.123,126.723,207.123,124.514L207.123,124.514z"/>
	<path style="fill:#54596E;" d="M123.123,124.514c-0.003-11.048-8.953-19.998-20-20c-11.047,0.002-19.997,8.952-20,20   c0,2.209,1.791,4,4,4c2.209,0,4-1.791,4-4c0.012-6.627,5.375-11.988,12-12.001c6.625,0.013,11.988,5.374,12,12.001   c0,2.209,1.791,4,4,4C121.333,128.514,123.123,126.723,123.123,124.514L123.123,124.514z"/>
	<path style="fill:#54596E;" d="M69.171,164.235c8.282,6.268,19.576,11.271,32.901,14.786c13.324,3.506,28.684,5.49,45.051,5.491   c16.564-0.001,32.097-2.034,45.532-5.619c13.436-3.596,24.78-8.707,33.014-15.115c1.742-1.359,2.052-3.872,0.693-5.614   c-1.359-1.741-3.872-2.052-5.613-0.692c-7.016,5.485-17.48,10.318-30.157,13.693c-12.678,3.386-27.563,5.35-43.469,5.349   c-15.717,0.001-30.436-1.917-43.015-5.229c-12.578-3.302-23.009-8.031-30.104-13.424c-1.76-1.335-4.27-0.99-5.604,0.771   C67.066,160.392,67.411,162.901,69.171,164.235L69.171,164.235z"/>
	<ellipse style="fill:#FF9C9C;" cx="95.123" cy="140.514" rx="20" ry="8"/>
	<ellipse style="fill:#FF9C9C;" cx="195.123" cy="140.514" rx="20" ry="8"/>
	<path style="fill:#FF80C3;" d="M239.123,49.847c-5.891-5.891-15.441-5.891-21.334,0c-5.891,5.892-5.891,15.442,0,21.334   l21.334,21.333l21.334-21.333c5.891-5.892,5.891-15.442,0-21.334C254.565,43.956,245.014,43.956,239.123,49.847z"/>
	<path style="fill:#54596E;" d="M239.123,49.847l2.829-2.828c-3.716-3.721-8.625-5.595-13.495-5.59   c-4.871-0.005-9.779,1.87-13.496,5.589c-3.719,3.716-5.594,8.624-5.59,13.495c-0.005,4.87,1.871,9.777,5.589,13.495l21.335,21.334   c0.756,0.755,1.76,1.171,2.828,1.171c1.069,0,2.073-0.416,2.828-1.171l21.334-21.333c3.719-3.718,5.594-8.626,5.59-13.497   c0.004-4.872-1.87-9.781-5.591-13.495c-3.716-3.719-8.625-5.593-13.495-5.588c-4.871-0.005-9.779,1.87-13.495,5.589L239.123,49.847   l2.829-2.828L239.123,49.847l2.828,2.828c2.174-2.172,4.987-3.242,7.838-3.247c2.851,0.005,5.664,1.074,7.839,3.247   c2.171,2.172,3.242,4.985,3.246,7.837c-0.005,2.851-1.075,5.665-3.247,7.841l-18.505,18.503l-18.506-18.504   c-2.172-2.176-3.242-4.989-3.246-7.839c0.005-2.851,1.075-5.663,3.246-7.838c2.175-2.172,4.989-3.242,7.839-3.247   c2.851,0.005,5.663,1.074,7.837,3.246c0.755,0.755,1.76,1.172,2.828,1.173c1.069,0,2.074-0.417,2.829-1.172L239.123,49.847z"/>
	<path style="fill:#FF80C3;" d="M204.123,36.181c-6.26-6.26-16.408-6.26-22.666,0c-6.26,6.259-6.26,16.407,0,22.666l22.666,22.667   l22.666-22.667c6.26-6.259,6.26-16.407,0-22.666C220.532,29.921,210.383,29.921,204.123,36.181z"/>
	<path style="fill:#54596E;" d="M204.123,36.181l2.829-2.828c-3.901-3.905-9.051-5.872-14.163-5.867   c-5.112-0.005-10.262,1.962-14.162,5.867c-3.902,3.898-5.87,9.048-5.865,14.16c-0.005,5.111,1.963,10.261,5.866,14.161   l22.666,22.668c0.756,0.755,1.76,1.171,2.828,1.171c1.069,0,2.073-0.416,2.828-1.171l22.666-22.667   c3.903-3.9,5.871-9.051,5.866-14.163c0.005-5.113-1.963-10.264-5.868-14.162c-3.897-3.902-9.047-5.869-14.159-5.864   c-5.112-0.005-10.262,1.962-14.163,5.867L204.123,36.181l2.829-2.828L204.123,36.181l2.829,2.827   c2.359-2.356,5.413-3.519,8.505-3.523c3.092,0.005,6.145,1.167,8.503,3.523c2.357,2.356,3.52,5.411,3.524,8.504   c-0.005,3.092-1.167,6.146-3.523,8.506l-19.837,19.837l-19.838-19.837c-2.357-2.36-3.519-5.414-3.523-8.505   c0.005-3.092,1.167-6.146,3.523-8.504c2.359-2.357,5.412-3.52,8.504-3.524c3.092,0.005,6.146,1.167,8.505,3.523   c0.755,0.755,1.76,1.172,2.829,1.172c1.069,0,2.074-0.417,2.829-1.172L204.123,36.181z"/>
	<path style="fill:#54596E;" d="M159.123,172.514h-24c-4.418,0-8,3.582-8,8s3.582,8,8,8h24c4.418,0,8-3.582,8-8   S163.541,172.514,159.123,172.514z"/>
</g>















</svg>
