<?xml version="1.0" encoding="iso-8859-1"?>
<!-- Generator: Adobe Illustrator 21.0.0, SVG Export Plug-In . SVG Version: 6.00 Build 0)  -->
<svg xmlns="http://www.w3.org/2000/svg" xmlns:xlink="http://www.w3.org/1999/xlink" version="1.1" id="inverted" x="0px" y="0px" viewBox="0 0 300 300" style="enable-background:new 0 0 300 300;" xml:space="preserve" width="512" height="512">
<g>
	<path style="fill:#EEEEF0;" d="M105.932,251.105c-17.704,2.186-29.179,5.692-29.179,9.646c0,6.629,32.234,12.002,71.997,12.002   c39.767,0,72.001-5.373,72.001-12.002c0-3.83-10.773-7.241-27.547-9.438c-13.699,5.372-28.319,8.011-42.966,8.008   C135.217,259.318,120.14,256.554,105.932,251.105"/>
	<path style="fill:#FFF35F;" d="M225.015,62.624c-43.741-43.74-111.721-40.805-155.458,2.933   c-43.741,43.74-46.672,111.721-2.935,155.458c43.741,43.74,117.588,46.672,161.325,2.935   C271.688,180.209,268.753,106.361,225.015,62.624"/>
	<path style="fill:#54596E;" d="M225.015,62.624l2.83-2.829c-21.879-21.889-49.759-32.561-77.752-32.548   c-29.942-0.003-60.039,12.149-83.365,35.479c-23.33,23.326-35.479,53.423-35.479,83.365c-0.01,27.993,10.656,55.874,32.547,77.752   c23.402,23.396,55.052,35.473,86.442,35.477c29.352,0.007,58.588-10.593,80.539-32.544c21.951-21.948,32.551-51.188,32.547-80.539   c-0.003-31.39-12.087-63.04-35.479-86.442L225.015,62.624l-2.83,2.826c21.809,21.8,33.141,51.436,33.138,80.787   c-0.007,27.458-9.881,54.558-30.206,74.883c-20.322,20.322-47.424,30.196-74.88,30.202c-29.352,0.004-58.987-11.328-80.786-33.134   c-20.385-20.401-30.193-46.119-30.203-72.097c0-27.778,11.262-55.831,33.138-77.706c21.875-21.879,49.927-33.138,77.706-33.141   c25.978,0.013,51.695,9.821,72.093,30.205L225.015,62.624"/>
	<path style="fill:#EEE361;" d="M211.784,56.371c33.022,42.735,32.356,106.132-6.464,144.951   c-20.373,20.373-47.519,30.237-74.893,30.237c-24.783,0-49.753-8.084-70.058-23.773c2.79,3.628,5.831,7.146,9.188,10.504   c0.417,0.417,0.839,0.833,1.262,1.242c21.659,20.925,50.667,31.79,79.406,31.79c0.004,0,0.009,0,0.013,0   c27.455-0.006,54.558-9.88,74.88-30.202l0,0l0,0c20.325-20.325,30.199-47.425,30.206-74.883   c0.003-29.323-11.305-58.929-33.073-80.722C218.905,62.175,215.4,59.15,211.784,56.371"/>
	<path style="fill:#54596E;" d="M70.819,219.532c21.664,20.982,50.641,31.842,79.367,31.842c27.391,0,54.549-9.871,74.931-30.254   c-20.322,20.322-47.424,30.196-74.88,30.202c-0.004,0-0.009,0-0.013,0C121.486,251.322,92.478,240.457,70.819,219.532    M222.25,65.516c21.768,21.793,33.076,51.398,33.073,80.722c-0.007,27.458-9.881,54.558-30.206,74.883   c42.181-42.174,39.348-113.387-2.826-155.563C222.278,65.543,222.264,65.529,222.25,65.516"/>
	
		<ellipse transform="matrix(0.7071 -0.7071 0.7071 0.7071 -22.799 165.8044)" style="fill:#F9BBED;" cx="188.739" cy="110.422" rx="20" ry="8"/>
	
		<ellipse transform="matrix(0.7071 -0.7071 0.7071 0.7071 -96.3399 135.3436)" style="fill:#F9BBED;" cx="115.2" cy="183.961" rx="20" ry="8"/>
	<path style="fill:#54596E;" d="M148.571,103.43c-3.581-1.326-7.349-1.991-11.119-1.991c-8.178-0.005-16.399,3.126-22.642,9.374   c-6.24,6.236-9.376,14.449-9.371,22.624c0,3.516,0.576,7.032,1.731,10.401c0.716,2.09,2.99,3.203,5.08,2.487   c2.09-0.716,3.204-2.989,2.488-5.079c-0.866-2.526-1.299-5.168-1.299-7.81c0.005-6.154,2.335-12.271,7.029-16.968   c4.699-4.698,10.822-7.026,16.984-7.031c2.828,0,5.657,0.501,8.341,1.495c2.072,0.767,4.373-0.291,5.14-2.362   C151.7,106.499,150.642,104.197,148.571,103.43L148.571,103.43z"/>
	
		<ellipse transform="matrix(0.7071 -0.7071 0.7071 0.7071 -94.101 152.8357)" style="fill:#54596E;" cx="137.438" cy="190.008" rx="8.001" ry="8.001"/>
	
		<ellipse transform="matrix(0.7071 -0.7071 0.7071 0.7071 -37.5342 176.2569)" style="fill:#54596E;" cx="194.007" cy="133.439" rx="8" ry="8"/>
	<circle style="fill:#FF9999;" cx="236.752" cy="60.753" r="28"/>
	<path style="fill:#54596E;" d="M264.752,60.753h4c-0.003-17.675-14.324-31.998-32-32c-17.676,0.002-31.997,14.325-32,32   c0.003,17.674,14.324,31.997,32,31.999c17.675-0.002,31.997-14.325,32-31.999H264.752h-4c-0.002,6.64-2.68,12.614-7.029,16.97   c-4.356,4.35-10.33,7.027-16.971,7.03c-6.641-0.003-12.615-2.681-16.971-7.03c-4.349-4.355-7.027-10.33-7.029-16.97   c0.002-6.641,2.68-12.615,7.029-16.971c4.356-4.35,10.33-7.027,16.971-7.03c6.641,0.003,12.615,2.681,16.971,7.03   c4.349,4.355,7.027,10.33,7.029,16.971H264.752z"/>
	<path style="fill:#54596E;" d="M232.752,44.753v20c0,2.209,1.791,4,4,4c2.209,0,4-1.791,4-4v-20c0-2.21-1.791-4-4-4   C234.543,40.753,232.752,42.543,232.752,44.753"/>
	<path style="fill:#54596E;" d="M236.752,80.753c1.053,0,2.084-0.427,2.828-1.172c0.745-0.745,1.172-1.775,1.172-2.828   c0-1.054-0.427-2.084-1.172-2.829c-0.745-0.745-1.775-1.171-2.828-1.171c-1.053,0-2.084,0.426-2.828,1.171   c-0.745,0.745-1.172,1.775-1.172,2.829c0,1.053,0.427,2.083,1.172,2.828C234.668,80.326,235.699,80.753,236.752,80.753"/>
</g>















</svg>
