<?xml version="1.0" encoding="iso-8859-1"?>
<!-- Generator: Adobe Illustrator 21.0.0, SVG Export Plug-In . SVG Version: 6.00 Build 0)  -->
<svg xmlns="http://www.w3.org/2000/svg" xmlns:xlink="http://www.w3.org/1999/xlink" version="1.1" id="kiss" x="0px" y="0px" viewBox="0 0 300 300" style="enable-background:new 0 0 300 300;" xml:space="preserve" width="512" height="512">
<g>
	<path style="fill:#EEEEF0;" d="M194.431,250.558C180.756,256.61,165.747,260,150,260s-30.756-3.391-44.431-9.442   c-16.786,2.197-27.57,5.61-27.57,9.442c0,6.627,32.236,12,72.001,12s72.001-5.373,72.001-12   C222.001,256.168,211.217,252.755,194.431,250.558"/>
	<path style="fill:#FFF35F;" d="M261.998,139.853c0-61.855-50.142-107.851-111.998-107.851S37.998,77.998,37.998,139.853   c0,61.856,50.146,116.149,112.002,116.149S261.998,201.709,261.998,139.853"/>
	<path style="fill:#54596E;" d="M261.998,139.853h4.002c0.011-32.022-13.02-60.089-34.053-80.024   C210.923,39.877,181.92,27.996,150,28c-31.924-0.004-60.927,11.878-81.948,31.829c-21.033,19.936-34.064,48.002-34.053,80.024   c0.004,32.02,12.963,62.009,33.908,84.027C88.841,245.895,117.882,260,150,260s61.159-14.105,82.093-36.12   c20.945-22.019,33.9-52.008,33.908-84.027H261.998H258c0.004,29.837-12.11,57.923-31.703,78.513   C206.696,238.957,179.738,252,150,252c-29.738,0-56.7-13.043-76.297-33.634C54.11,197.776,41.993,169.69,42,139.853   c0.011-29.837,12.049-55.698,31.558-74.221C93.068,47.121,120.068,36,150,36s56.932,11.12,76.441,29.632   c19.505,18.522,31.547,44.384,31.558,74.221H261.998"/>
	<path style="fill:#EEE361;" d="M257.067,126.076c-6.87,53.565-52.168,97.927-107.067,97.927S49.803,179.641,42.933,126.076   c-0.592,4.521-0.93,9.142-0.933,13.872c0.018,29.802,12.13,57.849,31.703,78.418C93.3,238.957,120.262,252,150,252l0,0l0,0   c29.738,0,56.696-13.043,76.297-33.634c19.574-20.57,31.683-48.618,31.703-78.423C257.997,135.214,257.658,130.596,257.067,126.076   "/>
	<path style="fill:#54596E;" d="M42.001,139.948c0,0.018,0,0.036,0,0.054C42,199.645,90.353,252,150,252   c-29.738,0-56.7-13.043-76.297-33.634C54.131,197.796,42.018,169.75,42.001,139.948 M257.999,139.943   c-0.02,29.805-12.129,57.853-31.703,78.423C206.696,238.957,179.738,252,150,252c59.647,0,108-52.354,108-111.998   C258,139.982,257.999,139.962,257.999,139.943"/>
	<path style="fill:#54596E;" d="M210,124c-0.003-11.048-8.953-19.998-20-20c-11.047,0.002-19.997,8.952-20,20c0,2.209,1.791,4,4,4   c2.209,0,4-1.791,4-4c0.012-6.627,5.375-11.988,12-12.001c6.625,0.013,11.988,5.374,12,12.001c0,2.209,1.791,4,4,4   C208.209,128,210,126.209,210,124L210,124z"/>
	<path style="fill:#54596E;" d="M126,124c-0.003-11.048-8.953-19.998-20-20c-11.047,0.002-19.997,8.952-20,20c0,2.209,1.791,4,4,4   c2.209,0,4-1.791,4-4c0.012-6.627,5.375-11.988,12-12.001c6.625,0.013,11.988,5.374,12,12.001c0,2.209,1.791,4,4,4   C124.209,128,126,126.209,126,124L126,124z"/>
	<ellipse style="fill:#FF9C9C;" cx="98" cy="140" rx="20" ry="8"/>
	<ellipse style="fill:#FF9C9C;" cx="198" cy="140" rx="20" ry="8"/>
	<path style="fill:#54596E;" d="M139.291,152.15c-7.678,2.159-13.283,9.203-13.291,17.562c0.008,8.666,6.031,15.917,14.145,17.779   c2.152,0.494,4.298-0.85,4.793-3.002c0.495-2.152-0.849-4.299-3.002-4.793c-4.534-1.045-7.945-5.122-7.937-9.984   c-0.008-4.692,3.165-8.65,7.459-9.862c2.126-0.6,3.364-2.809,2.766-4.935C143.626,152.79,141.417,151.551,139.291,152.15   L139.291,152.15z"/>
	<path style="fill:#54596E;" d="M139.291,180.15c-7.678,2.159-13.283,9.203-13.291,17.562c0.008,8.666,6.031,15.917,14.145,17.779   c2.152,0.494,4.298-0.85,4.793-3.002c0.495-2.152-0.849-4.299-3.002-4.793c-4.534-1.045-7.945-5.122-7.937-9.984   c-0.008-4.692,3.165-8.65,7.459-9.862c2.126-0.6,3.364-2.809,2.766-4.935C143.626,180.79,141.417,179.551,139.291,180.15   L139.291,180.15z"/>
</g>















</svg>
