<?xml version="1.0" encoding="iso-8859-1"?>
<!-- Generator: Adobe Illustrator 21.0.0, SVG Export Plug-In . SVG Version: 6.00 Build 0)  -->
<svg xmlns="http://www.w3.org/2000/svg" xmlns:xlink="http://www.w3.org/1999/xlink" version="1.1" id="laugh" x="0px" y="0px" viewBox="0 0 300 300" style="enable-background:new 0 0 300 300;" xml:space="preserve" width="512" height="512">
<g>
	<path style="fill:#EEEEF0;" d="M194.358,250.557c-13.673,6.053-28.678,9.443-44.427,9.441c-0.006,0-0.008,0-0.014,0   c-15.743,0-30.747-3.391-44.415-9.441c-16.786,2.197-27.57,5.611-27.57,9.445c0,6.625,32.232,11.999,71.999,11.999   c39.763,0,71.999-5.374,71.999-11.999C221.93,256.168,211.147,252.754,194.358,250.557"/>
	<path style="fill:#FFF35F;" d="M258.295,111.749c-12.567-47.177-56.318-79.746-108.364-79.746   c-52.241,0-96.126,32.805-108.51,80.271c-9.035,1.475-14.214,11.364-9.669,19.651c1.906,3.476,4.024,6.816,6.235,10.093   c1.154,60.951,50.811,113.985,111.945,113.985c61.187,0,110.884-53.136,111.949-114.156c2.272-3.386,4.447-6.841,6.398-10.434   C272.826,123.032,267.485,113.054,258.295,111.749"/>
	<path style="fill:#54596E;" d="M258.295,111.749l3.865-1.028c-13.051-49.019-58.517-82.746-112.229-82.722   c-53.916-0.024-99.52,33.951-112.38,83.262l3.869,1.013l-0.642-3.951c-8.722,1.438-14.705,8.913-14.705,17.164   c-0.004,2.797,0.699,5.679,2.17,8.357c1.988,3.625,4.17,7.072,6.426,10.413l3.317-2.239l-4,0.077   c0.602,31.545,13.73,60.976,34.605,82.55c20.867,21.579,49.595,35.357,81.339,35.354c31.772,0.004,60.525-13.803,81.396-35.414   c20.884-21.611,33.996-51.083,34.552-82.668l-4-0.069l3.321,2.228c2.317-3.451,4.56-7.008,6.593-10.755   c1.447-2.667,2.138-5.528,2.134-8.304c0-4.195-1.541-8.174-4.187-11.275c-2.642-3.097-6.45-5.328-10.889-5.95L258.295,111.749   l3.865-1.028L258.295,111.749l-0.561,3.963c2.463,0.35,4.475,1.544,5.926,3.231c1.443,1.687,2.268,3.853,2.268,6.072   c-0.004,1.476-0.354,2.983-1.167,4.491c-1.866,3.438-3.975,6.787-6.202,10.108c-0.427,0.63-0.667,1.398-0.679,2.158   c-0.508,29.439-12.775,57.046-32.305,77.254c-19.538,20.209-46.23,32.972-75.645,32.972c-29.391,0-56.058-12.738-75.592-32.914   c-19.522-20.177-31.801-47.742-32.354-77.141c-0.016-0.78-0.248-1.517-0.683-2.163c-2.17-3.215-4.219-6.454-6.044-9.783   c-0.829-1.516-1.183-3.027-1.187-4.512c0.004-4.381,3.215-8.498,7.995-9.267c1.561-0.256,2.825-1.406,3.227-2.938   C57.199,67.669,99.36,36.026,149.931,35.998c50.376,0.028,92.415,31.439,104.499,76.783c0.41,1.549,1.715,2.703,3.304,2.931   L258.295,111.749"/>
	<path style="fill:#54596E;" d="M217.242,128.001c6.605-0.015,10.719,6.849,7.629,12.542   c-14.211,26.196-42.445,44.045-74.949,44.045c-32.371,0-60.504-17.701-74.773-43.721c-3.113-5.678,0.973-12.557,7.574-12.57   l54.648,5.452c8.348,0.833,16.762,0.815,25.105-0.053L217.242,128.001z"/>
	<path style="fill:#54596E;" d="M217.242,128.001l0.566,3.959l-0.545-3.816l0,3.854c0.375-0.003,0.544-0.041,0.545-0.038   l-0.545-3.816l0,3.854c1.454,0.01,2.536,0.542,3.364,1.372c0.818,0.835,1.292,1.975,1.289,3.117   c-0.003,0.699-0.161,1.403-0.563,2.15c-13.518,24.917-40.414,41.953-71.432,41.95c-30.892,0.002-57.69-16.892-71.266-41.645   c-0.406-0.746-0.568-1.457-0.571-2.159c-0.003-1.141,0.47-2.279,1.286-3.114c0.826-0.83,1.905-1.362,3.357-1.374l-0.005-3.999   l-0.397,3.979l54.648,5.452c4.219,0.421,8.455,0.631,12.691,0.631c4.415,0,8.829-0.229,13.224-0.685l54.766-5.695l0.152-0.02   L217.242,128.001l-0.414-3.979l-54.766,5.695c-4.121,0.429-8.26,0.643-12.397,0.644c-3.971-0.001-7.942-0.198-11.898-0.592   l-54.648-5.452l-0.403-0.02c-3.605-0.005-6.844,1.485-9.073,3.787c-2.238,2.297-3.556,5.398-3.559,8.7   c-0.003,2.014,0.505,4.094,1.556,6.006c14.963,27.286,44.43,45.795,78.281,45.797c33.99-0.003,63.563-18.664,78.465-46.137   c1.033-1.902,1.532-3.966,1.529-5.963c-0.003-3.308-1.325-6.412-3.568-8.709c-2.234-2.302-5.478-3.789-9.085-3.779   c-0.389,0.003-0.58,0.044-0.586,0.042L217.242,128.001l-0.414-3.979L217.242,128.001z"/>
	<path style="fill:#EEE361;" d="M256.994,126.076c-6.865,53.566-52.164,97.927-107.063,97.927s-100.198-44.36-107.068-97.927   c-0.594,4.54-0.935,9.178-0.935,13.925c0,0.466,0.003,0.93,0.009,1.395c0.028,0.18,0.044,0.363,0.048,0.549   c0.553,29.398,12.832,56.964,32.354,77.141c19.153,19.782,45.16,32.414,73.871,32.899c0.018,0,0.036,0.001,0.054,0.001   c0.095,0.002,0.189,0.003,0.284,0.004c0.047,0.001,0.09,0.002,0.137,0.002c0.07,0.001,0.141,0.002,0.211,0.003   c0.076,0,0.149,0.001,0.225,0.002c0.038,0,0.077,0,0.114,0.001c0.087,0,0.17,0.001,0.257,0.001c0.032,0,0.06,0,0.093,0   c0.116,0.001,0.23,0.001,0.346,0.001s0.23,0,0.347-0.001c0.043,0,0.085,0,0.128,0c0.073-0.001,0.146-0.001,0.218-0.001   c0.088-0.001,0.175-0.002,0.263-0.003c0.026,0,0.053,0,0.078,0c0.097-0.001,0.195-0.003,0.291-0.004c0.014,0,0.039,0,0.054-0.001   c28.87-0.391,55.032-13.068,74.265-32.962c19.53-20.208,31.797-47.814,32.305-77.254c0.003-0.169,0.017-0.338,0.042-0.506   c0.005-0.422,0.007-0.844,0.007-1.267C257.929,135.254,257.592,130.616,256.994,126.076"/>
	<path style="fill:#54596E;" d="M149.492,251.998c0.029,0,0.063,0,0.093,0C149.552,251.998,149.524,251.998,149.492,251.998    M150.406,251.998c-0.043,0-0.085,0-0.128,0C150.321,251.998,150.362,251.998,150.406,251.998 M149.12,251.996   c0.036,0,0.078,0,0.114,0.001C149.197,251.996,149.158,251.996,149.12,251.996 M150.887,251.994   c-0.088,0.001-0.175,0.002-0.263,0.003C150.711,251.996,150.8,251.995,150.887,251.994 M148.684,251.991   c0.069,0.001,0.142,0.002,0.211,0.003C148.825,251.993,148.754,251.992,148.684,251.991 M151.257,251.99   c-0.097,0.001-0.195,0.003-0.291,0.004C151.063,251.993,151.159,251.991,151.257,251.99 M148.264,251.985   c0.094,0.002,0.189,0.003,0.284,0.004C148.452,251.988,148.358,251.987,148.264,251.985 M41.937,141.396   c0.74,58.491,47.88,109.601,106.272,110.589c-28.71-0.485-54.718-13.117-73.871-32.899c-19.522-20.177-31.801-47.742-32.354-77.141   C41.981,141.759,41.965,141.575,41.937,141.396 M257.922,141.268c-0.025,0.168-0.039,0.337-0.042,0.506   c-0.508,29.439-12.775,57.046-32.305,77.254c-19.233,19.894-45.395,32.571-74.265,32.962   C209.903,251.199,257.249,199.93,257.922,141.268"/>
	<path style="fill:#54596E;" d="M201.93,100.001c-0.002-8.838-7.16-15.998-16-16c-8.84,0.002-15.998,7.162-16,16   c0,2.209,1.791,4,4,4c2.209,0,4-1.791,4-4c0.008-4.417,3.582-7.992,8-8.001c4.418,0.009,7.992,3.584,8,8.001c0,2.209,1.791,4,4,4   C200.139,104.001,201.93,102.21,201.93,100.001L201.93,100.001z"/>
	<path style="fill:#54596E;" d="M125.93,100.001c-0.002-8.838-7.16-15.998-16-16c-8.84,0.002-15.998,7.162-16,16   c0,2.209,1.791,4,4,4c2.209,0,4-1.791,4-4c0.008-4.417,3.582-7.992,8-8.001c4.418,0.009,7.992,3.584,8,8.001c0,2.209,1.791,4,4,4   C124.139,104.001,125.93,102.21,125.93,100.001L125.93,100.001z"/>
	<path style="fill:#FFFFFF;" d="M127.614,136.567l-29.684-4.566v12.075c0,2.258,1.648,4.179,3.879,4.521l25.805,3.97   c14.797,2.276,29.848,2.357,44.668,0.24L202,148.562c2.254-0.322,3.93-2.253,3.93-4.529v-12.032l-33.648,4.807   C157.461,138.925,142.41,138.844,127.614,136.567z"/>
	<path style="fill:#FFFFFF;" d="M149.922,180.588c21.48,0,41.062-7.826,55.996-20.671c-0.035-2.067-1.863-3.648-3.918-3.355   l-29.719,4.246c-14.82,2.117-29.871,2.036-44.668-0.24l-25.719-3.957c-2.086-0.32-3.965,1.293-3.965,3.402v3.148   C112.289,174.063,130.313,180.588,149.922,180.588z"/>
</g>















</svg>
