<?xml version="1.0" encoding="iso-8859-1"?>
<!-- Generator: Adobe Illustrator 21.0.0, SVG Export Plug-In . SVG Version: 6.00 Build 0)  -->
<svg xmlns="http://www.w3.org/2000/svg" xmlns:xlink="http://www.w3.org/1999/xlink" version="1.1" id="mascot" x="0px" y="0px" viewBox="0 0 300 300" style="enable-background:new 0 0 300 300;" xml:space="preserve" width="512" height="512">
<g>
	<path style="fill:#EEEEF0;" d="M105.571,251.98c-16.786,2.196-27.568,5.609-27.568,9.442c0,6.629,32.234,12.002,71.997,12.002   c39.767,0,72.001-5.373,72.001-12.002c0-3.833-10.783-7.246-27.569-9.442c-13.675,6.051-28.683,9.442-44.432,9.442   C134.253,261.423,119.246,258.031,105.571,251.98"/>
	<path style="fill:#FFF35F;" d="M262,141.275c0-61.854-50.143-107.85-112-107.85c-61.854,0-111.997,45.996-111.997,107.85   c0,61.857,50.143,116.147,111.997,116.147C211.858,257.423,262,203.133,262,141.275"/>
	<path style="fill:#54596E;" d="M262,141.275h4c0.01-32.021-13.02-60.087-34.048-80.023c-21.026-19.95-50.03-31.829-81.952-31.829   c-31.922,0-60.923,11.879-81.948,31.829C47.023,81.188,33.99,109.255,34,141.275c0.007,32.018,12.965,62.009,33.908,84.027   c20.937,22.015,49.975,36.12,82.092,36.12c32.121,0,61.159-14.105,82.096-36.12c20.943-22.019,33.901-52.01,33.905-84.027H262h-4   c0.007,29.837-12.109,57.923-31.703,78.514c-19.597,20.595-46.561,33.634-76.298,33.634c-29.734,0-56.697-13.039-76.295-33.634   c-19.594-20.591-31.709-48.677-31.703-78.514c0.01-29.836,12.05-55.697,31.555-74.22C93.07,48.544,120.068,37.425,150,37.422   c29.936,0.003,56.933,11.122,76.446,29.634c19.505,18.522,31.545,44.384,31.555,74.22H262"/>
	<path style="fill:#BFAD88;" d="M244.31,72.266c12.738-11.253,18.457-26.902,16.078-40.142   c-12.848-3.991-29.082-0.241-41.816,11.011c-3.949,3.49-6.113,5.684-7.152,7.447c-17.645-10.9-38.719-17.158-61.418-17.158   c-22.855,0-44.062,6.343-61.777,17.383c-0.984-1.803-3.148-4.029-7.27-7.672C68.216,31.883,51.982,28.133,39.138,32.124   c-2.379,13.239,3.34,28.889,16.074,40.142c1.887,1.666,3.582,2.722,5.168,3.392c-6.586,8.399-11.934,17.809-15.734,28.053   c25.664-23.454,63.332-38.286,105.355-38.286s79.691,14.832,105.355,38.286c-3.82-10.302-9.207-19.765-15.844-28.199   C240.994,74.829,242.572,73.801,244.31,72.266z"/>
	<path style="fill:#54596E;" d="M244.31,72.266l2.648,2.997c11.634-10.293,17.94-24.048,17.957-37.11   c0-2.276-0.194-4.531-0.59-6.736c-0.264-1.47-1.324-2.67-2.75-3.112c-3.737-1.161-7.689-1.729-11.724-1.729   c-11.552,0.008-23.793,4.613-33.928,13.562c-4.022,3.588-6.385,5.835-7.95,8.414l3.447,2.031l2.102-3.403   c-18.272-11.29-40.084-17.757-63.52-17.755c-23.597-0.002-45.547,6.553-63.893,17.987l2.116,3.396l3.51-1.918   c-1.543-2.726-3.936-5.003-8.131-8.752c-10.138-8.946-22.38-13.554-33.931-13.562c-4.033,0-7.986,0.564-11.725,1.729   c-1.426,0.444-2.482,1.642-2.746,3.111c-0.397,2.207-0.591,4.46-0.591,6.735c0.017,13.062,6.323,26.814,17.953,37.11   c2.147,1.898,4.223,3.221,6.261,4.08l1.557-3.685l-3.148-2.469c-6.832,8.713-12.388,18.486-16.337,29.13   c-0.643,1.732-0.017,3.676,1.515,4.709c1.533,1.032,3.569,0.881,4.933-0.365c24.84-22.714,61.575-37.246,102.657-37.239   c41.082-0.007,77.817,14.525,102.657,37.239c1.364,1.246,3.4,1.397,4.933,0.365c1.533-1.033,2.158-2.977,1.516-4.709   c-3.969-10.702-9.565-20.531-16.451-29.281l-3.143,2.474l1.673,3.633c1.891-0.87,3.8-2.138,5.772-3.88L244.31,72.266l-2.648-2.999   c-1.505,1.328-2.752,2.117-3.822,2.61c-1.116,0.514-1.928,1.502-2.216,2.697c-0.288,1.194-0.014,2.443,0.745,3.409   c6.388,8.119,11.565,17.216,15.237,27.117l3.75-1.391l2.698-2.953c-26.489-24.194-65.089-39.326-108.054-39.333   c-42.965,0.007-81.565,15.139-108.054,39.333l2.698,2.953l3.75,1.391c3.653-9.845,8.792-18.89,15.132-26.976   c0.766-0.979,1.036-2.267,0.725-3.47c-0.311-1.203-1.171-2.2-2.316-2.684c-1.134-0.48-2.448-1.27-4.077-2.705   c-10.059-8.876-15.267-20.666-15.25-31.115c0-1.819,0.156-3.6,0.465-5.32l-3.937-0.707l1.19,3.818   c2.908-0.907,6.058-1.368,9.344-1.368c9.406-0.008,19.888,3.824,28.634,11.558c4.046,3.536,5.981,5.712,6.407,6.592   c0.527,0.964,1.432,1.672,2.495,1.951s2.199,0.107,3.132-0.474c17.084-10.646,37.548-16.776,59.662-16.778   c21.962,0.002,42.299,6.051,59.316,16.562c0.909,0.562,2.025,0.736,3.062,0.48c1.037-0.257,1.944-0.933,2.486-1.853   c0.514-0.948,2.479-3.088,6.355-6.48c8.741-7.735,19.222-11.565,28.63-11.558c3.284,0,6.436,0.464,9.35,1.369l1.187-3.819   l-3.937,0.707c0.309,1.719,0.464,3.499,0.464,5.321c0.017,10.45-5.191,22.24-15.254,31.115L244.31,72.266z"/>
	<path style="fill:#EEE361;" d="M257.069,127.499c-6.869,53.567-52.17,97.923-107.07,97.923   c-54.896,0-100.197-44.355-107.066-97.923c-0.59,4.521-0.929,9.142-0.931,13.869c0.018,29.802,12.129,57.852,31.702,78.421   c19.598,20.595,46.561,33.634,76.295,33.634l0,0l0,0c29.737,0,56.701-13.039,76.298-33.634   c19.574-20.569,31.684-48.62,31.703-78.422C257.998,136.641,257.66,132.019,257.069,127.499"/>
	<path style="fill:#54596E;" d="M42.003,141.368c0,0.019,0,0.036,0,0.055c0,59.648,48.352,112,107.997,112   c-29.734,0-56.697-13.039-76.295-33.634C54.131,199.22,42.021,171.17,42.003,141.368 M258.001,141.367   c-0.018,29.802-12.129,57.853-31.703,78.422c-19.597,20.595-46.561,33.634-76.298,33.634c59.649,0,108.001-52.352,108.001-112   C258.001,141.404,258.001,141.386,258.001,141.367"/>
	<circle style="fill:#54596E;" cx="210.002" cy="141.424" r="20"/>
	<circle style="fill:#FFFFFF;" cx="202.002" cy="147.424" r="6"/>
	<circle style="fill:#FFFFFF;" cx="220.002" cy="131.424" r="10"/>
	<circle style="fill:#54596E;" cx="90.002" cy="141.424" r="20"/>
	<circle style="fill:#FFFFFF;" cx="82.002" cy="147.424" r="6"/>
	<path style="fill:#54596E;" d="M150.002,205.424L150.002,205.424c-11.047,0-20-8.954-20-20v-12h40v12   C170.002,196.47,161.048,205.424,150.002,205.424z"/>
	<circle style="fill:#FFFFFF;" cx="100.002" cy="131.424" r="10"/>
	<path style="fill:#FFF35F;" d="M110.295,171.183c3.469,7.557,11.105,12.804,19.969,12.804c8.668,0,16.168-5.024,19.738-12.321"/>
	<path style="fill:#54596E;" d="M106.659,172.851c4.095,8.934,13.131,15.132,23.604,15.135c10.244-0.003,19.117-5.939,23.331-14.562   c0.971-1.984,0.149-4.38-1.835-5.351c-1.984-0.972-4.38-0.149-5.351,1.835c-2.927,5.97-9.053,10.082-16.146,10.079   c-7.253,0.003-13.491-4.293-16.333-10.473c-0.922-2.008-3.297-2.889-5.304-1.967C106.618,168.469,105.737,170.844,106.659,172.851   L106.659,172.851z"/>
	<path style="fill:#FFF35F;" d="M150.295,171.183c3.469,7.557,11.105,12.804,19.969,12.804c8.668,0,16.168-5.024,19.738-12.321"/>
	<path style="fill:#54596E;" d="M146.659,172.851c4.095,8.934,13.131,15.132,23.604,15.135c10.244-0.003,19.117-5.939,23.331-14.562   c0.971-1.984,0.149-4.38-1.835-5.351c-1.984-0.972-4.38-0.149-5.351,1.835c-2.927,5.97-9.053,10.082-16.146,10.079   c-7.253,0.003-13.491-4.293-16.333-10.473c-0.922-2.008-3.297-2.889-5.304-1.967C146.618,168.469,145.737,170.844,146.659,172.851   L146.659,172.851z"/>
</g>















</svg>
