<?xml version="1.0" encoding="iso-8859-1"?>
<!-- Generator: Adobe Illustrator 21.0.0, SVG Export Plug-In . SVG Version: 6.00 Build 0)  -->
<svg xmlns="http://www.w3.org/2000/svg" xmlns:xlink="http://www.w3.org/1999/xlink" version="1.1" id="millionaire" x="0px" y="0px" viewBox="0 0 300 300" style="enable-background:new 0 0 300 300;" xml:space="preserve" width="512" height="512">
<g>
	<path style="fill:#EEEEF0;" d="M194.431,250.557c-13.675,6.052-28.685,9.444-44.432,9.444s-30.757-3.392-44.432-9.443   c-16.786,2.197-27.567,5.61-27.567,9.443c0,6.628,32.237,12,71.999,12c39.766,0,72.003-5.372,72.003-12   C222.001,256.168,211.218,252.754,194.431,250.557"/>
	<path style="fill:#9AF43B;" d="M261.999,139.853c0-61.856-50.144-107.854-112.001-107.854   c-61.853,0-112.001,45.997-112.001,107.854c0,61.857,50.147,116.148,112.001,116.148   C211.855,256.001,261.999,201.71,261.999,139.853"/>
	<path style="fill:#54596E;" d="M261.999,139.853h4c0.011-32.023-13.02-60.087-34.051-80.025   c-21.024-19.949-50.026-31.831-81.95-31.828c-31.92-0.003-60.922,11.879-81.946,31.828c-21.031,19.938-34.062,48.002-34.051,80.025   c0.004,32.016,12.961,62.008,33.904,84.025c20.935,22.018,49.974,36.123,82.093,36.123s61.158-14.105,82.093-36.123   c20.947-22.018,33.904-52.01,33.907-84.025H261.999h-4c0.007,29.838-12.111,57.92-31.703,78.513   C206.696,238.959,179.736,252,149.998,252c-29.734,0-56.698-13.041-76.297-33.635c-19.592-20.593-31.707-48.675-31.703-78.513   c0.011-29.837,12.052-55.696,31.56-74.222C93.069,47.12,120.065,36.003,149.998,36c29.933,0.003,56.933,11.12,76.444,29.631   c19.504,18.525,31.545,44.385,31.556,74.222H261.999"/>
	<path style="fill:#93E440;" d="M257.068,126.075c-6.871,53.565-52.171,97.924-107.069,97.924S49.803,179.641,42.932,126.075   c-0.59,4.522-0.932,9.14-0.935,13.867c0.02,29.805,12.13,57.85,31.703,78.423c19.37,20.352,45.931,33.328,75.252,33.63   c0.051,0.001,0.104,0.001,0.155,0.001c0.065,0.001,0.128,0.002,0.193,0.002c0.047,0,0.097,0.001,0.144,0.001   C149.63,252,149.813,252,149.998,252l0,0l0,0c0.182,0,0.366,0,0.547-0.001c0.051,0,0.1-0.001,0.151-0.001   c0.056,0,0.114-0.001,0.17-0.001c0.058-0.001,0.119-0.001,0.177-0.002c29.325-0.302,55.882-13.278,75.252-33.63   c19.572-20.572,31.685-48.616,31.703-78.419C257.996,135.218,257.658,130.599,257.068,126.075"/>
	<path style="fill:#54596E;" d="M150.545,251.999C150.364,252,150.18,252,149.998,252C150.18,252,150.363,252,150.545,251.999    M149.445,251.999c0.185,0.001,0.367,0.001,0.553,0.001C149.813,252,149.63,252,149.445,251.999 M150.866,251.997   c-0.056,0-0.114,0.001-0.17,0.001C150.754,251.998,150.808,251.997,150.866,251.997 M149.108,251.996   c0.065,0.001,0.127,0.002,0.193,0.002C149.235,251.998,149.173,251.997,149.108,251.996 M257.998,139.946   c-0.018,29.803-12.131,57.847-31.703,78.419c-19.37,20.352-45.928,33.328-75.252,33.63C210.21,251.387,257.999,199.296,257.999,140   C257.999,139.981,257.998,139.964,257.998,139.946 M41.998,139.942c0,0.019,0,0.038,0,0.058   c0,59.296,47.792,111.387,106.956,111.995c-29.321-0.302-55.882-13.278-75.252-33.63C54.128,197.792,42.018,169.747,41.998,139.942   "/>
	<path style="fill:#54596E;" d="M117.999,148c0,17.673,14.326,32,32,32s32-14.327,32-32H117.999z"/>
	<path style="fill:#54596E;" d="M117.999,148h-4c0.003,19.883,16.115,35.997,36,35.999c19.885-0.002,35.997-16.116,36-35.999   c0-1.054-0.427-2.084-1.172-2.829c-0.745-0.745-1.775-1.171-2.828-1.171h-64c-1.053,0-2.084,0.426-2.828,1.171   c-0.745,0.745-1.172,1.775-1.172,2.829H117.999v4h64v-4h-4c-0.002,7.744-3.128,14.719-8.201,19.799   c-5.08,5.073-12.054,8.198-19.799,8.201c-7.745-0.003-14.72-3.128-19.799-8.201c-5.073-5.08-8.199-12.055-8.201-19.799H117.999v4   V148z"/>
	<path style="fill:#FFFFFF;" d="M125.999,160h48c2.209,0,4-1.791,4-4c0-2.21-1.791-4-4-4h-48c-2.209,0-4,1.79-4,4   C121.999,158.209,123.79,160,125.999,160"/>
	<circle style="fill:#FFFFFF;" cx="113.999" cy="100" r="36"/>
	<path style="fill:#54596E;" d="M149.999,100h4c-0.003-22.093-17.906-39.998-40-40c-22.094,0.002-39.997,17.907-40,40   c0.003,22.092,17.906,39.997,40,39.999c22.094-0.002,39.997-17.907,40-39.999H149.999h-4c-0.002,8.849-3.575,16.823-9.372,22.627   c-5.803,5.797-13.778,9.37-22.628,9.373c-8.85-0.003-16.824-3.576-22.628-9.373c-5.797-5.804-9.37-13.778-9.372-22.627   c0.002-8.85,3.575-16.824,9.372-22.628c5.803-5.797,13.778-9.37,22.628-9.373c8.849,0.003,16.824,3.576,22.628,9.373   c5.797,5.804,9.37,13.778,9.372,22.628H149.999z"/>
	<path style="fill:#54596E;" d="M244.828,50.828l14-14c1.562-1.562,1.562-4.095,0-5.657c-1.562-1.562-4.095-1.562-5.657,0l-14,14   c-1.562,1.562-1.562,4.095,0,5.657C240.733,52.39,243.266,52.39,244.828,50.828"/>
	<path style="fill:#54596E;" d="M46.828,248.828l14-14c1.562-1.562,1.562-4.095,0-5.657c-1.562-1.562-4.095-1.562-5.657,0l-14,14   c-1.562,1.562-1.562,4.095,0,5.657C42.733,250.39,45.266,250.39,46.828,248.828"/>
	<path style="fill:#54596E;" d="M60.828,45.171l-14-14c-1.562-1.562-4.095-1.562-5.657,0c-1.562,1.562-1.562,4.095,0,5.657l14,14   c1.562,1.562,4.095,1.562,5.657,0C62.39,49.266,62.39,46.733,60.828,45.171"/>
	<path style="fill:#54596E;" d="M258.828,243.171l-14-14c-1.562-1.562-4.095-1.562-5.657,0c-1.562,1.562-1.562,4.095,0,5.657l14,14   c1.562,1.562,4.095,1.562,5.657,0C260.39,247.266,260.39,244.733,258.828,243.171"/>
	<path style="fill:#54596E;" d="M129.999,88v-8c0-1.054-0.427-2.084-1.172-2.829c-0.745-0.745-1.775-1.171-2.828-1.171h-24   c-1.053,0-2.084,0.426-2.828,1.171c-0.745,0.745-1.172,1.775-1.172,2.829v20c0,1.068,0.416,2.072,1.172,2.828   c0.756,0.756,1.76,1.171,2.828,1.171h20v12h-16V112c0-2.21-1.791-4-4-4c-2.209,0-4,1.79-4,4v8c0,1.068,0.416,2.072,1.172,2.828   c0.756,0.756,1.76,1.171,2.828,1.171h24c1.068,0,2.072-0.415,2.828-1.171s1.172-1.76,1.172-2.828v-20   c0-1.054-0.427-2.084-1.172-2.829c-0.745-0.745-1.775-1.171-2.828-1.171h-20V83.998h16l0,4.002c0,2.209,1.791,4,4,4   C128.208,92,129.999,90.209,129.999,88z"/>
	<path style="fill:#54596E;" d="M109.999,68v68c0,2.209,1.791,4,4,4c2.209,0,4-1.791,4-4V68c0-2.21-1.791-4-4-4   C111.79,64,109.999,65.79,109.999,68"/>
	<circle style="fill:#FFFFFF;" cx="185.999" cy="100" r="36"/>
	<path style="fill:#54596E;" d="M221.999,100h4c-0.003-22.093-17.906-39.998-40-40c-22.094,0.002-39.997,17.907-40,40   c0.003,22.092,17.906,39.997,40,39.999c22.094-0.002,39.997-17.907,40-39.999H221.999h-4c-0.002,8.849-3.575,16.823-9.372,22.627   c-5.803,5.797-13.778,9.37-22.628,9.373c-8.85-0.003-16.824-3.576-22.628-9.373c-5.797-5.804-9.37-13.778-9.372-22.627   c0.002-8.85,3.575-16.824,9.372-22.628c5.803-5.797,13.778-9.37,22.628-9.373c8.849,0.003,16.824,3.576,22.628,9.373   c5.797,5.804,9.37,13.778,9.372,22.628H221.999z"/>
	<path style="fill:#54596E;" d="M201.999,88v-8c0-1.054-0.427-2.084-1.172-2.829c-0.745-0.745-1.775-1.171-2.828-1.171h-24   c-1.053,0-2.084,0.426-2.828,1.171c-0.745,0.745-1.172,1.775-1.172,2.829v20c0,1.068,0.416,2.072,1.172,2.828   c0.756,0.756,1.76,1.171,2.828,1.171h20v12h-16V112c0-2.21-1.791-4-4-4c-2.209,0-4,1.79-4,4v8c0,1.068,0.416,2.072,1.172,2.828   c0.756,0.756,1.76,1.171,2.828,1.171h24c1.068,0,2.072-0.415,2.828-1.171s1.172-1.76,1.172-2.828v-20   c0-1.054-0.427-2.084-1.172-2.829c-0.745-0.745-1.775-1.171-2.828-1.171h-20V83.998h16l0,4.002c0,2.209,1.791,4,4,4   C200.208,92,201.999,90.209,201.999,88z"/>
	<path style="fill:#54596E;" d="M181.999,68v68c0,2.209,1.791,4,4,4c2.209,0,4-1.791,4-4V68c0-2.21-1.791-4-4-4   C183.79,64,181.999,65.79,181.999,68"/>
</g>















</svg>
