<?xml version="1.0" encoding="iso-8859-1"?>
<!-- Generator: Adobe Illustrator 21.0.0, SVG Export Plug-In . SVG Version: 6.00 Build 0)  -->
<svg xmlns="http://www.w3.org/2000/svg" xmlns:xlink="http://www.w3.org/1999/xlink" version="1.1" id="monster" x="0px" y="0px" viewBox="0 0 300 300" style="enable-background:new 0 0 300 300;" xml:space="preserve" width="512" height="512">
<g>
	<path style="fill:#EEEEF0;" d="M194.432,244.557c-13.676,6.053-28.681,9.442-44.43,9.442s-30.759-3.392-44.434-9.442   c-16.787,2.197-27.569,5.61-27.569,9.442c0,6.63,32.236,12.003,72.003,12.003c39.764,0,71.999-5.373,71.999-12.003   C222.001,250.167,211.219,246.754,194.432,244.557"/>
	<path style="fill:#FFF35F;" d="M262.001,133.854c0-61.855-50.144-107.852-111.999-107.852   c-61.856,0-112.003,45.996-112.003,107.852s50.148,116.147,112.003,116.147C211.858,250.001,262.001,195.709,262.001,133.854"/>
	<path style="fill:#54596E;" d="M262.001,133.854H266c0.012-32.023-13.02-60.087-34.052-80.024   C210.924,33.877,181.922,22,150.002,22c-31.925,0-60.926,11.878-81.95,31.83C47.02,73.767,33.988,101.831,34,133.854   c0.004,32.019,12.96,62.005,33.906,84.025C88.844,239.897,117.88,254,150.002,254c32.117,0,61.154-14.103,82.092-36.12   c20.946-22.021,33.902-52.007,33.906-84.025H262.001h-4.002c0.008,29.836-12.11,57.92-31.7,78.511   c-19.602,20.595-46.563,33.634-76.297,33.638c-29.738-0.004-56.699-13.043-76.301-33.638c-19.59-20.591-31.708-48.675-31.7-78.511   c0.008-29.837,12.051-55.694,31.558-74.222C93.071,41.122,120.067,30.004,150.002,30c29.931,0.004,56.927,11.121,76.439,29.632   c19.508,18.527,31.55,44.385,31.558,74.222H262.001"/>
	<path style="fill:#EEE361;" d="M257.066,120.074c-6.866,53.571-52.169,97.929-107.063,97.929   c-54.899,0-100.201-44.357-107.068-97.929c-0.593,4.524-0.931,9.144-0.933,13.875c0.017,29.802,12.13,57.847,31.7,78.416   c19.602,20.595,46.563,33.634,76.301,33.638l0,0l0,0c29.734-0.004,56.695-13.043,76.297-33.638   c19.57-20.569,31.683-48.616,31.7-78.418C257.996,129.215,257.658,124.598,257.066,120.074"/>
	<path style="fill:#54596E;" d="M42.001,133.949c0,0.019,0,0.036,0,0.055c0,59.646,48.352,111.999,108.001,111.999   c-29.738-0.004-56.699-13.043-76.301-33.638C54.131,191.795,42.018,163.75,42.001,133.949 M257.999,133.947   c-0.017,29.802-12.13,57.849-31.7,78.418c-19.602,20.595-46.563,33.634-76.297,33.638c59.646,0,107.997-52.354,107.997-111.999   C257.999,133.985,257.999,133.965,257.999,133.947"/>
	<path style="fill:#54596E;" d="M178,206.001h-56l4.309-18c4.309-14,10.605-22,23.691-22s19.383,8,23.691,22L178,206.001z"/>
	<path style="fill:#54596E;" d="M178,206.001v-4h-50.93l3.129-13.069l-3.89-0.931l3.823,1.176c2.05-6.7,4.53-11.594,7.56-14.599   c1.52-1.515,3.166-2.61,5.138-3.38c1.972-0.764,4.303-1.196,7.17-1.198c2.867,0.002,5.198,0.435,7.17,1.198   c2.944,1.156,5.218,3.036,7.309,5.988c2.075,2.943,3.851,6.976,5.389,11.99l3.823-1.176l-3.89,0.931l4.309,18L178,206.001v-4   V206.001l3.89-0.932l-4.309-18l-0.067-0.245c-2.259-7.3-5.081-13.406-9.548-17.901c-2.228-2.235-4.88-4.015-7.903-5.183   c-3.024-1.174-6.387-1.741-10.063-1.739c-3.676-0.002-7.039,0.565-10.063,1.739c-4.55,1.75-8.198,4.886-10.963,8.848   c-2.782,3.971-4.796,8.751-6.489,14.236l-0.067,0.245l-4.309,18c-0.286,1.194-0.011,2.444,0.75,3.409   c0.761,0.964,1.912,1.521,3.14,1.521h56c1.228,0,2.379-0.558,3.14-1.522c0.761-0.964,1.036-2.214,0.75-3.408L178,206.001z"/>
	<path style="fill:#FF9999;" d="M162,206.001h-40v12v4v42c0,3.313,4.688,6,8,6s8-2.687,8-6v-42h12v23.572   c0,3.985,2.723,7.679,6.656,8.318c5.012,0.815,9.344-3.032,9.344-7.891v-24c6.629,0,12-9.373,12-16H162z"/>
	<path style="fill:#54596E;" d="M162,206.001v-4h-40c-1.053,0-2.084,0.426-2.829,1.171S118,204.948,118,206.001v12v4v42   c-0.001,1.788,0.643,3.374,1.483,4.594c1.281,1.842,2.971,3.07,4.758,3.967c1.802,0.878,3.713,1.425,5.759,1.438   c2.717-0.036,5.24-0.946,7.502-2.456c1.12-0.771,2.167-1.717,3.015-2.949c0.84-1.22,1.484-2.805,1.483-4.594V226h4l0,19.574   c0.004,2.905,0.977,5.661,2.7,7.875c1.715,2.208,4.271,3.898,7.314,4.391c0.669,0.108,1.332,0.161,1.985,0.16   c6.63-0.003,11.997-5.371,12-11.998v-24h-4V226c2.617,0.002,4.992-0.935,6.93-2.267c2.918-2.018,5.063-4.891,6.607-7.986   c1.524-3.111,2.448-6.458,2.463-9.746c0-1.054-0.427-2.084-1.171-2.829c-0.745-0.744-1.775-1.171-2.828-1.171h-16V206.001v4h16v-4   h-4c0.036,2.253-1.068,5.729-2.815,8.225c-0.858,1.26-1.851,2.28-2.772,2.905c-0.934,0.634-1.716,0.868-2.413,0.87   c-1.053,0-2.084,0.426-2.829,1.171S162,220.948,162,222.001v24c-0.004,2.202-1.795,3.994-4.001,3.999l-0.706-0.058   c-0.885-0.146-1.658-0.622-2.287-1.418c-0.621-0.789-1.01-1.872-1.006-2.951v-23.572c0-1.054-0.427-2.084-1.171-2.829   c-0.745-0.744-1.775-1.171-2.828-1.171h-12c-1.053,0-2.084,0.426-2.829,1.171S134,220.948,134,222.001v42h0.284l-0.274-0.095   l-0.01,0.095h0.284l-0.274-0.095l-0.326,0.451c-0.353,0.382-1.042,0.863-1.782,1.177c-0.732,0.325-1.521,0.476-1.902,0.467   c-0.595,0.035-2.073-0.397-2.983-1.059c-0.466-0.315-0.798-0.662-0.932-0.865l-0.096-0.171l-0.275,0.095H126l-0.01-0.095   l-0.275,0.095H126v-42l0-4l0-8.002L162,210V206.001z"/>
	<ellipse style="fill:#FF9999;" cx="186" cy="266.001" rx="16" ry="8"/>
	<path style="fill:#54596E;" d="M202,266.001h4c0.007-2.215-0.934-4.218-2.204-5.698c-1.929-2.242-4.55-3.687-7.571-4.726   c-3.029-1.02-6.506-1.574-10.226-1.576c-4.963,0.011-9.483,0.97-13.103,2.765c-1.808,0.91-3.414,2.035-4.694,3.537   c-1.27,1.48-2.211,3.483-2.204,5.698c-0.007,2.214,0.934,4.217,2.204,5.697c1.929,2.242,4.55,3.687,7.571,4.726   c3.029,1.02,6.506,1.574,10.226,1.576c4.963-0.011,9.483-0.97,13.102-2.765c1.808-0.91,3.414-2.035,4.694-3.537   c1.27-1.48,2.211-3.483,2.204-5.697H202h-4c-0.007,0,0.039,0.096-0.311,0.53c-0.5,0.628-1.937,1.627-4.023,2.313   c-2.079,0.705-4.759,1.158-7.665,1.156c-3.873,0.011-7.353-0.821-9.525-1.922c-1.088-0.538-1.824-1.137-2.164-1.548   c-0.35-0.435-0.304-0.53-0.311-0.53c0.007-0.001-0.039-0.097,0.311-0.531c0.5-0.628,1.937-1.627,4.023-2.313   c2.079-0.705,4.759-1.158,7.666-1.156c3.873-0.011,7.353,0.821,9.524,1.922c1.088,0.538,1.824,1.137,2.164,1.548   c0.35,0.435,0.304,0.53,0.311,0.531H202z"/>
	<circle style="fill:#54596E;" cx="186" cy="126.001" r="8"/>
	<circle style="fill:#54596E;" cx="114" cy="126.001" r="8"/>
	<path style="fill:#54596E;" d="M82,110.001c0.003,6.629,5.371,11.997,12,11.999h108c6.629-0.002,11.997-5.37,12-11.999   c0-2.21-1.791-4-4-4c-2.209,0-4,1.79-4,4c-0.004,2.206-1.793,3.995-4,4H94c-2.207-0.005-3.996-1.794-4-4c0-2.21-1.791-4-4-4   C83.791,106.001,82,107.792,82,110.001L82,110.001z"/>
	<polygon style="fill:#FFFFFF;" points="140.535,190.001 146,178.001 135.07,178.001  "/>
	<polygon style="fill:#FFFFFF;" points="160.535,190.001 166,178.001 155.07,178.001  "/>
	<path style="fill:#FFFFFF;" d="M134,180.001h32c1.104,0,2-0.896,2-2c0-1.105-0.896-2-2-2h-32c-1.105,0-2,0.895-2,2   C132,179.106,132.895,180.001,134,180.001"/>
	<path style="fill:#FFFFFF;" d="M166.133,178.001c-3.547-5.868-8.461-9.143-16.133-9.143s-12.586,3.274-16.133,9.143H166.133z"/>
</g>















</svg>
