<?xml version="1.0" encoding="iso-8859-1"?>
<!-- Generator: Adobe Illustrator 21.0.0, SVG Export Plug-In . SVG Version: 6.00 Build 0)  -->
<svg xmlns="http://www.w3.org/2000/svg" xmlns:xlink="http://www.w3.org/1999/xlink" version="1.1" id="moustache" x="0px" y="0px" viewBox="0 0 300 300" style="enable-background:new 0 0 300 300;" xml:space="preserve" width="512" height="512">
<g>
	<path style="fill:#EEEEF0;" d="M194.433,250.555c-13.677,6.053-28.685,9.444-44.435,9.444c-15.75,0-30.757-3.392-44.433-9.444   c-16.783,2.197-27.566,5.611-27.566,9.444c0,6.628,32.236,12.002,71.999,12.002c39.766,0,72.002-5.374,72.002-12.002   C222.001,256.167,211.217,252.752,194.433,250.555"/>
	<path style="fill:#FFF35F;" d="M262.001,139.852c0-61.854-50.145-107.851-112.003-107.851   c-61.855,0-111.999,45.996-111.999,107.851S88.143,256,149.998,256C211.857,256,262.001,201.707,262.001,139.852"/>
	<path style="fill:#54596E;" d="M262.001,139.852h3.999c0.011-32.023-13.021-60.09-34.051-80.026   c-21.023-19.95-50.027-31.827-81.951-31.827c-31.92,0-60.924,11.877-81.948,31.827c-21.03,19.937-34.062,48.003-34.051,80.026   c0.004,32.017,12.961,62.008,33.906,84.025C88.843,245.895,117.879,260,149.998,260c32.119,0,61.159-14.104,82.097-36.122   c20.942-22.018,33.899-52.009,33.906-84.025H262.001h-4.003c0.007,29.835-12.108,57.92-31.7,78.513   c-19.602,20.594-46.561,33.633-76.3,33.636c-29.736-0.003-56.698-13.042-76.297-33.636c-19.592-20.593-31.707-48.678-31.703-78.513   c0.011-29.835,12.051-55.696,31.558-74.223C93.07,47.122,120.067,36,149.998,35.997C179.933,36,206.93,47.122,226.44,65.629   c19.507,18.526,31.547,44.388,31.558,74.223H262.001"/>
	<path style="fill:#EEE361;" d="M257.064,126.075c-6.869,53.564-52.166,97.924-107.066,97.924   c-54.897,0-100.197-44.359-107.066-97.924c-0.591,4.521-0.931,9.14-0.934,13.868c0.022,29.801,12.132,57.85,31.703,78.422   c19.599,20.594,46.561,33.633,76.297,33.636l0,0l0,0c29.739-0.003,56.698-13.042,76.3-33.636   c19.572-20.572,31.682-48.62,31.7-78.421C257.995,135.215,257.659,130.595,257.064,126.075"/>
	<path style="fill:#54596E;" d="M257.998,139.944c-0.018,29.801-12.128,57.849-31.7,78.421   c-19.602,20.594-46.561,33.633-76.3,33.636c59.649,0,108-52.354,108-111.999C257.998,139.982,257.998,139.963,257.998,139.944    M41.998,139.943c0,0.02,0,0.039,0,0.059c0,59.646,48.354,111.999,108,111.999c-29.736-0.003-56.698-13.042-76.297-33.636   C54.13,197.792,42.02,169.744,41.998,139.943"/>
	<path style="fill:#54596E;" d="M198,96c-0.008,4.415-3.584,7.991-8,8c-4.416-0.009-7.992-3.585-8-8c0-2.21-1.791-4-4-4   c-2.209,0-4,1.79-4,4c0.003,8.838,7.162,15.997,16,15.999c8.838-0.002,15.997-7.161,16-15.999c0-2.21-1.791-4-4-4   C199.79,92,198,93.79,198,96L198,96z"/>
	<path style="fill:#54596E;" d="M118,96c-0.008,4.415-3.584,7.991-8,8c-4.416-0.009-7.992-3.585-8-8c0-2.21-1.791-4-4-4   c-2.209,0-4,1.79-4,4c0.003,8.838,7.162,15.997,16,15.999c8.838-0.002,15.997-7.161,16-15.999c0-2.21-1.791-4-4-4   C119.79,92,118,93.79,118,96L118,96z"/>
	<rect x="118" y="168" style="fill:#FF927D;" width="64" height="20"/>
	<path style="fill:#FFFFFF;" d="M245.052,138.326c0,0,0,18.516-20.299,21.6c-16.428,2.498-37.959-31.926-58.359-30.855   c-6.738,0.354-12.703,4.016-16.395,10.172c-3.691-6.156-9.658-9.796-16.395-10.172c-19.172-1.07-41.932,33.354-58.359,30.855   c-20.299-3.084-20.299-21.6-20.299-21.6s-7.611,40.115,20.299,49.371c27.912,9.258,71.953-14.83,74.754-19.518   c2.801,4.688,46.842,28.775,74.754,19.518C252.664,178.441,245.052,138.326,245.052,138.326z"/>
	<path style="fill:#54596E;" d="M245.052,138.326h-4h1l-1-0.018v0.018h1l-1-0.018c0.011,0.176-0.146,4.252-2.308,8.242   c-1.078,2.005-2.614,3.999-4.895,5.678c-2.286,1.674-5.348,3.076-9.697,3.742c-0.362,0.055-0.743,0.082-1.144,0.083   c-2.651,0.041-6.345-1.447-10.505-4.195c-6.26-4.071-13.366-10.585-20.827-16.203c-3.744-2.809-7.598-5.405-11.627-7.354   c-4.024-1.94-8.269-3.256-12.718-3.26c-0.388,0-0.784,0.011-1.188,0.035l0.25,3.993l-0.21-3.995   c-8.08,0.4-15.333,4.91-19.616,12.109l3.431,2.058l3.431-2.058c-4.287-7.205-11.544-11.684-19.602-12.108   c-0.353-0.021-0.723-0.032-1.106-0.032c-5.733,0.023-11.095,2.338-16.242,5.417c-7.709,4.653-15.15,11.28-22.086,16.611   c-3.454,2.665-6.768,4.997-9.761,6.588c-2.996,1.606-5.622,2.406-7.638,2.393c-0.401-0.001-0.788-0.029-1.165-0.085l0.016,0.003   c-4.489-0.688-7.606-2.158-9.916-3.906c-3.443-2.614-5.189-6.03-6.096-8.913c-0.449-1.433-0.675-2.706-0.784-3.589   c-0.055-0.441-0.081-0.785-0.093-1.001l-0.01-0.225l-0.001-0.033l-1.736,0.022h1.736v-0.022l-1.736,0.022h1.736   c0-2.064-1.57-3.79-3.625-3.982c-2.055-0.193-3.92,1.208-4.305,3.236c-0.03,0.167-1.016,5.376-1.018,12.615   c0.01,6.635,0.807,14.996,4.18,22.819c1.691,3.905,4.051,7.678,7.312,10.909c3.255,3.231,7.415,5.89,12.495,7.569   c4.936,1.635,10.195,2.3,15.542,2.301c14.164-0.021,29.056-4.616,40.888-9.65c5.913-2.526,11.044-5.172,14.928-7.49   c1.945-1.162,3.575-2.237,4.88-3.222c0.654-0.494,1.227-0.964,1.743-1.449c0.517-0.501,0.98-0.963,1.465-1.75L150,168.179   l-3.434,2.051c0.485,0.788,0.947,1.251,1.465,1.751c0.963,0.903,2.15,1.791,3.642,2.795c5.183,3.462,14.041,8.117,24.562,12.018   c10.514,3.88,22.614,6.989,34.236,7c5.347-0.001,10.606-0.667,15.541-2.3c5.082-1.681,9.241-4.338,12.496-7.57   c4.896-4.855,7.746-10.889,9.388-16.842c1.641-5.966,2.102-11.909,2.104-16.888c-0.002-7.239-0.988-12.447-1.018-12.614   c-0.385-2.028-2.25-3.43-4.305-3.236c-2.055,0.192-3.625,1.918-3.625,3.982H245.052l-3.93,0.745l0.029,0.163   c0.155,0.891,0.85,5.265,0.849,10.96c0.01,5.966-0.787,13.361-3.521,19.642c-1.363,3.146-3.186,6.012-5.602,8.405   c-2.422,2.392-5.433,4.344-9.383,5.659c-3.927,1.302-8.343,1.896-13.024,1.895c-12.409,0.021-26.575-4.221-37.746-9.008   c-5.588-2.386-10.446-4.897-13.969-7.001c-1.758-1.05-3.187-2.001-4.161-2.738c-0.486-0.366-0.858-0.68-1.075-0.886l-0.196-0.198   l-0.004-0.005l-1.112,0.901l1.225-0.732l-0.114-0.169l-1.112,0.901l1.225-0.732c-0.72-1.205-2.029-1.948-3.433-1.948   c-1.403-0.001-2.714,0.741-3.434,1.946l1.471,0.88l-1.374-1.026l-0.097,0.146l1.471,0.88l-1.374-1.026l0.537,0.401l-0.521-0.423   l-0.016,0.021l0.537,0.401l-0.521-0.423l-0.119,0.125c-0.332,0.335-1.221,1.056-2.445,1.882   c-4.333,2.953-12.881,7.518-22.853,11.224c-9.98,3.727-21.465,6.618-31.735,6.606c-4.682,0.001-9.097-0.592-13.024-1.895   c-3.949-1.315-6.961-3.268-9.382-5.66c-3.62-3.58-5.923-8.266-7.306-13.284c-1.384-5.007-1.819-10.289-1.817-14.761   c0-3.253,0.225-6.077,0.449-8.065c0.112-0.994,0.223-1.779,0.304-2.306l0.096-0.59l0.029-0.163l-3.93-0.745h-4   c0.015,0.36,0,5.535,2.968,11.449c1.488,2.945,3.769,6.072,7.175,8.658c3.4,2.592,7.895,4.593,13.555,5.446l0.016,0.003   c0.774,0.114,1.553,0.17,2.334,0.169c5.323-0.042,10.207-2.413,15.042-5.475c7.23-4.642,14.518-11.219,21.623-16.519   c3.539-2.649,7.014-4.969,10.26-6.565c3.251-1.607,6.228-2.457,8.801-2.45l0.658,0.021c5.417,0.327,10.094,3.128,13.19,8.235   c0.721,1.203,2.027,1.942,3.431,1.942c1.403,0,2.709-0.739,3.431-1.942c3.1-5.113,7.777-7.928,13.173-8.234l0.04-0.002l0.688-0.021   c3.76-0.017,8.044,1.561,12.599,4.283c6.839,4.055,14.038,10.49,21.103,16.061c3.546,2.786,7.073,5.362,10.673,7.321   c3.596,1.943,7.322,3.333,11.301,3.347c0.774,0.001,1.557-0.054,2.342-0.172c5.664-0.854,10.159-2.855,13.558-5.447   c5.121-3.894,7.656-8.94,8.89-12.892c1.239-3.972,1.249-6.942,1.253-7.216H245.052l-3.93,0.745L245.052,138.326z"/>
</g>















</svg>
