<?xml version="1.0" encoding="iso-8859-1"?>
<!-- Generator: Adobe Illustrator 21.0.0, SVG Export Plug-In . SVG Version: 6.00 Build 0)  -->
<svg xmlns="http://www.w3.org/2000/svg" xmlns:xlink="http://www.w3.org/1999/xlink" version="1.1" id="movie-glasses" x="0px" y="0px" viewBox="0 0 300 300" style="enable-background:new 0 0 300 300;" xml:space="preserve" width="512" height="512">
<g>
	<path style="fill:#EEEEF0;" d="M194.43,250.558C180.755,256.61,165.747,260,150,260c-15.747,0-30.756-3.391-44.431-9.442   c-16.786,2.197-27.57,5.61-27.57,9.442c0,6.627,32.236,12,72.001,12c39.761,0,72.001-5.373,72.001-12   C222.001,256.168,211.216,252.755,194.43,250.558"/>
	<path style="fill:#FFF35F;" d="M261.998,139.853c0-61.855-50.142-107.851-111.998-107.851   c-61.856,0-112.002,45.995-112.002,107.851c0,61.856,50.146,116.149,112.002,116.149   C211.856,256.002,261.998,201.709,261.998,139.853"/>
	<path style="fill:#54596E;" d="M261.998,139.853h4.002c0.008-32.022-13.024-60.089-34.053-80.024   C210.923,39.877,181.92,27.996,150,28c-31.924-0.004-60.927,11.878-81.952,31.829c-21.029,19.936-34.06,48.002-34.049,80.024   c0.004,32.02,12.963,62.009,33.904,84.027C88.841,245.895,117.882,260,150,260c32.118,0,61.155-14.105,82.093-36.12   c20.945-22.019,33.9-52.008,33.908-84.027H261.998H258c0.004,29.837-12.11,57.923-31.703,78.513   C206.696,238.957,179.734,252,150,252c-29.738,0-56.7-13.043-76.3-33.634C54.11,197.776,41.993,169.69,42,139.853   S54.05,84.155,73.555,65.632C93.068,47.121,120.064,36,150,36c29.932,0,56.928,11.12,76.441,29.632   c19.505,18.522,31.547,44.384,31.558,74.221H261.998"/>
	<path style="fill:#54596E;" d="M72.047,175.722c8.282,6.268,19.577,11.271,32.901,14.786c13.324,3.506,28.684,5.49,45.051,5.491   c16.564-0.001,32.097-2.034,45.532-5.619c13.436-3.596,24.78-8.707,33.014-15.115c1.741-1.359,2.052-3.872,0.693-5.613   c-1.359-1.742-3.872-2.053-5.613-0.693c-7.017,5.485-17.48,10.318-30.157,13.693c-12.678,3.386-27.563,5.35-43.469,5.349   c-15.717,0.001-30.436-1.917-43.015-5.229c-12.578-3.302-23.009-8.031-30.104-13.424c-1.76-1.335-4.27-0.99-5.604,0.771   C69.942,171.878,70.287,174.388,72.047,175.722L72.047,175.722z"/>
	<path style="fill:#54596E;" d="M117.999,132c-0.003-8.839-7.162-15.998-16-16c-8.838,0.002-15.997,7.161-16,16c0,2.209,1.791,4,4,4   c2.209,0,4-1.791,4-4c0.008-4.416,3.584-7.992,8-8.001c4.416,0.009,7.992,3.585,8,8.001c0,2.209,1.791,4,4,4   C116.208,136,117.999,134.209,117.999,132L117.999,132z"/>
	<path style="fill:#FF9999;" d="M108.886,156H79.112c-16.078,0-29.113-13.035-29.113-29.114V100h88v26.886   C137.999,142.965,124.964,156,108.886,156z"/>
	<path style="fill:#54596E;" d="M108.887,156v-3.998H79.111c-6.946-0.004-13.199-2.807-17.757-7.357   C56.803,140.085,54,133.833,54,126.886V104h79.998v22.887c0,6.946-2.803,13.199-7.354,17.758   c-4.558,4.551-10.811,7.354-17.758,7.357V156v3.999c18.287,0,33.108-14.821,33.112-33.112V100c0-1.055-0.427-2.083-1.173-2.829   c-0.743-0.743-1.775-1.169-2.826-1.169H49.998c-1.051,0-2.083,0.423-2.826,1.169c-0.746,0.746-1.173,1.774-1.173,2.829v26.886   c0.004,18.291,14.825,33.112,33.112,33.112h29.776V156"/>
	<path style="fill:#54596E;" d="M213.999,132c-0.003-8.839-7.162-15.998-16-16c-8.838,0.002-15.997,7.161-16,16c0,2.209,1.791,4,4,4   c2.209,0,4-1.791,4-4c0.008-4.416,3.584-7.992,8-8.001c4.416,0.009,7.992,3.585,8,8.001c0,2.209,1.791,4,4,4   C212.208,136,213.999,134.209,213.999,132L213.999,132z"/>
	<path style="fill:#55A6FF;" d="M191.112,156h29.773c16.078,0,29.113-13.035,29.113-29.114V100h-88v26.886   C161.999,142.965,175.034,156,191.112,156z"/>
	<path style="fill:#54596E;" d="M191.113,156v3.999h29.772c18.291,0,33.112-14.821,33.112-33.112V100   c0-1.055-0.427-2.083-1.169-2.829c-0.746-0.743-1.775-1.169-2.829-1.169H162c-1.055,0-2.083,0.423-2.829,1.169   c-0.743,0.746-1.169,1.774-1.169,2.829v26.886c0,18.291,14.821,33.112,33.112,33.112V156v-3.998   c-6.946-0.004-13.199-2.807-17.757-7.357c-4.551-4.559-7.354-10.812-7.357-17.758V104H246v22.887   c-0.004,6.946-2.807,13.199-7.357,17.758c-4.558,4.551-10.811,7.354-17.758,7.357h-29.772V156"/>
	<path style="fill:#EEE361;" d="M257.067,126.076c-6.87,53.565-52.168,97.927-107.067,97.927   c-54.899,0-100.197-44.361-107.067-97.927c-0.592,4.521-0.93,9.142-0.933,13.872c0.018,29.802,12.13,57.849,31.699,78.418   C93.3,238.957,120.262,252,150,252l0,0l0,0c29.734,0,56.696-13.043,76.297-33.634c19.574-20.57,31.683-48.618,31.703-78.423   C257.997,135.214,257.658,130.596,257.067,126.076"/>
	<path style="fill:#54596E;" d="M42.001,139.948c0,0.018,0,0.036,0,0.054C42,199.645,90.353,252,150,252   c-29.738,0-56.7-13.043-76.3-33.634C54.131,197.796,42.018,169.75,42.001,139.948 M257.999,139.943   c-0.02,29.805-12.129,57.853-31.703,78.423C206.696,238.957,179.734,252,150,252c59.647,0,108-52.354,108-111.998   C258,139.982,257.999,139.962,257.999,139.943"/>
	<path style="fill:#DDCF50;" d="M129.433,76.041l-28,4c-2.187,0.312-3.707,2.338-3.394,4.525c0.312,2.187,2.339,3.706,4.526,3.394   l28-4c2.187-0.312,3.707-2.338,3.394-4.525C133.647,77.248,131.62,75.728,129.433,76.041"/>
	<path style="fill:#DDCF50;" d="M198.565,80.041l-28-4c-2.187-0.312-4.213,1.207-4.526,3.394c-0.312,2.188,1.207,4.213,3.394,4.525   l28,4c2.187,0.312,4.213-1.207,4.526-3.394C202.271,82.378,200.752,80.353,198.565,80.041"/>
	<polygon style="fill:#54596E;" points="174.038,102.115 164.038,102.115 164.038,104.001 136.038,104.001 136.038,102.115    126.038,102.115 126.038,104.001 125.999,104.001 125.999,112.001 173.999,112.001 173.999,105.115 174.038,105.115  "/>
</g>















</svg>
