<?xml version="1.0" encoding="iso-8859-1"?>
<!-- Generator: Adobe Illustrator 21.0.0, SVG Export Plug-In . SVG Version: 6.00 Build 0)  -->
<svg xmlns="http://www.w3.org/2000/svg" xmlns:xlink="http://www.w3.org/1999/xlink" version="1.1" id="nerd" x="0px" y="0px" viewBox="0 0 300 300" style="enable-background:new 0 0 300 300;" xml:space="preserve" width="512" height="512">
<g>
	<path style="fill:#EEEEF0;" d="M105.568,250.558c-16.785,2.197-27.568,5.61-27.568,9.442c0,6.627,32.232,12,71.997,12   c39.769,0,72.001-5.373,72.001-12c0-3.832-10.782-7.245-27.568-9.442C180.756,256.61,165.747,260,149.998,260   C134.251,260,119.243,256.61,105.568,250.558"/>
	<path style="fill:#FFF35F;" d="M262,139.853c0-61.855-50.146-107.851-112.002-107.851C88.146,32.002,38,77.998,38,139.853   c0,61.856,50.146,116.149,111.998,116.149C211.854,256.002,262,201.709,262,139.853"/>
	<path style="fill:#54596E;" d="M262,139.853h3.999c0.011-32.022-13.02-60.089-34.049-80.024   C210.925,39.877,181.922,27.996,149.998,28c-31.92-0.004-60.923,11.878-81.948,31.829c-21.029,19.936-34.06,48.002-34.049,80.024   c0.004,32.02,12.959,62.009,33.904,84.027C88.843,245.895,117.88,260,149.998,260c32.122,0,61.159-14.105,82.096-36.12   c20.941-22.019,33.9-52.008,33.904-84.027H262h-3.999c0.004,29.837-12.114,57.923-31.703,78.513   C206.698,238.957,179.736,252,149.998,252c-29.734,0-56.696-13.043-76.297-33.634c-19.593-20.59-31.707-48.676-31.703-78.513   c0.011-29.837,12.053-55.698,31.558-74.221C93.07,47.121,120.066,36,149.998,36c29.936,0,56.932,11.12,76.445,29.632   c19.505,18.522,31.547,44.384,31.558,74.221H262"/>
	<path style="fill:#EEE361;" d="M257.065,126.076c-6.866,53.565-52.168,97.927-107.067,97.927S49.801,179.641,42.932,126.076   c-0.588,4.521-0.93,9.14-0.933,13.869c0.021,29.802,12.13,57.852,31.703,78.421C93.302,238.957,120.264,252,149.998,252l0,0l0,0   c29.738,0,56.7-13.043,76.3-33.634c19.57-20.57,31.683-48.618,31.703-78.423C257.999,135.214,257.656,130.596,257.065,126.076"/>
	<path style="fill:#54596E;" d="M41.999,139.945c0,0.019,0,0.038,0,0.057c0,59.644,48.352,111.998,108,111.998   c-29.734,0-56.696-13.043-76.297-33.634C54.129,197.796,42.02,169.747,41.999,139.945 M258.001,139.943   c-0.02,29.805-12.133,57.853-31.703,78.423C206.698,238.957,179.736,252,149.998,252c59.651,0,108.003-52.354,108.003-111.998   C258.002,139.982,258.001,139.962,258.001,139.943"/>
	<path style="fill:#54596E;" d="M118,156c0,17.673,14.328,32,32,32s32-14.327,32-32H118z"/>
	<path style="fill:#54596E;" d="M118,156h-4c0.003,19.883,16.117,35.997,36,35.999c19.883-0.002,35.997-16.116,36-35.999   c0-1.054-0.427-2.084-1.171-2.829C184.083,152.427,183.053,152,182,152h-64c-1.053,0-2.084,0.426-2.829,1.171S114,154.947,114,156   H118v4h64v-4h-4c-0.002,7.744-3.128,14.719-8.202,19.799c-5.08,5.073-12.054,8.198-19.798,8.201   c-7.744-0.003-14.719-3.128-19.799-8.201c-5.073-5.08-8.199-12.055-8.202-19.799H118v4V156z"/>
	<path style="fill:#54596E;" d="M198,112c0-4.418-3.583-8.001-8.001-8.001s-8.001,3.583-8.001,8.001   c0,4.417,3.583,8.001,8.001,8.001S198,116.417,198,112"/>
	<path style="fill:#54596E;" d="M198,112h3.999c-0.004-6.63-5.37-12-12-12c-6.63,0-11.996,5.37-12,12   c0.004,6.63,5.369,11.995,12,11.999c6.63-0.004,11.996-5.369,12-11.999H198h-3.999c-0.008,2.205-1.794,3.994-4.002,3.998   c-2.205-0.004-3.995-1.793-3.999-3.998c0.004-2.205,1.793-3.995,3.999-4.003c2.209,0.008,3.995,1.798,4.002,4.003H198"/>
	<path style="fill:#54596E;" d="M230,112h3.999C233.995,92.118,217.882,76.001,198,76.001c-19.883,0-35.999,16.116-35.999,35.999   c0,19.882,16.116,35.998,35.999,35.998c19.882,0,35.995-16.116,35.999-35.998H230h-3.999c-0.004,7.745-3.13,14.719-8.203,19.799   c-5.08,5.072-12.057,8.198-19.799,8.202c-7.746-0.004-14.719-3.13-19.799-8.202c-5.072-5.08-8.199-12.054-8.203-19.799   c0.004-7.746,3.13-14.719,8.203-19.799c5.08-5.072,12.053-8.199,19.799-8.203c7.742,0.004,14.719,3.131,19.799,8.203   c5.073,5.08,8.199,12.053,8.203,19.799H230"/>
	<path style="fill:#FFF89F;" d="M189.999,124c-6.63-0.004-11.996-5.369-12-11.999c0.004-6.63,5.369-12,12-12   c6.63,0,11.996,5.37,12,12H198l0,0h3.999C201.995,118.63,196.629,123.996,189.999,124 M198,83.999   c-7.746,0.004-14.719,3.131-19.799,8.203c-5.072,5.08-8.199,12.053-8.203,19.799l0,0c0.004,7.745,3.13,14.719,8.203,19.799   c5.08,5.072,12.053,8.198,19.799,8.202l0,0l0,0c7.742-0.004,14.719-3.13,19.799-8.202c5.073-5.08,8.199-12.054,8.203-19.799l0,0   c-0.004-7.746-3.13-14.719-8.203-19.799C212.719,87.129,205.742,84.002,198,83.999"/>
	<circle style="fill:#989BA8;" cx="189.999" cy="112" r="12"/>
	<path style="fill:#989BA8;" d="M169.999,112c0,15.465,12.536,28.001,28.001,28.001c-7.746-0.004-14.719-3.13-19.799-8.202   C173.129,126.719,170.002,119.746,169.999,112 M226.002,112c-0.004,7.745-3.13,14.719-8.203,19.799   c-5.08,5.072-12.057,8.198-19.799,8.202C213.465,140.001,226.002,127.465,226.002,112 M198,83.999   c-15.465,0-28.001,12.537-28.001,28.002l0,0c0.004-7.746,3.13-14.719,8.203-19.799C183.282,87.129,190.254,84.002,198,83.999   c7.742,0.004,14.719,3.131,19.799,8.203c5.073,5.08,8.199,12.053,8.203,19.799l0,0C226.002,96.536,213.465,83.999,198,83.999"/>
	<path style="fill:#54596E;" d="M102,112c0-4.418,3.583-8.001,8.001-8.001s7.997,3.583,7.997,8.001c0,4.417-3.58,8.001-7.997,8.001   S102,116.417,102,112"/>
	<path style="fill:#54596E;" d="M102,112h3.999c0.004-2.205,1.793-3.995,4.002-4.003c2.205,0.008,3.995,1.798,3.999,4.003   c-0.004,2.205-1.794,3.994-3.999,3.998c-2.209-0.004-3.999-1.793-4.002-3.998H102h-3.999c0,6.63,5.37,11.995,12,11.999   c6.626-0.004,11.996-5.369,12-11.999c-0.004-6.63-5.374-12-12-12c-6.63,0-12,5.37-12,12H102"/>
	<path style="fill:#54596E;" d="M70,112h3.999c0.004-7.746,3.13-14.719,8.203-19.799c5.08-5.072,12.053-8.199,19.799-8.203   c7.742,0.004,14.719,3.131,19.799,8.203c5.073,5.08,8.199,12.053,8.203,19.799c-0.004,7.745-3.13,14.719-8.203,19.799   c-5.08,5.072-12.057,8.198-19.799,8.202c-7.746-0.004-14.719-3.13-19.799-8.202c-5.073-5.08-8.199-12.054-8.203-19.799H70h-3.999   c0,19.882,16.116,35.998,35.999,35.998c19.882,0,35.999-16.116,35.999-35.998c0-19.883-16.116-35.999-35.999-35.999   c-19.883,0-35.999,16.116-35.999,35.999H70"/>
	<path style="fill:#FFF89F;" d="M98.001,112c0-6.63,5.37-12,12-12c6.626,0,11.996,5.37,12,12c-0.004,6.63-5.374,11.995-12,11.999   C103.371,123.996,98.001,118.63,98.001,112H102l0,0H98.001 M102,83.999c-7.746,0.004-14.719,3.131-19.799,8.203   c-5.073,5.08-8.199,12.053-8.203,19.799l0,0c0.004,7.745,3.13,14.719,8.203,19.799c5.08,5.072,12.053,8.198,19.799,8.202l0,0l0,0   c7.742-0.004,14.719-3.13,19.799-8.202c5.073-5.08,8.199-12.054,8.203-19.799l0,0c-0.004-7.746-3.13-14.719-8.203-19.799   C116.719,87.129,109.742,84.002,102,83.999"/>
	<circle style="fill:#989BA8;" cx="110.001" cy="112" r="12"/>
	<path style="fill:#989BA8;" d="M73.999,112c0,15.465,12.536,28.001,28.001,28.001c-7.746-0.004-14.719-3.13-19.799-8.202   C77.129,126.719,74.002,119.746,73.999,112 M130.001,112c-0.004,7.745-3.13,14.719-8.203,19.799   c-5.08,5.072-12.057,8.198-19.799,8.202C117.465,140.001,130.001,127.465,130.001,112 M102,83.999   c-15.465,0-28.001,12.537-28.001,28.002l0,0c0.004-7.746,3.13-14.719,8.203-19.799C87.281,87.129,94.254,84.002,102,83.999   c7.742,0.004,14.719,3.131,19.799,8.203c5.073,5.08,8.199,12.053,8.203,19.799l0,0C130.001,96.536,117.465,83.999,102,83.999"/>
	<path style="fill:#54596E;" d="M102,84h92c2.209,0,4-1.791,4-4c0-2.21-1.791-4-4-4h-92c-2.209,0-4,1.79-4,4   C98,82.209,99.79,84,102,84"/>
	<rect x="134" y="160" style="fill:#FFFFFF;" width="32" height="16"/>
	<line style="fill:#FFF35F;" x1="150" y1="156" x2="150" y2="180"/>
	<path style="fill:#54596E;" d="M146,156v24c0,2.209,1.791,4,4,4c2.209,0,4-1.791,4-4v-24c0-2.21-1.791-4-4-4   C147.79,152,146,153.791,146,156"/>
	<path style="fill:#54596E;" d="M71.129,99.97h-1.098C58.965,99.972,50.002,108.936,50,120c0,2.209,1.791,4,4,4c2.209,0,4-1.791,4-4   c0.012-6.644,5.386-12.019,12.031-12.031h1.098c2.208,0,3.999-1.791,3.999-3.999C75.128,101.761,73.337,99.971,71.129,99.97   L71.129,99.97z"/>
	<path style="fill:#54596E;" d="M228.871,108h1.098c6.645,0.013,12.019,5.388,12.031,12.031c0,2.209,1.791,4,4,4   c2.209,0,4-1.791,4-4c-0.002-11.064-8.966-20.028-20.031-20.03h-1.098c-2.209,0-4,1.79-4,4   C224.871,106.209,226.661,108,228.871,108L228.871,108z"/>
	<circle style="fill:#FF9C9C;" cx="82" cy="160" r="4"/>
	<circle style="fill:#FF9C9C;" cx="102" cy="160" r="4"/>
	<circle style="fill:#FF9C9C;" cx="94" cy="172" r="4"/>
	<circle style="fill:#FF9C9C;" cx="218" cy="160" r="4"/>
	<circle style="fill:#FF9C9C;" cx="198" cy="160" r="4"/>
	<circle style="fill:#FF9C9C;" cx="206" cy="172" r="4"/>
</g>















</svg>
