<?xml version="1.0" encoding="iso-8859-1"?>
<!-- Generator: Adobe Illustrator 21.0.0, SVG Export Plug-In . SVG Version: 6.00 Build 0)  -->
<svg xmlns="http://www.w3.org/2000/svg" xmlns:xlink="http://www.w3.org/1999/xlink" version="1.1" id="nervous" x="0px" y="0px" viewBox="0 0 300 300" style="enable-background:new 0 0 300 300;" xml:space="preserve" width="512" height="512">
<g>
	<path style="fill:#EEEEF0;" d="M105.565,254.557c-16.783,2.197-27.565,5.61-27.565,9.444c0,6.626,32.234,11.998,71.997,11.998   c39.767,0,72.001-5.372,72.001-11.998c0-3.834-10.781-7.247-27.565-9.444c-13.677,6.052-28.686,9.442-44.436,9.44   c-0.006,0-0.007,0-0.013,0C134.243,263.998,119.237,260.607,105.565,254.557"/>
	<path style="fill:#FF9999;" d="M261.997,143.852c0-61.854-50.142-107.851-112-107.851c-61.854,0-112,45.996-112,107.851   c0,61.857,50.146,116.148,112,116.148C211.856,260,261.997,205.709,261.997,143.852"/>
	<path style="fill:#54596E;" d="M261.997,143.852h4.001c0.011-32.021-13.019-60.087-34.051-80.025   c-21.024-19.95-50.028-31.83-81.949-31.826c-31.922-0.004-60.925,11.876-81.949,31.826c-21.028,19.938-34.059,48.005-34.048,80.025   c0.004,32.021,12.962,62.007,33.903,84.029c20.937,22.015,49.978,36.12,82.094,36.116c32.12,0.004,61.161-14.102,82.094-36.116   c20.945-22.022,33.903-52.009,33.907-84.029H261.997h-3.997c0.004,29.837-12.113,57.922-31.704,78.512   c-19.6,20.595-46.56,33.637-76.299,33.637c-29.735,0-56.695-13.042-76.295-33.637c-19.592-20.59-31.708-48.675-31.704-78.512   c0.011-29.838,12.052-55.693,31.56-74.223c19.512-18.51,46.507-29.628,76.44-29.631c29.937,0.003,56.932,11.121,76.443,29.631   c19.508,18.529,31.548,44.385,31.56,74.223H261.997"/>
	<path style="fill:#EE9295;" d="M257.067,130.075C250.197,183.641,204.898,228,149.998,228c-54.897,0-100.196-44.358-107.066-97.925   c-0.592,4.522-0.931,9.14-0.933,13.867c0.02,29.805,12.132,57.853,31.704,78.422c19.446,20.434,46.138,33.433,75.597,33.634   c0.055,0.001,0.104,0.001,0.158,0.001c0.18,0.001,0.359,0.002,0.539,0.002l0,0l0,0c0.178,0,0.355-0.001,0.532-0.002   c0.055,0,0.111,0,0.166-0.001c29.463-0.201,56.154-13.2,75.601-33.634c19.572-20.568,31.683-48.618,31.704-78.421   C257.998,139.215,257.655,134.597,257.067,130.075"/>
	<path style="fill:#54596E;" d="M150.53,255.999C150.352,256,150.175,256,149.998,256C150.176,256,150.352,256,150.53,255.999    M149.458,255.999c0.178,0.001,0.361,0.002,0.539,0.002C149.818,256,149.638,256,149.458,255.999 M258,143.943   c-0.021,29.803-12.133,57.853-31.704,78.421c-19.446,20.434-46.138,33.433-75.601,33.634   c59.327-0.406,107.305-52.582,107.305-111.997C258.001,143.981,258.001,143.962,258,143.943 M41.999,143.942   c0,0.02,0,0.039,0,0.059c0,59.415,47.979,111.591,107.302,111.997c-29.459-0.201-56.151-13.2-75.597-33.634   C54.13,201.794,42.018,173.747,41.999,143.942"/>
	<path style="fill:#54596E;" d="M103.982,111.454l9.656,5.641l-13.554,7.395c-1.94,1.058-2.654,3.487-1.596,5.427   c1.058,1.939,3.488,2.654,5.428,1.597l19.771-10.788c1.266-0.691,2.063-2.011,2.084-3.453c0.021-1.441-0.737-2.785-1.982-3.512   l-15.771-9.213c-1.908-1.115-4.357-0.472-5.472,1.437C101.431,107.89,102.074,110.339,103.982,111.454L103.982,111.454z"/>
	<path style="fill:#54596E;" d="M191.753,104.546l-15.771,9.213c-1.245,0.727-2.003,2.07-1.982,3.512   c0.021,1.442,0.818,2.762,2.084,3.453l19.771,10.787c1.939,1.058,4.368,0.344,5.427-1.596c1.058-1.938,0.344-4.368-1.595-5.426   l-13.554-7.396l9.656-5.64c1.907-1.115,2.55-3.564,1.436-5.471C196.109,104.076,193.66,103.432,191.753,104.546L191.753,104.546z"/>
	<path style="fill:#54596E;" d="M96.399,183.2l12.617-9.463l5.655,8.482c0.742,1.112,1.991,1.78,3.328,1.78   c1.337,0,2.586-0.668,3.328-1.78l4.672-7.008l4.672,7.008c0.742,1.112,1.991,1.78,3.328,1.78c1.337,0,2.586-0.668,3.328-1.78   l4.672-7.008l4.672,7.008c1.225,1.838,3.709,2.334,5.547,1.109c1.838-1.226,2.335-3.709,1.109-5.547l-8-12.001   c-0.742-1.113-1.991-1.78-3.328-1.78c-1.337,0-2.586,0.667-3.328,1.78l-4.672,7.007l-4.672-7.007   c-0.742-1.113-1.991-1.78-3.328-1.78c-1.337,0-2.586,0.667-3.328,1.78l-4.672,7.007l-4.672-7.007   c-0.61-0.915-1.57-1.538-2.653-1.724s-2.196,0.083-3.075,0.743l-16,12c-1.767,1.325-2.126,3.832-0.8,5.6   C92.124,184.167,94.632,184.526,96.399,183.2L96.399,183.2z"/>
	<path style="fill:#54596E;" d="M153.327,182.219l4.672-7.008l4.672,7.008c0.742,1.112,1.991,1.78,3.328,1.78   c1.337,0,2.586-0.668,3.328-1.78l4.672-7.008l4.672,7.008c0.742,1.112,1.991,1.78,3.328,1.78c1.337,0,2.586-0.668,3.328-1.78   l5.654-8.482l12.617,9.463c1.767,1.325,4.274,0.967,5.599-0.8c1.325-1.767,0.968-4.273-0.799-5.599l-16-12.001   c-0.879-0.66-1.992-0.929-3.075-0.743s-2.044,0.809-2.653,1.724l-4.672,7.007l-4.672-7.007c-0.742-1.113-1.991-1.78-3.328-1.78   c-1.337,0-2.586,0.667-3.328,1.78l-4.672,7.007l-4.672-7.007c-0.742-1.113-1.991-1.78-3.328-1.78c-1.337,0-2.586,0.667-3.328,1.78   l-8,12c-1.226,1.838-0.73,4.321,1.109,5.548C149.618,184.554,152.101,184.058,153.327,182.219L153.327,182.219z"/>
	<path style="fill:#54596E;" d="M240.828,54.829l20-20c1.562-1.562,1.562-4.095,0-5.657c-1.562-1.562-4.095-1.562-5.657,0l-20,20   c-1.562,1.562-1.562,4.095,0,5.657C236.733,56.39,239.265,56.39,240.828,54.829"/>
	<path style="fill:#54596E;" d="M229.999,40V28c0-2.21-1.791-4-4-4c-2.209,0-4,1.79-4,4v12c0,2.209,1.791,4,4,4   C228.208,44,229.999,42.209,229.999,40"/>
	<path style="fill:#54596E;" d="M245.999,68h16c2.209,0,4-1.791,4-4c0-2.21-1.791-4-4-4h-16c-2.209,0-4,1.79-4,4   C241.999,66.209,243.79,68,245.999,68"/>
</g>















</svg>
