<?xml version="1.0" encoding="iso-8859-1"?>
<!-- Generator: Adobe Illustrator 21.0.0, SVG Export Plug-In . SVG Version: 6.00 Build 0)  -->
<svg xmlns="http://www.w3.org/2000/svg" xmlns:xlink="http://www.w3.org/1999/xlink" version="1.1" id="ninja" x="0px" y="0px" viewBox="0 0 300 300" style="enable-background:new 0 0 300 300;" xml:space="preserve" width="512" height="512">
<g>
	<path style="fill:#EEEEF0;" d="M194.432,250.557c-13.675,6.051-28.683,9.441-44.43,9.441c-15.749,0-30.759-3.391-44.433-9.441   C88.782,252.753,78,256.167,78,259.999c0,6.63,32.235,12.002,72.001,12.002c39.763,0,71.998-5.372,71.998-12.002   C222,256.167,211.218,252.753,194.432,250.557"/>
	<path style="fill:#9AF43B;" d="M262.001,139.853C262.001,77.995,211.857,32,150.002,32C88.144,32,37.999,77.995,37.999,139.853   c0,61.854,50.145,116.148,112.003,116.148C211.857,256.001,262.001,201.708,262.001,139.853"/>
	<path style="fill:#54596E;" d="M262.001,139.853h4c0.011-32.021-13.021-60.089-34.054-80.023   C210.926,39.876,181.92,27.996,150.002,28c-31.922-0.004-60.927,11.877-81.949,31.83c-21.033,19.935-34.064,48.002-34.054,80.023   c0.007,32.018,12.964,62.008,33.908,84.027c20.937,22.018,49.974,36.118,82.095,36.118c32.117,0,61.155-14.101,82.092-36.118   c20.944-22.02,33.901-52.01,33.908-84.027H262.001h-4c0.004,29.837-12.112,57.922-31.702,78.51   c-19.601,20.596-46.563,33.635-76.297,33.639c-29.737-0.004-56.699-13.043-76.3-33.639C54.111,197.775,41.996,169.69,42,139.853   c0.011-29.837,12.051-55.697,31.556-74.222C93.068,47.121,120.066,36.004,150.002,36c29.933,0.004,56.93,11.12,76.439,29.631   c19.509,18.524,31.549,44.385,31.56,74.222H262.001"/>
	<path style="fill:#54596E;" d="M37.999,139.853l0.004,0.149h223.995l0.003-0.149c0-22.554-6.69-42.979-18.158-59.851H56.158   C44.689,96.875,37.999,117.299,37.999,139.853"/>
	<path style="fill:#54596E;" d="M37.999,139.853l-3.997,0.103l0.003,0.149c0.057,2.171,1.826,3.895,3.997,3.895h223.995   c2.171,0,3.94-1.724,3.997-3.895l0.004-0.149l0.003-0.103c0.004-23.346-6.942-44.588-18.848-62.104   c-0.746-1.094-1.986-1.748-3.311-1.748H56.158c-1.325,0-2.565,0.654-3.311,1.748c-11.909,17.516-18.851,38.758-18.848,62.104   l0.004,0.103L37.999,139.853h4c0.004-21.758,6.438-41.369,17.466-57.605l-3.308-2.245V84h187.685v-3.997l-3.308,2.245   c11.028,16.236,17.462,35.848,17.466,57.605h4l-4-0.106l-0.003,0.149l4,0.106v-4.001H38.003v4.001l4-0.106L42,139.747   L37.999,139.853h4H37.999"/>
	<path style="fill:#93E440;" d="M257.923,144h-4.666c-13.52,45.189-54.619,80.002-103.255,80.002   c-48.639,0-89.739-34.812-103.259-80.002h-4.666c1.061,28.283,12.944,54.731,31.624,74.363   c19.601,20.596,46.563,33.635,76.3,33.639l0,0l0,0c29.734-0.004,56.696-13.043,76.297-33.639   C244.979,198.731,256.862,172.283,257.923,144"/>
	<path style="fill:#54596E;" d="M42.077,144h-0.005c2.099,57.967,49.614,108.002,107.93,108.002   c-29.737-0.004-56.699-13.043-76.3-33.639C55.021,198.731,43.138,172.283,42.077,144 M257.928,144h-0.005   c-1.061,28.283-12.944,54.731-31.624,74.363c-19.601,20.596-46.563,33.635-76.297,33.639   C208.314,252.001,255.828,201.966,257.928,144"/>
	<path style="fill:#54596E;" d="M42.934,126.075c-0.426,3.258-0.721,6.564-0.855,9.927h2.585   C43.943,132.735,43.363,129.423,42.934,126.075 M257.066,126.075c-0.429,3.349-1.008,6.66-1.731,9.927h2.586   C257.787,132.639,257.492,129.333,257.066,126.075"/>
	<path style="fill:#54596E;" d="M44.665,136.001h-2.585c-0.052,1.325-0.08,2.658-0.08,4.001c0,1.336,0.024,2.669,0.073,3.997h0.005   h4.666C45.956,141.369,45.261,138.698,44.665,136.001 M257.921,136.001h-2.586c-0.596,2.696-1.291,5.367-2.078,7.998h4.666h0.005   c0.048-1.328,0.073-2.661,0.073-3.997C258,138.66,257.973,137.327,257.921,136.001"/>
	<path style="fill:#54596E;" d="M118,164c0,17.673,14.328,32,32,32s32-14.327,32-32H118z"/>
	<path style="fill:#54596E;" d="M118,164h-4c0.003,19.883,16.117,35.997,36,35.999c19.883-0.002,35.997-16.116,36-35.999   c0-1.054-0.427-2.084-1.171-2.829C184.084,160.427,183.053,160,182,160h-64c-1.053,0-2.084,0.426-2.829,1.171S114,162.947,114,164   H118v4h64v-4h-4c-0.002,7.744-3.128,14.719-8.202,19.799c-5.08,5.073-12.054,8.198-19.798,8.201   c-7.744-0.003-14.719-3.128-19.799-8.201c-5.073-5.08-8.199-12.055-8.202-19.799H118v4V164z"/>
	<path style="fill:#FFFFFF;" d="M126,176h48c2.209,0,4-1.791,4-4c0-2.21-1.791-4-4-4h-48c-2.209,0-4,1.79-4,4   C122,174.209,123.791,176,126,176"/>
	<circle style="fill:#9AF43B;" cx="102" cy="110" r="14"/>
	<path style="fill:#54596E;" d="M116,110h4c-0.003-9.944-8.059-17.998-18-18c-9.941,0.002-17.997,8.056-18,18   c0.003,9.943,8.059,17.997,18,17.999c9.941-0.002,17.997-8.056,18-17.999H116h-4c-0.01,5.521-4.48,9.989-10,10   c-5.52-0.011-9.99-4.479-10-10c0.01-5.521,4.48-9.99,10-10.001c5.52,0.011,9.99,4.479,10,10.001H116z"/>
	<circle style="fill:#9AF43B;" cx="196" cy="110" r="14"/>
	<path style="fill:#54596E;" d="M210,110h4c-0.003-9.944-8.059-17.998-18-18c-9.941,0.002-17.997,8.056-18,18   c0.003,9.943,8.059,17.997,18,17.999c9.941-0.002,17.997-8.056,18-17.999H210h-4c-0.01,5.521-4.48,9.989-10,10   c-5.52-0.011-9.99-4.479-10-10c0.01-5.521,4.48-9.99,10-10.001c5.52,0.011,9.99,4.479,10,10.001H210z"/>
</g>















</svg>
