<?xml version="1.0" encoding="iso-8859-1"?>
<!-- Generator: Adobe Illustrator 21.0.0, SVG Export Plug-In . SVG Version: 6.00 Build 0)  -->
<svg xmlns="http://www.w3.org/2000/svg" xmlns:xlink="http://www.w3.org/1999/xlink" version="1.1" id="pirate" x="0px" y="0px" viewBox="0 0 300 300" style="enable-background:new 0 0 300 300;" xml:space="preserve" width="512" height="512">
<g>
	<path style="fill:#EEEEF0;" d="M194.432,250.558c-13.675,6.051-28.684,9.443-44.432,9.443c-15.748,0-30.757-3.392-44.432-9.443   c-16.786,2.197-27.567,5.61-27.567,9.443c0,6.628,32.237,12,71.999,12c39.766,0,71.999-5.372,71.999-12   C221.999,256.168,211.218,252.754,194.432,250.558"/>
	<path style="fill:#FFF35F;" d="M262.001,139.853c0-61.856-50.144-107.854-112-107.854c-61.853,0-112.001,45.997-112.001,107.854   c0,61.857,50.147,116.148,112.001,116.148C211.857,256.001,262.001,201.71,262.001,139.853"/>
	<path style="fill:#54596E;" d="M262.001,139.853h4c0.011-32.023-13.02-60.087-34.051-80.025   C210.926,39.878,181.924,27.996,150,27.999c-31.92-0.003-60.926,11.879-81.95,31.828c-21.027,19.938-34.058,48.002-34.051,80.025   c0.007,32.016,12.965,62.008,33.907,84.025c20.935,22.018,49.974,36.123,82.093,36.123c32.119,0,61.158-14.105,82.093-36.123   c20.946-22.018,33.904-52.01,33.907-84.025H262.001h-4c0.004,29.838-12.111,57.92-31.703,78.513   C206.698,238.959,179.738,252,150,252c-29.734,0-56.698-13.041-76.297-33.635C54.11,197.772,41.996,169.69,42,139.853   c0.011-29.837,12.052-55.696,31.56-74.222C93.07,47.12,120.067,36.003,150,36c29.933,0.003,56.929,11.12,76.444,29.631   c19.504,18.525,31.545,44.385,31.556,74.222H262.001"/>
	<path style="fill:#EEE361;" d="M257.066,126.075c-6.867,53.565-52.168,97.924-107.066,97.924   c-54.898,0-100.195-44.358-107.066-97.924c-0.59,4.522-0.932,9.141-0.935,13.868c0.021,29.803,12.131,57.85,31.703,78.422   c19.37,20.352,45.931,33.328,75.252,33.63c0.051,0.001,0.099,0.001,0.15,0.001c0.065,0.001,0.132,0.002,0.197,0.002   c0.047,0,0.097,0.001,0.145,0.001C149.632,252,149.815,252,150,252l0,0l0,0c0.181,0,0.364,0,0.546-0.001   c0.051,0,0.101-0.001,0.152-0.001c0.054,0,0.109-0.001,0.163-0.001c0.062-0.001,0.123-0.001,0.185-0.002   c29.325-0.302,55.882-13.278,75.252-33.63c19.573-20.573,31.683-48.619,31.703-78.424   C257.997,135.215,257.659,130.597,257.066,126.075"/>
	<path style="fill:#54596E;" d="M150.546,251.999C150.364,252,150.181,252,150,252C150.182,252,150.364,252,150.546,251.999    M149.447,251.999C149.632,252,149.814,252,150,252C149.815,252,149.632,252,149.447,251.999 M150.861,251.997   c-0.054,0-0.109,0.001-0.163,0.001C150.752,251.998,150.806,251.997,150.861,251.997 M149.105,251.996   c0.065,0.001,0.132,0.002,0.197,0.002C149.237,251.998,149.171,251.997,149.105,251.996 M42,139.943c0,0.019,0,0.038,0,0.057   c0,59.296,47.792,111.387,106.956,111.995c-29.321-0.302-55.882-13.278-75.252-33.63C54.131,197.793,42.021,169.746,42,139.943    M258,139.941c-0.02,29.805-12.13,57.851-31.703,78.424c-19.37,20.352-45.927,33.328-75.252,33.63   C210.212,251.387,258,199.296,258,140C258,139.98,258,139.961,258,139.941"/>
	<path style="fill:#54596E;" d="M150.001,104c0-32-14.326-32-32-32s-40,14.327-40,32s22.326,32,40,32S150.001,121.673,150.001,104z"/>
	<circle style="fill:#54596E;" cx="186.001" cy="104" r="8"/>
	<polygon style="fill:#54596E;" points="118.001,148 150.001,156 182.001,148 186.001,156 149.727,168 114.001,156  "/>
	<path style="fill:#FF7D7D;" d="M126.001,180h48c2.209,0,4-1.791,4-4c0-2.21-1.791-4-4-4h-48c-2.209,0-4,1.79-4,4   C122.001,178.209,123.792,180,126.001,180"/>
	<path style="fill:#54596E;" d="M146.032,35.503l-0.025,0.185c-0.29,2.176-3.535,22.909-16.092,42.682   c-6.273,9.896-14.825,19.542-26.451,26.716c-11.635,7.169-26.366,11.941-45.379,11.952c-4.906-0.001-10.097-0.322-15.589-1.007   c-2.193-0.273-4.191,1.282-4.465,3.475c-0.273,2.192,1.282,4.191,3.475,4.465c5.801,0.723,11.323,1.066,16.579,1.066   c21.017,0.012,37.765-5.535,50.814-13.92c19.598-12.587,30.801-31.279,37.151-46.688c6.349-15.432,7.887-27.699,7.92-27.933   c0.274-2.192-1.281-4.191-3.473-4.466C148.305,31.757,146.306,33.312,146.032,35.503L146.032,35.503z"/>
	<line style="fill:#FFF35F;" x1="170.001" y1="104" x2="194.001" y2="88"/>
	<path style="fill:#54596E;" d="M172.22,107.328l24-16c1.838-1.226,2.335-3.709,1.109-5.548c-1.225-1.838-3.709-2.334-5.547-1.109   l-24,16c-1.838,1.226-2.335,3.709-1.109,5.548C167.898,108.057,170.381,108.553,172.22,107.328"/>
	<path style="fill:#54596E;" d="M148.401,152.8c-0.122-0.089-3.214-2.408-7.818-4.77c-4.617-2.341-10.719-4.817-17.252-4.848   c-2.174-0.001-4.408,0.29-6.6,1.024c-3.578,1.194-6.205,3.61-8.19,6.158c-2.974,3.845-4.862,8.223-6.67,11.324   c-0.88,1.547-1.735,2.74-2.371,3.328l-0.704,0.518l-0.362,0.084c-0.232,0.005-0.937-0.099-2.217-0.95   c-3.598-2.448-4.313-4.648-4.335-6.119c0.001-1.021,0.383-1.871,0.938-2.462c0.566-0.59,1.228-0.882,1.952-0.886   c0.41,0.003,0.864,0.088,1.433,0.371c1.973,0.992,4.378,0.196,5.37-1.777c0.992-1.973,0.197-4.377-1.776-5.369   c-1.619-0.817-3.351-1.227-5.026-1.224c-3.057-0.004-5.84,1.335-7.774,3.397c-1.945,2.062-3.117,4.885-3.116,7.949   c-0.022,4.585,2.681,9.348,7.901,12.778c2.111,1.404,4.317,2.285,6.652,2.29c1.761,0.011,3.452-0.554,4.778-1.395   c2.337-1.496,3.761-3.547,5.056-5.635c1.901-3.151,3.47-6.649,5.278-9.449c0.894-1.396,1.827-2.601,2.78-3.498   c0.958-0.902,1.899-1.498,2.941-1.848c1.242-0.416,2.6-0.611,4.065-0.612c4.382-0.03,9.616,1.901,13.605,3.97   c1.999,1.023,3.698,2.058,4.88,2.825c0.591,0.384,1.052,0.7,1.358,0.916l0.34,0.242l0.077,0.057l0.011,0.008   c1.767,1.325,4.274,0.968,5.599-0.8C150.526,156.633,150.168,154.126,148.401,152.8L148.401,152.8z"/>
	<path style="fill:#54596E;" d="M154.282,159.199l0.011-0.008c0.226-0.17,3.085-2.253,7.032-4.232   c3.936-1.997,8.982-3.805,13.227-3.777c1.465,0.001,2.822,0.196,4.059,0.61c1.574,0.522,2.994,1.668,4.424,3.495   c2.149,2.72,3.963,6.737,6.041,10.391c1.062,1.831,2.196,3.605,3.795,5.14c0.802,0.762,1.741,1.463,2.857,1.979   c1.111,0.519,2.403,0.826,3.719,0.821c2.335-0.005,4.541-0.886,6.648-2.288c5.224-3.433,7.926-8.196,7.904-12.78   c0.001-3.064-1.172-5.889-3.116-7.949c-1.934-2.062-4.716-3.401-7.774-3.397c-1.675-0.003-3.408,0.406-5.026,1.223   c-1.974,0.992-2.77,3.397-1.777,5.371c0.993,1.974,3.398,2.77,5.372,1.777c0.567-0.284,1.022-0.369,1.431-0.372   c0.724,0.004,1.386,0.296,1.952,0.886c0.555,0.591,0.937,1.44,0.938,2.462c-0.022,1.472-0.737,3.671-4.338,6.121   c-1.278,0.85-1.983,0.953-2.214,0.948l-0.541-0.182c-0.488-0.268-1.462-1.327-2.458-3.006c-1.535-2.5-3.16-6.129-5.378-9.609   c-1.119-1.742-2.406-3.466-4.017-4.992c-1.605-1.522-3.569-2.848-5.909-3.625c-2.186-0.732-4.421-1.023-6.594-1.022   c-6.533,0.03-12.635,2.507-17.252,4.848c-4.605,2.361-7.697,4.681-7.818,4.77c-1.767,1.325-2.126,3.833-0.8,5.6   C150.007,160.167,152.514,160.525,154.282,159.199L154.282,159.199z"/>
	<polygon style="fill:#54596E;" points="150.001,215.856 170.001,188 130.001,188  "/>
</g>















</svg>
