<?xml version="1.0" encoding="iso-8859-1"?>
<!-- Generator: Adobe Illustrator 21.0.0, SVG Export Plug-In . SVG Version: 6.00 Build 0)  -->
<svg xmlns="http://www.w3.org/2000/svg" xmlns:xlink="http://www.w3.org/1999/xlink" version="1.1" id="rainbow" x="0px" y="0px" viewBox="0 0 300 300" style="enable-background:new 0 0 300 300;" xml:space="preserve" width="512" height="512">
<g>
	<path style="fill:#FFF35F;" d="M261.991,138.109c-0.678-61.852-51.328-107.296-113.18-106.613   C86.96,32.178,37.323,78.723,38.009,140.575c0.679,61.853,51.417,115.589,113.269,114.907   C213.129,254.803,262.677,199.961,261.991,138.109"/>
	<path style="fill:#54596E;" d="M261.991,138.109l4.001-0.046c-0.341-31.782-13.484-59.528-34.461-79.205   c-20.967-19.691-49.747-31.374-81.348-31.374c-0.462,0-0.945,0-1.45,0.011h0.036c-31.704,0.349-60.399,12.383-81.17,32.319   C46.824,79.732,33.99,107.613,34.001,139.31c0,0.43,0,0.871,0.007,1.314c0.355,31.808,13.477,61.479,34.429,83.231   c20.945,21.744,49.832,35.63,81.675,35.63c0.408,0,0.803-0.004,1.187-0.004h0.021c31.899-0.352,60.605-14.581,81.27-36.567   c20.668-21.99,33.403-51.797,33.41-83.544c0-0.438-0.004-0.87-0.007-1.304L261.991,138.109l-4.001,0.039   c0.007,0.409,0.007,0.817,0.007,1.223c0.007,29.587-11.903,57.499-31.239,78.062c-19.343,20.564-45.995,33.726-75.528,34.049h0.025   c-0.394,0.004-0.775,0.007-1.144,0.007c-29.48-0.003-56.306-12.841-75.915-33.186c-19.599-20.342-31.868-48.126-32.191-77.773   c-0.004-0.412-0.007-0.813-0.007-1.219c0.01-29.526,11.867-55.215,31.139-73.727c19.279-18.497,45.991-29.76,75.719-30.087h0.032   c0.412-0.011,0.842-0.011,1.293-0.011c29.625,0,56.412,10.933,75.872,29.202c19.457,18.284,31.601,43.849,31.935,73.464   L261.991,138.109"/>
	<path style="fill:#EEE361;" d="M256.91,124.387c-6.282,53.638-51.09,98.491-105.985,99.096c-0.372,0.004-0.75,0.006-1.121,0.006   c-54.399,0-99.61-43.62-107.017-96.746c-0.517,4.293-0.799,8.676-0.787,13.149c0.001,0.211,0.003,0.422,0.005,0.637   c0.323,29.647,12.592,57.432,32.191,77.773c19.609,20.345,46.435,33.183,75.915,33.186c0.369,0,0.75-0.003,1.144-0.007h-0.025   c29.533-0.323,56.185-13.484,75.528-34.049c19.336-20.562,31.246-48.475,31.239-78.062c0-0.404,0-0.812-0.007-1.219l0,0   c-0.003-0.298-0.008-0.597-0.014-0.895C257.882,132.874,257.503,128.584,256.91,124.387"/>
	<path style="fill:#54596E;" d="M257.977,137.257c0.006,0.298,0.01,0.597,0.014,0.895l0,0c0.007,0.407,0.007,0.814,0.007,1.219   c0.007,29.587-11.903,57.499-31.239,78.062c-19.343,20.564-45.995,33.726-75.528,34.049h0.025   c-0.394,0.004-0.775,0.007-1.144,0.007c-29.48-0.003-56.306-12.841-75.915-33.186c-19.599-20.342-31.868-48.126-32.191-77.773   c-0.002-0.215-0.004-0.426-0.005-0.637c0.001,0.262,0.002,0.523,0.005,0.786c0.653,59.267,48.977,110.812,108.112,110.812   c0.374,0,0.741-0.002,1.116-0.006c59.646-0.658,107.417-53.542,106.759-113.184C257.99,137.953,257.984,137.605,257.977,137.257"/>
	<path style="fill:#54596E;" d="M134.191,76.628c-3.469-8.215-11.607-13.973-21.086-13.977c-9.048,0.003-16.88,5.256-20.588,12.879   c-0.968,1.985-0.142,4.38,1.844,5.348c1.986,0.968,4.38,0.142,5.348-1.844c2.425-4.966,7.506-8.387,13.396-8.384   c6.169-0.004,11.453,3.752,13.718,9.094c0.86,2.034,3.207,2.986,5.242,2.126C134.099,81.01,135.052,78.664,134.191,76.628   L134.191,76.628z"/>
	<path style="fill:#54596E;" d="M206.191,76.628c-3.469-8.215-11.607-13.973-21.086-13.977c-9.048,0.003-16.88,5.256-20.588,12.879   c-0.968,1.985-0.142,4.38,1.844,5.348c1.986,0.968,4.38,0.142,5.348-1.844c2.425-4.966,7.506-8.387,13.396-8.384   c6.169-0.004,11.453,3.752,13.718,9.094c0.86,2.034,3.207,2.986,5.242,2.126C206.099,81.01,207.052,78.664,206.191,76.628   L206.191,76.628z"/>
	<path style="fill:#54596E;" d="M225.707,96.124c7.551-0.02,12.258,9.108,8.727,16.681c-16.254,34.84-48.531,58.578-85.699,58.578   c-37.012,0-69.18-23.543-85.496-58.147c-3.559-7.551,1.113-16.699,8.664-16.719L225.707,96.124z"/>
	<path style="fill:#54596E;" d="M225.707,96.124l0.481,3.971l-0.458-3.775v3.802l0.458-0.026l-0.458-3.775v3.802   c1.621,0.015,2.923,0.688,4.056,2.001c1.109,1.306,1.848,3.258,1.841,5.293c-0.001,1.232-0.256,2.487-0.821,3.701   c-7.844,16.814-19.539,30.904-33.669,40.762c-14.137,9.858-30.677,15.501-48.403,15.505c-17.651-0.004-34.128-5.601-48.228-15.383   c-14.092-9.782-25.776-23.768-33.65-40.471c-0.572-1.216-0.832-2.479-0.833-3.721c-0.007-2.03,0.729-3.981,1.835-5.287   c1.131-1.312,2.43-1.987,4.052-2.006l153.806-0.393l0.471-0.028L225.707,96.124l-0.01-4L71.892,92.516   c-4.161-0.006-7.801,2.012-10.163,4.865c-2.387,2.86-3.698,6.549-3.705,10.427c-0.001,2.367,0.503,4.812,1.596,7.131   c8.442,17.902,21.001,32.991,36.325,43.632c15.317,10.64,33.429,16.814,52.79,16.811c19.442,0.004,37.624-6.223,52.981-16.943   c15.364-10.722,27.934-25.921,36.343-43.943c1.074-2.307,1.57-4.731,1.569-7.08c-0.007-3.885-1.323-7.579-3.716-10.44   c-2.368-2.854-6.015-4.867-10.18-4.853l-0.505,0.03L225.707,96.124l-0.01-4L225.707,96.124z"/>
	<rect x="90.023" y="100.516" style="fill:#FF9999;" width="24" height="172"/>
	<rect x="114.023" y="100.516" style="fill:#FFF35F;" width="25.038" height="172"/>
	<rect x="138.061" y="100.516" style="fill:#84FF61;" width="23.962" height="172"/>
	<rect x="162.023" y="100.516" style="fill:#55A6FF;" width="24" height="172"/>
	<rect x="186.023" y="100.516" style="fill:#FFB8F2;" width="24" height="172"/>
</g>















</svg>
