<?xml version="1.0" encoding="iso-8859-1"?>
<!-- Generator: Adobe Illustrator 21.0.0, SVG Export Plug-In . SVG Version: 6.00 Build 0)  -->
<svg xmlns="http://www.w3.org/2000/svg" xmlns:xlink="http://www.w3.org/1999/xlink" version="1.1" id="reaction" x="0px" y="0px" viewBox="0 0 300 300" style="enable-background:new 0 0 300 300;" xml:space="preserve" width="512" height="512">
<g>
	<path style="fill:#EEEEF0;" d="M194.434,250.556C180.758,256.609,165.75,260,150,260s-30.758-3.391-44.434-9.443   c-16.783,2.197-27.565,5.61-27.565,9.443c0,6.628,32.236,12.002,71.999,12.002s71.999-5.374,71.999-12.002   C221.999,256.167,211.217,252.753,194.434,250.556"/>
	<path style="fill:#ADF2A2;" d="M261.999,139.852c0-61.854-50.145-107.851-111.999-107.851S38.001,77.998,38.001,139.852   S88.145,256,150,256S261.999,201.707,261.999,139.852"/>
	<path style="fill:#54596E;" d="M261.999,139.852h3.999c0.011-32.023-13.021-60.09-34.048-80.026   C210.924,39.875,181.924,27.999,150,27.999c-31.92,0-60.924,11.877-81.948,31.827c-21.03,19.937-34.062,48.003-34.051,80.026   c0.004,32.017,12.961,62.008,33.906,84.025C88.841,245.895,117.881,260,150,260s61.159-14.104,82.093-36.122   c20.945-22.018,33.902-52.009,33.906-84.025H261.999H258c0.007,29.835-12.108,57.92-31.704,78.513   C206.698,238.958,179.736,251.998,150,252c-29.736-0.003-56.698-13.042-76.297-33.636C54.112,197.772,41.996,169.687,42,139.852   c0.011-29.835,12.051-55.696,31.558-74.223C93.071,47.122,120.065,36,150,35.997c29.935,0.004,56.932,11.125,76.442,29.633   c19.507,18.526,31.547,44.388,31.558,74.223H261.999"/>
	<path style="fill:#A4E29D;" d="M257.066,126.075C250.197,179.639,204.9,223.999,150,223.999   c-54.897,0-100.197-44.359-107.066-97.924c-0.591,4.52-0.931,9.139-0.934,13.866c0.02,29.803,12.131,57.851,31.703,78.424   C93.302,238.958,120.264,251.998,150,252l0,0l0,0c29.736-0.003,56.698-13.042,76.297-33.636   c19.575-20.572,31.685-48.618,31.703-78.419C257.997,135.216,257.657,130.596,257.066,126.075"/>
	<path style="fill:#54596E;" d="M258,139.946c-0.018,29.801-12.128,57.847-31.703,78.419C206.698,238.958,179.736,251.998,150,252   c59.646,0,108-52.354,108-111.999C258,139.983,258,139.964,258,139.946 M42,139.941c0,0.021,0,0.04,0,0.061   C42,199.647,90.354,252,150,252c-29.736-0.003-56.698-13.042-76.297-33.636C54.131,197.792,42.02,169.744,42,139.941"/>
	<circle style="fill:#54596E;" cx="188" cy="122" r="18"/>
	<circle style="fill:#54596E;" cx="112" cy="122" r="18"/>
	<path style="fill:#54596E;" d="M198,180h-16c-1.053,0-2.084,0.426-2.828,1.171C178.427,181.916,178,182.946,178,184   c-0.012,6.626-5.375,11.987-12,12c-6.625-0.013-11.988-5.374-12-12c-0.003-11.048-8.953-19.998-20-20   c-11.047,0.002-19.997,8.952-20,20h4v-4h-16c-2.209,0-4,1.79-4,4c0,2.209,1.791,4,4,4h16c1.053,0,2.084-0.427,2.828-1.172   c0.745-0.745,1.172-1.775,1.172-2.828c0.012-6.627,5.375-11.988,12-12.001c6.625,0.013,11.988,5.374,12,12.001   c0.003,11.047,8.953,19.997,20,19.999c11.047-0.002,19.997-8.952,20-19.999h-4v4h16c2.209,0,4-1.791,4-4   C202,181.79,200.21,180,198,180z"/>
</g>















</svg>
