<?xml version="1.0" encoding="iso-8859-1"?>
<!-- Generator: Adobe Illustrator 21.0.0, SVG Export Plug-In . SVG Version: 6.00 Build 0)  -->
<svg xmlns="http://www.w3.org/2000/svg" xmlns:xlink="http://www.w3.org/1999/xlink" version="1.1" id="robot" x="0px" y="0px" viewBox="0 0 300 300" style="enable-background:new 0 0 300 300;" xml:space="preserve" width="512" height="512">
<g>
	<path style="fill:#EEEEF0;" d="M150.001,252.001c-39.764,0-72,5.373-72,11.997c0,6.628,32.237,12.002,72,12.002s72-5.374,72-12.002   C222.001,257.374,189.765,252.001,150.001,252.001"/>
	<path style="fill:#54596E;" d="M108.828,85.171l-40-40c-1.562-1.562-4.095-1.562-5.657,0c-1.562,1.562-1.562,4.095,0,5.657l40,40   c1.562,1.562,4.095,1.562,5.657,0C110.391,89.266,110.391,86.733,108.828,85.171"/>
	<circle style="fill:#ADF2A2;" cx="58" cy="40" r="12"/>
	<path style="fill:#54596E;" d="M70,40h4c-0.003-8.839-7.162-15.998-16-16c-8.838,0.002-15.997,7.161-16,16   c0.003,8.838,7.162,15.997,16,15.999C66.838,55.997,73.997,48.838,74,40H70h-4c-0.008,4.415-3.584,7.991-8,8   c-4.416-0.009-7.992-3.585-8-8c0.008-4.416,3.584-7.992,8-8.001c4.416,0.009,7.992,3.585,8,8.001H70z"/>
	<path style="fill:#54596E;" d="M196.828,90.828l40-40c1.562-1.562,1.562-4.095,0-5.657c-1.562-1.562-4.095-1.562-5.657,0l-40,40   c-1.562,1.562-1.562,4.095,0,5.657C192.734,92.39,195.266,92.39,196.828,90.828"/>
	<circle style="fill:#ADF2A2;" cx="242" cy="40" r="12"/>
	<path style="fill:#54596E;" d="M230,40h4c0.008-4.416,3.584-7.992,8-8.001c4.416,0.009,7.992,3.585,8,8.001   c-0.008,4.415-3.584,7.991-8,8c-4.416-0.009-7.992-3.585-8-8H230h-4c0.003,8.838,7.162,15.997,16,15.999   c8.838-0.002,15.997-7.161,16-15.999c-0.003-8.839-7.162-15.998-16-16c-8.838,0.002-15.997,7.161-16,16H230z"/>
	<path style="fill:#FFF35F;" d="M261.902,140C259.863,80.102,210.563,36,150,36S40.137,80.102,38.098,140H38v68l24.988,8   c20.533,26.471,51.875,44,87.012,44s66.479-17.529,87.012-44L262,208v-68H261.902z"/>
	<path style="fill:#54596E;" d="M261.902,140l3.998-0.137c-1.047-31.022-14.391-58.08-35.296-77.271   C209.703,43.388,181.255,31.997,150,32c-31.255-0.003-59.703,11.388-80.604,30.592C48.491,81.783,35.147,108.841,34.1,139.863   L38.098,140v-4H38c-1.053,0-2.084,0.426-2.828,1.171C34.427,137.916,34,138.946,34,140v68c0,1.739,1.124,3.277,2.78,3.809l24.988,8   l1.22-3.809l-3.161,2.451c21.198,27.339,53.674,45.545,90.172,45.548c36.499-0.003,68.975-18.209,90.172-45.548L237.012,216   l1.22,3.809l24.988-8c1.656-0.531,2.78-2.069,2.78-3.809v-68c0-1.054-0.427-2.084-1.172-2.829C264.084,136.427,263.053,136,262,136   h-0.098V140l3.998-0.137L261.902,140v3.999H262V140h-4v65.081l-22.208,7.109c-0.761,0.243-1.451,0.726-1.941,1.357   C213.982,239.15,183.775,256.003,150,256c-33.775,0.003-63.982-16.85-83.851-42.452c-0.49-0.632-1.18-1.114-1.941-1.357L42,205.08   L42,140h-4v3.999h0.098c2.16,0,3.924-1.704,3.998-3.863c0.992-28.876,13.318-53.818,32.713-71.652   C94.209,50.662,120.692,40.002,150,39.999c29.308,0.003,55.791,10.663,75.191,28.484c19.396,17.834,31.721,42.776,32.713,71.652   c0.073,2.159,1.838,3.863,3.998,3.863V140z"/>
	<circle style="fill:#54596E;" cx="184" cy="126" r="10"/>
	<circle style="fill:#54596E;" cx="116" cy="126" r="10"/>
	<path style="fill:#54596E;" d="M200.27,212H99.73c-5.375,0-9.73-4.356-9.73-9.729v-24.541c0-5.373,4.355-9.729,9.73-9.729H200.27   c5.375,0,9.73,4.356,9.73,9.729v24.541C210,207.644,205.645,212,200.27,212z"/>
	<path style="fill:#54596E;" d="M200.27,212v-4H99.73c-3.165-0.006-5.725-2.567-5.73-5.729v-24.541   c0.006-3.163,2.566-5.725,5.73-5.73H200.27c3.165,0.006,5.725,2.567,5.73,5.73v24.541c-0.006,3.162-2.566,5.724-5.73,5.729V212   v3.999c7.585-0.002,13.728-6.146,13.73-13.729v-24.541c-0.002-7.584-6.145-13.728-13.73-13.729H99.73   c-7.585,0.002-13.728,6.146-13.73,13.729v24.541c0.002,7.583,6.145,13.727,13.73,13.729H200.27V212z"/>
	<path style="fill:#FFFFFF;" d="M198.949,172h-97.898c-3.895,0-7.051,3.156-7.051,7.05V188h112v-8.95   C206,175.156,202.844,172,198.949,172z"/>
	<path style="fill:#FFFFFF;" d="M202,200H98v3.897c0,2.266,1.836,4.103,4.102,4.103h95.797c2.266,0,4.102-1.837,4.102-4.103V200z"/>
	<circle style="fill:#55A6FF;" cx="150" cy="56" r="8"/>
	<circle style="fill:#FF9999;" cx="150" cy="84" r="8"/>
</g>















</svg>
