<?xml version="1.0" encoding="iso-8859-1"?>
<!-- Generator: Adobe Illustrator 21.0.0, SVG Export Plug-In . SVG Version: 6.00 Build 0)  -->
<svg xmlns="http://www.w3.org/2000/svg" xmlns:xlink="http://www.w3.org/1999/xlink" version="1.1" id="sad-happy" x="0px" y="0px" viewBox="0 0 300 300" style="enable-background:new 0 0 300 300;" xml:space="preserve" width="512" height="512">
<g>
	<circle style="fill:#FFF35F;" cx="110" cy="110" r="84"/>
	<path style="fill:#54596E;" d="M194,110h4c-0.002-48.603-39.398-87.998-88-88c-48.602,0.002-87.998,39.397-88,88   c0.002,48.602,39.398,87.997,88,87.999c48.601-0.002,87.997-39.397,88-87.999H194h-4c-0.002,22.104-8.948,42.078-23.432,56.568   C152.078,181.052,132.103,189.998,110,190c-22.104-0.003-42.078-8.948-56.568-23.432C38.948,152.079,30.002,132.104,30,110   c0.002-22.104,8.948-42.079,23.432-56.569C67.922,38.948,87.897,30.002,110,30c22.103,0.003,42.078,8.948,56.568,23.432   C181.052,67.921,189.998,87.896,190,110H194z"/>
	<path style="fill:#54596E;" d="M86.495,116.965c5.26,5.717,13.856,9,23.505,9.034c9.553-0.032,18.072-3.255,23.348-8.861   c1.504-1.619,1.411-4.149-0.208-5.653c-1.618-1.504-4.149-1.411-5.653,0.208c-3.185,3.498-9.792,6.34-17.488,6.308   c-7.774,0.034-14.435-2.87-17.582-6.413c-1.485-1.636-4.015-1.758-5.651-0.272C85.132,112.8,85.01,115.331,86.495,116.965   L86.495,116.965z"/>
	<circle style="fill:#54596E;" cx="74" cy="74" r="8"/>
	<circle style="fill:#54596E;" cx="146" cy="74" r="8"/>
	<circle style="fill:#FF927D;" cx="146" cy="98" r="8"/>
	<circle style="fill:#FF927D;" cx="74" cy="98" r="8"/>
	<circle style="fill:#D8D8D8;" cx="190" cy="190" r="84"/>
	<path style="fill:#54596E;" d="M274,190h4c-0.002-48.603-39.398-87.998-88-88c-48.602,0.002-87.998,39.397-88,88   c0.002,48.602,39.398,87.997,88,87.999c48.601-0.002,87.997-39.397,88-87.999H274h-4c-0.002,22.104-8.948,42.078-23.432,56.568   C232.078,261.052,212.103,269.998,190,270c-22.104-0.003-42.078-8.948-56.568-23.432C118.948,232.079,110.002,212.104,110,190   c0.002-22.104,8.948-42.079,23.432-56.569C147.922,118.948,167.897,110.002,190,110c22.103,0.003,42.078,8.948,56.568,23.432   c14.484,14.49,23.43,34.465,23.432,56.569H274z"/>
	<path style="fill:#54596E;" d="M213.378,235.31c-5.262-5.715-13.859-8.999-23.507-9.033c-9.55,0.032-18.068,3.255-23.344,8.861   c-1.504,1.618-1.412,4.149,0.207,5.653c1.618,1.505,4.15,1.412,5.654-0.206c3.184-3.5,9.792-6.342,17.484-6.31   c7.773-0.034,14.435,2.869,17.586,6.414c1.485,1.635,4.015,1.756,5.65,0.271C214.743,239.475,214.864,236.946,213.378,235.31   L213.378,235.31z"/>
	<circle style="fill:#54596E;" cx="154" cy="190" r="8"/>
	<circle style="fill:#54596E;" cx="226" cy="190" r="8"/>
	<circle style="fill:#ADADAD;" cx="226" cy="214" r="8"/>
	<circle style="fill:#ADADAD;" cx="154" cy="214" r="8"/>
</g>















</svg>
