<?xml version="1.0" encoding="iso-8859-1"?>
<!-- Generator: Adobe Illustrator 21.0.0, SVG Export Plug-In . SVG Version: 6.00 Build 0)  -->
<svg xmlns="http://www.w3.org/2000/svg" xmlns:xlink="http://www.w3.org/1999/xlink" version="1.1" id="sad" x="0px" y="0px" viewBox="0 0 300 300" style="enable-background:new 0 0 300 300;" xml:space="preserve" width="512" height="512">
<g>
	<path style="fill:#EEEEF0;" d="M194.436,250.557c-13.677,6.053-28.687,9.445-44.436,9.445s-30.76-3.393-44.436-9.445   c-16.783,2.197-27.563,5.611-27.563,9.445C78.001,266.627,110.237,272,150,272s71.999-5.373,71.999-11.998   C221.999,256.168,211.219,252.754,194.436,250.557"/>
	<path style="fill:#FFF35F;" d="M261.998,139.855c0-61.857-50.144-107.852-111.998-107.852S37.998,77.998,37.998,139.855   c0,61.854,50.148,116.147,112.002,116.147S261.998,201.708,261.998,139.855"/>
	<path style="fill:#54596E;" d="M261.998,139.855h4.004c0.008-32.024-13.023-60.09-34.052-80.026C210.923,39.88,181.923,28,150,28   S89.073,39.88,68.051,59.829c-21.03,19.937-34.061,48.002-34.052,80.026c0.008,32.017,12.962,62.004,33.906,84.025   c20.936,22.018,49.977,36.122,82.095,36.122s61.159-14.104,82.095-36.122c20.944-22.021,33.898-52.009,33.906-84.025H261.998   h-3.999c0.008,29.834-12.108,57.919-31.699,78.51c-19.603,20.596-46.563,33.634-76.299,33.639   c-29.736-0.005-56.7-13.043-76.299-33.639c-19.591-20.591-31.707-48.676-31.703-78.51c0.012-29.838,12.051-55.696,31.561-74.222   c19.51-18.51,46.506-29.631,76.441-29.635c29.935,0.004,56.932,11.125,76.441,29.635c19.506,18.525,31.549,44.384,31.557,74.222   H261.998"/>
	<path style="fill:#EEE361;" d="M257.067,126.077c-6.869,53.565-52.168,97.926-107.067,97.926s-100.198-44.36-107.067-97.926   c-0.591,4.521-0.932,9.139-0.935,13.866c0.02,29.801,12.131,57.852,31.703,78.422C93.3,238.96,120.264,251.999,150,252.003l0,0l0,0   c29.736-0.005,56.696-13.043,76.299-33.639c19.571-20.569,31.682-48.618,31.699-78.417   C257.996,135.219,257.659,130.599,257.067,126.077"/>
	<path style="fill:#54596E;" d="M257.998,139.948c-0.017,29.799-12.128,57.848-31.699,78.417   c-19.603,20.596-46.563,33.634-76.299,33.639c59.647,0,107.998-52.355,107.998-112.002   C257.998,139.983,257.998,139.965,257.998,139.948 M41.998,139.943c0,0.02,0,0.039,0,0.059   c0,59.646,48.356,112.002,108.002,112.002c-29.736-0.005-56.7-13.043-76.299-33.639C54.129,197.794,42.017,169.744,41.998,139.943"/>
	<path style="fill:#54596E;" d="M198,96.001c-0.008,4.415-3.584,7.991-8,8c-4.416-0.009-7.992-3.585-8-8c0-2.21-1.791-4-4-4   c-2.209,0-4,1.79-4,4c0.003,8.838,7.162,15.997,16,15.999c8.838-0.002,15.997-7.161,16-15.999c0-2.21-1.791-4-4-4   C199.791,92.001,198,93.792,198,96.001L198,96.001z"/>
	<path style="fill:#54596E;" d="M118,96.001c-0.008,4.415-3.584,7.991-8,8c-4.416-0.009-7.992-3.585-8-8c0-2.21-1.791-4-4-4   c-2.209,0-4,1.79-4,4c0.003,8.838,7.162,15.997,16,15.999c8.838-0.002,15.997-7.161,16-15.999c0-2.21-1.791-4-4-4   C119.791,92.001,118,93.792,118,96.001L118,96.001z"/>
	<path style="fill:#54596E;" d="M220.588,148.528c-14.908-12.563-40.672-20.365-70.067-20.415c-14.872,0.001-28.822,2.044-40.9,5.65   c-12.076,3.617-22.294,8.771-29.702,15.225c-1.664,1.452-1.836,3.979-0.383,5.644c1.453,1.665,3.98,1.836,5.644,0.384   c6.215-5.441,15.479-10.232,26.73-13.586c11.25-3.364,24.474-5.318,38.609-5.317c27.929-0.05,52.325,7.758,64.89,18.515   c1.684,1.429,4.208,1.223,5.637-0.461C222.478,152.482,222.272,149.958,220.588,148.528L220.588,148.528z"/>
</g>















</svg>
