<?xml version="1.0" encoding="iso-8859-1"?>
<!-- Generator: Adobe Illustrator 21.0.0, SVG Export Plug-In . SVG Version: 6.00 Build 0)  -->
<svg xmlns="http://www.w3.org/2000/svg" xmlns:xlink="http://www.w3.org/1999/xlink" version="1.1" id="samurai" x="0px" y="0px" viewBox="0 0 300 300" style="enable-background:new 0 0 300 300;" xml:space="preserve" width="512" height="512">
<g>
	<path style="fill:#EEEEF0;" d="M194.433,250.557c-13.676,6.053-28.684,9.443-44.433,9.441c-0.004,0-0.008,0-0.012,0   c-15.746,0-30.75-3.39-44.423-9.441c-16.783,2.198-27.565,5.612-27.565,9.445c0,6.624,32.237,12,71.999,12s71.999-5.376,71.999-12   C221.999,256.169,211.217,252.754,194.433,250.557"/>
	<path style="fill:#FFFFFF;" d="M262.001,139.853c0-61.855-50.146-107.852-112.001-107.852S37.999,77.997,37.999,139.853   c0,61.854,50.146,116.146,112.001,116.146S262.001,201.707,262.001,139.853"/>
	<path style="fill:#54596E;" d="M262.001,139.853H266c0.01-32.021-13.02-60.089-34.052-80.024   c-21.025-19.949-50.026-31.83-81.948-31.83s-60.924,11.881-81.948,31.83C47.02,79.764,33.99,107.831,34,139.853   c0.003,32.018,12.962,62.006,33.904,84.026c20.939,22.018,49.975,36.123,82.096,36.119c32.117,0.004,61.157-14.102,82.092-36.119   c20.946-22.021,33.901-52.009,33.908-84.026H262.001h-4.002c0.007,29.837-12.109,57.921-31.703,78.511   c-19.597,20.594-46.558,33.638-76.296,33.638s-56.699-13.044-76.299-33.638c-19.59-20.59-31.706-48.674-31.7-78.511   c0.01-29.837,12.051-55.696,31.556-74.222C93.068,47.119,120.067,36.003,150,35.999c29.933,0.004,56.932,11.12,76.443,29.632   c19.505,18.525,31.545,44.385,31.556,74.222H262.001"/>
	<path style="fill:#EEEEF0;" d="M257.068,126.075c-6.871,53.566-52.169,97.924-107.068,97.924S49.804,179.642,42.932,126.075   c-0.59,4.522-0.928,9.14-0.931,13.868c0.018,29.803,12.13,57.852,31.699,78.42c19.6,20.594,46.562,33.638,76.299,33.638l0,0l0,0   c29.738,0,56.699-13.044,76.296-33.638c19.573-20.568,31.685-48.616,31.703-78.419   C257.996,135.215,257.658,130.598,257.068,126.075"/>
	<path style="fill:#54596E;" d="M257.999,139.944c-0.018,29.803-12.13,57.851-31.703,78.419   c-19.597,20.594-46.558,33.638-76.296,33.638c59.647,0,107.999-52.354,107.999-112.001   C257.999,139.981,257.999,139.963,257.999,139.944 M42.001,139.943c0,0.019,0,0.038,0,0.057   c0,59.646,48.352,112.001,107.999,112.001c-29.738,0-56.699-13.044-76.299-33.638C54.131,197.795,42.02,169.746,42.001,139.943"/>
	<circle style="fill:#54596E;" cx="114" cy="108" r="12"/>
	<circle style="fill:#FF927D;" cx="130" cy="152" r="8"/>
	<circle style="fill:#ACA3D3;" cx="82" cy="128" r="8"/>
	<circle style="fill:#ACA3D3;" cx="214" cy="128" r="8"/>
	<circle style="fill:#FF927D;" cx="130" cy="176" r="8"/>
	<circle style="fill:#FF927D;" cx="130" cy="200" r="8"/>
	<circle style="fill:#FF927D;" cx="166" cy="152" r="8"/>
	<circle style="fill:#FF927D;" cx="166" cy="176" r="8"/>
	<circle style="fill:#FF927D;" cx="166" cy="200" r="8"/>
	<circle style="fill:#54596E;" cx="182" cy="108" r="12"/>
	<polygon style="fill:#FF927D;" points="146,88 106,72 186,72  "/>
	<polygon style="fill:#FF927D;" points="112.221,134.474 88.773,163.052 103.828,170.474  "/>
	<polygon style="fill:#FF927D;" points="184.773,134.474 208.221,163.052 193.166,170.474  "/>
</g>















</svg>
