<?xml version="1.0" encoding="iso-8859-1"?>
<!-- Generator: Adobe Illustrator 21.0.0, SVG Export Plug-In . SVG Version: 6.00 Build 0)  -->
<svg xmlns="http://www.w3.org/2000/svg" xmlns:xlink="http://www.w3.org/1999/xlink" version="1.1" id="scream" x="0px" y="0px" viewBox="0 0 300 300" style="enable-background:new 0 0 300 300;" xml:space="preserve" width="512" height="512">
<g>
	<path style="fill:#EEEEF0;" d="M194.433,250.557c-13.675,6.051-28.685,9.441-44.433,9.441c-15.747,0-30.757-3.391-44.431-9.441   c-16.786,2.197-27.566,5.609-27.566,9.441c0,6.63,32.235,12.002,71.998,12.002c39.767,0,72.001-5.372,72.001-12.002   C222.001,256.167,211.22,252.753,194.433,250.557"/>
	<path style="fill:#ADF2A2;" d="M262.003,139.853C262.003,77.995,211.858,32,150,32C88.146,32,38.001,77.995,38.001,139.853   c0,61.854,50.145,116.148,111.999,116.148C211.858,256.001,262.003,201.708,262.003,139.853"/>
	<path style="fill:#54596E;" d="M262.003,139.853H266c0.011-32.021-13.021-60.089-34.05-80.023   C210.927,39.876,181.922,27.996,150,28c-31.922-0.004-60.924,11.877-81.949,31.83C47.021,79.764,33.99,107.832,34,139.853   c0.007,32.018,12.961,62.008,33.908,84.027c20.933,22.018,49.974,36.118,82.091,36.118c32.121,0,61.158-14.101,82.095-36.118   c20.944-22.02,33.901-52.01,33.905-84.027H262.003h-4c0.004,29.837-12.112,57.922-31.705,78.51   c-19.597,20.596-46.56,33.635-76.297,33.639c-29.737-0.004-56.696-13.043-76.297-33.639c-19.594-20.588-31.709-48.673-31.702-78.51   c0.01-29.837,12.051-55.697,31.556-74.222C93.07,47.121,120.068,36.004,150,36c29.936,0.004,56.93,11.12,76.442,29.631   c19.509,18.524,31.549,44.385,31.56,74.222H262.003"/>
	<path style="fill:#A4E29D;" d="M257.068,126.075c-6.868,53.566-52.17,97.927-107.068,97.927s-100.197-44.36-107.064-97.927   c-0.591,4.523-0.932,9.142-0.934,13.872c0.018,29.802,12.128,57.85,31.702,78.416c19.601,20.596,46.56,33.635,76.297,33.639l0,0   l0,0c29.737-0.004,56.699-13.043,76.297-33.639c19.575-20.568,31.685-48.616,31.705-78.421   C257.999,135.213,257.659,130.596,257.068,126.075"/>
	<path style="fill:#54596E;" d="M42.001,139.947c0,0.019,0,0.037,0,0.056c0,59.645,48.35,111.999,107.999,111.999   c-29.737-0.004-56.696-13.043-76.297-33.639C54.13,197.796,42.02,169.749,42.001,139.947 M258.002,139.942   c-0.02,29.805-12.13,57.853-31.705,78.421c-19.597,20.596-46.56,33.635-76.297,33.639c59.648,0,108.002-52.354,108.002-111.999   C258.002,139.982,258.002,139.962,258.002,139.942"/>
	<circle style="fill:#FFFFFF;" cx="108.001" cy="110" r="18"/>
	<path style="fill:#54596E;" d="M126.001,110h4c-0.002-12.152-9.848-21.998-22-22c-12.152,0.002-21.998,9.848-22,22   c0.002,12.151,9.848,21.997,22,21.999c12.152-0.002,21.997-9.848,22-21.999H126.001h-4c-0.014,7.73-6.269,13.985-14,14   c-7.731-0.015-13.986-6.27-14-14c0.014-7.731,6.269-13.986,14-14.001c7.731,0.015,13.986,6.27,14,14.001H126.001z"/>
	<circle style="fill:#FFFFFF;" cx="192.001" cy="110" r="18"/>
	<path style="fill:#54596E;" d="M210.001,110h4c-0.002-12.152-9.848-21.998-22-22c-12.152,0.002-21.998,9.848-22,22   c0.002,12.151,9.848,21.997,22,21.999c12.152-0.002,21.997-9.848,22-21.999H210.001h-4c-0.014,7.73-6.269,13.985-14,14   c-7.731-0.015-13.986-6.27-14-14c0.014-7.731,6.269-13.986,14-14.001c7.731,0.015,13.986,6.27,14,14.001H210.001z"/>
	<path style="fill:#54596E;" d="M175.313,152.571c-5.809-1.246-11.363-0.387-16.039,1.959c-5.879,2.947-12.668,2.947-18.547,0   c-4.676-2.346-10.23-3.205-16.039-1.959c-9,1.932-16.254,9.226-18.141,18.234c-3.258,15.523,8.5,29.195,23.453,29.195   c4.125,0,8.008-1.042,11.395-2.877c5.316-2.877,11.895-2.877,17.211,0c3.387,1.835,7.27,2.877,11.395,2.877   c14.953,0,26.711-13.672,23.453-29.195C191.567,161.796,184.313,154.502,175.313,152.571z"/>
	<path style="fill:#54596E;" d="M175.313,152.571l0.84-3.911c-2.073-0.445-4.134-0.661-6.151-0.66   c-4.488-0.001-8.756,1.061-12.524,2.956c-2.384,1.194-4.931,1.783-7.477,1.784c-2.547-0.001-5.094-0.591-7.482-1.786   c-3.764-1.891-8.031-2.955-12.52-2.954c-2.015-0.001-4.076,0.212-6.155,0.661c-10.583,2.297-18.966,10.728-21.212,21.324   c-0.426,2.028-0.631,4.044-0.631,6.019c0.002,15.462,12.533,27.994,28,27.996c4.8,0.002,9.347-1.216,13.3-3.359   c2.047-1.109,4.369-1.676,6.7-1.676c2.331,0,4.653,0.566,6.701,1.676c3.952,2.144,8.499,3.361,13.299,3.359   c15.465-0.002,27.996-12.532,27.999-27.995c0-1.976-0.206-3.992-0.631-6.021c-2.245-10.596-10.628-19.026-21.216-21.324   L175.313,152.571l-0.84,3.91c7.412,1.565,13.537,7.723,15.065,15.144c0.314,1.496,0.461,2.958,0.461,4.38   c-0.002,5.534-2.232,10.508-5.857,14.139c-3.632,3.625-8.606,5.854-14.142,5.857c-3.45-0.002-6.669-0.868-9.489-2.395   c-3.269-1.77-6.895-2.641-10.511-2.641c-3.617,0-7.242,0.871-10.51,2.641c-2.821,1.526-6.04,2.393-9.49,2.395   c-5.536-0.003-10.51-2.232-14.142-5.858c-3.625-3.631-5.855-8.605-5.857-14.139c0-1.421,0.147-2.882,0.461-4.377   c1.529-7.423,7.653-13.58,15.065-15.146c1.527-0.329,3.018-0.481,4.471-0.482c3.227,0.001,6.248,0.759,8.934,2.105   c3.492,1.751,7.28,2.636,11.068,2.635c3.786,0.001,7.574-0.883,11.066-2.634c2.686-1.349,5.707-2.105,8.935-2.106   c1.45,0.001,2.943,0.154,4.472,0.482L175.313,152.571z"/>
</g>















</svg>
