<?xml version="1.0" encoding="iso-8859-1"?>
<!-- Generator: Adobe Illustrator 21.0.0, SVG Export Plug-In . SVG Version: 6.00 Build 0)  -->
<svg xmlns="http://www.w3.org/2000/svg" xmlns:xlink="http://www.w3.org/1999/xlink" version="1.1" id="shocked" x="0px" y="0px" viewBox="0 0 300 300" style="enable-background:new 0 0 300 300;" xml:space="preserve" width="512" height="512">
<g>
	<path style="fill:#EEEEF0;" d="M201.967,251.696c-0.493,6.879-6.225,12.304-13.228,12.304h-77.478   c-7.003,0-12.735-5.425-13.228-12.304c-12.406,2.156-20.032,5.082-20.032,8.304c0,6.63,32.236,12.003,71.999,12.003   c39.763,0,71.999-5.373,71.999-12.003C221.999,256.778,214.373,253.852,201.967,251.696"/>
	<path style="fill:#ADF2A2;" d="M261.998,139.853c0-61.684-49.859-107.592-111.477-107.852   C90.317,31.753,39.079,77.646,38.019,137.841c-0.801,45.461,25.578,87.118,63.979,106.583v6.316c0,5.113,4.15,9.259,9.263,9.259   h77.478c5.113,0,9.259-4.146,9.259-9.259v-6.316C235.834,225.249,261.998,184.53,261.998,139.853"/>
	<path style="fill:#54596E;" d="M261.998,139.853h4.004c0.008-31.931-12.949-59.932-33.878-79.855   c-20.92-19.94-49.786-31.866-81.587-31.996h0.008l-0.516-0.004c-31.02,0.004-59.724,11.84-80.831,31.479   c-21.107,19.628-34.638,47.145-35.178,78.291c-0.012,0.694-0.02,1.39-0.02,2.085c0.028,46.25,27,88.249,66.191,108.141l1.809-3.569   h-4v6.316c0.004,7.324,5.938,13.259,13.263,13.259h77.478c7.324,0,13.259-5.935,13.263-13.259v-6.316h-4.004l1.809,3.569   c39.19-19.888,66.166-61.887,66.195-108.141H261.998h-3.999c0.028,43.096-25.326,82.538-61.805,101.003   c-1.345,0.683-2.195,2.064-2.195,3.568v6.316c-0.004,2.902-2.357,5.256-5.26,5.26h-77.478c-2.906-0.004-5.255-2.357-5.264-5.26   v-6.316c0-1.504-0.845-2.886-2.191-3.568c-36.483-18.469-61.833-57.907-61.809-101.003c0-0.646,0.008-1.297,0.02-1.943   c0.512-28.886,12.994-54.289,32.63-72.575C94.284,47.064,121.057,35.997,150.029,36h0.467h0.008   c29.817,0.126,56.688,11.287,76.104,29.789c19.408,18.514,31.382,44.312,31.39,74.063H261.998"/>
	<circle style="fill:#54596E;" cx="108" cy="118.001" r="10"/>
	<circle style="fill:#54596E;" cx="188" cy="118.001" r="10"/>
	<path style="fill:#54596E;" d="M180.846,232h-61.691c-2.735,0-4.853-2.398-4.516-5.113L122,168   c0-13.254,10.747-23.997,24.001-23.997h7.999C167.254,144.002,178,154.746,178,168l7.361,58.887   C185.699,229.601,183.581,232,180.846,232"/>
	<path style="fill:#54596E;" d="M180.846,232V228h-61.691l-0.553-0.545l0.004-0.065l7.365-58.895l0.028-0.496   c0.004-5.536,2.231-10.511,5.857-14.141c3.634-3.625,8.609-5.856,14.145-5.856h7.999c5.536,0,10.511,2.231,14.141,5.856   c3.625,3.63,5.857,8.604,5.861,14.141l0.028,0.496l7.361,58.887l0.004,0.073l-0.163,0.382L180.846,228V232v3.999   c4.784-0.012,8.548-3.877,8.552-8.543l-0.065-1.065l-7.365-58.887L178,168h4c-0.004-15.465-12.535-27.996-28-27.996h-7.999   c-15.465,0-27.996,12.531-28,27.996h4l-3.967-0.496l-7.365,58.887l-0.065,1.065c0,4.666,3.768,8.531,8.552,8.543h61.691V232"/>
	<path style="fill:#FF9999;" d="M161.998,228c8.836,0,16.002-7.162,16.002-15.998c0-8.837-7.166-16.002-16.002-16.002   c-4.804,0-9.064,2.166-11.998,5.52c-2.935-3.354-7.194-5.52-11.999-5.52c-8.836,0-16.002,7.165-16.002,16.002   c0,8.836,7.166,15.998,16.002,15.998H161.998"/>
	<path style="fill:#A4E29D;" d="M257.067,126.075c-5.191,40.481-32.323,75.699-68.964,90.493l1.229,9.822l0.065,1.065   c-0.004,4.666-3.768,8.531-8.552,8.543l0,0h-61.691c-4.784-0.012-8.552-3.877-8.552-8.543l0.065-1.065l1.229-9.822   c-36.641-14.794-63.773-50.012-68.964-90.493c-0.591,4.519-0.932,9.135-0.935,13.863c0.01,43.062,25.35,82.461,61.809,100.918   c0.062,0.031,0.123,0.064,0.183,0.099c0.667,0.336,1.338,0.665,2.012,0.986v8.984c0.105,2.816,2.415,5.071,5.26,5.075h77.478   c2.902-0.004,5.255-2.357,5.26-5.26v-6.316l0,0v-2.483c0.674-0.321,1.347-0.651,2.014-0.987c0.059-0.033,0.12-0.066,0.181-0.098   c36.455-18.452,61.799-57.854,61.805-100.917C257.995,135.21,257.658,130.594,257.067,126.075"/>
	<path style="fill:#54596E;" d="M106.002,250.925V256h5.26C108.417,255.997,106.106,253.742,106.002,250.925 M193.998,244.424   L193.998,244.424v6.316c-0.004,2.902-2.357,5.256-5.26,5.26h5.26V244.424 M257.998,139.939   c-0.006,43.062-25.35,82.465-61.805,100.917c-0.062,0.031-0.122,0.064-0.181,0.098c36.627-18.435,61.986-57.767,61.986-100.95   C257.998,139.982,257.998,139.96,257.998,139.939 M41.998,139.938c0,0.021,0,0.044,0,0.065c0,43.184,25.361,82.517,61.992,100.951   c-0.06-0.034-0.121-0.067-0.183-0.099C67.348,222.399,42.008,183,41.998,139.938"/>
	<path style="fill:#54596E;" d="M119.613,219.333l-1.008,8.057l-0.004,0.065l0.553,0.545h61.691l0.386-0.163l0.163-0.382   l-0.004-0.073l-1.006-8.048c-1.65,0.519-3.315,0.996-4.997,1.432c-2.859,4.357-7.788,7.234-13.389,7.234h-23.997   c-5.601,0-10.53-2.877-13.389-7.234C122.931,220.331,121.263,219.852,119.613,219.333"/>
	<path style="fill:#55A6FF;" d="M230,95.43c0,4.733-3.838,8.571-8.572,8.571c-4.732,0-8.57-3.838-8.57-8.571   c0-4.734,6.857-15.429,8.57-15.429C223.142,80.001,230,90.696,230,95.43z"/>
	<path style="fill:#55A6FF;" d="M74,164.001c0,4.418-3.582,8-8,8s-8-3.582-8-8s6.4-14.4,8-14.4S74,159.583,74,164.001z"/>
	<path style="fill:#55A6FF;" d="M246,134.001c0,5.522-4.477,10-10,10s-10-4.478-10-10s8-18,10-18S246,128.479,246,134.001z"/>
</g>















</svg>
