<?xml version="1.0" encoding="iso-8859-1"?>
<!-- Generator: Adobe Illustrator 21.0.0, SVG Export Plug-In . SVG Version: 6.00 Build 0)  -->
<svg xmlns="http://www.w3.org/2000/svg" xmlns:xlink="http://www.w3.org/1999/xlink" version="1.1" id="sideview" x="0px" y="0px" viewBox="0 0 300 300" style="enable-background:new 0 0 300 300;" xml:space="preserve" width="512" height="512">
<g>
	<path style="fill:#EEEEF0;" d="M194.43,250.559c-13.675,6.052-28.683,9.442-44.43,9.442c-15.749,0-30.756-3.391-44.431-9.442   c-16.786,2.197-27.568,5.609-27.568,9.442C78.001,266.629,110.237,272,150,272s71.999-5.371,71.999-11.999   C221.999,256.168,211.216,252.756,194.43,250.559"/>
	<path style="fill:#FFF35F;" d="M262,139.852c0-61.855-50.144-107.851-112-107.851S38,77.996,38,139.852   c0,61.856,50.144,116.149,112,116.149S262,201.708,262,139.852"/>
	<path style="fill:#54596E;" d="M262,139.852h4.001c0.01-32.019-13.024-60.086-34.052-80.023C210.923,39.877,181.92,27.997,150,28   c-31.923-0.003-60.927,11.877-81.948,31.828C47.02,79.766,33.99,107.833,33.999,139.852c0.007,32.019,12.961,62.008,33.907,84.028   c20.936,22.017,49.973,36.121,82.093,36.121c32.118,0,61.157-14.104,82.093-36.121c20.943-22.021,33.9-52.01,33.907-84.028H262   h-4.001c0.007,29.838-12.111,57.922-31.702,78.515C206.699,238.96,179.735,252,150,252c-29.738,0-56.699-13.04-76.297-33.634   c-19.595-20.593-31.709-48.677-31.702-78.515c0.01-29.834,12.048-55.693,31.557-74.221C93.067,47.12,120.064,36.002,150,35.998   c29.933,0.004,56.929,11.122,76.442,29.633c19.506,18.527,31.548,44.387,31.557,74.221H262"/>
	<path style="fill:#EEE361;" d="M257.067,126.077c-6.871,53.564-52.167,97.925-107.067,97.925s-100.199-44.36-107.067-97.925   c-0.591,4.52-0.93,9.137-0.932,13.866c0.019,29.803,12.128,57.851,31.702,78.423c19.368,20.353,45.928,33.327,75.252,33.628   c0.007,0.001,0.006,0.001,0.014,0.001c0.11,0.001,0.223,0.002,0.333,0.003c0.233,0.001,0.464,0.002,0.697,0.002   c0.233,0,0.464-0.001,0.697-0.002c29.459-0.202,56.155-13.199,75.6-33.632c19.571-20.572,31.684-48.619,31.702-78.422   C257.996,135.215,257.657,130.597,257.067,126.077"/>
	<path style="fill:#54596E;" d="M148.969,251.995c0.109,0.001,0.224,0.002,0.333,0.003   C149.192,251.997,149.08,251.996,148.969,251.995 M257.999,139.944c-0.019,29.803-12.131,57.85-31.702,78.422   c-19.445,20.433-46.14,33.43-75.6,33.632C210.02,251.591,257.999,199.415,257.999,140   C257.999,139.981,257.999,139.963,257.999,139.944 M42.001,139.943c0,0.019,0,0.038,0,0.057   c0,59.299,47.789,111.387,106.955,111.994c-29.325-0.301-55.884-13.275-75.252-33.628C54.129,197.794,42.02,169.746,42.001,139.943   "/>
	<path style="fill:#54596E;" d="M130.982,167.162c11.188,12.777,30.727,20.807,52.878,20.838   c22.416-0.033,42.162-8.254,53.278-21.304c1.427-1.687,1.217-4.21-0.469-5.638c-1.686-1.427-4.21-1.217-5.637,0.47   c-9.022,10.738-26.72,18.506-47.172,18.473c-20.208,0.031-37.731-7.549-46.844-18.092c-1.451-1.667-3.978-1.842-5.644-0.391   C129.706,162.97,129.532,165.496,130.982,167.162L130.982,167.162z"/>
	<ellipse style="fill:#F9BBED;" cx="129.999" cy="140.001" rx="20" ry="8"/>
	<ellipse style="fill:#F9BBED;" cx="233.999" cy="140.001" rx="20" ry="8"/>
	<circle style="fill:#54596E;" cx="221.999" cy="112.001" r="8"/>
	<circle style="fill:#54596E;" cx="149.999" cy="112.001" r="8"/>
</g>















</svg>
