<?xml version="1.0" encoding="iso-8859-1"?>
<!-- Generator: Adobe Illustrator 21.0.0, SVG Export Plug-In . SVG Version: 6.00 Build 0)  -->
<svg xmlns="http://www.w3.org/2000/svg" xmlns:xlink="http://www.w3.org/1999/xlink" version="1.1" id="silenced" x="0px" y="0px" viewBox="0 0 300 300" style="enable-background:new 0 0 300 300;" xml:space="preserve" width="512" height="512">
<g>
	<path style="fill:#EEEEF0;" d="M105.566,250.556c-16.783,2.197-27.565,5.61-27.565,9.443c0,6.628,32.236,12.002,71.999,12.002   c39.763,0,71.999-5.374,71.999-12.002c0-3.833-10.782-7.246-27.565-9.443C180.758,256.609,165.75,260,150,260   S119.242,256.609,105.566,250.556"/>
	<path style="fill:#FFF35F;" d="M262,139.852c0-61.854-50.145-107.851-112-107.851S38.001,77.998,38.001,139.852S88.145,256,150,256   S262,201.707,262,139.852"/>
	<path style="fill:#54596E;" d="M262,139.852h3.999c0.011-32.023-13.021-60.09-34.048-80.026   C210.924,39.875,181.924,27.999,150,27.999c-31.92,0-60.924,11.877-81.948,31.827c-21.03,19.937-34.062,48.003-34.051,80.026   c0.004,32.017,12.961,62.008,33.906,84.025C88.841,245.895,117.881,260,150,260s61.159-14.104,82.093-36.122   c20.945-22.018,33.902-52.009,33.906-84.025H262H258c0.007,29.835-12.108,57.92-31.703,78.513   C206.698,238.958,179.736,251.998,150,252c-29.736-0.003-56.698-13.042-76.297-33.636C54.112,197.772,41.996,169.687,42,139.852   c0.011-29.835,12.051-55.696,31.558-74.223C93.071,47.122,120.065,36,150,35.997c29.935,0.004,56.932,11.125,76.442,29.633   c19.507,18.526,31.547,44.388,31.558,74.223H262"/>
	<path style="fill:#EEE361;" d="M257.066,126.075C250.197,179.639,204.9,223.999,150,223.999   c-54.897,0-100.197-44.359-107.066-97.924c-0.591,4.521-0.931,9.14-0.934,13.868c0.022,29.801,12.132,57.85,31.703,78.422   C93.302,238.958,120.264,251.998,150,252l0,0l0,0c29.736-0.003,56.698-13.042,76.297-33.636   c19.575-20.572,31.685-48.62,31.703-78.421C257.997,135.215,257.657,130.595,257.066,126.075"/>
	<path style="fill:#54596E;" d="M258,139.944c-0.018,29.801-12.128,57.849-31.703,78.421C206.698,238.958,179.736,251.998,150,252   c59.646,0,108-52.354,108-111.999C258,139.982,258,139.963,258,139.944 M42,139.943c0,0.02,0,0.039,0,0.059   C42,199.647,90.354,252,150,252c-29.736-0.003-56.698-13.042-76.297-33.636C54.132,197.792,42.022,169.744,42,139.943"/>
	<circle style="fill:#54596E;" cx="184.001" cy="102" r="10"/>
	<circle style="fill:#54596E;" cx="116.001" cy="102" r="10"/>
	<path style="fill:#54596E;" d="M174.001,196h-48c-6.627,0-12-5.373-12-12c0-6.628,5.373-12,12-12h48c6.627,0,12,5.372,12,12   C186.001,190.626,180.628,196,174.001,196z"/>
	<path style="fill:#FF7D7D;" d="M124.829,214.828l56-56c1.562-1.562,1.562-4.095,0-5.657c-1.562-1.562-4.095-1.562-5.657,0l-56,56   c-1.562,1.562-1.562,4.095,0,5.657C120.734,216.389,123.267,216.389,124.829,214.828"/>
	<path style="fill:#FF7D7D;" d="M180.829,209.17l-56-56c-1.562-1.562-4.095-1.562-5.657,0c-1.562,1.562-1.562,4.095,0,5.657l56,56   c1.562,1.562,4.095,1.562,5.657,0C182.391,213.265,182.391,210.733,180.829,209.17"/>
</g>















</svg>
