<?xml version="1.0" encoding="iso-8859-1"?>
<!-- Generator: Adobe Illustrator 21.0.0, SVG Export Plug-In . SVG Version: 6.00 Build 0)  -->
<svg xmlns="http://www.w3.org/2000/svg" xmlns:xlink="http://www.w3.org/1999/xlink" version="1.1" id="sing" x="0px" y="0px" viewBox="0 0 300 300" style="enable-background:new 0 0 300 300;" xml:space="preserve" width="512" height="512">
<g>
	<path style="fill:#EEEEF0;" d="M107.568,250.558c-16.786,2.197-27.567,5.61-27.567,9.443c0,6.628,32.237,12,71.999,12   s71.999-5.372,71.999-12c0-3.833-10.781-7.246-27.567-9.443c-13.675,6.052-28.684,9.443-44.432,9.443   C136.252,260.001,121.243,256.609,107.568,250.558"/>
	<path style="fill:#FFF35F;" d="M264,139.853C264,77.996,213.857,31.999,152,31.999S39.999,77.996,39.999,139.853   c0,61.857,50.144,116.148,112.001,116.148S264,201.71,264,139.853"/>
	<path style="fill:#54596E;" d="M264,139.853h4c0.011-32.023-13.02-60.087-34.051-80.025C212.925,39.878,183.92,27.996,152,27.999   c-31.92-0.003-60.926,11.879-81.95,31.828c-21.028,19.938-34.062,48.002-34.051,80.025c0.007,32.016,12.965,62.008,33.907,84.025   c20.935,22.018,49.974,36.123,82.093,36.123s61.158-14.105,82.093-36.123c20.947-22.018,33.9-52.01,33.907-84.025H264h-4   c0.004,29.838-12.111,57.92-31.703,78.513C208.697,238.959,181.738,252,152,252s-56.698-13.041-76.297-33.635   c-19.592-20.593-31.707-48.675-31.703-78.513c0.011-29.837,12.052-55.696,31.56-74.222C95.07,47.12,122.067,36.003,152,36   c29.933,0.003,56.929,11.12,76.444,29.631c19.504,18.525,31.545,44.385,31.556,74.222H264"/>
	<path style="fill:#EEE361;" d="M259.065,126.075c-6.867,53.565-52.168,97.924-107.066,97.924S51.801,179.641,44.934,126.075   c-0.59,4.522-0.932,9.141-0.935,13.868c0.021,29.803,12.131,57.85,31.703,78.422c19.37,20.352,45.927,33.328,75.252,33.63   c0.069,0.001,0.137,0.001,0.206,0.002c0.047,0,0.094,0.001,0.141,0.001c0.055,0,0.104,0.001,0.158,0.001   C151.639,252,151.82,252,152,252l0,0l0,0c0.18,0,0.36,0,0.54-0.001c0.055,0,0.104-0.001,0.158-0.001   c0.047,0,0.091-0.001,0.138-0.001c0.069-0.001,0.14-0.001,0.209-0.002c29.325-0.302,55.882-13.278,75.252-33.63   c19.573-20.573,31.683-48.619,31.703-78.424C259.997,135.215,259.659,130.597,259.065,126.075"/>
	<path style="fill:#54596E;" d="M151.46,251.999C151.638,252,151.821,252,152,252C151.82,252,151.639,252,151.46,251.999    M152.539,251.999C152.36,252,152.179,252,152,252C152.178,252,152.361,252,152.539,251.999 M152.836,251.997   c-0.047,0-0.091,0.001-0.138,0.001C152.745,251.998,152.788,251.997,152.836,251.997 M151.16,251.997   c0.047,0,0.094,0.001,0.141,0.001C151.255,251.998,151.208,251.997,151.16,251.997 M43.999,139.943c0,0.019,0,0.038,0,0.057   c0,59.296,47.792,111.387,106.955,111.995c-29.325-0.302-55.882-13.278-75.252-33.63C56.13,197.793,44.021,169.746,43.999,139.943    M260,139.941c-0.02,29.805-12.13,57.851-31.703,78.424c-19.37,20.352-45.927,33.328-75.252,33.63   C212.208,251.387,260,199.296,260,140C260,139.98,260,139.961,260,139.941"/>
	<path style="fill:#54596E;" d="M129.495,77.413c-2.757-8.443-10.581-13.815-19.013-13.812c-2.052-0.001-4.148,0.316-6.203,0.99   l0.007-0.002c-8.443,2.757-13.815,10.58-13.812,19.013c0,2.055,0.32,4.146,0.987,6.195c0.683,2.101,2.939,3.25,5.04,2.567   c2.101-0.683,3.25-2.939,2.568-5.04c-0.405-1.249-0.594-2.495-0.595-3.723c0.003-5.047,3.219-9.763,8.289-11.406l0.634-0.207   l-0.627,0.205c1.237-0.404,2.481-0.593,3.713-0.594c5.048,0.004,9.763,3.22,11.407,8.29c0.684,2.1,2.941,3.249,5.042,2.564   C129.03,81.771,130.178,79.514,129.495,77.413L129.495,77.413z"/>
	<path style="fill:#54596E;" d="M178.276,79.891c1.644-5.07,6.358-8.286,11.407-8.29c1.232,0.001,2.476,0.189,3.713,0.594   l0.006,0.002c5.07,1.644,8.286,6.359,8.289,11.406c0,1.228-0.189,2.474-0.595,3.722c-0.683,2.101,0.466,4.357,2.567,5.041   c2.101,0.684,4.358-0.466,5.041-2.566c0.666-2.05,0.987-4.142,0.987-6.196c0.003-8.433-5.368-16.256-13.812-19.013l0.006,0.002   c-2.055-0.674-4.15-0.991-6.203-0.99c-8.433-0.004-16.257,5.368-19.013,13.812c-0.684,2.1,0.464,4.357,2.564,5.042   C175.334,83.14,177.591,81.991,178.276,79.891L178.276,79.891z"/>
	<path style="fill:#54596E;" d="M84.832,112c-6.605-0.015-10.721,6.849-7.631,12.542c14.213,26.196,42.443,44.045,74.949,44.045   c32.373,0,60.506-17.701,74.775-43.721c3.113-5.678-0.975-12.557-7.578-12.57l-54.646,5.452c-8.348,0.833-16.76,0.815-25.104-0.053   L84.832,112z"/>
	<path style="fill:#54596E;" d="M84.832,112l0.549-3.963c-0.007,0.002-0.191-0.036-0.57-0.039c-3.608-0.01-6.852,1.478-9.086,3.779   c-2.244,2.298-3.566,5.402-3.57,8.711c-0.003,1.997,0.497,4.06,1.529,5.959c14.905,27.475,44.475,46.136,78.466,46.139   c33.852-0.002,63.32-18.511,78.283-45.797c1.051-1.912,1.558-3.991,1.555-6.004c-0.003-3.303-1.321-6.404-3.56-8.701   c-2.229-2.302-5.469-3.792-9.074-3.788l-0.403,0.02l-54.646,5.452c-3.955,0.394-7.926,0.591-11.896,0.592   c-4.138-0.001-8.276-0.215-12.397-0.644l-54.765-5.695L84.832,112l0.549-3.963L84.832,112l-0.414,3.979l54.766,5.695   c4.396,0.456,8.809,0.685,13.224,0.685c4.236,0,8.471-0.21,12.69-0.631l54.647-5.452l-0.397-3.979l-0.006,3.999   c1.453,0.012,2.534,0.545,3.36,1.375c0.817,0.835,1.29,1.975,1.287,3.115c-0.003,0.701-0.164,1.411-0.57,2.158   c-13.576,24.752-40.374,41.646-71.268,41.644c-31.02,0.003-57.911-17.033-71.433-41.953c-0.401-0.745-0.559-1.45-0.562-2.146   c-0.003-1.143,0.471-2.283,1.29-3.118c0.829-0.831,1.912-1.363,3.366-1.373v-3.845l-0.528,3.81   c0.001-0.004,0.163,0.032,0.528,0.035v-3.845l-0.528,3.81l0.135,0.017L84.832,112z"/>
	<path style="fill:#FFFFFF;" d="M174.459,120.566L204.142,116v12.075c0,2.258-1.646,4.179-3.879,4.521l-25.805,3.97   c-14.797,2.276-29.848,2.357-44.668,0.24l-29.721-4.245c-2.254-0.322-3.928-2.253-3.928-4.529V116l33.648,4.807   C144.611,122.924,159.662,122.843,174.459,120.566z"/>
	<path style="fill:#55A6FF;" d="M132,208h-8c-11.045,0-20-8.954-20-20v-20c0-11.046,8.955-20,20-20h8c11.045,0,20,8.954,20,20v20   C152,199.046,143.045,208,132,208z"/>
	<path style="fill:#54596E;" d="M132,208v-4h-8c-4.431-0.003-8.405-1.785-11.313-4.687c-2.902-2.908-4.685-6.883-4.687-11.313v-20   c0.002-4.432,1.785-8.406,4.687-11.314c2.908-2.901,6.883-4.684,11.313-4.687l8,0.001c4.43,0.002,8.405,1.784,11.313,4.686   c2.902,2.908,4.685,6.883,4.687,11.314v20c-0.002,4.431-1.785,8.405-4.687,11.313c-2.908,2.901-6.883,4.684-11.313,4.687V208v3.999   c13.256-0.002,23.997-10.743,24-23.999v-20c-0.003-13.257-10.744-23.998-24-24h-8c-13.256,0.002-23.997,10.743-24,24v20   c0.003,13.256,10.744,23.997,24,23.999l8,0.001V208z"/>
	<polygon style="fill:#DDDDDD;" points="140,256 116,256 112,200 144,200  "/>
	<path style="fill:#54596E;" d="M140,256v-4h-20.276l-3.428-48h23.408l-3.694,51.715L140,256v-4V256l3.99,0.284l4-56   c0.079-1.111-0.304-2.195-1.063-3.011S145.113,196,144,196h-32c-1.114,0-2.168,0.458-2.927,1.273s-1.142,1.899-1.063,3.011l4,56   c0.149,2.094,1.89,3.715,3.99,3.715h24c2.099,0,3.841-1.621,3.99-3.715L140,256z"/>
	<path style="fill:#54596E;" d="M124,256v2c-0.006,3.312-2.687,5.993-6,6H86c-3.313-0.007-5.994-2.688-6-6   c-0.003-7.733-6.266-13.998-14-14H36c-2.209,0-4,1.79-4,4c0,2.209,1.791,4,4,4l30-0.001c3.313,0.007,5.994,2.688,6,6.001   c0.003,7.732,6.266,13.997,14,13.999L118,272c7.734-0.003,13.997-6.268,14-14l0-2c0-2.21-1.791-4-4-4   C125.791,252,124,253.79,124,256z"/>
	<ellipse style="fill:#54596E;" cx="254" cy="54" rx="10" ry="6"/>
	<path style="fill:#54596E;" d="M256,32v20c0,2.209,1.791,4,4,4c2.209,0,4-1.791,4-4V32c0-2.21-1.791-4-4-4   C257.791,28,256,29.79,256,32"/>
	<ellipse style="fill:#54596E;" cx="174" cy="230" rx="10" ry="6"/>
	<path style="fill:#54596E;" d="M176,208v20c0,2.209,1.791,4,4,4c2.209,0,4-1.791,4-4v-20c0-2.21-1.791-4-4-4   C177.791,204,176,205.79,176,208"/>
	<ellipse style="fill:#54596E;" cx="194" cy="194" rx="10" ry="6"/>
	<path style="fill:#54596E;" d="M204,192v-17.529l16-8L220,180c0,2.209,1.791,4,4,4c2.209,0,4-1.791,4-4l0-20   c0-1.391-0.714-2.672-1.897-3.403c-1.182-0.73-2.648-0.797-3.892-0.175l-24,12c-1.358,0.679-2.211,2.06-2.211,3.578v20   c0,2.209,1.791,4,4,4C202.209,196,204,194.209,204,192L204,192z"/>
	<ellipse style="fill:#54596E;" cx="218" cy="182" rx="10" ry="6"/>
</g>















</svg>
