<?xml version="1.0" encoding="iso-8859-1"?>
<!-- Generator: Adobe Illustrator 21.0.0, SVG Export Plug-In . SVG Version: 6.00 Build 0)  -->
<svg xmlns="http://www.w3.org/2000/svg" xmlns:xlink="http://www.w3.org/1999/xlink" version="1.1" id="sleep" x="0px" y="0px" viewBox="0 0 300 300" style="enable-background:new 0 0 300 300;" xml:space="preserve" width="512" height="512">
<g>
	<path style="fill:#EEEEF0;" d="M105.568,250.558c-16.786,2.196-27.567,5.61-27.567,9.443c0,6.628,32.233,12,71.999,12   c39.762,0,71.999-5.372,71.999-12c0-3.833-10.781-7.246-27.567-9.443c-13.675,6.052-28.684,9.443-44.432,9.443   S119.243,256.608,105.568,250.558"/>
	<path style="fill:#FFF35F;" d="M262.001,139.853c0-61.856-50.147-107.854-112.001-107.854   c-61.857,0-112.001,45.997-112.001,107.854c0,61.857,50.144,116.148,112.001,116.148   C211.853,256.001,262.001,201.71,262.001,139.853"/>
	<path style="fill:#54596E;" d="M262.001,139.853h4c0.007-32.023-13.023-60.087-34.051-80.025   C210.926,39.878,181.92,27.996,150,27.999c-31.924-0.003-60.926,11.879-81.95,31.828c-21.031,19.938-34.062,48.002-34.051,80.025   c0.004,32.016,12.961,62.008,33.907,84.025c20.935,22.018,49.974,36.123,82.093,36.123s61.158-14.105,82.093-36.123   c20.943-22.018,33.9-52.01,33.907-84.025H262.001h-4c0.004,29.838-12.111,57.92-31.703,78.513C206.698,238.959,179.734,252,150,252   c-29.738,0-56.698-13.041-76.297-33.635C54.11,197.772,41.992,169.69,42,139.853c0.011-29.837,12.052-55.696,31.556-74.222   C93.07,47.12,120.067,36.003,150,36c29.933,0.003,56.93,11.12,76.441,29.631c19.508,18.525,31.549,44.385,31.56,74.222H262.001"/>
	<path style="fill:#EEE361;" d="M257.066,126.075c-6.871,53.565-52.168,97.924-107.066,97.924S49.801,179.641,42.934,126.075   c-0.594,4.523-0.932,9.143-0.935,13.871c0.018,29.803,12.131,57.847,31.703,78.419c19.37,20.352,45.928,33.328,75.252,33.63   c0.058,0.001,0.119,0.001,0.177,0.002c0.056,0,0.114,0.001,0.17,0.001c0.051,0,0.1,0.001,0.151,0.001   C149.634,252,149.818,252,150,252l0,0l0,0c0.185,0,0.368,0,0.553-0.001c0.047,0,0.097-0.001,0.145-0.001   c0.065,0,0.128-0.001,0.193-0.002c0.051,0,0.104,0,0.155-0.001c29.321-0.302,55.882-13.278,75.252-33.63   c19.573-20.573,31.683-48.618,31.703-78.423C257.997,135.215,257.656,130.598,257.066,126.075"/>
	<path style="fill:#54596E;" d="M149.453,251.999C149.635,252,149.818,252,150,252C149.818,252,149.634,252,149.453,251.999    M150.553,251.999C150.368,252,150.185,252,150,252C150.186,252,150.368,252,150.553,251.999 M149.132,251.997   c0.058,0,0.112,0.001,0.17,0.001C149.246,251.998,149.188,251.997,149.132,251.997 M150.89,251.996   c-0.065,0.001-0.128,0.002-0.193,0.002C150.763,251.998,150.825,251.997,150.89,251.996 M42,139.946c0,0.018,0,0.035,0,0.054   c0,59.296,47.789,111.387,106.955,111.995c-29.325-0.302-55.882-13.278-75.252-33.63C54.131,197.793,42.018,169.749,42,139.946    M258,139.942c-0.02,29.805-12.13,57.85-31.703,78.423c-19.37,20.352-45.931,33.328-75.252,33.63   C210.208,251.387,258,199.296,258,140C258,139.98,258,139.961,258,139.942"/>
	<path style="fill:#54596E;" d="M201.999,108c-0.012,6.626-5.375,11.987-12,12c-6.625-0.013-11.988-5.374-12-12c0-2.21-1.791-4-4-4   c-2.209,0-4,1.79-4,4c0.003,11.047,8.953,19.997,20,19.999c11.047-0.002,19.997-8.952,20-19.999c0-2.21-1.791-4-4-4   C203.79,104,201.999,105.79,201.999,108L201.999,108z"/>
	<path style="fill:#54596E;" d="M117.999,108c-0.012,6.626-5.375,11.987-12,12c-6.625-0.013-11.988-5.374-12-12c0-2.21-1.791-4-4-4   c-2.209,0-4,1.79-4,4c0.003,11.047,8.953,19.997,20,19.999c11.047-0.002,19.997-8.952,20-19.999c0-2.21-1.791-4-4-4   C119.79,104,117.999,105.79,117.999,108L117.999,108z"/>
	<path style="fill:#54596E;" d="M139.29,152.149c-7.678,2.159-13.283,9.203-13.291,17.562c0.008,8.666,6.031,15.917,14.145,17.779   l0.443,0.102h37.412c2.209,0,3.999-1.791,3.999-3.999c0-2.209-1.79-3.999-3.999-3.999l-36.959-0.001v4l0.896-3.898   c-4.534-1.044-7.945-5.121-7.937-9.983c-0.008-4.692,3.165-8.65,7.459-9.862c2.126-0.6,3.364-2.809,2.766-4.935   C143.625,152.789,141.416,151.551,139.29,152.149L139.29,152.149z"/>
	<path style="fill:#54596E;" d="M115.29,152.556c-7.678,2.159-13.283,9.203-13.291,17.562c0.008,8.666,6.031,15.917,14.145,17.779   l0.443,0.102h37.412c2.209,0,3.999-1.791,3.999-3.999c0-2.209-1.79-3.999-3.999-3.999L117.04,180v4l0.896-3.898   c-4.534-1.044-7.945-5.121-7.937-9.983c-0.008-4.692,3.165-8.65,7.459-9.862c2.126-0.6,3.364-2.809,2.766-4.935   C119.625,153.195,117.416,151.957,115.29,152.556L115.29,152.556z"/>
	<path style="fill:#54596E;" d="M241.999,39.999h11.46l-14.533,17.439c-0.996,1.194-1.209,2.849-0.549,4.258   c0.66,1.409,2.067,2.303,3.622,2.303h20c2.209,0,3.999-1.791,3.999-3.999c0-2.209-1.79-3.999-3.999-3.999L250.537,56l14.535-17.439   c0.996-1.195,1.209-2.849,0.549-4.258c-0.66-1.409-2.067-2.303-3.622-2.303h-20c-2.209,0-4,1.79-4,4   C237.999,38.209,239.79,40,241.999,39.999L241.999,39.999z"/>
	<path style="fill:#54596E;" d="M185.999,64h7.677l-10.801,13.501c-0.964,1.205-1.15,2.841-0.482,4.231   c0.669,1.391,2.062,2.268,3.605,2.268h16c2.209,0,4-1.791,4-4c0-2.21-1.791-4-4-4h-7.678l10.802-13.502   c0.964-1.205,1.15-2.841,0.482-4.231S203.542,56,201.999,56h-16c-2.209,0-4,1.79-4,4C181.999,62.209,183.79,64,185.999,64z"/>
	<path style="fill:#54596E;" d="M221.999,132h7.677l-10.801,13.501c-0.964,1.205-1.15,2.841-0.482,4.231   c0.669,1.391,2.062,2.268,3.605,2.268h16c2.209,0,4-1.791,4-4c0-2.21-1.791-4-4-4h-7.678l10.802-13.502   c0.964-1.205,1.15-2.841,0.482-4.231S239.542,124,237.999,124h-16c-2.209,0-4,1.79-4,4C217.999,130.209,219.79,132,221.999,132z"/>
</g>















</svg>
