<?xml version="1.0" encoding="iso-8859-1"?>
<!-- Generator: Adobe Illustrator 21.0.0, SVG Export Plug-In . SVG Version: 6.00 Build 0)  -->
<svg xmlns="http://www.w3.org/2000/svg" xmlns:xlink="http://www.w3.org/1999/xlink" version="1.1" id="smoke" x="0px" y="0px" viewBox="0 0 300 300" style="enable-background:new 0 0 300 300;" xml:space="preserve" width="512" height="512">
<g>
	<path style="fill:#EEEEF0;" d="M107.566,250.555c-16.784,2.197-27.568,5.611-27.568,9.444c0,6.628,32.236,12.002,72.002,12.002   c39.763,0,71.999-5.374,71.999-12.002c0-3.833-10.783-7.247-27.566-9.444c-13.676,6.053-28.683,9.444-44.433,9.444   S121.242,256.608,107.566,250.555"/>
	<path style="fill:#FFF35F;" d="M264,139.852c0-61.854-50.145-107.851-112-107.851S40.001,77.998,40.001,139.852   S90.146,256,152.001,256S264,201.707,264,139.852"/>
	<path style="fill:#54596E;" d="M264,139.852H268c0.011-32.023-13.021-60.09-34.051-80.026   c-21.023-19.95-50.027-31.827-81.948-31.827c-31.924,0-60.924,11.877-81.951,31.827c-21.03,19.937-34.058,48.003-34.051,80.026   c0.007,32.017,12.964,62.008,33.909,84.025C90.842,245.895,119.882,260,152.001,260s61.155-14.104,82.093-36.122   c20.945-22.018,33.902-52.009,33.906-84.025H264h-3.999c0.004,29.835-12.112,57.92-31.704,78.513   c-19.599,20.594-46.561,33.633-76.297,33.636c-29.736-0.003-56.698-13.042-76.3-33.636c-19.592-20.593-31.707-48.678-31.7-78.513   c0.011-29.835,12.051-55.696,31.558-74.223C95.069,47.122,122.066,36,152.001,35.997C181.932,36,208.93,47.122,228.443,65.629   c19.507,18.526,31.547,44.388,31.558,74.223H264"/>
	<path style="fill:#EEE361;" d="M259.067,126.075c-6.869,53.564-52.169,97.924-107.066,97.924   c-54.9,0-100.197-44.359-107.066-97.924c-0.591,4.521-0.931,9.141-0.934,13.869c0.018,29.801,12.128,57.849,31.7,78.421   c19.603,20.594,46.564,33.633,76.3,33.636l0,0l0,0c29.736-0.003,56.698-13.042,76.297-33.636   c19.571-20.572,31.682-48.621,31.703-78.422C259.998,135.214,259.658,130.595,259.067,126.075"/>
	<path style="fill:#54596E;" d="M44.001,139.944c0,0.02,0,0.038,0,0.058c0,59.646,48.354,111.999,108,111.999   c-29.736-0.003-56.698-13.042-76.3-33.636C56.129,197.792,44.019,169.745,44.001,139.944 M260.001,139.943   c-0.022,29.801-12.132,57.85-31.703,78.422c-19.599,20.594-46.561,33.633-76.297,33.636c59.646,0,108-52.354,108-111.999   C260.001,139.982,260.001,139.962,260.001,139.943"/>
	<circle style="fill:#54596E;" cx="136" cy="196" r="16"/>
	<path style="fill:#AF7477;" d="M237.735,239.415l-23.443-6.021c-10.527-2.704-20.871-6.216-30.891-10.488l-54.625-23.292   l5.49-15.028l56.775,17.401c10.414,3.192,20.586,7.175,30.379,11.894l21.805,10.507L237.735,239.415z"/>
	<path style="fill:#54596E;" d="M237.735,239.415l0.995-3.875l-23.443-6.021c-10.331-2.653-20.483-6.101-30.317-10.293   l-51.135-21.805l2.886-7.9l53.148,16.29c10.22,3.133,20.205,7.042,29.815,11.672l18.541,8.934l-4.247,11.626L237.735,239.415   l0.995-3.875L237.735,239.415l3.757,1.372l5.49-15.028c0.704-1.928-0.172-4.085-2.021-4.976l-21.805-10.507   c-9.976-4.808-20.335-8.863-30.943-12.115l-56.776-17.401c-2.031-0.623-4.2,0.456-4.929,2.452l-5.49,15.028   c-0.729,1.995,0.235,4.218,2.188,5.052l54.625,23.292c10.206,4.353,20.74,7.929,31.464,10.684l23.443,6.021   c1.987,0.51,4.048-0.575,4.752-2.502L237.735,239.415z"/>
	<path style="fill:#FF9999;" d="M198.905,229.489l-7.744-2.828c-2.012-0.735-3.047-2.962-2.311-4.974l5.572-15.258   c0.736-2.012,2.963-3.047,4.975-2.312l7.742,2.828c2.012,0.735,3.047,2.962,2.312,4.974l-5.574,15.258   C203.143,229.189,200.916,230.224,198.905,229.489z"/>
	<path style="fill:#54596E;" d="M198.905,229.489l1.372-3.758l-7.744-2.828l-0.039,0.114h0.119l-0.078-0.113l-0.041,0.113h0.119   h-0.15l0.141,0.052l0.009-0.052h-0.15l0.141,0.052l0.004-0.01l5.572-15.258l-0.114-0.04l0,0.117l0.113-0.075l-0.113-0.042l0,0.117   v-0.196l-0.068,0.183l0.068,0.014v-0.196l-0.068,0.183l0.026,0.01l7.742,2.828l0.042-0.114l-0.121,0.001l0.08,0.113l0.041-0.114   l-0.121,0.001h0.106l-0.101-0.037l-0.004,0.037h0.106l-0.101-0.037l0.002-0.006l-5.574,15.258l0.115,0.043v-0.123l-0.115,0.081   l0.115,0.042v-0.123v0.093l0.032-0.089l-0.032-0.004v0.093l0.032-0.089l0.009,0.003L198.905,229.489l-1.363,3.76   c0.877,0.318,1.793,0.476,2.694,0.475c3.216,0.005,6.227-1.981,7.399-5.175l5.574-15.257l0.002-0.006   c0.319-0.877,0.477-1.796,0.477-2.696c0.004-3.219-1.984-6.229-5.177-7.401l-7.742-2.828l0.026,0.01   c-0.907-0.339-1.841-0.491-2.73-0.49c-3.22-0.004-6.227,1.985-7.4,5.175l-5.573,15.26l0.004-0.01   c-0.327,0.89-0.484,1.811-0.484,2.713c-0.004,3.218,1.984,6.227,5.173,7.399l7.746,2.829l0.009,0.003L198.905,229.489z"/>
	<circle style="fill:#FFFFFF;" cx="80" cy="168" r="8"/>
	<circle style="fill:#FFFFFF;" cx="240" cy="192" r="8"/>
	<circle style="fill:#FFFFFF;" cx="250" cy="190" r="10"/>
	<circle style="fill:#FFFFFF;" cx="244" cy="152" r="12"/>
	<circle style="fill:#FFFFFF;" cx="52" cy="148" r="12"/>
	<path style="fill:#54596E;" d="M216,128c0.001-6.175-1.208-12.06-3.32-17.457c-0.598-1.53-2.083-2.543-3.725-2.543H87.045   c-1.642,0-3.127,1.013-3.725,2.543C81.208,115.94,80,121.825,80,128c0,2.209,1.791,4,4,4c2.209,0,4-1.791,4-4   c0.001-5.131,0.999-10.014,2.77-14.544L87.045,112v3.999h121.91V112l-3.725,1.456c1.771,4.53,2.769,9.413,2.77,14.544   c0,2.209,1.791,4,4,4C214.209,132,216,130.208,216,128L216,128z"/>
	<circle style="fill:#FFFFFF;" cx="60" cy="120" r="12"/>
	<circle style="fill:#FFFFFF;" cx="52" cy="132" r="12"/>
	<circle style="fill:#FFFFFF;" cx="70" cy="138" r="18"/>
	<circle style="fill:#FFFFFF;" cx="44" cy="116" r="12"/>
	<path style="fill:#54596E;" d="M100,108c0,8.837,7.164,16,16,16s16-7.163,16-16H100z"/>
	<path style="fill:#54596E;" d="M164,108c0,8.837,7.164,16,16,16s16-7.163,16-16H164z"/>
	<path style="fill:#54596E;" d="M184,180h-48c-2.209,0-4,1.79-4,4c0,2.209,1.791,4,4,4h48c2.209,0,4-1.791,4-4   C188,181.79,186.209,180,184,180"/>
</g>















</svg>
