<?xml version="1.0" encoding="iso-8859-1"?>
<!-- Generator: Adobe Illustrator 21.0.0, SVG Export Plug-In . SVG Version: 6.00 Build 0)  -->
<svg xmlns="http://www.w3.org/2000/svg" xmlns:xlink="http://www.w3.org/1999/xlink" version="1.1" id="straight" x="0px" y="0px" viewBox="0 0 300 300" style="enable-background:new 0 0 300 300;" xml:space="preserve" width="512" height="512">
<g>
	<path style="fill:#EEEEF0;" d="M105.563,250.557c-16.783,2.197-27.564,5.611-27.564,9.445c0,6.625,32.236,11.998,71.999,11.998   s72.003-5.373,72.003-11.998c0-3.834-10.781-7.248-27.565-9.445c-13.676,6.053-28.687,9.445-44.438,9.445   C134.249,260.002,119.239,256.61,105.563,250.557"/>
	<path style="fill:#FFF35F;" d="M262,139.855c0-61.857-50.144-107.852-112.002-107.852C88.144,32.003,38,77.998,38,139.855   c0,61.854,50.144,116.147,111.998,116.147C211.856,256.002,262,201.708,262,139.855"/>
	<path style="fill:#54596E;" d="M262,139.855h4c0.012-32.024-13.023-60.09-34.052-80.026C210.925,39.88,181.921,28,149.998,28   c-31.919,0-60.923,11.881-81.949,31.829c-21.03,19.937-34.061,48.002-34.048,80.026c0.004,32.017,12.962,62.004,33.906,84.025   c20.936,22.018,49.973,36.122,82.091,36.122c32.122,0,61.159-14.104,82.095-36.122c20.944-22.021,33.902-52.009,33.906-84.025H262   H258c0.004,29.834-12.112,57.919-31.703,78.51c-19.599,20.596-46.563,33.634-76.299,33.639   c-29.736-0.005-56.696-13.043-76.295-33.639C54.108,197.774,41.996,169.689,42,139.855c0.008-29.838,12.051-55.696,31.557-74.222   c19.514-18.51,46.51-29.631,76.441-29.635c29.935,0.004,56.932,11.125,76.445,29.635c19.505,18.525,31.545,44.384,31.557,74.222   H262"/>
	<path style="fill:#EEE361;" d="M257.065,126.077c-6.869,53.565-52.168,97.926-107.067,97.926   c-54.895,0-100.194-44.36-107.063-97.926c-0.595,4.521-0.932,9.14-0.935,13.867c0.02,29.801,12.127,57.851,31.703,78.421   c19.599,20.596,46.559,33.634,76.295,33.639l0,0l0,0c29.736-0.005,56.7-13.043,76.299-33.639   c19.572-20.57,31.683-48.621,31.703-78.422C257.997,135.215,257.656,130.598,257.065,126.077"/>
	<path style="fill:#54596E;" d="M42,139.944c0,0.02,0,0.038,0,0.058c0,59.646,48.351,112.002,107.998,112.002   c-29.736-0.005-56.696-13.043-76.295-33.639C54.127,197.794,42.019,169.745,42,139.944 M258,139.943   c-0.02,29.801-12.131,57.852-31.703,78.422c-19.599,20.596-46.563,33.634-76.299,33.639c59.647,0,108.002-52.355,108.002-112.002   C258,139.982,258,139.962,258,139.943"/>
	<circle style="fill:#54596E;" cx="121.999" cy="104.001" r="8"/>
	<circle style="fill:#54596E;" cx="185.999" cy="104.001" r="8"/>
	<polygon style="fill:#54596E;" points="201.999,160.001 97.999,160.001 97.999,152.001 150.443,144.001 201.999,152.001  "/>
	<path style="fill:#54596E;" d="M209.999,152.001h-120c-2.209,0-4,1.79-4,4c0,2.209,1.791,4,4,4h120c2.209,0,4-1.791,4-4   C213.999,153.792,212.208,152.001,209.999,152.001"/>
	<path style="fill:#E8CD5B;" d="M169.999,168.001h-40c-2.209,0-4,1.79-4,4c0,2.209,1.791,4,4,4h40c2.209,0,4-1.791,4-4   C173.999,169.792,172.208,168.001,169.999,168.001"/>
</g>















</svg>
