<?xml version="1.0" encoding="iso-8859-1"?>
<!-- Generator: Adobe Illustrator 21.0.0, SVG Export Plug-In . SVG Version: 6.00 Build 0)  -->
<svg xmlns="http://www.w3.org/2000/svg" xmlns:xlink="http://www.w3.org/1999/xlink" version="1.1" id="sunglasses" x="0px" y="0px" viewBox="0 0 300 300" style="enable-background:new 0 0 300 300;" xml:space="preserve" width="512" height="512">
<g>
	<path style="fill:#EEEEF0;" d="M194.43,250.558C180.755,256.61,165.749,260,150.002,260c-15.749,0-30.755-3.39-44.43-9.44   C88.785,252.754,78,256.167,78,260C78,266.626,110.239,272,150.002,272S222,266.626,222,260   C222,256.167,211.215,252.754,194.43,250.558"/>
	<path style="fill:#FFF35F;" d="M262,139.852C262,77.997,211.858,32,150.002,32S38,77.997,38,139.852S88.146,256,150.002,256   S262,201.708,262,139.852"/>
	<path style="fill:#54596E;" d="M262,139.852h4c0.012-32.019-13.021-60.088-34.05-80.022C210.924,39.878,181.922,28,150.002,28   c-31.924,0-60.926,11.879-81.952,31.83C47.021,79.764,33.992,107.833,34,139.852c0.004,32.019,12.962,62.009,33.908,84.026   C88.843,245.896,117.881,260,150.002,260c32.117,0,61.155-14.104,82.094-36.121c20.943-22.018,33.901-52.008,33.905-84.026H262h-4   c0.008,29.837-12.107,57.922-31.699,78.515c-19.6,20.592-46.563,33.633-76.298,33.637c-29.739-0.004-56.698-13.045-76.298-33.637   c-19.592-20.593-31.707-48.678-31.703-78.515c0.012-29.833,12.052-55.693,31.558-74.219C93.072,47.12,120.066,36.004,150.002,36   c29.932,0.004,56.93,11.119,76.44,29.633c19.51,18.525,31.55,44.386,31.558,74.219H262"/>
	<path style="fill:#EEE361;" d="M257.066,126.075C250.199,179.643,204.9,224,150.002,224S49.804,179.643,42.934,126.075   c-0.592,4.521-0.93,9.141-0.933,13.869c0.021,29.802,12.131,57.852,31.703,78.423c19.6,20.592,46.559,33.633,76.298,33.637l0,0l0,0   C179.737,252,206.7,238.958,226.3,218.367c19.572-20.571,31.682-48.619,31.699-78.422   C257.996,135.216,257.658,130.597,257.066,126.075"/>
	<path style="fill:#54596E;" d="M257.999,139.945c-0.017,29.803-12.128,57.851-31.699,78.422   c-19.6,20.592-46.563,33.633-76.298,33.637c59.647,0,107.997-52.355,107.997-112.002   C257.999,139.983,257.999,139.964,257.999,139.945 M42.001,139.944c0,0.019,0,0.038,0,0.058   c0,59.646,48.354,112.002,108.001,112.002c-29.739-0.004-56.698-13.045-76.298-33.637   C54.132,197.795,42.022,169.746,42.001,139.944"/>
	<path style="fill:#54596E;" d="M150.001,196c16.564-0.001,32.097-2.034,45.532-5.619c13.436-3.596,24.78-8.707,33.014-15.115   c1.741-1.359,2.052-3.872,0.693-5.613c-1.359-1.742-3.872-2.053-5.613-0.693c-7.017,5.485-17.48,10.318-30.157,13.693   c-12.678,3.386-27.563,5.35-43.469,5.349c-2.209,0-4,1.79-4,4C146.001,194.21,147.792,196.001,150.001,196L150.001,196z"/>
	<path style="fill:#54596E;" d="M108.118,152.001h-24.23c-9.879,0-17.887-8.008-17.887-17.887v-13.03   c0-16.062,13.021-29.083,29.084-29.083h24.23c9.877,0,17.885,8.008,17.885,17.887v13.03   C137.2,138.98,124.18,152.001,108.118,152.001z"/>
	<path style="fill:#54596E;" d="M108.118,152.001v-4h-24.23c-7.668-0.015-13.873-6.219-13.887-13.887v-13.03   c0.002-6.939,2.801-13.185,7.347-17.736C81.9,98.802,88.145,96.003,95.085,96h24.23c7.666,0.015,13.871,6.219,13.885,13.888v13.03   c-0.002,6.938-2.801,13.184-7.346,17.735c-4.552,4.546-10.797,7.345-17.736,7.348V152.001V156   c18.273-0.002,33.079-14.811,33.082-33.082v-13.03c-0.003-12.09-9.797-21.885-21.885-21.887h-24.23   c-18.273,0.002-33.081,14.811-33.084,33.083v13.03c0.002,12.089,9.797,21.884,21.887,21.886h24.23V152.001z"/>
	<path style="fill:#54596E;" d="M191.085,152.001h25.029c9.879,0,17.887-8.008,17.887-17.887v-13.03   c0-16.062-13.021-29.083-29.084-29.083h-25.029c-9.879,0-17.887,8.008-17.887,17.887v13.03   C162.001,138.98,175.022,152.001,191.085,152.001z"/>
	<path style="fill:#54596E;" d="M191.085,152.001V156h25.029c12.089-0.002,21.884-9.797,21.887-21.886v-13.03   c-0.003-18.272-14.811-33.081-33.084-33.083h-25.029c-12.089,0.002-21.884,9.797-21.887,21.887v13.03   c0.003,18.271,14.811,33.08,33.084,33.082V152.001v-4c-6.939-0.003-13.185-2.802-17.737-7.348   c-4.546-4.552-7.345-10.797-7.347-17.735v-13.03c0.014-7.669,6.218-13.873,13.887-13.888h25.029   c6.939,0.003,13.185,2.802,17.737,7.348c4.546,4.552,7.345,10.797,7.347,17.736v13.03c-0.014,7.668-6.218,13.872-13.887,13.887   h-25.029V152.001z"/>
	<path style="fill:#54596E;" d="M218.001,120.001h40c2.209,0,4-1.791,4-4c0-2.21-1.791-4-4-4h-40c-2.209,0-4,1.79-4,4   C214.001,118.21,215.792,120.001,218.001,120.001"/>
	<path style="fill:#54596E;" d="M42.001,120.001h40c2.209,0,4-1.791,4-4c0-2.21-1.791-4-4-4h-40c-2.209,0-4,1.79-4,4   C38.001,118.21,39.792,120.001,42.001,120.001"/>
	<path style="fill:#54596E;" d="M130.001,104.001h40c2.209,0,4-1.791,4-4c0-2.21-1.791-4-4-4h-40c-2.209,0-4,1.79-4,4   C126.001,102.21,127.792,104.001,130.001,104.001"/>
	<path style="fill:#55A6FF;" d="M87.172,97.172l-16,16c-1.562,1.562-1.562,4.095,0,5.657c1.562,1.562,4.095,1.562,5.657,0l16-16   c1.562-1.562,1.562-4.095,0-5.657C91.267,95.611,88.734,95.611,87.172,97.172"/>
	<path style="fill:#55A6FF;" d="M183.172,97.172l-16,16c-1.562,1.562-1.562,4.095,0,5.657c1.562,1.562,4.095,1.562,5.657,0l16-16   c1.562-1.562,1.562-4.095,0-5.657C187.267,95.611,184.734,95.611,183.172,97.172"/>
</g>















</svg>
