<?xml version="1.0" encoding="iso-8859-1"?>
<!-- Generator: Adobe Illustrator 21.0.0, SVG Export Plug-In . SVG Version: 6.00 Build 0)  -->
<svg xmlns="http://www.w3.org/2000/svg" xmlns:xlink="http://www.w3.org/1999/xlink" version="1.1" id="surgeon" x="0px" y="0px" viewBox="0 0 300 300" style="enable-background:new 0 0 300 300;" xml:space="preserve" width="512" height="512">
<g>
	<path style="fill:#EEEEF0;" d="M105.566,250.557c-16.786,2.197-27.567,5.61-27.567,9.442c0,6.631,32.236,12,72,12s72-5.369,72-12   c0-3.832-10.783-7.245-27.566-9.442C180.756,256.61,165.749,260,149.999,260C134.25,260,119.243,256.61,105.566,250.557"/>
	<path style="fill:#ADF2A2;" d="M262.002,139.853C262.002,77.998,211.855,32,149.999,32c-61.853,0-112,45.997-112,107.853   c0,61.856,50.147,116.146,112,116.146C211.855,256,262.002,201.709,262.002,139.853"/>
	<path style="fill:#54596E;" d="M262.002,139.853h3.997c0.014-32.021-13.02-60.085-34.048-80.023   C210.927,39.877,181.923,27.998,149.999,28C118.078,27.998,89.074,39.877,68.05,59.83c-21.031,19.938-34.062,48.003-34.051,80.023   c0.007,32.017,12.962,62.007,33.907,84.027C88.841,245.897,117.882,260,149.999,260c32.12,0,61.157-14.103,82.096-36.119   c20.945-22.021,33.901-52.011,33.904-84.027H262.002h-4.003c0.007,29.836-12.11,57.921-31.702,78.514   C206.697,238.958,179.738,252,149.999,252c-29.736,0-56.695-13.041-76.298-33.633c-19.592-20.593-31.705-48.678-31.702-78.514   c0.01-29.836,12.051-55.695,31.558-74.223c19.514-18.51,46.51-29.626,76.442-29.63c29.935,0.004,56.931,11.12,76.445,29.63   c19.507,18.527,31.544,44.387,31.555,74.223H262.002"/>
	<path style="fill:#A4E29D;" d="M257.067,126.076C250.197,179.644,204.899,224,149.999,224c-54.897,0-100.195-44.356-107.065-97.925   c-0.59,4.522-0.932,9.141-0.935,13.867c0.02,29.803,12.129,57.852,31.702,78.424C93.304,238.958,120.262,252,149.999,252l0,0l0,0   c29.74,0,56.698-13.041,76.298-33.633c19.572-20.571,31.684-48.621,31.702-78.422C257.996,135.217,257.657,130.599,257.067,126.076   "/>
	<path style="fill:#54596E;" d="M257.998,139.945c-0.018,29.801-12.13,57.851-31.702,78.422   C206.697,238.958,179.738,252,149.999,252c59.647,0,108-52.353,108-111.999C257.998,139.982,257.998,139.963,257.998,139.945    M41.999,139.943c0,0.02,0,0.038,0,0.058c0,59.646,48.356,111.999,108,111.999c-29.736,0-56.695-13.041-76.298-33.633   C54.128,197.794,42.019,169.746,41.999,139.943"/>
	<path style="fill:#54596E;" d="M188,124.001c6.238,0,11.73,3.178,14.961,8c1.916-2.861,3.039-6.298,3.039-10   c0-9.941-8.059-18-18-18s-18,8.059-18,18c0,3.702,1.123,7.139,3.039,10C176.27,127.179,181.762,124.001,188,124.001z"/>
	<path style="fill:#54596E;" d="M112,124.001c6.238,0,11.73,3.178,14.961,8c1.916-2.861,3.039-6.298,3.039-10   c0-9.941-8.059-18-18-18s-18,8.059-18,18c0,3.702,1.123,7.139,3.039,10C100.27,127.179,105.762,124.001,112,124.001z"/>
	<polygon style="fill:#FFFFFF;" points="210,220.001 90,220.001 90,156.001 150,148.001 210,156.001  "/>
	<path style="fill:#54596E;" d="M210,220.001v-4H94v-56.499l56.001-7.467L206,159.502l0,60.499H210v-4V220.001h4v-64   c0-2.004-1.485-3.701-3.471-3.966l-60-8h-1.057l-60,8C87.485,152.3,86,153.998,86,156.001v64c0,1.068,0.416,2.072,1.172,2.828   S88.932,224,90,224h120c1.068,0,2.072-0.415,2.828-1.171s1.172-1.76,1.172-2.828H210z"/>
	<line style="fill:#FFFFFF;" x1="262" y1="144.001" x2="210" y2="156.001"/>
	<path style="fill:#54596E;" d="M261.101,140.103l-52,12c-2.153,0.497-3.495,2.645-2.998,4.798c0.497,2.152,2.644,3.494,4.797,2.998   l52-12c2.153-0.497,3.495-2.645,2.998-4.798C265.401,140.949,263.253,139.607,261.101,140.103"/>
	<line style="fill:#FFFFFF;" x1="38" y1="144.001" x2="90" y2="156.001"/>
	<path style="fill:#54596E;" d="M37.101,147.899l52,12c2.153,0.496,4.3-0.846,4.797-2.998c0.497-2.153-0.846-4.301-2.998-4.798   l-52-12c-2.153-0.496-4.3,0.846-4.797,2.998C33.606,145.254,34.948,147.402,37.101,147.899"/>
	<line style="fill:#FFFFFF;" x1="78" y1="228.068" x2="90" y2="220.001"/>
	<path style="fill:#54596E;" d="M80.232,231.387l12-8.066c1.833-1.232,2.321-3.718,1.088-5.552c-1.232-1.833-3.718-2.32-5.551-1.088   l-12,8.066c-1.833,1.232-2.321,3.718-1.088,5.552C75.913,232.132,78.398,232.62,80.232,231.387"/>
	<line style="fill:#FFFFFF;" x1="222" y1="228.068" x2="210" y2="220.001"/>
	<path style="fill:#54596E;" d="M224.232,224.748l-12-8.066c-1.833-1.232-4.319-0.745-5.551,1.088   c-1.232,1.834-0.745,4.319,1.088,5.552l12,8.066c1.833,1.232,4.319,0.745,5.551-1.088   C226.552,228.465,226.065,225.98,224.232,224.748"/>
</g>















</svg>
