<?xml version="1.0" encoding="iso-8859-1"?>
<!-- Generator: Adobe Illustrator 21.0.0, SVG Export Plug-In . SVG Version: 6.00 Build 0)  -->
<svg xmlns="http://www.w3.org/2000/svg" xmlns:xlink="http://www.w3.org/1999/xlink" version="1.1" id="tongue" x="0px" y="0px" viewBox="0 0 300 300" style="enable-background:new 0 0 300 300;" xml:space="preserve" width="512" height="512">
<g>
	<path style="fill:#EEEEF0;" d="M194.43,250.558C180.755,256.61,165.749,260,150.002,260c-15.749,0-30.755-3.39-44.43-9.44   C88.785,252.754,78,256.167,78,260C78,266.626,110.239,272,150.002,272S222,266.626,222,260   C222,256.167,211.215,252.754,194.43,250.558"/>
	<path style="fill:#FFF35F;" d="M262,139.852C262,77.997,211.858,32,150.002,32C88.146,32,38,77.997,38,139.852   S88.146,256,150.002,256C211.858,256,262,201.708,262,139.852"/>
	<path style="fill:#54596E;" d="M262,139.852h4c0.012-32.019-13.021-60.088-34.05-80.022C210.924,39.878,181.922,28,150.002,28   c-31.924,0-60.926,11.879-81.952,31.83C47.021,79.764,33.988,107.833,34,139.852c0.004,32.019,12.962,62.009,33.908,84.026   C88.843,245.896,117.881,260,150.002,260c32.117,0,61.155-14.104,82.094-36.121c20.943-22.018,33.901-52.008,33.904-84.026H262h-4   c0.008,29.837-12.107,57.922-31.699,78.515c-19.6,20.592-46.563,33.633-76.298,33.637c-29.739-0.004-56.698-13.045-76.298-33.637   c-19.592-20.593-31.707-48.678-31.703-78.515c0.012-29.833,12.052-55.693,31.558-74.219C93.068,47.12,120.066,36.004,150.002,36   c29.932,0.004,56.93,11.119,76.44,29.633c19.51,18.525,31.55,44.386,31.558,74.219H262"/>
	<path style="fill:#EEE361;" d="M257.066,126.075C250.199,179.643,204.9,224,150.002,224c-54.898,0-100.197-44.357-107.068-97.926   c-0.592,4.521-0.93,9.141-0.933,13.869c0.021,29.802,12.131,57.852,31.703,78.423c19.6,20.592,46.559,33.633,76.298,33.637l0,0l0,0   C179.737,252,206.7,238.958,226.3,218.367c19.572-20.571,31.682-48.619,31.699-78.422   C257.996,135.216,257.658,130.597,257.066,126.075"/>
	<path style="fill:#54596E;" d="M257.999,139.945c-0.017,29.803-12.127,57.851-31.699,78.422   c-19.6,20.592-46.563,33.633-76.298,33.637c59.647,0,107.997-52.355,107.997-112.002   C257.999,139.983,257.999,139.964,257.999,139.945 M42.001,139.944c0,0.019,0,0.038,0,0.058   c0,59.646,48.354,112.002,108.001,112.002c-29.739-0.004-56.698-13.045-76.298-33.637   C54.132,197.795,42.022,169.746,42.001,139.944"/>
	<path style="fill:#54596E;" d="M206,124.001c-0.003-8.839-7.162-15.998-16-16c-8.838,0.002-15.997,7.161-16,16c0,2.209,1.791,4,4,4   c2.209,0,4-1.791,4-4c0.008-4.416,3.584-7.992,8-8.001c4.416,0.009,7.992,3.585,8,8.001c0,2.209,1.791,4,4,4   C204.21,128.001,206,126.21,206,124.001L206,124.001z"/>
	<path style="fill:#54596E;" d="M126,124.001c-0.003-8.839-7.162-15.998-16-16c-8.838,0.002-15.997,7.161-16,16c0,2.209,1.791,4,4,4   c2.209,0,4-1.791,4-4c0.008-4.416,3.584-7.992,8-8.001c4.416,0.009,7.992,3.585,8,8.001c0,2.209,1.791,4,4,4   C124.21,128.001,126,126.21,126,124.001L126,124.001z"/>
	<ellipse style="fill:#F9BBED;" cx="98" cy="140.001" rx="20" ry="8"/>
	<ellipse style="fill:#F9BBED;" cx="202" cy="140.001" rx="20" ry="8"/>
	<path style="fill:#FF7D7D;" d="M214,164.001v44c0,11.046-8.955,20-20,20s-20-8.954-20-20v-36"/>
	<path style="fill:#54596E;" d="M210,164.001v44c-0.002,4.431-1.785,8.405-4.687,11.313c-2.908,2.901-6.883,4.684-11.313,4.687   c-4.431-0.003-8.405-1.785-11.313-4.687c-2.902-2.908-4.685-6.883-4.687-11.313v-36h-8l0,36c0.003,13.256,10.744,23.997,24,23.999   c13.256-0.002,23.997-10.743,24-23.999v-44H210L210,164.001z"/>
	<path style="fill:#54596E;" d="M72.048,159.723c8.282,6.268,19.577,11.271,32.901,14.786C118.274,178.015,133.633,180,150,180   c16.564-0.001,32.097-2.034,45.532-5.619c13.436-3.596,24.78-8.707,33.014-15.115c1.741-1.359,2.052-3.872,0.693-5.613   c-1.359-1.742-3.872-2.053-5.613-0.693c-7.017,5.485-17.48,10.318-30.157,13.693c-12.678,3.386-27.563,5.35-43.469,5.349   c-15.717,0.001-30.436-1.917-43.015-5.229c-12.578-3.302-23.009-8.031-30.104-13.424c-1.76-1.335-4.27-0.99-5.604,0.771   C69.943,155.879,70.288,158.389,72.048,159.723L72.048,159.723z"/>
	<polyline style="fill:#54596E;" points="198,200.001 198,172.001 190,172.001 190,200.001  "/>
</g>















</svg>
