<?xml version="1.0" encoding="iso-8859-1"?>
<!-- Generator: Adobe Illustrator 21.0.0, SVG Export Plug-In . SVG Version: 6.00 Build 0)  -->
<svg xmlns="http://www.w3.org/2000/svg" xmlns:xlink="http://www.w3.org/1999/xlink" version="1.1" id="topview" x="0px" y="0px" viewBox="0 0 300 300" style="enable-background:new 0 0 300 300;" xml:space="preserve" width="512" height="512">
<g>
	<path style="fill:#EEEEF0;" d="M194.43,250.559c-13.675,6.052-28.683,9.442-44.431,9.442c-15.747,0-30.755-3.391-44.43-9.442   c-16.786,2.197-27.569,5.609-27.569,9.442c0,6.628,32.236,11.999,71.999,11.999c39.763,0,72.003-5.371,72.003-11.999   C222.001,256.168,211.217,252.756,194.43,250.559"/>
	<path style="fill:#FFF35F;" d="M261.998,139.852c0-61.855-50.144-107.851-112-107.851s-112,45.995-112,107.851   c0,61.856,50.144,116.149,112,116.149S261.998,201.708,261.998,139.852"/>
	<path style="fill:#54596E;" d="M261.998,139.852h4.001c0.01-32.019-13.02-60.086-34.052-80.023   C210.925,39.877,181.922,27.997,149.998,28c-31.92-0.003-60.923,11.877-81.948,31.828c-21.028,19.938-34.062,48.005-34.049,80.023   c0.003,32.019,12.961,62.008,33.904,84.028c20.936,22.017,49.976,36.121,82.094,36.121c32.121,0,61.157-14.104,82.093-36.121   c20.946-22.021,33.904-52.01,33.907-84.028H261.998h-3.997c0.003,29.838-12.111,57.922-31.702,78.515   C206.697,238.96,179.737,252,149.998,252c-29.735,0-56.695-13.04-76.297-33.634c-19.592-20.593-31.709-48.677-31.702-78.515   c0.01-29.834,12.052-55.693,31.557-74.221c19.513-18.511,46.509-29.629,76.442-29.633c29.936,0.004,56.933,11.122,76.445,29.633   c19.506,18.527,31.544,44.387,31.557,74.221H261.998"/>
	<path style="fill:#EEE361;" d="M257.065,126.077c-6.868,53.564-52.167,97.925-107.067,97.925   c-54.896,0-100.195-44.36-107.067-97.925c-0.591,4.52-0.93,9.138-0.932,13.867c0.019,29.803,12.131,57.85,31.702,78.422   c19.448,20.433,46.14,33.43,75.6,33.632c0.233,0.001,0.464,0.002,0.697,0.002c0.233,0,0.465-0.001,0.697-0.002   c0.111-0.001,0.223-0.002,0.333-0.003c0.007,0,0.006,0,0.014-0.001c29.325-0.301,55.884-13.275,75.256-33.628   c19.572-20.573,31.682-48.621,31.702-78.426C257.998,135.213,257.656,130.596,257.065,126.077"/>
	<path style="fill:#54596E;" d="M151.029,251.995c-0.11,0.001-0.223,0.002-0.333,0.003   C150.805,251.997,150.92,251.996,151.029,251.995 M41.999,139.944c0,0.019,0,0.037,0,0.056   c0,59.415,47.979,111.591,107.302,111.998c-29.459-0.202-56.151-13.199-75.6-33.632C54.13,197.794,42.018,169.747,41.999,139.944    M258.001,139.94c-0.02,29.805-12.13,57.853-31.702,78.426c-19.372,20.353-45.931,33.327-75.256,33.628   c59.166-0.607,106.958-52.695,106.958-111.994C258.001,139.98,258.001,139.96,258.001,139.94"/>
	<path style="fill:#54596E;" d="M94.982,207.162c11.188,12.777,30.727,20.807,52.878,20.838   c22.416-0.033,42.162-8.254,53.278-21.304c1.427-1.687,1.217-4.21-0.469-5.638c-1.686-1.427-4.21-1.217-5.637,0.47   c-9.022,10.738-26.72,18.506-47.172,18.473c-20.208,0.031-37.731-7.549-46.844-18.092c-1.451-1.667-3.978-1.842-5.644-0.391   C93.706,202.97,93.532,205.496,94.982,207.162L94.982,207.162z"/>
	<ellipse style="fill:#F9BBED;" cx="81.999" cy="180.001" rx="20" ry="8"/>
	<ellipse style="fill:#F9BBED;" cx="217.999" cy="180.001" rx="20" ry="8"/>
	<circle style="fill:#54596E;" cx="185.999" cy="152.001" r="8"/>
	<circle style="fill:#54596E;" cx="113.999" cy="152.001" r="8"/>
</g>















</svg>
