<?xml version="1.0" encoding="iso-8859-1"?>
<!-- Generator: Adobe Illustrator 21.0.0, SVG Export Plug-In . SVG Version: 6.00 Build 0)  -->
<svg xmlns="http://www.w3.org/2000/svg" xmlns:xlink="http://www.w3.org/1999/xlink" version="1.1" id="twinkle" x="0px" y="0px" viewBox="0 0 300 300" style="enable-background:new 0 0 300 300;" xml:space="preserve" width="512" height="512">
<g>
	<path style="fill:#EEEEF0;" d="M194.432,250.558c-13.675,6.051-28.684,9.443-44.432,9.443s-30.757-3.393-44.432-9.443   c-16.786,2.196-27.567,5.61-27.567,9.443c0,6.628,32.233,12,71.999,12c39.766,0,71.999-5.372,71.999-12   C221.999,256.168,211.218,252.754,194.432,250.558"/>
	<path style="fill:#FFF35F;" d="M262,139.853c0-61.856-50.144-107.854-112-107.854c-61.853,0-112.001,45.997-112.001,107.854   c0,61.857,50.147,116.148,112.001,116.148C211.857,256.001,262,201.71,262,139.853"/>
	<path style="fill:#54596E;" d="M262,139.853h4c0.011-32.023-13.02-60.087-34.051-80.025C210.926,39.878,181.924,27.996,150,27.999   c-31.92-0.003-60.926,11.879-81.95,31.828c-21.028,19.938-34.062,48.002-34.051,80.025c0.007,32.016,12.965,62.008,33.907,84.025   c20.935,22.018,49.974,36.123,82.093,36.123c32.119,0,61.158-14.105,82.093-36.123c20.947-22.018,33.9-52.01,33.907-84.025H262h-4   c0.004,29.838-12.111,57.92-31.703,78.513C206.698,238.959,179.738,252,150,252c-29.734,0-56.698-13.041-76.297-33.635   C54.11,197.772,41.996,169.69,42,139.853c0.011-29.837,12.052-55.696,31.56-74.222C93.071,47.12,120.067,36.003,150,36   c29.933,0.003,56.929,11.12,76.444,29.631c19.504,18.525,31.545,44.385,31.556,74.222H262"/>
	<path style="fill:#EEE361;" d="M257.066,126.075c-6.867,53.565-52.168,97.924-107.066,97.924   c-54.898,0-100.199-44.358-107.066-97.924c-0.59,4.522-0.932,9.141-0.935,13.868c0.021,29.803,12.131,57.85,31.703,78.422   c19.37,20.352,45.931,33.328,75.253,33.63c0.04,0,0.077,0.001,0.117,0.001c0.078,0.001,0.152,0.001,0.23,0.002   c0.047,0,0.09,0,0.137,0.001C149.626,252,149.813,252,150,252l0,0l0,0c0.181,0,0.364,0,0.546-0.001   c0.051,0,0.101-0.001,0.152-0.001c0.054,0,0.109-0.001,0.163-0.001c0.062-0.001,0.123-0.001,0.185-0.002   c29.324-0.302,55.882-13.278,75.252-33.63c19.573-20.573,31.683-48.619,31.703-78.424   C257.997,135.215,257.659,130.597,257.066,126.075"/>
	<path style="fill:#54596E;" d="M150.546,251.999C150.364,252,150.181,252,150,252C150.182,252,150.364,252,150.546,251.999    M149.439,251.999C149.625,252,149.814,252,150,252C149.813,252,149.626,252,149.439,251.999 M150.861,251.997   c-0.054,0-0.109,0.001-0.163,0.001C150.752,251.998,150.806,251.997,150.861,251.997 M149.072,251.996   c0.076,0.001,0.154,0.001,0.23,0.002C149.225,251.997,149.15,251.997,149.072,251.996 M42,139.943c0,0.019,0,0.038,0,0.057   c0,59.296,47.789,111.387,106.956,111.995c-29.321-0.302-55.883-13.278-75.253-33.63C54.131,197.793,42.021,169.746,42,139.943    M258,139.941c-0.02,29.805-12.13,57.851-31.703,78.424c-19.37,20.352-45.927,33.328-75.252,33.63   C210.212,251.387,258,199.296,258,140C258,139.98,258,139.961,258,139.941"/>
	<path style="fill:#54596E;" d="M126,124c-0.002-8.838-7.16-15.998-16-16c-8.84,0.002-15.998,7.162-16,16h4v-4H86   c-2.209,0-4,1.79-4,4c0,2.209,1.791,4,4,4l16-0.001V124c0.008-4.417,3.582-7.992,8-8.001c4.418,0.009,7.992,3.584,8,8.001   c0,2.209,1.791,4,4,4C124.209,128,126,126.209,126,124L126,124z"/>
	<path style="fill:#54596E;" d="M72.048,159.722c8.281,6.268,19.575,11.271,32.9,14.786c13.324,3.506,28.684,5.49,45.052,5.491   c16.565-0.001,32.098-2.034,45.533-5.619c13.436-3.596,24.779-8.707,33.013-15.115c1.741-1.359,2.052-3.872,0.693-5.613   c-1.359-1.742-3.872-2.053-5.613-0.693c-7.017,5.485-17.479,10.318-30.156,13.693c-12.677,3.386-27.563,5.35-43.47,5.349   c-15.718,0.001-30.438-1.917-43.016-5.229c-12.578-3.302-23.009-8.031-30.102-13.424c-1.76-1.335-4.27-0.99-5.604,0.771   C69.943,155.878,70.288,158.388,72.048,159.722L72.048,159.722z"/>
	<ellipse style="fill:#F9BBED;" cx="98" cy="140" rx="20" ry="8"/>
	<ellipse style="fill:#F9BBED;" cx="202" cy="140" rx="20" ry="8"/>
	<path style="fill:#54596E;" d="M210,120h-32c-2.209,0-4,1.79-4,4c0,2.209,1.791,4,4,4h32c2.209,0,4-1.791,4-4   C214,121.79,212.209,120,210,120"/>
</g>















</svg>
