<?xml version="1.0" encoding="iso-8859-1"?>
<!-- Generator: Adobe Illustrator 21.0.0, SVG Export Plug-In . SVG Version: 6.00 Build 0)  -->
<svg xmlns="http://www.w3.org/2000/svg" xmlns:xlink="http://www.w3.org/1999/xlink" version="1.1" id="underview" x="0px" y="0px" viewBox="0 0 300 300" style="enable-background:new 0 0 300 300;" xml:space="preserve" width="512" height="512">
<g>
	<path style="fill:#EEEEF0;" d="M194.432,250.559c-13.675,6.052-28.683,9.442-44.43,9.442c-15.749,0-30.758-3.391-44.433-9.442   c-16.787,2.197-27.57,5.609-27.57,9.442c0,6.628,32.236,11.999,72.003,11.999c39.763,0,71.999-5.371,71.999-11.999   C222.001,256.168,211.218,252.756,194.432,250.559"/>
	<path style="fill:#FFF35F;" d="M262.001,139.852c0-61.855-50.147-107.851-112-107.851c-61.856,0-112,45.995-112,107.851   c0,61.856,50.144,116.149,112,116.149C211.854,256.001,262.001,201.708,262.001,139.852"/>
	<path style="fill:#54596E;" d="M262.001,139.852h3.997c0.013-32.019-13.02-60.086-34.049-80.023   C210.925,39.877,181.922,27.997,150.002,28c-31.923-0.003-60.927,11.877-81.952,31.828c-21.028,19.938-34.059,48.005-34.049,80.023   c0.003,32.019,12.961,62.008,33.904,84.028c20.936,22.017,49.976,36.121,82.097,36.121c32.118,0,61.157-14.104,82.093-36.121   c20.943-22.021,33.9-52.01,33.904-84.028H262.001h-4.001c0.003,29.838-12.111,57.922-31.702,78.515   C206.697,238.96,179.737,252,150.002,252c-29.738,0-56.699-13.04-76.3-33.634c-19.592-20.593-31.706-48.677-31.702-78.515   c0.01-29.834,12.052-55.693,31.557-74.221c19.512-18.511,46.509-29.629,76.445-29.633c29.933,0.004,56.929,11.122,76.442,29.633   c19.506,18.527,31.548,44.387,31.557,74.221H262.001"/>
	<path style="fill:#EEE361;" d="M257.068,126.077c-6.871,53.564-52.171,97.925-107.067,97.925   c-54.899,0-100.199-44.36-107.067-97.925c-0.594,4.519-0.933,9.136-0.936,13.864c0.02,29.805,12.13,57.852,31.702,78.425   c19.372,20.353,45.931,33.327,75.256,33.628c0.004,0.001,0.002,0.001,0.005,0.001c0.114,0.001,0.228,0.002,0.342,0.003   c0.233,0.001,0.464,0.002,0.697,0.002s0.464-0.001,0.697-0.002c29.459-0.202,56.151-13.199,75.6-33.632   c19.572-20.573,31.682-48.621,31.702-78.426C257.998,135.213,257.659,130.596,257.068,126.077"/>
	<path style="fill:#54596E;" d="M148.963,251.995c0.113,0.001,0.229,0.002,0.342,0.003   C149.19,251.997,149.077,251.996,148.963,251.995 M41.999,139.941c0,0.02,0,0.039,0,0.059c0,59.299,47.792,111.387,106.958,111.994   c-29.325-0.301-55.884-13.275-75.256-33.628C54.129,197.793,42.02,169.746,41.999,139.941 M258.001,139.94   c-0.02,29.805-12.13,57.853-31.702,78.426c-19.448,20.433-46.14,33.43-75.6,33.632c59.323-0.407,107.302-52.583,107.302-111.998   C258.001,139.98,258.001,139.96,258.001,139.94"/>
	<path style="fill:#54596E;" d="M94.983,115.162c11.188,12.777,30.727,20.807,52.878,20.838   c22.416-0.033,42.162-8.254,53.278-21.304c1.427-1.687,1.217-4.21-0.469-5.638c-1.686-1.427-4.21-1.217-5.637,0.47   c-9.022,10.738-26.72,18.506-47.172,18.473c-20.208,0.031-37.731-7.549-46.844-18.092c-1.451-1.667-3.978-1.842-5.644-0.391   C93.707,110.97,93.532,113.496,94.983,115.162L94.983,115.162z"/>
	<ellipse style="fill:#F9BBED;" cx="82" cy="88.001" rx="20" ry="8"/>
	<ellipse style="fill:#F9BBED;" cx="218" cy="88.001" rx="20" ry="8"/>
	<circle style="fill:#54596E;" cx="186" cy="60.001" r="8"/>
	<circle style="fill:#54596E;" cx="114" cy="60.001" r="8"/>
</g>















</svg>
