<?xml version="1.0" encoding="iso-8859-1"?>
<!-- Generator: Adobe Illustrator 21.0.0, SVG Export Plug-In . SVG Version: 6.00 Build 0)  -->
<svg xmlns="http://www.w3.org/2000/svg" xmlns:xlink="http://www.w3.org/1999/xlink" version="1.1" id="unicorn" x="0px" y="0px" viewBox="0 0 300 300" style="enable-background:new 0 0 300 300;" xml:space="preserve" width="512" height="512">
<g>
	<path style="fill:#EEEEF0;" d="M194.431,256.14c-13.675,6.051-28.682,9.441-44.429,9.441c-15.748,0-30.757-3.391-44.432-9.441   C88.783,258.337,78,261.75,78,265.582c0,6.629,32.236,12.002,72.002,12.002c39.762,0,71.999-5.373,71.999-12.002   C222,261.75,211.217,258.337,194.431,256.14"/>
	<path style="fill:#FFF35F;" d="M262,145.434c0-61.854-50.144-107.851-111.998-107.851C88.144,37.583,38,83.58,38,145.434   c0,61.857,50.144,116.148,112.001,116.148C211.856,261.583,262,207.292,262,145.434"/>
	<path style="fill:#54596E;" d="M262,145.434h4c0.01-32.021-13.02-60.086-34.049-80.025c-21.026-19.949-50.027-31.828-81.948-31.825   c-31.924-0.003-60.926,11.876-81.951,31.825c-21.029,19.939-34.06,48.005-34.049,80.025c0.003,32.018,12.962,62.009,33.906,84.028   c20.937,22.017,49.975,36.119,82.095,36.119c32.116,0,61.155-14.103,82.092-36.119c20.944-22.02,33.902-52.011,33.905-84.028H262   h-4c0.007,29.838-12.108,57.924-31.702,78.514c-19.6,20.591-46.562,33.635-76.297,33.635c-29.738,0-56.7-13.044-76.3-33.635   C54.108,203.358,41.993,175.272,42,145.434c0.01-29.837,12.05-55.695,31.558-74.22c19.511-18.51,46.507-29.631,76.444-29.631   c29.933,0,56.929,11.121,76.44,29.631c19.508,18.524,31.548,44.383,31.558,74.22H262"/>
	<path style="fill:#EEE361;" d="M257.068,131.657c-6.868,53.567-52.169,97.926-107.066,97.926   c-54.9,0-100.201-44.358-107.069-97.926c-0.591,4.523-0.929,9.143-0.932,13.87c0.018,29.803,12.129,57.852,31.702,78.421   c19.447,20.431,46.14,33.431,75.603,33.633c0.04,0,0.082,0,0.122,0c0.192,0.002,0.383,0.002,0.575,0.002l0,0l0,0   c0.194,0,0.388,0,0.582-0.002c0.04,0,0.075,0,0.115,0c29.459-0.202,56.152-13.202,75.599-33.633   c19.573-20.569,31.683-48.619,31.701-78.422C257.997,140.798,257.658,136.18,257.068,131.657"/>
	<path style="fill:#54596E;" d="M149.427,257.581c0.193,0.002,0.382,0.002,0.575,0.002   C149.809,257.583,149.619,257.583,149.427,257.581 M150.584,257.581c-0.194,0.002-0.388,0.002-0.582,0.002   C150.195,257.583,150.391,257.583,150.584,257.581 M42,145.527c0,0.019,0,0.036,0,0.055c0,59.414,47.975,111.592,107.304,111.999   c-29.462-0.202-56.156-13.202-75.603-33.633C54.129,203.378,42.019,175.33,42,145.527 M258,145.526   c-0.018,29.803-12.128,57.853-31.701,78.422c-19.447,20.431-46.141,33.431-75.599,33.633C210.025,257.173,258,204.996,258,145.582   C258,145.563,258,145.544,258,145.526"/>
	<path style="fill:#54596E;" d="M118,185.583c0,17.673,14.328,32,32,32s32-14.327,32-32H118z"/>
	<path style="fill:#54596E;" d="M118,185.583h-4c0.003,19.883,16.117,35.997,36,35.999c19.883-0.002,35.997-16.116,36-35.999   c0-1.054-0.427-2.084-1.171-2.829c-0.745-0.744-1.775-1.171-2.828-1.171h-64c-1.053,0-2.084,0.426-2.829,1.171   S114,184.529,114,185.583H118v4h64v-4h-4c-0.002,7.744-3.128,14.719-8.202,19.799c-5.08,5.073-12.054,8.198-19.798,8.201   c-7.744-0.003-14.719-3.128-19.799-8.201c-5.073-5.08-8.199-12.055-8.202-19.799H118v4V185.583z"/>
	<path style="fill:#FFFFFF;" d="M126,197.583h48c2.209,0,4-1.791,4-4c0-2.21-1.791-4-4-4h-48c-2.209,0-4,1.79-4,4   C122,195.792,123.791,197.583,126,197.583"/>
	<circle style="fill:#54596E;" cx="210" cy="145.583" r="20"/>
	<circle style="fill:#FFFFFF;" cx="202" cy="151.583" r="6"/>
	<circle style="fill:#FFFFFF;" cx="220" cy="135.583" r="10"/>
	<circle style="fill:#54596E;" cx="90" cy="145.583" r="20"/>
	<circle style="fill:#FFFFFF;" cx="82" cy="151.583" r="6"/>
	<circle style="fill:#FFFFFF;" cx="100" cy="135.583" r="10"/>
	<path style="fill:#FFFFFF;" d="M156.426,83.725c-7.809-7.811-77.043-64.38-84.852-56.569c-7.812,7.811,48.758,77.043,56.566,84.854   c7.812,7.811,20.477,7.811,28.285,0C164.239,104.199,164.239,91.535,156.426,83.725z"/>
	<path style="fill:#54596E;" d="M156.426,83.725l2.829-2.828c-1.074-1.071-2.842-2.658-5.281-4.763   c-8.497-7.323-24.807-20.537-40.671-32.011c-7.934-5.736-15.742-11.03-22.471-14.955c-3.37-1.964-6.465-3.587-9.249-4.764   c-2.808-1.161-5.217-1.956-7.773-1.988c-0.807,0.001-1.652,0.091-2.534,0.376c-0.876,0.281-1.796,0.791-2.539,1.544l0.011-0.011   c-0.746,0.74-1.253,1.654-1.534,2.528c-0.285,0.88-0.377,1.727-0.378,2.536c0.006,1.472,0.296,2.865,0.731,4.337   c1.656,5.428,5.581,12.318,10.708,20.264c7.686,11.848,18.077,25.668,27.222,37.224c4.572,5.776,8.829,10.979,12.278,15.077   c3.467,4.113,6.05,7.05,7.538,8.545c4.678,4.68,10.844,7.034,16.973,7.029c6.129,0.005,12.294-2.351,16.969-7.028   c4.679-4.677,7.035-10.844,7.031-16.972c0.005-6.13-2.351-12.297-7.032-16.971L156.426,83.725l-2.827,2.829   c3.131,3.131,4.682,7.202,4.687,11.312c-0.005,4.107-1.555,8.179-4.688,11.314c-3.134,3.131-7.205,4.682-11.312,4.687   c-4.109-0.005-8.181-1.555-11.316-4.687c-0.756-0.753-2.33-2.492-4.358-4.849c-7.143-8.286-20.302-24.53-31.586-40.136   c-5.642-7.801-10.822-15.457-14.527-21.813c-1.851-3.173-3.332-6.025-4.305-8.332c-0.99-2.282-1.391-4.105-1.358-4.66l0.007-0.141   l-0.776-0.108l0.706,0.315l0.07-0.207l-0.776-0.108l0.706,0.315l-1.621-0.724l1.25,1.252l0.371-0.528l-1.621-0.724l1.25,1.252   l0.011-0.011L73.231,28.8l0.521,1.6l0.661-0.426L73.231,28.8l0.521,1.6l-0.155-0.477l0.069,0.5l0.086-0.023l-0.155-0.477l0.069,0.5   l0.144-0.008c0.305-0.006,1.056,0.095,2.045,0.396c3.801,1.104,10.596,4.796,18.203,9.755   c11.481,7.444,25.188,17.739,36.612,26.784c5.714,4.522,10.863,8.735,14.889,12.125c4.009,3.372,6.965,5.996,8.039,7.076   L156.426,83.725z"/>
	<path style="fill:#54596E;" d="M123.142,109.685c0.5,0.027,1.069,0.042,1.708,0.042c3.798-0.021,10.238-0.526,16.281-3.765   c3.006-1.625,5.914-4.011,8.027-7.381c2.121-3.364,3.365-7.643,3.356-12.697c0-3.037-0.433-6.364-1.348-10.026   c-0.536-2.144-2.708-3.446-4.851-2.91c-2.143,0.536-3.446,2.708-2.91,4.852c0.782,3.13,1.109,5.812,1.109,8.085   c-0.009,3.798-0.875,6.427-2.132,8.443c-1.875,2.997-4.911,4.86-8.32,5.992c-3.377,1.124-6.98,1.413-9.211,1.408   c-0.511,0-0.947-0.013-1.273-0.03c-2.206-0.12-4.092,1.57-4.211,3.776C119.246,107.68,120.937,109.566,123.142,109.685   L123.142,109.685z"/>
	<path style="fill:#54596E;" d="M112.671,95.259c0.283-0.044,5.874-0.563,11.863-3.681c2.986-1.568,6.106-3.831,8.526-7.153   c2.425-3.309,4.03-7.698,4.014-12.907c0-2.415-0.329-5.003-1.021-7.772c-0.536-2.144-2.708-3.446-4.851-2.91   c-2.143,0.536-3.446,2.708-2.91,4.852c0.552,2.21,0.782,4.144,0.782,5.831c-0.017,3.641-1.011,6.147-2.485,8.203   c-2.197,3.062-5.843,5.072-9.067,6.202c-1.6,0.567-3.063,0.92-4.099,1.124c-0.518,0.102-0.929,0.167-1.198,0.206l-0.291,0.038   l-0.057,0.007l0.07,0.643l-0.063-0.644l-0.007,0.001l0.07,0.643l-0.063-0.644c-2.199,0.217-3.805,2.176-3.587,4.375   C108.514,93.872,110.473,95.477,112.671,95.259L112.671,95.259z"/>
	<path style="fill:#54596E;" d="M99.557,80.826c0.304-0.03,5.419-0.181,10.982-2.878c2.771-1.358,5.691-3.414,7.934-6.539   c2.25-3.114,3.694-7.273,3.678-12.246c0-2.514-0.35-5.238-1.09-8.198c-0.536-2.144-2.708-3.446-4.851-2.91   c-2.143,0.536-3.446,2.708-2.91,4.852c0.604,2.414,0.851,4.488,0.851,6.257c-0.016,3.507-0.916,5.796-2.18,7.585   c-1.881,2.658-4.994,4.278-7.815,5.142c-1.395,0.432-2.678,0.674-3.582,0.802c-0.452,0.064-0.81,0.101-1.041,0.12l-0.246,0.018   l-0.044,0.003l0.059,1.212l-0.046-1.213l-0.013,0.001l0.059,1.212l-0.046-1.213c-2.208,0.083-3.931,1.939-3.848,4.148   C95.491,79.187,97.349,80.91,99.557,80.826L99.557,80.826z"/>
	<path style="fill:#54596E;" d="M89.49,66.653c0.298-0.052,4.361-0.497,8.797-3.01c2.209-1.264,4.537-3.093,6.333-5.749   c1.802-2.645,2.973-6.113,2.959-10.153c0-2.014-0.276-4.167-0.853-6.467c-0.538-2.144-2.711-3.444-4.853-2.906   c-2.143,0.537-3.444,2.71-2.906,4.854c0.437,1.74,0.612,3.237,0.612,4.52c-0.013,2.574-0.662,4.279-1.589,5.677   c-1.379,2.072-3.703,3.481-5.815,4.297c-1.044,0.408-2.005,0.667-2.677,0.815l-0.765,0.149l-0.171,0.026l-0.006,0.001   c-2.195,0.257-3.765,2.245-3.507,4.44C85.308,65.341,87.296,66.911,89.49,66.653L89.49,66.653z"/>
</g>















</svg>
