<?xml version="1.0" encoding="iso-8859-1"?>
<!-- Generator: Adobe Illustrator 21.0.0, SVG Export Plug-In . SVG Version: 6.00 Build 0)  -->
<svg xmlns="http://www.w3.org/2000/svg" xmlns:xlink="http://www.w3.org/1999/xlink" version="1.1" id="wondering" x="0px" y="0px" viewBox="0 0 300 300" style="enable-background:new 0 0 300 300;" xml:space="preserve" width="512" height="512">
<g>
	<path style="fill:#EEEEF0;" d="M194.429,250.558C180.755,256.61,165.747,260,150,260c-15.749,0-30.757-3.391-44.432-9.442   c-16.787,2.197-27.569,5.61-27.569,9.442c0,6.627,32.236,12,72.001,12c39.761,0,71.997-5.373,71.997-12   C221.997,256.168,211.215,252.755,194.429,250.558"/>
	<path style="fill:#FFF35F;" d="M261.998,139.853c0-61.855-50.142-107.851-111.998-107.851S37.998,77.998,37.998,139.853   c0,61.856,50.146,116.149,112.002,116.149S261.998,201.709,261.998,139.853"/>
	<path style="fill:#54596E;" d="M261.998,139.853h4.002c0.008-32.022-13.024-60.089-34.053-80.024   C210.923,39.877,181.92,27.996,150,28c-31.924-0.004-60.927,11.878-81.952,31.829c-21.029,19.936-34.06,48.002-34.049,80.024   c0.004,32.02,12.963,62.009,33.904,84.027C88.841,245.895,117.878,260,150,260c32.118,0,61.155-14.105,82.093-36.12   c20.945-22.019,33.9-52.008,33.908-84.027H261.998H258c0.004,29.837-12.11,57.923-31.703,78.513   C206.696,238.957,179.734,252,150,252c-29.738,0-56.7-13.043-76.3-33.634C54.11,197.776,41.993,169.69,42,139.853   c0.008-29.837,12.049-55.698,31.554-74.221C93.068,47.121,120.064,36,150,36c29.932,0,56.928,11.12,76.441,29.632   c19.505,18.522,31.547,44.384,31.558,74.221H261.998"/>
	<path style="fill:#EEE361;" d="M257.067,126.076c-6.87,53.565-52.168,97.927-107.067,97.927S49.803,179.641,42.933,126.076   c-0.592,4.521-0.93,9.142-0.933,13.872c0.017,29.802,12.13,57.849,31.699,78.418C93.3,238.957,120.262,252,150,252l0,0l0,0   c29.734,0,56.696-13.043,76.297-33.634c19.574-20.57,31.683-48.618,31.703-78.423C257.997,135.214,257.658,130.596,257.067,126.076   "/>
	<path style="fill:#54596E;" d="M42.001,139.948c0,0.018,0,0.036,0,0.054C42,199.645,90.353,252,150,252   c-29.738,0-56.7-13.043-76.3-33.634C54.131,197.796,42.018,169.75,42.001,139.948 M257.999,139.943   c-0.02,29.805-12.129,57.853-31.703,78.423C206.696,238.957,179.734,252,150,252c59.644,0,108-52.354,108-111.998   C258,139.982,257.999,139.962,257.999,139.943"/>
	<path style="fill:#54596E;" d="M181.999,188c0-17.673-14.326-32-32-32s-32,14.327-32,32H181.999z"/>
	<path style="fill:#54596E;" d="M181.999,188h4c-0.002-19.884-16.115-35.998-36-36c-19.885,0.002-35.998,16.116-36,36   c0,1.053,0.427,2.083,1.172,2.828s1.775,1.172,2.828,1.172h64c1.053,0,2.084-0.428,2.828-1.172   c0.745-0.745,1.172-1.775,1.172-2.828H181.999v-4h-64v4h4c0.002-7.745,3.128-14.72,8.201-19.8   c5.08-5.073,12.054-8.198,19.799-8.201c7.745,0.003,14.72,3.128,19.799,8.201c5.073,5.08,8.199,12.055,8.201,19.8H181.999v-4V188z"/>
	<path style="fill:#FF9999;" d="M165.999,184c0-8.837-7.164-16-16-16s-16,7.163-16,16"/>
	<circle style="fill:#54596E;" cx="109.999" cy="116" r="12"/>
	<circle style="fill:#54596E;" cx="189.999" cy="116" r="12"/>
	<path style="fill:#54596E;" d="M157.999,112h32c2.209,0,4-1.791,4-4c0-2.21-1.791-4-4-4h-32c-2.209,0-4,1.79-4,4   C153.999,110.209,155.79,112,157.999,112"/>
	<path style="fill:#54596E;" d="M77.999,112h32c2.209,0,4-1.791,4-4c0-2.21-1.791-4-4-4h-32c-2.209,0-4,1.79-4,4   C73.999,110.209,75.79,112,77.999,112"/>
</g>















</svg>
