<?xml version="1.0" encoding="iso-8859-1"?>
<!-- Generator: Adobe Illustrator 21.0.0, SVG Export Plug-In . SVG Version: 6.00 Build 0)  -->
<svg xmlns="http://www.w3.org/2000/svg" xmlns:xlink="http://www.w3.org/1999/xlink" version="1.1" id="zipped" x="0px" y="0px" viewBox="0 0 300 300" style="enable-background:new 0 0 300 300;" xml:space="preserve" width="512" height="512">
<g>
	<path style="fill:#EEEEF0;" d="M105.567,250.557c-16.783,2.197-27.566,5.612-27.566,9.445c0,6.624,32.237,12,71.999,12   c39.766,0,72.003-5.376,72.003-12c0-3.833-10.783-7.247-27.566-9.445C180.76,256.609,165.751,260,150,259.998   c-0.004,0-0.008,0-0.012,0C134.244,259.998,119.239,256.607,105.567,250.557"/>
	<path style="fill:#9AF43B;" d="M262.001,139.853c0-61.855-50.143-107.852-112.001-107.852   c-61.855,0-111.998,45.996-111.998,107.852c0,61.854,50.143,116.146,111.998,116.146   C211.858,255.999,262.001,201.707,262.001,139.853"/>
	<path style="fill:#54596E;" d="M262.001,139.853H266c0.01-32.021-13.02-60.089-34.048-80.024   c-21.025-19.949-50.03-31.83-81.952-31.83s-60.924,11.881-81.948,31.83C47.024,79.764,33.99,107.831,34,139.853   c0.007,32.018,12.962,62.006,33.908,84.026c20.936,22.018,49.975,36.123,82.092,36.119c32.121,0.004,61.16-14.102,82.096-36.119   c20.942-22.021,33.901-52.009,33.904-84.026H262.001h-3.999c0.003,29.837-12.109,57.921-31.703,78.511   c-19.6,20.594-46.562,33.638-76.299,33.638c-29.734,0-56.696-13.044-76.296-33.638c-19.594-20.59-31.706-48.674-31.703-78.511   c0.01-29.837,12.051-55.696,31.559-74.222C93.072,47.119,120.067,36.003,150,35.999c29.936,0.004,56.932,11.12,76.443,29.632   c19.508,18.525,31.549,44.385,31.559,74.222H262.001"/>
	<path style="fill:#93E440;" d="M257.068,126.075C250.2,179.642,204.898,223.999,150,223.999S49.804,179.642,42.936,126.075   c-0.593,4.521-0.932,9.138-0.935,13.866c0.02,29.805,12.128,57.853,31.703,78.422c19.6,20.594,46.562,33.638,76.296,33.638l0,0l0,0   c29.738,0,56.699-13.044,76.299-33.638c19.574-20.569,31.683-48.618,31.703-78.423   C257.999,135.213,257.658,130.597,257.068,126.075"/>
	<path style="fill:#54596E;" d="M42.001,139.941c0,0.02,0,0.039,0,0.059c0,59.646,48.352,112.001,107.999,112.001   c-29.734,0-56.696-13.044-76.296-33.638C54.13,197.794,42.021,169.746,42.001,139.941 M258.002,139.94   c-0.02,29.805-12.128,57.854-31.703,78.423c-19.6,20.594-46.562,33.638-76.299,33.638c59.647,0,108.002-52.354,108.002-112.001   C258.002,139.98,258.002,139.96,258.002,139.94"/>
	<ellipse style="fill:#54596E;" cx="184.001" cy="106" rx="10" ry="14"/>
	<ellipse style="fill:#54596E;" cx="116.001" cy="106" rx="10" ry="14"/>
	<polyline style="fill:#FFFFFF;" points="98.001,180 202.001,180 202.001,172 98.001,172  "/>
	<rect x="110.001" y="164" style="fill:#FFFFFF;" width="12" height="12"/>
	<rect x="122.001" y="176" style="fill:#FFFFFF;" width="12" height="12"/>
	<rect x="134.001" y="164" style="fill:#FFFFFF;" width="12" height="12"/>
	<rect x="158.001" y="164" style="fill:#FFFFFF;" width="12" height="12"/>
	<rect x="182.001" y="164" style="fill:#FFFFFF;" width="12" height="12"/>
	<rect x="146.001" y="176" style="fill:#FFFFFF;" width="12" height="12"/>
	<rect x="170.001" y="176" style="fill:#FFFFFF;" width="12" height="12"/>
	<polygon style="fill:#DDDDDD;" points="261.115,218.143 244.144,235.112 201.716,187.029 213.031,175.716  "/>
	<circle style="fill:#DDDDDD;" cx="206.001" cy="180" r="8"/>
</g>















</svg>
