<?xml version="1.0" encoding="iso-8859-1"?>
<!-- Generator: Adobe Illustrator 19.0.0, SVG Export Plug-In . SVG Version: 6.00 Build 0)  -->
<svg xmlns="http://www.w3.org/2000/svg" xmlns:xlink="http://www.w3.org/1999/xlink" version="1.1" id="Layer_1" x="0px" y="0px" viewBox="0 0 512 512" style="enable-background:new 0 0 512 512;" xml:space="preserve" width="512" height="512">
<g>
	<g>
		<circle style="fill:#FADC60;" cx="342.51" cy="96.487" r="21.227"/>
		<path style="fill:#E6CB59;" d="M352.51,107.714c-11.724,0-21.227-9.504-21.227-21.227c0-3.277,0.764-6.367,2.09-9.138    c-7.143,3.417-12.09,10.69-12.09,19.138c0,11.723,9.504,21.227,21.227,21.227c8.447,0,15.72-4.946,19.138-12.09    C358.878,106.95,355.787,107.714,352.51,107.714z"/>
		<circle style="fill:#FADC60;" cx="169.525" cy="415.516" r="21.227"/>
		<path style="fill:#E6CB59;" d="M179.525,426.744c-11.724,0-21.227-9.504-21.227-21.227c0-3.276,0.764-6.367,2.09-9.137    c-7.143,3.417-12.09,10.69-12.09,19.137c0,11.724,9.504,21.227,21.227,21.227c8.447,0,15.72-4.946,19.138-12.09    C185.892,425.979,182.801,426.744,179.525,426.744z"/>
		<circle style="fill:#FF98C9;" cx="256" cy="256" r="82.648"/>
		<path style="fill:#EB6DA8;" d="M276,318.648c-45.645,0-82.648-37.003-82.648-82.648c0-17.715,5.592-34.114,15.081-47.567    c-21.212,14.961-35.081,39.637-35.081,67.567c0,45.645,37.003,82.648,82.648,82.648c27.93,0,52.606-13.869,67.567-35.081    C310.113,313.056,293.714,318.648,276,318.648z"/>
	</g>
	<g>
		<path d="M346.148,256c0-49.708-40.44-90.147-90.148-90.147c-25.674,0-50.21,11.011-67.316,30.21    c-2.756,3.093-2.482,7.833,0.61,10.589c3.093,2.756,7.834,2.482,10.589-0.61c14.262-16.008,34.716-25.188,56.116-25.188    c41.437,0,75.148,33.711,75.148,75.147S297.437,331.148,256,331.148S180.852,297.437,180.852,256    c0-9.187,1.655-18.187,4.919-26.75c1.475-3.871-0.466-8.204-4.337-9.68c-3.871-1.475-8.204,0.466-9.679,4.337    c-3.917,10.275-5.903,21.073-5.903,32.092c0,49.708,40.44,90.148,90.148,90.148S346.148,305.708,346.148,256z"/>
		<path d="M219.907,257.839v-7.89c0-4.142-3.358-7.5-7.5-7.5s-7.5,3.358-7.5,7.5v7.89c0,4.142,3.358,7.5,7.5,7.5    S219.907,261.981,219.907,257.839z"/>
		<path d="M307.093,257.839v-7.89c0-4.142-3.358-7.5-7.5-7.5s-7.5,3.358-7.5,7.5v7.89c0,4.142,3.358,7.5,7.5,7.5    S307.093,261.981,307.093,257.839z"/>
		<path d="M256,269.551c6.357,0,12.337-2.67,16.406-7.324c2.726-3.119,2.408-7.857-0.711-10.583    c-3.119-2.726-7.857-2.407-10.583,0.711c-1.22,1.396-3.083,2.196-5.113,2.196s-3.893-0.801-5.113-2.196    c-2.726-3.119-7.463-3.438-10.583-0.711c-3.119,2.726-3.437,7.464-0.711,10.583C243.663,266.881,249.642,269.551,256,269.551z"/>
		<path d="M41.435,395.635c14.111,21.682,41.357,33.143,78.792,33.143c7.358,0,15.129-0.459,23.166-1.352    c4.535,9.911,14.539,16.818,26.132,16.818c1.441,0,2.857-0.109,4.241-0.315C195.883,487.88,224.929,512,256,512    c33.252,0,64.01-27.411,86.607-77.183c1.584-3.488,3.109-7.069,4.588-10.718c15.713,3.074,30.693,4.686,44.572,4.686    c0.002,0,0,0,0.002,0c37.433,0,64.683-11.463,78.795-33.149c18.137-27.87,11.939-68.601-17.451-114.689    c-5.307-8.322-11.263-16.655-17.81-24.946c6.547-8.291,12.503-16.624,17.81-24.946c29.391-46.088,35.588-86.819,17.451-114.688    c-14.11-21.683-41.356-33.143-78.792-33.143c-7.349,0-15.109,0.458-23.134,1.349c-4.536-9.908-14.538-16.812-26.129-16.812    c-1.452,0-2.878,0.111-4.273,0.32C316.12,24.123,287.073,0,256,0c-33.252,0-64.01,27.411-86.607,77.184    c-1.584,3.488-3.109,7.068-4.588,10.718c-15.713-3.074-30.693-4.686-44.572-4.686c-37.437,0-64.685,11.463-78.798,33.149    c-18.137,27.87-11.94,68.601,17.451,114.688c5.307,8.322,11.263,16.655,17.81,24.946c-6.547,8.291-12.503,16.624-17.81,24.946    C29.495,327.034,23.298,367.765,41.435,395.635z M167.865,386.838c-4.899-17.004-8.787-35.146-11.618-54.061    c10.894,8.318,22.29,16.37,34.124,24.071c15.851,10.315,32.021,19.666,48.215,27.973c-14.873,6.478-29.658,11.981-44.149,16.408    c-2.386-4.194-5.865-7.688-9.955-10.229c-0.029-0.018-0.057-0.037-0.086-0.055c-4.928-2.981-10.725-4.423-16.475-4.109    C167.902,386.837,167.883,386.837,167.865,386.838z M150.677,256c0-18.956,0.974-37.568,2.859-55.569    c14.06-11.398,29.129-22.367,45.016-32.707c18.858-12.273,38.151-23.169,57.431-32.511c19.229,9.309,38.561,20.208,57.466,32.511    c15.875,10.332,30.933,21.291,44.984,32.68c1.903,18.075,2.891,36.697,2.891,55.596c0,18.956-0.975,37.568-2.859,55.57    c-14.06,11.398-29.128,22.367-45.016,32.706c-18.859,12.273-38.151,23.169-57.431,32.511    c-19.229-9.31-38.562-20.208-57.466-32.511c-15.875-10.332-30.933-21.292-44.984-32.68    C151.665,293.521,150.677,274.899,150.677,256z M137.265,297.794c-15.303-13.555-29.131-27.587-41.183-41.794    c12.047-14.2,25.866-28.226,41.161-41.775c-1.032,13.682-1.565,27.641-1.565,41.775    C135.677,270.109,136.224,284.072,137.265,297.794z M156.21,179.25c3.979-26.682,10.051-51.669,18.024-73.987    c20.527,4.917,42.213,12.318,64.254,21.914c-16.184,8.324-32.307,17.685-48.118,27.975    C178.523,162.861,167.115,170.922,156.21,179.25z M317.593,110.763c1.701,2.977,3.961,5.645,6.598,7.833    c3.882,3.216,8.61,5.411,13.591,6.224c2.088,0.341,4.207,0.462,6.32,0.348c0.012,0,0.024,0,0.036-0.001    c4.898,17.002,8.785,35.141,11.617,54.055c-10.894-8.318-22.29-16.37-34.124-24.071c-15.851-10.315-32.021-19.666-48.215-27.973    C288.299,120.698,303.094,115.191,317.593,110.763z M374.735,214.206c15.303,13.555,29.131,27.587,41.184,41.794    c-12.047,14.2-25.866,28.226-41.161,41.775c1.032-13.682,1.565-27.641,1.565-41.775    C376.323,241.891,375.776,227.928,374.735,214.206z M355.79,332.75c-3.979,26.683-10.051,51.669-18.024,73.987    c-20.527-4.917-42.213-12.318-64.253-21.914c16.184-8.325,32.307-17.686,48.118-27.976    C333.477,349.139,344.885,341.078,355.79,332.75z M156.077,418.117c-1.749-8.289,5.064-16.328,13.448-16.328    c6.175,0,11.786,4.394,13.29,10.373c0.01,0.042,0.026,0.081,0.037,0.123c2.291,8.466-4.748,16.959-13.327,16.959    C163.092,429.244,157.384,424.309,156.077,418.117z M328.949,428.616c-9.95,21.916-21.438,39.03-34.146,50.868    C282.327,491.107,269.272,497,256,497c-24.961,0-49.127-20.916-68.477-59.081c4.387-3.519,7.625-8.251,9.342-13.591    c0.749-2.33,1.212-4.796,1.343-7.241c0.024-0.449,0.036-0.901,0.039-1.356c18.946-5.756,38.358-13.265,57.814-22.348    c26.046,12.13,51.876,21.41,76.275,27.424C331.234,423.453,330.108,426.062,328.949,428.616z M440.467,289.011    c26.04,40.834,32.264,75.795,17.526,98.442c-14.164,21.764-43.831,26.332-66.226,26.331c-12.233,0-25.398-1.341-39.213-3.9    c9.492-27.112,16.305-57.839,20.138-90.599c19.826-16.477,37.622-33.801,52.826-51.443    C430.966,274.889,435.968,281.957,440.467,289.011z M457.993,124.547c7.239,11.124,9.421,25.281,6.484,42.077    c-2.991,17.107-11.069,36.071-24.01,56.365c-4.499,7.055-9.501,14.122-14.948,21.168c-15.211-17.649-33.016-34.98-52.851-51.464    c-2.991-25.466-7.795-49.808-14.304-72.265c2.829-1.877,5.338-4.251,7.328-7.004c2.98-4.121,4.894-8.97,5.401-14.039    c7.19-0.772,14.123-1.163,20.68-1.163C414.167,98.222,443.834,102.789,457.993,124.547z M355.985,93.899    c0.939,4.897-0.904,10.003-4.748,13.177c-2.421,1.999-5.586,3.135-8.727,3.138c-3.641,0-7.244-1.531-9.79-4.127    c-3.855-3.93-4.996-9.981-2.809-15.036c2.155-4.983,7.173-8.292,12.6-8.292C349.195,82.76,354.771,87.564,355.985,93.899z     M183.051,83.384c9.95-21.916,21.438-39.03,34.146-50.868C229.673,20.893,242.728,15,256,15c24.968,0,49.137,20.922,68.49,59.105    c-4.044,3.252-7.111,7.538-8.906,12.378c-0.889,2.397-1.458,4.913-1.685,7.46c-0.016,0.18-0.05,2.297-0.109,2.315    c-18.957,5.757-38.381,13.27-57.85,22.359c-26.046-12.13-51.877-21.411-76.275-27.424    C180.766,88.547,181.892,85.938,183.051,83.384z M71.533,222.989c-12.941-20.294-21.02-39.258-24.01-56.365    c-2.937-16.796-0.755-30.953,6.484-42.077c14.163-21.763,43.831-26.331,66.226-26.331c12.233,0,25.398,1.341,39.212,3.899    c-9.492,27.112-16.305,57.839-20.139,90.599c-19.825,16.477-37.621,33.801-52.826,51.443    C81.034,237.111,76.032,230.043,71.533,222.989z M86.481,267.843c15.211,17.649,33.016,34.98,52.851,51.463    c2.992,25.474,7.799,49.825,14.311,72.288c-5,3.315-8.913,8.224-11.017,13.846c-0.822,2.196-1.672,7.075-1.682,7.171    c-7.204,0.775-14.147,1.167-20.716,1.167c-22.394,0-52.06-4.567-66.22-26.324c-14.738-22.647-8.514-57.608,17.526-98.442    C76.032,281.957,81.034,274.889,86.481,267.843z"/>
	</g>
</g>















</svg>
