<?xml version="1.0" encoding="iso-8859-1"?>
<!-- Generator: Adobe Illustrator 19.0.0, SVG Export Plug-In . SVG Version: 6.00 Build 0)  -->
<svg xmlns="http://www.w3.org/2000/svg" xmlns:xlink="http://www.w3.org/1999/xlink" version="1.1" id="Layer_1" x="0px" y="0px" viewBox="0 0 512 512" style="enable-background:new 0 0 512 512;" xml:space="preserve" width="512" height="512">
<g>
	<g>
		<polygon style="fill:#EFEDEE;" points="126.232,10.257 230.599,125.023 285.685,259.952 226.314,259.952 111.866,125.023     66.861,10.257   "/>
		<path style="fill:#D2D2D2;" d="M235.082,136.003c-31.391,4.466-60.442,16.287-85.351,33.661l76.583,90.288h59.371L235.082,136.003    z"/>
		<polygon style="fill:#6EE3FF;" points="126.232,10.257 285.685,259.952 345.047,259.952 185.594,10.257   "/>
		<polygon style="fill:#FD6F71;" points="7.5,10.257 166.953,259.952 226.314,259.952 66.861,10.257   "/>
		<polygon style="fill:#EFEDEE;" points="385.767,10.257 281.401,125.023 226.314,259.952 285.685,259.952 400.133,125.023     445.138,10.257   "/>
		<path style="fill:#D2D2D2;" d="M226.314,259.952h59.371l81.754-96.384c-26.507-16.376-57.123-26.705-89.917-29.046    L226.314,259.952z"/>
		<path style="fill:#42C3E2;" d="M209.899,141.274l75.787,118.678h59.361l-80.418-125.931c-0.469-0.003-0.935-0.018-1.405-0.018    C244.758,134.003,226.876,136.543,209.899,141.274z"/>
		<polygon style="fill:#FD6F71;" points="385.767,10.257 226.314,259.952 166.953,259.952 326.405,10.257   "/>
		<polygon style="fill:#6EE3FF;" points="504.5,10.257 345.047,259.952 285.685,259.952 445.138,10.257   "/>
		<path style="fill:#42C3E2;" d="M352.558,155.233l-66.873,104.719h59.361l48.999-76.73    C381.503,172.243,367.574,162.815,352.558,155.233z"/>
		<path style="fill:#E36465;" d="M263.223,134.003c-5.477,0-10.901,0.232-16.268,0.669l-80.002,125.279h59.361l77.734-121.727    C290.867,135.463,277.213,134.003,263.223,134.003z"/>
		<path style="fill:#E36465;" d="M166.953,259.952h59.361l-63.147-98.885c-14.549,8.506-27.926,18.803-39.826,30.591    L166.953,259.952z"/>
		<circle style="fill:#FADC60;" cx="263.223" cy="332.873" r="168.87"/>
		<circle style="fill:#E6CB59;" cx="263.223" cy="332.873" r="132.819"/>
	</g>
	<g>
		<path d="M370.189,253.783c-3.462,2.274-4.425,6.924-2.151,10.386c13.415,20.42,20.505,44.178,20.505,68.704    c0,69.101-56.218,125.319-125.319,125.319c-69.101,0-125.319-56.218-125.319-125.319s56.218-125.319,125.319-125.319    c32.811,0,63.837,12.602,87.362,35.484c2.97,2.888,7.717,2.822,10.606-0.147c2.888-2.969,2.822-7.717-0.147-10.605    c-26.342-25.621-61.082-39.731-97.821-39.731c-77.372,0-140.319,62.947-140.319,140.319s62.947,140.319,140.319,140.319    c77.373,0,140.319-62.947,140.319-140.319c0-27.46-7.942-54.065-22.968-76.939C378.301,252.472,373.65,251.51,370.189,253.783z"/>
		<path d="M175.875,321.791v14.451c0,4.142,3.358,7.5,7.5,7.5s7.5-3.358,7.5-7.5v-14.451c0-4.142-3.358-7.5-7.5-7.5    S175.875,317.649,175.875,321.791z"/>
		<path d="M335.572,321.791v14.451c0,4.142,3.358,7.5,7.5,7.5s7.5-3.358,7.5-7.5v-14.451c0-4.142-3.358-7.5-7.5-7.5    S335.572,317.649,335.572,321.791z"/>
		<path d="M277.285,330.3c-3.419,3.912-8.544,6.155-14.061,6.155s-10.642-2.244-14.061-6.155c-2.726-3.119-7.465-3.437-10.583-0.711    c-3.119,2.726-3.438,7.464-0.711,10.583c6.268,7.171,15.509,11.284,25.354,11.284c9.845,0,19.086-4.113,25.354-11.283    c2.727-3.119,2.408-7.856-0.71-10.583S280.011,327.182,277.285,330.3z"/>
		<path d="M130.519,216.834c-27.172,31.036-43.665,71.645-43.665,116.039c0,97.25,79.119,176.37,176.37,176.37    c97.251,0,176.37-79.119,176.37-176.37c0-48.902-20.011-93.214-52.268-125.192L510.821,14.294    c1.474-2.309,1.572-5.238,0.256-7.641c-1.316-2.402-3.838-3.896-6.578-3.896H326.406c-2.56,0-4.943,1.306-6.321,3.463L256,106.573    L191.915,6.22c-1.378-2.158-3.761-3.463-6.321-3.463H7.5c-2.739,0-5.261,1.494-6.578,3.896c-1.316,2.403-1.218,5.332,0.256,7.641    L130.519,216.834z M424.594,332.873c0,88.979-72.39,161.37-161.37,161.37c-88.979,0-161.37-72.39-161.37-161.37    c0-78.962,57.011-144.853,132.031-158.689c25.565-4.715,52.259-3.173,77.089,4.532c0.118,0.037,0.236,0.073,0.354,0.11    C376.888,199.342,424.594,260.64,424.594,332.873z M376.112,197.371c-9.012-7.52-18.719-14.106-28.999-19.675L449.248,17.757    h41.563L376.112,197.371z M333.528,171.098c-11.103-4.83-22.72-8.506-34.578-10.955l90.927-142.386h41.573L333.528,171.098z     M330.516,17.757h41.563l-89.296,139.832c-0.088-0.01-5.231-0.501-5.255-0.503c-8.682-0.709-17.422-0.763-26.113-0.181    c-3.436,0.229-6.944,0.553-10.389,0.989L330.516,17.757z M122.123,17.757c0,0,49.448,77.433,49.513,77.535    c2.311,3.619,7.618,4.51,10.983,1.839c2.931-2.326,3.716-6.69,1.659-9.912l-44.357-69.461h41.563l65.616,102.752l-20.782,32.543    l-26.045-40.784c-2.193-3.435-6.917-4.479-10.358-2.285c-3.491,2.229-4.514,6.867-2.285,10.358l27.364,42.851    c-11.464,3.253-22.56,7.666-33.152,13.187L81.248,18.85l-0.698-1.093H122.123z M62.752,17.757l106.076,166.11    c-9.919,6.296-19.186,13.571-27.686,21.731L21.188,17.757H62.752z"/>
	</g>
</g>















</svg>
