<?xml version="1.0" encoding="iso-8859-1"?>
<!-- Generator: Adobe Illustrator 19.0.0, SVG Export Plug-In . SVG Version: 6.00 Build 0)  -->
<svg xmlns="http://www.w3.org/2000/svg" xmlns:xlink="http://www.w3.org/1999/xlink" version="1.1" id="Layer_1" x="0px" y="0px" viewBox="0 0 512 512" style="enable-background:new 0 0 512 512;" xml:space="preserve" width="512" height="512">
<g>
	<g>
		<g>
			<path style="fill:#3A484A;" d="M348.506,202.043c-4.661,4.661-11.272,7.304-18.351,6.683     c-30.983-2.716-63.74,9.922-87.624,33.805c-22.887,22.887-35.313,53.197-34.092,83.156c0.518,12.742-9.388,23.49-22.129,24.01     c-12.741,0.519-23.49-9.388-24.01-22.129c-1.745-42.811,15.597-85.707,47.579-117.688     c33.918-33.918,79.226-51.105,124.307-47.154c12.703,1.114,22.098,12.313,20.984,25.016     C354.678,193.365,352.207,198.342,348.506,202.043z"/>
		</g>
		<path style="fill:#3A484A;" d="M460.108,18.425l-33.912,33.912l33.468,33.468l33.912-33.912c9.242-9.242,9.242-24.226,0-33.468    l0,0C484.333,9.183,469.349,9.183,460.108,18.425z"/>
		<path style="fill:#3A484A;" d="M18.424,460.108l33.912-33.912l33.468,33.468l-33.912,33.912c-9.242,9.242-24.226,9.242-33.468,0    l0,0C9.183,484.334,9.183,469.35,18.424,460.108z"/>
		<circle style="fill:#506366;" cx="372.321" cy="139.679" r="132.179"/>
		<circle style="fill:#6EE3FF;" cx="372.321" cy="139.679" r="92.727"/>
		<path style="fill:#42C3E2;" d="M320.895,191.106c-33.823-33.823-36.05-87.272-6.691-123.685c-2.572,2.074-5.062,4.301-7.452,6.691    c-36.212,36.212-36.212,94.924,0,131.136s94.924,36.212,131.136,0c2.389-2.389,4.617-4.879,6.691-7.452    C408.166,227.155,354.718,224.928,320.895,191.106z"/>
		<circle style="fill:#506366;" cx="139.679" cy="372.321" r="132.179"/>
		<circle style="fill:#6EE3FF;" cx="139.679" cy="372.321" r="92.727"/>
		<path style="fill:#42C3E2;" d="M88.253,423.747c-33.823-33.823-36.05-87.272-6.691-123.685c-2.573,2.074-5.062,4.301-7.452,6.691    c-36.212,36.212-36.212,94.924,0,131.136s94.924,36.212,131.136,0c2.389-2.389,4.617-4.879,6.691-7.452    C175.525,459.797,122.076,457.57,88.253,423.747z"/>
	</g>
	<g>
		<path d="M272.094,139.546c0,26.771,10.425,51.941,29.356,70.871c18.931,18.931,44.1,29.356,70.872,29.356    c26.771,0,51.94-10.425,70.871-29.356c18.931-18.93,29.356-44.1,29.356-70.871c0-26.772-10.425-51.941-29.356-70.872    c-18.931-18.931-44.1-29.356-70.871-29.356c-26.772,0-51.941,10.425-70.872,29.356    C282.519,87.605,272.094,112.774,272.094,139.546z M372.321,54.319c22.765,0,44.167,8.865,60.265,24.962    c16.097,16.097,24.962,37.5,24.962,60.265c0,22.765-8.865,44.167-24.962,60.265c-16.098,16.097-37.5,24.962-60.265,24.962    c-22.765,0-44.167-8.865-60.265-24.962c-16.097-16.098-24.962-37.5-24.962-60.265c0-22.765,8.865-44.168,24.962-60.265    C328.154,63.184,349.556,54.319,372.321,54.319z"/>
		<path d="M122.268,470.873c4.075,0.717,7.968-2.01,8.684-6.09c0.716-4.08-2.01-7.968-6.09-8.684    c-17.299-3.037-33.015-11.214-45.447-23.647c-33.23-33.23-33.23-87.3,0-120.53s87.299-33.23,120.53,0    c33.23,33.23,33.23,87.3,0,120.53c-13.097,13.097-29.68,21.421-47.956,24.073c-4.099,0.595-6.94,4.4-6.345,8.5    c0.542,3.734,3.748,6.424,7.413,6.424c0.358,0,0.721-0.026,1.086-0.079c21.501-3.12,41.006-12.91,56.408-28.311    c39.079-39.079,39.079-102.664,0-141.743c-39.078-39.078-102.664-39.079-141.743,0c-39.079,39.079-39.079,102.664,0,141.743    C83.431,457.682,101.917,467.3,122.268,470.873z"/>
		<path d="M13.122,454.671c-12.151,12.151-12.151,31.923,0,44.074c12.011,12.011,32.076,11.998,44.074,0l8.209-8.209    c22.039,13.892,47.584,21.331,74.275,21.331c37.31,0,72.386-14.529,98.768-40.912c26.382-26.382,40.911-61.458,40.911-98.768    s-14.529-72.386-40.911-98.768c-2.074-2.074-4.207-4.065-6.385-5.991c4.473-7.084,9.751-13.706,15.772-19.728    c5.987-5.987,12.623-11.252,19.766-15.733c1.909,2.16,3.886,4.28,5.952,6.346c26.382,26.382,61.458,40.912,98.768,40.912    c37.31,0,72.386-14.529,98.768-40.912C497.471,211.932,512,176.855,512,139.546c0-26.69-7.439-52.236-21.33-74.275    c0,0,8.204-8.204,8.209-8.208c12.016-12.016,12.004-32.071,0-44.074c-12.015-12.014-32.068-12.005-44.074,0l-8.24,8.24    C426.971,8.929,404.496,1.61,381.068,0.148c-4.135-0.258-7.694,2.884-7.952,7.019c-0.258,4.134,2.884,7.694,7.019,7.952    c23.24,1.45,45.429,9.363,64.206,22.657c11.849,8.389,22.245,18.882,30.521,30.81c0.02,0.029,0.044,0.055,0.065,0.083    C489.272,89.343,497,113.849,497,139.546c0,33.303-12.969,64.612-36.518,88.161c-23.549,23.549-54.858,36.518-88.161,36.518    c-50.104,0-96.803-31.407-115.562-77.884c-18.153-45.004-9.02-98.536,27.4-134.957c18.518-18.518,41.917-30.561,67.668-34.828    c4.086-0.677,6.85-4.539,6.173-8.625c-0.677-4.087-4.543-6.85-8.625-6.173c-28.859,4.782-55.078,18.275-75.822,39.02    c-37.132,37.132-48.938,90.139-35.436,137.374c-12.111,7.298-23.372,16.123-33.541,26.291    c-10.109,10.108-18.899,21.349-26.191,33.479c-12.426-3.563-25.423-5.414-38.706-5.414c-37.31,0-72.386,14.529-98.768,40.911    C14.529,299.802,0,334.878,0,372.188c0,26.69,7.439,52.236,21.33,74.275L13.122,454.671z M459.001,30.005    c0,0,6.408-6.408,6.41-6.41c6.229-6.229,16.638-6.223,22.861,0c6.228,6.228,6.221,16.64,0,22.861l-6.41,6.409    c0.52-0.524-9.568-10.879-10.704-12.016c-0.023-0.023-0.046-0.048-0.069-0.071c-0.016-0.016-0.033-0.032-0.05-0.048    C467.27,36.903,463.208,33.343,459.001,30.005z M46.589,488.139c-6.231,6.231-16.637,6.224-22.861,0    c-6.303-6.303-6.303-16.559,0-22.861l6.41-6.409c-0.542,0.549,9.577,10.89,10.774,12.087c3.817,3.817,7.861,7.415,12.087,10.774    C52.999,481.729,46.593,488.135,46.589,488.139z M215.183,215.05c8.534-8.534,17.904-16.03,27.935-22.359    c3.343,8.144,7.451,15.92,12.272,23.276c0.921,1.405,1.858,2.802,2.83,4.172c-7.564,4.883-14.6,10.565-20.991,16.956    c-6.42,6.42-12.111,13.441-16.988,20.949c-8.565-6.072-17.731-11.121-27.348-15.08    C199.218,232.904,206.691,223.542,215.183,215.05z M51.518,284.026c23.549-23.549,54.858-36.518,88.162-36.518    c67.949,0,124.679,56.831,124.679,124.679c0,33.303-12.969,64.612-36.518,88.161c-23.549,23.549-54.858,36.518-88.161,36.518    C71.913,496.867,15,439.877,15,372.188C15,338.885,27.969,307.575,51.518,284.026z"/>
	</g>
</g>















</svg>
