<?xml version="1.0" encoding="iso-8859-1"?>
<!-- Generator: Adobe Illustrator 19.0.0, SVG Export Plug-In . SVG Version: 6.00 Build 0)  -->
<svg xmlns="http://www.w3.org/2000/svg" xmlns:xlink="http://www.w3.org/1999/xlink" version="1.1" id="Layer_1" x="0px" y="0px" viewBox="0 0 512 512" style="enable-background:new 0 0 512 512;" xml:space="preserve" width="512" height="512">
<g>
	<g>
		<path style="fill:#46926F;" d="M417.24,8.209l-5.548,6.091v476.325l5.548,13.165c18.613-3.515,32.695-19.851,32.695-39.486V47.695    C449.935,28.06,435.853,11.724,417.24,8.209z"/>
		<path style="fill:#46926F;" d="M94.76,8.209l5.548,6.091v476.325l-5.548,13.165c-18.613-3.515-32.695-19.851-32.695-39.486V47.695    C62.065,28.06,76.147,11.724,94.76,8.209z"/>
		<polygon style="fill:#58B78C;" points="109.761,248.5 109.761,263.5 109.761,504.5 402.24,504.5 402.24,263.5 402.24,248.5     402.24,7.5 109.761,7.5   "/>
	</g>
	<g>
		<path d="M102.251,512c0.003,0,0.006,0,0.01,0c0.002,0,0.003,0,0.005,0h307.469c0.002,0,0.003,0,0.005,0c0.003,0,0.006,0,0.01,0    c26.295-0.006,47.686-21.399,47.686-47.695v-59.191c0-4.142-3.358-7.5-7.5-7.5s-7.5,3.358-7.5,7.5v59.191    c0,15.447-10.771,28.417-25.195,31.817V15.878c14.424,3.4,25.195,16.37,25.195,31.817v327.418c0,4.142,3.358,7.5,7.5,7.5    s7.5-3.358,7.5-7.5V47.695C457.435,21.396,436.039,0,409.74,0H102.26C75.961,0,54.565,21.396,54.565,47.695v65.418    c0,4.142,3.358,7.5,7.5,7.5s7.5-3.358,7.5-7.5V47.695c0-15.447,10.771-28.417,25.195-31.817v480.244    c-14.424-3.4-25.195-16.37-25.195-31.817V143.113c0-4.142-3.358-7.5-7.5-7.5s-7.5,3.358-7.5,7.5v321.191    C54.565,490.601,75.956,511.994,102.251,512z M179.042,86.561c-8.57,0-15.542-6.972-15.542-15.542V15h38.567v35.78    c0,4.143,3.358,7.5,7.5,7.5h92.866c4.142,0,7.5-3.357,7.5-7.5V15H348.5v56.019c0,8.57-6.972,15.542-15.542,15.542H179.042z     M294.208,101.561c-3.504,17.893-19.305,31.434-38.208,31.434s-34.704-13.541-38.208-31.434H294.208z M217.067,15h77.866v28.28    h-77.866V15z M179.042,101.561H202.6c3.663,26.2,26.207,46.434,53.4,46.434s49.737-20.233,53.4-46.434h23.558    c16.841,0,30.542-13.701,30.542-30.542V15h38.739v233.5h-59.954c-3.815-44.26-41.054-79.113-86.285-79.113    S173.53,204.24,169.715,248.5H109.76V15h38.74v56.019C148.5,87.86,162.201,101.561,179.042,101.561z M327.614,256.007    c-0.003,39.485-32.128,71.607-71.614,71.607c-39.488,0-71.614-32.125-71.614-71.614c0-39.488,32.126-71.613,71.614-71.613    c39.486,0,71.61,32.122,71.614,71.607c0,0.002,0,0.004,0,0.006C327.614,256.002,327.614,256.004,327.614,256.007z M109.76,263.5    h59.954c3.815,44.26,41.054,79.114,86.285,79.114s82.471-34.854,86.285-79.114h59.954V497H363.5v-56.019    c0-16.841-13.701-30.542-30.542-30.542H309.4c-3.663-26.2-26.207-46.433-53.4-46.433s-49.737,20.233-53.4,46.433h-23.558    c-16.841,0-30.542,13.701-30.542,30.542V497h-38.74V263.5z M294.933,497h-77.866v-28.28h77.866V497z M309.933,497v-35.78    c0-4.142-3.358-7.5-7.5-7.5h-92.866c-4.142,0-7.5,3.358-7.5,7.5V497H163.5v-56.019c0-8.57,6.972-15.542,15.542-15.542h153.916    c8.57,0,15.542,6.972,15.542,15.542V497H309.933z M217.792,410.439c3.504-17.892,19.305-31.433,38.208-31.433    s34.704,13.541,38.208,31.433H217.792z"/>
	</g>
</g>















</svg>
