<?xml version="1.0" encoding="iso-8859-1"?>
<!-- Generator: Adobe Illustrator 19.0.0, SVG Export Plug-In . SVG Version: 6.00 Build 0)  -->
<svg xmlns="http://www.w3.org/2000/svg" xmlns:xlink="http://www.w3.org/1999/xlink" version="1.1" id="Layer_1" x="0px" y="0px" viewBox="0 0 512 512" style="enable-background:new 0 0 512 512;" xml:space="preserve" width="512" height="512">
<g>
	<g>
		<path style="fill:#FADC60;" d="M237.894,28.929C8.425,36.526,7.5,174.377,7.5,174.377c0,115.445,154.579,93.921,164.362,233.825    C181.646,548.105,504.5,491.814,504.5,241.131C504.5,27.659,249.484,28.546,237.894,28.929z M329.07,410.666    c-28.703,28.703-69.731,34.213-91.638,12.307s-16.397-62.935,12.307-91.638c28.704-28.704,69.731-34.213,91.638-12.307    S357.773,381.962,329.07,410.666z"/>
		<g>
			<path style="fill:#E6CB59;" d="M201.862,398.202C192.079,258.298,37.5,279.822,37.5,164.377c0,0,0.544-80.699,103.581-122.011     C8.15,78.688,7.5,174.377,7.5,174.377c0,115.445,154.579,93.921,164.362,233.825c5.159,73.766,97.352,92.979,183.366,57.923     C279.02,485.996,206.423,463.421,201.862,398.202z"/>
		</g>
		<circle style="fill:#58B78C;" cx="107.365" cy="134.742" r="31.613"/>
		<path style="fill:#46926F;" d="M117.365,156.355c-17.459,0-31.613-14.154-31.613-31.613c0-6.168,1.773-11.92,4.828-16.785    c-8.905,5.592-14.828,15.494-14.828,26.785c0,17.459,14.154,31.613,31.613,31.613c11.291,0,21.193-5.924,26.785-14.828    C129.285,154.582,123.534,156.355,117.365,156.355z"/>
		<circle style="fill:#FF98C9;" cx="212.401" cy="99.551" r="31.613"/>
		<path style="fill:#EB6DA8;" d="M222.401,121.164c-17.459,0-31.613-14.154-31.613-31.613c0-6.168,1.773-11.92,4.828-16.785    c-8.905,5.592-14.828,15.494-14.828,26.785c0,17.459,14.154,31.613,31.613,31.613c11.291,0,21.193-5.924,26.785-14.828    C234.321,119.39,228.57,121.164,222.401,121.164z"/>
		<circle style="fill:#6EE3FF;" cx="315.55" cy="107.489" r="31.613"/>
		<path style="fill:#42C3E2;" d="M325.55,129.102c-17.459,0-31.613-14.154-31.613-31.613c0-6.168,1.773-11.92,4.828-16.785    c-8.905,5.592-14.828,15.494-14.828,26.785c0,17.459,14.154,31.613,31.613,31.613c11.291,0,21.193-5.924,26.785-14.828    C337.47,127.329,331.718,129.102,325.55,129.102z"/>
		<circle style="fill:#FD6F71;" cx="405.509" cy="157.399" r="31.613"/>
		<path style="fill:#E36465;" d="M415.509,179.012c-17.459,0-31.613-14.153-31.613-31.613c0-6.168,1.773-11.92,4.828-16.785    c-8.905,5.592-14.828,15.494-14.828,26.785c0,17.459,14.154,31.613,31.613,31.613c11.291,0,21.193-5.924,26.785-14.828    C427.429,177.239,421.678,179.012,415.509,179.012z"/>
		<circle style="fill:#B6A4FF;" cx="431.386" cy="254.449" r="31.613"/>
		<path style="fill:#937FE6;" d="M441.386,276.062c-17.459,0-31.613-14.154-31.613-31.613c0-6.168,1.773-11.92,4.828-16.785    c-8.905,5.592-14.828,15.494-14.828,26.785c0,17.459,14.154,31.613,31.613,31.613c11.291,0,21.193-5.924,26.785-14.828    C453.306,274.289,447.554,276.062,441.386,276.062z"/>
	</g>
	<g>
		<path d="M107.365,95.617c-21.567,0-39.113,17.546-39.113,39.113s17.546,39.113,39.113,39.113s39.113-17.546,39.113-39.113    S128.932,95.617,107.365,95.617z M107.365,158.843c-13.296,0-24.113-10.817-24.113-24.113c0-13.296,10.817-24.113,24.113-24.113    s24.113,10.817,24.113,24.113C131.478,148.026,120.661,158.843,107.365,158.843z"/>
		<path d="M251.514,99.538c0-21.567-17.546-39.113-39.113-39.113s-39.113,17.546-39.113,39.113s17.546,39.113,39.113,39.113    S251.514,121.105,251.514,99.538z M212.401,123.651c-13.296,0-24.113-10.817-24.113-24.113s10.817-24.113,24.113-24.113    s24.113,10.817,24.113,24.113S225.697,123.651,212.401,123.651z"/>
		<path d="M354.663,107.477c0-21.567-17.546-39.113-39.113-39.113s-39.113,17.546-39.113,39.113s17.546,39.113,39.113,39.113    S354.663,129.044,354.663,107.477z M315.549,131.59c-13.296,0-24.113-10.817-24.113-24.113c0-13.296,10.817-24.113,24.113-24.113    s24.113,10.817,24.113,24.113C339.663,120.773,328.845,131.59,315.549,131.59z"/>
		<path d="M444.622,157.386c0-21.567-17.546-39.113-39.113-39.113s-39.113,17.546-39.113,39.113s17.546,39.113,39.113,39.113    S444.622,178.953,444.622,157.386z M381.396,157.386c0-13.296,10.817-24.113,24.113-24.113s24.113,10.817,24.113,24.113    s-10.817,24.113-24.113,24.113S381.396,170.682,381.396,157.386z"/>
		<path d="M431.385,293.55c21.567,0,39.113-17.546,39.113-39.113c0-21.567-17.546-39.113-39.113-39.113    s-39.113,17.546-39.113,39.113C392.272,276.004,409.818,293.55,431.385,293.55z M431.385,230.324    c13.296,0,24.113,10.817,24.113,24.113c0,13.296-10.817,24.113-24.113,24.113s-24.113-10.817-24.113-24.113    C407.272,241.141,418.089,230.324,431.385,230.324z"/>
		<path d="M77.548,285.487c40.324,26.759,82.021,54.43,86.832,123.226c2.333,33.347,21.554,58.973,54.125,72.158    c15.997,6.476,34.604,9.734,54.637,9.734c15.737,0,32.354-2.012,49.266-6.055c39.817-9.519,78.686-29.973,109.445-57.595    c3.082-2.767,3.336-7.509,0.569-10.591c-2.767-3.082-7.509-3.336-10.591-0.569c-28.933,25.981-65.48,45.218-102.911,54.166    c-35.431,8.47-69.094,7.406-94.787-2.994c-19.081-7.724-42.341-24.282-44.79-59.3c-5.326-76.165-52.171-107.251-93.501-134.679    C47.83,247.762,15,225.976,15,174.415c0.005-0.745,1.604-74.956,96.627-114.185c3.829-1.581,5.651-5.966,4.071-9.794    s-5.965-5.651-9.794-4.071c-54.155,22.357-80.047,55.662-92.231,79.665C0.3,152.372,0.006,173.43,0,174.365    C0,234.025,39.423,260.186,77.548,285.487z"/>
		<path d="M271.98,443.882c3.171,0,6.417-0.219,9.72-0.663c18.928-2.542,37.635-12.224,52.673-27.262    c15.039-15.038,24.72-33.745,27.262-52.673c2.643-19.68-2.668-37.285-14.956-49.572c-12.288-12.288-29.895-17.598-49.572-14.956    c-18.928,2.542-37.634,12.224-52.672,27.262c-31.582,31.582-37.103,77.449-12.307,102.245    C242.353,438.488,256.259,443.882,271.98,443.882z M255.042,336.625c12.726-12.727,28.375-20.896,44.063-23.002    c2.609-0.35,5.161-0.523,7.647-0.523c11.745,0,21.974,3.872,29.322,11.219c8.903,8.903,12.702,22.032,10.696,36.969    c-2.106,15.688-10.276,31.336-23.002,44.063c-12.727,12.727-28.375,20.896-44.063,23.002    c-14.934,2.006-28.065-1.792-36.969-10.695C223.788,398.709,229.308,362.359,255.042,336.625z"/>
		<path d="M142.42,49.764c27.859-7.678,60.065-12.17,95.722-13.351c0.335-0.011,34.55-0.842,78.61,8.498    c67.23,14.252,106.397,41.483,127.416,61.817C479.225,140.644,497,185.859,497,241.118c0,59.123-18.958,112.355-54.827,153.942    c-2.705,3.137-2.355,7.873,0.781,10.578c1.417,1.222,3.16,1.82,4.895,1.82c2.106,0,4.2-0.882,5.683-2.602    C491.782,360.508,512,303.888,512,241.118c0-59.479-19.313-108.321-57.403-145.17c-32.629-31.566-77.96-53.675-134.734-65.71    c-45.795-9.708-81.865-8.828-82.217-8.816c-36.835,1.22-70.215,5.89-99.211,13.882c-3.993,1.101-6.338,5.23-5.238,9.223    C134.298,48.52,138.428,50.864,142.42,49.764z"/>
	</g>
</g>















</svg>
