<?xml version="1.0" encoding="iso-8859-1"?>
<!-- Generator: Adobe Illustrator 19.0.0, SVG Export Plug-In . SVG Version: 6.00 Build 0)  -->
<svg xmlns="http://www.w3.org/2000/svg" xmlns:xlink="http://www.w3.org/1999/xlink" version="1.1" id="Layer_1" x="0px" y="0px" viewBox="0 0 512.022 512.022" style="enable-background:new 0 0 512.022 512.022;" xml:space="preserve" width="512" height="512">
<g>
	<g>
		<path style="fill:#6EE3FF;" d="M182.822,217.041V73.471L151.86,56.115l-30.962,17.356v143.571    C56.057,231.214,7.511,288.958,7.511,358.051c0,36.922,13.866,70.602,36.671,96.126c11.585,12.966,28.259,20.225,45.646,20.225    h124.065c17.387,0,34.061-7.259,45.646-20.225c22.805-25.524,36.671-59.204,36.671-96.126    C296.209,288.958,247.662,231.214,182.822,217.041z"/>
		<path style="fill:#FD6F71;" d="M246.046,300.905c-4.693-7.678-13.069-12.338-22.068-12.338H79.741    c-8.999,0-17.375,4.66-22.068,12.338c-10.47,17.13-15.942,36.622-15.942,57.145c0,27.098,9.933,53.139,27.968,73.325    c5,5.596,12.336,8.805,20.128,8.805h124.064c7.791,0,15.128-3.209,20.127-8.804c18.036-20.187,27.969-46.228,27.969-73.326    C261.988,337.528,256.516,318.035,246.046,300.905z"/>
		<path style="fill:#E36465;" d="M89.7,431.375c-18.035-20.186-27.968-46.227-27.968-73.325c0-20.523,5.472-40.015,15.942-57.146    c4.693-7.678,13.069-12.338,22.068-12.338h-20c-8.999,0-17.375,4.66-22.068,12.338c-10.47,17.13-15.942,36.623-15.942,57.146    c0,27.098,9.933,53.139,27.968,73.325c5,5.597,12.336,8.806,20.128,8.806h20C102.036,440.181,94.7,436.972,89.7,431.375z"/>
		<path style="fill:#B3F0FF;" d="M501.778,400.558c-17.806-55.753-51.698-124.329-103.521-156.252v-106.9l-30.962-17.925    l-30.962,17.925v106.9c-51.823,31.923-85.715,100.499-103.521,156.252c-11.663,36.519,15.461,73.844,53.798,73.844H447.98    C486.317,474.402,513.441,437.077,501.778,400.558z"/>
		<polygon style="fill:#6EE3FF;" points="336.333,167.407 336.333,167.407 398.257,167.407 398.257,137.407 367.295,119.481     336.333,137.407   "/>
		<path style="fill:#B3F0FF;" d="M398.257,101.556h-61.924c-9.9,0-17.925,8.025-17.925,17.925v0c0,9.9,8.025,17.925,17.925,17.925    h61.924c9.9,0,17.925-8.025,17.925-17.925v0C416.182,109.581,408.157,101.556,398.257,101.556z"/>
		<polygon style="fill:#42C3E2;" points="182.821,103.471 182.822,103.471 182.822,73.471 151.86,56.115 120.898,73.471     120.898,103.471   "/>
		<path style="fill:#6EE3FF;" d="M182.822,37.62h-61.924c-9.9,0-17.925,8.025-17.925,17.925v0c0,9.9,8.025,17.925,17.925,17.925    h61.924c9.9,0,17.925-8.025,17.925-17.925v0C200.747,45.645,192.721,37.62,182.822,37.62z"/>
		<path style="fill:#B6A4FF;" d="M469.18,410.969c-6.522-20.421-17.994-50.813-35.605-79.627    c-3.405-5.572-6.881-10.828-10.421-15.765c-5.088-7.096-13.282-11.302-22.014-11.302h-67.691c-8.732,0-16.925,4.206-22.014,11.302    c-3.541,4.937-7.016,10.194-10.421,15.765c-17.611,28.814-29.082,59.206-35.605,79.627c-2.211,6.924-1.03,14.25,3.24,20.096    c2.486,3.404,8.127,9.116,17.959,9.116H447.98c9.833,0,15.473-5.712,17.959-9.116C470.211,425.219,471.391,417.893,469.18,410.969    z"/>
		<path style="fill:#937FE6;" d="M288.65,431.065c-4.27-5.847-5.451-13.172-3.24-20.096c6.522-20.421,17.994-50.813,35.605-79.627    c3.405-5.572,6.881-10.828,10.421-15.766c5.088-7.096,13.282-11.302,22.014-11.302h-20c-8.732,0-16.925,4.206-22.014,11.302    c-3.541,4.938-7.016,10.194-10.421,15.766c-17.611,28.814-29.082,59.206-35.605,79.627c-2.211,6.924-1.03,14.25,3.24,20.096    c2.486,3.404,8.127,9.116,17.959,9.116h20C296.776,440.181,291.136,434.469,288.65,431.065z"/>
	</g>
	<g>
		<path d="M429.238,311.206c-6.48-9.036-16.988-14.431-28.108-14.431h-67.691c-11.12,0-21.628,5.395-28.108,14.431    c-3.637,5.073-7.246,10.532-10.726,16.225c-17.998,29.448-29.701,60.441-36.35,81.256c-2.948,9.231-1.371,19,4.328,26.802    c3.326,4.553,10.868,12.192,24.016,12.192H447.97c13.147,0,20.689-7.639,24.015-12.192c5.699-7.801,7.276-17.57,4.328-26.802    c-6.648-20.815-18.352-51.808-36.35-81.256C436.482,321.734,432.874,316.275,429.238,311.206z M459.873,426.641    c-2.012,2.755-5.711,6.04-11.902,6.04H286.599c-6.192,0-9.891-3.285-11.903-6.04c-2.843-3.892-3.627-8.772-2.152-13.391    c6.398-20.031,17.639-49.822,34.859-77.998c3.289-5.381,6.693-10.531,10.117-15.306c3.67-5.117,9.621-8.172,15.918-8.172h67.691    c6.298,0,12.249,3.055,15.919,8.172c3.422,4.772,6.825,9.922,10.116,15.306c17.22,28.175,28.461,57.967,34.859,77.998    C463.5,417.87,462.715,422.75,459.873,426.641z"/>
		<path d="M90.896,323.227c-4.142,0-7.5,3.358-7.5,7.5v11.032c0,4.142,3.358,7.5,7.5,7.5s7.5-3.358,7.5-7.5v-11.032    C98.396,326.585,95.038,323.227,90.896,323.227z"/>
		<path d="M212.803,323.227c-4.142,0-7.5,3.358-7.5,7.5v11.032c0,4.142,3.358,7.5,7.5,7.5s7.5-3.358,7.5-7.5v-11.032    C220.303,326.585,216.945,323.227,212.803,323.227z"/>
		<path d="M171.829,335.344c-3.119-2.726-7.856-2.408-10.583,0.711c-2.273,2.6-5.698,4.091-9.397,4.091s-7.124-1.491-9.397-4.092    c-2.726-3.119-7.465-3.437-10.583-0.711c-3.119,2.726-3.438,7.464-0.711,10.583c5.122,5.859,12.663,9.22,20.691,9.22    s15.569-3.36,20.691-9.22C175.266,342.808,174.948,338.07,171.829,335.344z"/>
		<path d="M309.419,365.496c-4.142,0-7.5,3.358-7.5,7.5v10.473c0,4.142,3.358,7.5,7.5,7.5s7.5-3.358,7.5-7.5v-10.473    C316.919,368.854,313.562,365.496,309.419,365.496z"/>
		<path d="M417.649,372.996v10.473c0,4.142,3.358,7.5,7.5,7.5s7.5-3.358,7.5-7.5v-10.473c0-4.142-3.358-7.5-7.5-7.5    S417.649,368.854,417.649,372.996z"/>
		<path d="M386.503,377.093c-3.118-2.726-7.856-2.409-10.583,0.71c-2.086,2.387-5.234,3.755-8.636,3.755s-6.549-1.369-8.635-3.755    c-2.726-3.119-7.464-3.437-10.583-0.711s-3.437,7.464-0.711,10.583c4.935,5.646,12.198,8.883,19.929,8.883    c7.73,0,14.994-3.238,19.929-8.882C389.939,384.558,389.621,379.82,386.503,377.093z"/>
		<path d="M89.817,481.902h124.064c13.138,0,26.106-3.792,37.093-10.762c10.35,6.967,22.624,10.762,35.624,10.762H447.97    c20.65,0,39.477-9.561,51.651-26.229c12.214-16.723,15.6-37.643,9.291-57.396c-4.105-12.853-8.806-25.598-13.973-37.881    c-1.605-3.817-6.001-5.611-9.821-4.005c-3.818,1.606-5.611,6.003-4.005,9.821c4.995,11.875,9.54,24.198,13.51,36.628    c4.836,15.142,2.243,31.174-7.115,43.985c-9.319,12.759-23.73,20.077-39.538,20.077H286.599c-11.467,0-22.189-3.868-30.775-10.853    c-18.975-15.437-20.913-38.495-13.558-60.248c12.595-37.116,43.584-111.594,97.991-145.108c2.216-1.365,3.566-3.782,3.566-6.386    v-99.4h46.924v99.4c0,2.604,1.35,5.021,3.566,6.386c27.69,17.057,53.446,47.828,74.484,88.988    c1.884,3.688,6.401,5.15,10.092,3.265c3.688-1.885,5.15-6.403,3.265-10.092c-21.721-42.497-47.409-73.646-76.407-92.665v-96.412    c10.37-3.208,17.925-12.885,17.925-24.295c0-14.02-11.406-25.425-25.425-25.425h-61.923c-14.02,0-25.425,11.406-25.425,25.425    c0,11.41,7.555,21.087,17.925,24.295v96.413c-15.992,10.498-31.059,24.792-45.025,42.694    c-20.19-35.295-54.145-61.451-93.486-71.753V79.84c10.37-3.208,17.925-12.885,17.925-24.295c0-14.02-11.406-25.425-25.425-25.425    h-61.924c-14.02,0-25.425,11.406-25.425,25.425c0,11.41,7.555,21.087,17.925,24.295v131.287    c-16.532,4.31-32.107,11.354-46.376,20.983c-3.434,2.316-4.339,6.979-2.022,10.412c2.316,3.434,6.978,4.338,10.412,2.021    c14.375-9.7,30.218-16.488,47.088-20.175c3.444-0.753,5.898-3.802,5.898-7.327V80.97h46.924v136.071    c0,3.525,2.455,6.574,5.898,7.327c39.917,8.725,74.308,35.473,92.796,71.943c-0.09,0.131-8.524,12.992-12.31,19.5    c-2.507-6.515-5.588-12.809-9.261-18.817c-6.004-9.824-16.913-15.927-28.468-15.927H79.731c-11.554,0-22.462,6.103-28.468,15.927    c-11.149,18.241-17.042,39.354-17.042,61.057c0,28.944,10.61,56.759,29.875,78.321c6.421,7.187,15.795,11.309,25.721,11.309    h124.064c5.09,0,10.021-1.078,14.499-3.106c2.676,5.82,6.241,11.275,10.649,16.158c-7.692,4.014-16.369,6.169-25.147,6.169H89.817    c-15.391,0-29.99-6.459-40.053-17.723C27.346,424.09,15,391.726,15,358.05c0-35.707,13.676-69.5,38.509-95.155    c2.881-2.976,2.804-7.724-0.172-10.605c-2.977-2.882-7.725-2.804-10.605,0.172C15.176,280.93,0,318.428,0,358.05    c0,37.367,13.701,73.28,38.579,101.123C51.484,473.618,70.16,481.902,89.817,481.902z M336.323,109.056h61.923    c5.749,0,10.425,4.677,10.425,10.425s-4.677,10.425-10.425,10.425h-61.923c-5.749,0-10.425-4.677-10.425-10.425    S330.574,109.056,336.323,109.056z M120.887,45.12h61.924c5.749,0,10.425,4.677,10.425,10.425S188.56,65.97,182.811,65.97h-61.924    c-5.749,0-10.425-4.677-10.425-10.425S115.139,45.12,120.887,45.12z M89.817,432.681c-5.659,0-10.956-2.297-14.535-6.303    c-16.806-18.81-26.062-43.076-26.062-68.328c0-19.212,4.993-37.123,14.841-53.234c3.299-5.397,9.303-8.75,15.669-8.75h144.236    c6.366,0,12.371,3.353,15.669,8.75c5.579,9.128,9.639,18.995,12.087,29.362c-8.431,16.647-15.535,33.881-21.814,51.443    c-5.133,14.358-9.251,28.865-6.189,44.518c-2.927,1.656-6.308,2.542-9.84,2.542H89.817z"/>
	</g>
</g>















</svg>
