<?xml version="1.0" encoding="iso-8859-1"?>
<!-- Generator: Adobe Illustrator 19.0.0, SVG Export Plug-In . SVG Version: 6.00 Build 0)  -->
<svg xmlns="http://www.w3.org/2000/svg" xmlns:xlink="http://www.w3.org/1999/xlink" version="1.1" id="Layer_1" x="0px" y="0px" viewBox="0 0 511.974 511.974" style="enable-background:new 0 0 511.974 511.974;" xml:space="preserve" width="512" height="512">
<g>
	<g>
		<path style="fill:#42C3E2;" d="M412.914,26.594l-13.435-13.435c-7.562-7.562-19.821-7.562-27.383,0L13.158,372.096    c-7.562,7.562-7.562,19.821,0,27.383l13.435,13.435l210.341-175.98L412.914,26.594z"/>
		<path style="fill:#6EE3FF;" d="M159.081,479.612l11.469-11.469l0.095-10.512l10.512-0.095l11.469-11.469l0.095-10.512    l10.512-0.095l11.469-11.469l0.095-10.512l10.512-0.095l11.469-11.469l0.095-10.512l10.512-0.095l11.469-11.469l0.095-10.512    l10.512-0.095l11.469-11.469l0.095-10.512l10.512-0.095l11.469-11.469l0.095-10.512l10.512-0.095l11.469-11.469l0.095-10.512    l10.512-0.095l11.469-11.469l0.095-10.512l10.512-0.095l11.469-11.469l0.095-10.512l10.512-0.095l11.469-11.469l0.095-10.512    l10.512-0.095l11.469-11.469l0.095-10.512l10.512-0.095l11.469-11.469l0.095-10.512l10.512-0.095l11.469-11.469l0.095-10.512    l10.512-0.095l11.469-11.469l0.095-10.512l10.512-0.095l8.599-8.599c7.562-7.562,7.562-19.821,0-27.383l-85.901-85.901    L26.594,412.915l85.901,85.901c7.562,7.562,19.821,7.562,27.383,0l8.597-8.597l0.095-10.512L159.081,479.612z"/>
	</g>
	<g>
		<path d="M189.008,285.788c-2.929,2.929-2.929,7.678,0,10.606c0,0,8.754,8.754,8.758,8.758c2.893,2.893,7.717,2.889,10.606,0    c2.929-2.929,2.929-7.678,0-10.607l-8.758-8.757C196.686,282.858,191.937,282.858,189.008,285.788z"/>
		<path d="M285.788,189.008c-2.929,2.929-2.929,7.678,0,10.607c0,0,8.747,8.747,8.758,8.758c2.816,2.816,7.675,2.931,10.606,0    c2.929-2.929,2.929-7.678,0-10.607l-8.758-8.758C293.465,186.079,288.716,186.079,285.788,189.008z"/>
		<path d="M239.409,255.31c-4.146-0.277-7.708,2.848-7.986,6.98c-0.278,4.133,2.847,7.708,6.98,7.986    c8.542,0.568,17.003-2.808,23.034-8.839c6.185-6.185,9.407-14.58,8.839-23.033c-0.277-4.133-3.854-7.258-7.985-6.981    c-4.133,0.278-7.258,3.853-6.98,7.986c0.277,4.134-1.355,8.297-4.48,11.421C247.706,253.955,243.54,255.587,239.409,255.31z"/>
		<path d="M107.192,504.119c5.237,5.237,12.116,7.855,18.995,7.855c6.879,0,13.758-2.619,18.995-7.855l358.938-358.938    c10.474-10.474,10.474-27.516,0-37.99L404.783,7.856c-10.473-10.474-27.516-10.474-37.99,0L71.677,302.971    c-2.929,2.929-2.929,7.678,0,10.606c2.837,2.837,7.693,2.914,10.606,0L377.4,18.462c4.625-4.625,12.151-4.625,16.777,0    l8.132,8.132c0,0-52.367,52.367-52.438,52.438c-3.26,3.261-2.66,9.036,1.176,11.567c2.934,1.937,6.951,1.519,9.43-0.961    L412.915,37.2c0,0,80.445,80.445,80.597,80.597c4.584,4.584,4.577,12.2,0,16.777l-8.599,8.599l-35.456-35.457    c-2.929-2.929-7.678-2.929-10.606,0c-2.929,2.929-2.929,7.678,0,10.607l35.456,35.456l-11.469,11.469l-22.316-22.316    c-2.929-2.929-7.678-2.929-10.606,0c-2.929,2.929-2.929,7.678,0,10.606l22.316,22.316l-11.469,11.469l-22.316-22.316    c-2.929-2.929-7.678-2.929-10.606,0c-2.929,2.929-2.929,7.678,0,10.606l22.316,22.316L418.687,209.4l-22.316-22.316    c-2.929-2.929-7.678-2.929-10.606,0c-2.929,2.929-2.929,7.678,0,10.606l22.316,22.316l-11.469,11.469l-22.316-22.316    c-2.929-2.929-7.678-2.929-10.606,0c-2.929,2.929-2.929,7.678,0,10.607l22.316,22.316l-11.469,11.469l-35.456-35.456    c-2.929-2.929-7.678-2.929-10.606,0c-2.929,2.929-2.929,7.678,0,10.606l35.456,35.456l-11.469,11.469l-22.316-22.316    c-2.929-2.929-7.678-2.929-10.606,0c-2.929,2.929-2.929,7.678,0,10.606l22.316,22.316l-11.469,11.469l-22.316-22.316    c-2.929-2.929-7.678-2.929-10.606,0c-2.929,2.929-2.929,7.678,0,10.607l22.316,22.316l-11.469,11.469l-22.316-22.316    c-2.928-2.929-7.677-2.929-10.606,0c-2.929,2.929-2.929,7.678,0,10.606l22.316,22.316l-11.469,11.469l-22.316-22.316    c-2.929-2.929-7.678-2.929-10.606,0c-2.929,2.929-2.929,7.678,0,10.606l22.316,22.316l-11.469,11.469l-35.456-35.457    c-2.929-2.929-7.678-2.929-10.606,0c-2.929,2.929-2.929,7.678,0,10.607l35.456,35.456l-11.469,11.469l-22.316-22.317    c-2.929-2.929-7.678-2.929-10.606,0c-2.929,2.929-2.929,7.678,0,10.607l22.316,22.316l-11.469,11.469l-22.316-22.316    c-2.929-2.929-7.678-2.929-10.606,0c-2.929,2.929-2.929,7.678,0,10.606l22.316,22.316l-11.469,11.469l-22.316-22.316    c-2.929-2.929-7.678-2.929-10.606,0c-2.929,2.929-2.929,7.678,0,10.606l22.316,22.316l-11.469,11.469l-22.316-22.316    c-2.929-2.929-7.678-2.929-10.606,0c-2.929,2.929-2.929,7.678,0,10.606l22.316,22.316l-11.469,11.469l-35.456-35.456    c-2.929-2.929-7.678-2.929-10.606,0c-2.929,2.929-2.929,7.678,0,10.607l35.456,35.456l-8.599,8.599    c-4.625,4.625-12.152,4.625-16.777,0L37.2,412.915l195.991-195.992c0,0,106.233-106.233,106.24-106.24    c2.853-2.853,2.905-7.702,0-10.606c-2.929-2.929-7.678-2.929-10.606,0L26.594,402.309l-8.132-8.132    c-4.625-4.625-4.625-12.151,0-16.777l42.944-42.944c2.929-2.929,2.929-7.677,0-10.606c-2.928-2.929-7.677-2.929-10.606,0    L7.856,366.793c-10.474,10.474-10.474,27.516,0,37.99L107.192,504.119z"/>
	</g>
</g>















</svg>
