<?xml version="1.0" encoding="iso-8859-1"?>
<!-- Generator: Adobe Illustrator 19.0.0, SVG Export Plug-In . SVG Version: 6.00 Build 0)  -->
<svg xmlns="http://www.w3.org/2000/svg" xmlns:xlink="http://www.w3.org/1999/xlink" version="1.1" id="Layer_1" x="0px" y="0px" viewBox="0 0 512 512" style="enable-background:new 0 0 512 512;" xml:space="preserve" width="512" height="512">
<g>
	<g>
		<path style="fill:#506366;" d="M158.565,413.813h-54.119c-2.523,0-4.569,2.046-4.569,4.569v54.48    c0,10.712,8.684,19.396,19.396,19.396h24.464c10.712,0,19.396-8.684,19.396-19.396v-54.48    C163.134,415.858,161.088,413.813,158.565,413.813z"/>
		<path style="fill:#506366;" d="M362.02,413.813h54.119c2.523,0,4.569,2.046,4.569,4.569v54.48    c0,10.712-8.684,19.396-19.396,19.396h-24.464c-10.712,0-19.396-8.684-19.396-19.396v-54.48    C357.451,415.858,359.497,413.813,362.02,413.813z"/>
		<g>
			<path style="fill:#506366;" d="M480.015,190.167c6.585,0,11.924-5.338,11.924-11.924V134.51     c0-24.622-20.031-44.654-44.653-44.654h-35.024c-6.585,0-11.924,5.339-11.924,11.924c0,6.586,5.339,11.924,11.924,11.924h35.024     c11.472,0,20.805,9.333,20.805,20.805v43.733C468.091,184.829,473.43,190.167,480.015,190.167z"/>
		</g>
		<g>
			<path style="fill:#506366;" d="M31.984,190.167c-6.585,0-11.924-5.338-11.924-11.924V134.51     c0-24.622,20.031-44.654,44.653-44.654h35.024c6.585,0,11.924,5.339,11.924,11.924c0,6.586-5.339,11.924-11.924,11.924H64.713     c-11.472,0-20.805,9.333-20.805,20.805v43.733C43.908,184.829,38.569,190.167,31.984,190.167z"/>
		</g>
		<path style="fill:#FADC60;" d="M368.928,19.742H143.071c-34.392,0-62.273,27.881-62.273,62.273v282.097L256,397.5l175.202-33.388    V82.015C431.201,47.623,403.321,19.742,368.928,19.742z"/>
		<path style="fill:#3A484A;" d="M416.139,413.813H362.02c-2.523,0-4.569,2.045-4.569,4.569v37.506h63.257v-37.506    C420.708,415.858,418.663,413.813,416.139,413.813z"/>
		<path style="fill:#3A484A;" d="M158.565,413.813h-54.12c-2.523,0-4.569,2.045-4.569,4.569v37.506h63.257v-37.506    C163.134,415.858,161.088,413.813,158.565,413.813z"/>
		<polygon style="fill:#E6CB59;" points="80.798,344.113 80.798,344.113 80.798,364.113 256,397.5 431.201,364.113 431.201,344.113       "/>
		<path style="fill:#B8B8B8;" d="M431.201,364.113H80.798c-9.398,0-17.016,7.618-17.016,17.016v32.743    c0,9.398,7.618,17.016,17.016,17.016h350.403c9.398,0,17.016-7.618,17.016-17.016v-32.743    C448.217,371.731,440.599,364.113,431.201,364.113z"/>
		<polygon style="fill:#EFEDEE;" points="182.547,285.661 260.305,274.576 338.038,285.661 338.038,311.055 260.305,323.752     182.547,311.055   "/>
		<path style="fill:#B8B8B8;" d="M338.038,275.225v10.436H182.547v-10.436c0-8.261,6.697-14.958,14.958-14.958H323.08    C331.341,260.267,338.038,266.964,338.038,275.225z"/>
		<path style="fill:#B8B8B8;" d="M338.038,311.055v10.436c0,8.261-6.697,14.958-14.958,14.958H197.504    c-8.261,0-14.958-6.697-14.958-14.958v-10.436H338.038z"/>
		<circle style="fill:#FA9F6A;" cx="130.796" cy="298.358" r="23.782"/>
		<path style="fill:#E0824A;" d="M140.796,312.14c-13.134,0-23.782-10.647-23.782-23.782c0-3.992,0.988-7.751,2.727-11.055    c-7.565,3.98-12.727,11.913-12.727,21.055c0,13.134,10.647,23.782,23.782,23.782c9.142,0,17.075-5.162,21.055-12.727    C148.547,311.151,144.788,312.14,140.796,312.14z"/>
		<circle style="fill:#FA9F6A;" cx="389.789" cy="298.358" r="23.782"/>
		<path style="fill:#E0824A;" d="M399.789,312.14c-13.134,0-23.782-10.647-23.782-23.782c0-3.992,0.988-7.751,2.727-11.055    c-7.565,3.98-12.727,11.913-12.727,21.055c0,13.134,10.647,23.782,23.782,23.782c9.142,0,17.075-5.162,21.055-12.727    C407.541,311.151,403.781,312.14,399.789,312.14z"/>
		<polygon style="fill:#506366;" points="256,169.192 114.188,188.589 114.188,221.976 397.812,221.976 397.812,188.589   "/>
		<path style="fill:#6EE3FF;" d="M397.812,82.015v106.574H114.188V82.015c0-15.931,12.954-28.885,28.885-28.885h225.854    C384.857,53.13,397.812,66.084,397.812,82.015z"/>
		<path style="fill:#42C3E2;" d="M368.926,53.13H143.073c-15.931,0-28.885,12.955-28.885,28.885v30    c0-15.931,12.954-28.885,28.885-28.885h225.854c15.931,0,28.885,12.955,28.885,28.885v-30    C397.812,66.084,384.857,53.13,368.926,53.13z"/>
		<path style="fill:#EFEDEE;" d="M310.289,397.5h-99.993c-7.247,0-13.122,5.875-13.122,13.122v31.946    c0,7.247,5.875,13.122,13.122,13.122h99.993c7.247,0,13.122-5.875,13.122-13.122v-31.946    C323.411,403.375,317.536,397.5,310.289,397.5z"/>
		<path style="fill:#FADC60;" d="M470.673,134.51h18.685c8.363,0,15.142,6.779,15.142,15.142v57.183    c0,8.363-6.779,15.142-15.142,15.142h-18.685c-8.363,0-15.142-6.779-15.142-15.142v-57.183    C455.531,141.289,462.31,134.51,470.673,134.51z"/>
		<path style="fill:#FADC60;" d="M41.326,134.51H22.641c-8.363,0-15.142,6.779-15.142,15.142v57.183    c0,8.363,6.779,15.142,15.142,15.142h18.685c8.363,0,15.142-6.779,15.142-15.142v-57.183    C56.468,141.289,49.689,134.51,41.326,134.51z"/>
	</g>
	<g>
		<path d="M323.081,252.768H197.505c-12.383,0-22.458,10.074-22.458,22.458v46.266c0,12.383,10.074,22.458,22.458,22.458h125.576    c12.383,0,22.458-10.074,22.458-22.458v-46.266C345.538,262.842,335.464,252.768,323.081,252.768z M190.047,293.161h140.491    v10.394H190.047V293.161z M190.047,275.225c0-4.112,3.345-7.458,7.458-7.458h125.576c4.112,0,7.458,3.345,7.458,7.458v2.936    H190.047V275.225z M330.538,321.491c0,4.112-3.345,7.458-7.458,7.458H197.505c-4.112,0-7.458-3.345-7.458-7.458v-2.936h140.491    V321.491z"/>
		<path d="M130.796,329.64c17.249,0,31.281-14.033,31.281-31.282s-14.032-31.282-31.281-31.282s-31.281,14.033-31.281,31.282    S113.547,329.64,130.796,329.64z M130.796,282.076c8.978,0,16.281,7.304,16.281,16.282s-7.304,16.282-16.281,16.282    s-16.281-7.304-16.281-16.282S121.818,282.076,130.796,282.076z"/>
		<path d="M358.508,298.358c0,17.249,14.033,31.282,31.281,31.282s31.282-14.033,31.282-31.282s-14.033-31.282-31.282-31.282    S358.508,281.109,358.508,298.358z M406.071,298.358c0,8.978-7.304,16.282-16.282,16.282c-8.978,0-16.281-7.304-16.281-16.282    s7.304-16.282,16.281-16.282C398.767,282.076,406.071,289.38,406.071,298.358z"/>
		<path d="M156.846,112.96v16.588c0,4.142,3.358,7.5,7.5,7.5s7.5-3.358,7.5-7.5V112.96c0-4.142-3.358-7.5-7.5-7.5    S156.846,108.818,156.846,112.96z"/>
		<path d="M355.154,129.548V112.96c0-4.142-3.358-7.5-7.5-7.5s-7.5,3.358-7.5,7.5v16.588c0,4.142,3.358,7.5,7.5,7.5    S355.154,133.69,355.154,129.548z"/>
		<path d="M272.975,123.458c-4.135,4.731-10.323,7.444-16.975,7.444s-12.839-2.713-16.975-7.444    c-2.726-3.118-7.463-3.437-10.583-0.711c-3.119,2.726-3.437,7.464-0.711,10.583c6.984,7.99,17.288,12.572,28.268,12.572    s21.284-4.582,28.268-12.572c2.726-3.118,2.408-7.856-0.711-10.583C280.439,120.021,275.701,120.34,272.975,123.458z"/>
		<path d="M512,206.834v-57.183c0-8.97-5.243-16.738-12.825-20.401c-2.646-26.297-24.906-46.895-51.889-46.895h-8.584v-0.341    c0-38.473-31.3-69.773-69.773-69.773H143.071c-38.473,0-69.773,31.3-69.773,69.773v0.341h-8.585    c-26.982,0-49.243,20.597-51.889,46.895C5.243,132.914,0,140.682,0,149.652v57.183c0,12.485,10.157,22.642,22.642,22.642h18.685    c12.485,0,22.642-10.157,22.642-22.642v-57.183c0-8.517-4.729-15.948-11.697-19.813c1.897-5.036,6.751-8.635,12.442-8.635h8.585    v236.586c-9.861,3.176-17.017,12.436-17.017,23.338v32.743c0,13.518,10.998,24.516,24.517,24.516h11.579v34.473    c0,14.831,12.065,26.896,26.896,26.896h24.465c14.831,0,26.896-12.065,26.896-26.896v-34.473h19.04v4.18    c0,11.371,9.251,20.622,20.622,20.622h99.993c11.371,0,20.622-9.251,20.622-20.622v-4.18h19.04v34.473    c0,14.831,12.066,26.896,26.896,26.896h24.464c14.831,0,26.896-12.065,26.896-26.896v-34.473h2.994    c13.518,0,24.516-10.998,24.516-24.516v-32.743c0-10.903-7.156-20.162-17.016-23.338V121.205h8.584    c5.691,0,10.545,3.599,12.442,8.635c-6.968,3.865-11.697,11.295-11.697,19.813v57.183c0,12.485,10.157,22.642,22.642,22.642    h18.685C501.843,229.477,512,219.319,512,206.834z M88.298,82.015c0-30.202,24.571-54.773,54.773-54.773h225.857    c30.202,0,54.773,24.571,54.773,54.773v274.598H88.298V82.015z M48.969,206.834c0,4.214-3.429,7.642-7.642,7.642H22.642    c-4.214,0-7.642-3.428-7.642-7.642v-57.183c0-3.703,2.647-6.797,6.148-7.493c0.485-0.096,1-0.149,1.493-0.149h18.685    c0.467,0,0.948,0.05,1.408,0.136c3.542,0.663,6.234,3.774,6.234,7.506V206.834z M64.713,106.205c-13.011,0-24,8.826-27.296,20.805    h-9.096c3.479-16.904,18.475-29.653,36.393-29.653h8.585v8.848H64.713z M155.634,472.861c0,6.56-5.336,11.896-11.896,11.896    h-24.465c-6.56,0-11.896-5.337-11.896-11.896v-34.473h48.257V472.861z M315.911,442.568c0,3.1-2.522,5.622-5.622,5.622h-99.993    c-3.1,0-5.622-2.522-5.622-5.622v-31.946c0-3.1,2.522-5.622,5.622-5.622h99.993c3.1,0,5.622,2.522,5.622,5.622V442.568z     M413.208,472.861c0,6.56-5.336,11.896-11.896,11.896h-24.464c-6.56,0-11.896-5.337-11.896-11.896v-34.473h48.257V472.861z     M440.718,413.872c0,5.247-4.269,9.516-9.516,9.516H330.911c0,0,0-12.762,0-12.766c0-11.015-9.278-20.622-20.622-20.622    c0,0-99.952,0-99.993,0c-11.025,0-20.622,9.281-20.622,20.622v12.766H80.798c-5.248,0-9.517-4.269-9.517-9.516v-32.743    c0-5.247,4.269-9.516,9.517-9.516h350.403c5.247,0,9.516,4.269,9.516,9.516V413.872z M447.286,106.205h-8.584v-8.848h8.584    c17.918,0,32.914,12.749,36.393,29.653h-9.096C471.287,115.03,460.298,106.205,447.286,106.205z M497,206.834    c0,4.214-3.428,7.642-7.642,7.642h-18.685c-4.213,0-7.642-3.428-7.642-7.642v-57.183c0-3.703,2.648-6.797,6.149-7.493    c0.484-0.096,0.999-0.149,1.492-0.149c0,0,18.666,0,18.685,0c0.467,0,0.948,0.05,1.407,0.136c3.543,0.663,6.235,3.774,6.235,7.506    V206.834z"/>
		<path d="M114.188,229.477h34.257c4.142,0,7.5-3.358,7.5-7.5s-3.358-7.5-7.5-7.5h-26.757v-18.388h268.624v18.388H178.329    c-4.142,0-7.5,3.358-7.5,7.5s3.358,7.5,7.5,7.5h219.483c4.142,0,7.5-3.358,7.5-7.5V82.015c0-20.063-16.322-36.385-36.385-36.385    h-34.171c-4.142,0-7.5,3.358-7.5,7.5s3.358,7.5,7.5,7.5h34.171c11.792,0,21.385,9.593,21.385,21.385v99.074H121.688V82.015    c0-11.792,9.593-21.385,21.385-21.385h162.82c4.142,0,7.5-3.358,7.5-7.5s-3.358-7.5-7.5-7.5h-162.82    c-20.063,0-36.385,16.322-36.385,36.385v139.961C106.688,226.119,110.046,229.477,114.188,229.477z"/>
	</g>
</g>















</svg>
