<?xml version="1.0" encoding="iso-8859-1"?>
<!-- Generator: Adobe Illustrator 19.0.0, SVG Export Plug-In . SVG Version: 6.00 Build 0)  -->
<svg xmlns="http://www.w3.org/2000/svg" xmlns:xlink="http://www.w3.org/1999/xlink" version="1.1" id="Layer_1" x="0px" y="0px" viewBox="0 0 512 512" style="enable-background:new 0 0 512 512;" xml:space="preserve" width="512" height="512">
<g>
	<g>
		<path style="fill:#58B78C;" d="M360.37,19.101c-20.497-9.754-48.452-6.201-70.966,11.086    c-22.514,17.287-33.164,43.378-29.032,65.698c20.496,9.754,48.452,6.201,70.966-11.086    C353.852,67.511,364.502,41.421,360.37,19.101z"/>
		<path style="fill:#C86D5C;" d="M277.859,116.178c-4.714-52.213-30.8-89.374-75.63-108.016c-4.63-1.925-9.929,0.504-11.568,5.244    l-4.254,12.298c-1.497,4.327,0.592,9.093,4.805,10.885c33.503,14.246,52.406,41.635,56.227,81.53    c3.273,34.172-5.918,65.013-6.011,65.32c-2.451,8.037,2.069,16.544,10.105,19.009c1.489,0.456,2.992,0.673,4.473,0.673    c6.517,0,12.549-4.216,14.56-10.771C271.012,190.892,281.472,156.191,277.859,116.178z"/>
		<path style="fill:#AD4F3D;" d="M248.124,130.715c0.434,28.804-6.615,52.455-6.696,52.724c-2.451,8.037,2.069,16.544,10.105,19.009    c1.489,0.456,2.992,0.673,4.473,0.673c6.517,0,12.549-4.216,14.56-10.771c0.418-1.362,9.572-31.743,7.828-68.361    c-7.591,3.146-15.073,6.795-22.393,10.933C253.396,133.45,250.766,132.063,248.124,130.715z"/>
		<path style="fill:#FD6F71;" d="M268.038,156.834c-7.477,4.243-16.6,4.243-24.077,0C128.015,91.046-0.782,178.583,33.571,327.776    C69.119,482.155,146.309,504.5,184.904,504.5s45.704-10.157,71.096-10.157s32.501,10.157,71.096,10.157    s115.785-22.344,151.333-176.724C512.782,178.583,383.984,91.046,268.038,156.834z"/>
		<path style="fill:#E36465;" d="M83.571,327.776c-23.864-103.638,31.002-177.522,105.598-190.928    C91.647,120.005,4.603,201.969,33.571,327.776C69.119,482.155,146.309,504.5,184.904,504.5c11.909,0,20.815-0.969,28.191-2.306    C172.053,493.579,113.276,456.779,83.571,327.776z"/>
	</g>
	<g>
		<path d="M153.067,306.328v17.278c0,4.143,3.358,7.5,7.5,7.5s7.5-3.357,7.5-7.5v-17.278c0-4.143-3.358-7.5-7.5-7.5    S153.067,302.186,153.067,306.328z"/>
		<path d="M344.01,306.328v17.278c0,4.143,3.358,7.5,7.5,7.5s7.5-3.357,7.5-7.5v-17.278c0-4.143-3.358-7.5-7.5-7.5    S344.01,302.186,344.01,306.328z"/>
		<path d="M273.956,317.469c-4.367,4.996-10.897,7.861-17.917,7.861c-7.019,0-13.55-2.865-17.917-7.861    c-2.726-3.119-7.464-3.437-10.583-0.711s-3.437,7.464-0.711,10.583c7.216,8.255,17.863,12.99,29.21,12.99    c11.348,0,21.995-4.734,29.211-12.989c2.726-3.119,2.408-7.857-0.711-10.583C281.42,314.032,276.682,314.35,273.956,317.469z"/>
		<path d="M168.524,127.229c-25.506-0.764-50.479,5-72.242,16.671c-3.65,1.958-5.022,6.504-3.064,10.154    c1.958,3.65,6.505,5.022,10.154,3.064c41.143-22.065,91.051-19.792,136.927,6.238c4.77,2.707,10.274,4.154,15.757,4.154    c8.655,0,15.308-4.117,22.747-7.909c24.267-12.361,49.99-18.353,74.861-17.33c25.882,1.063,50.219,9.567,70.381,24.594    c44.775,33.372,62.388,92.896,47.114,159.227c-9.188,39.902-21.881,73.56-37.728,100.038c-2.127,3.555-0.97,8.16,2.584,10.287    c3.509,2.1,8.186,0.927,10.287-2.584c16.652-27.826,29.933-62.943,39.474-104.375c16.649-72.306-3.077-137.584-52.768-174.62    c-22.593-16.839-49.817-26.368-78.729-27.555c-22.657-0.931-45.878,3.358-68.232,12.491c0.247-8.313,0.028-16.441-0.679-24.271    c-0.207-2.296-0.469-4.556-0.756-6.797c0.189,0.001,0.377,0.01,0.566,0.01c17.646,0,35.676-6.382,50.768-17.97    c24.123-18.523,36.62-47.181,31.838-73.011c-0.438-2.363-1.981-4.374-4.152-5.407c-8.344-3.971-18.017-6.069-27.975-6.069    c-17.648,0-35.682,6.385-50.781,17.979c-8.813,6.767-16.132,14.89-21.633,23.926c-13.613-20.686-33.117-36.54-58.096-46.927    C203.173,0.416,201.093,0,198.965,0c-6.917,0-13.086,4.402-15.353,10.954l-4.254,12.298c-2.778,8.031,1.157,16.921,8.958,20.238    c30.768,13.083,48.161,38.432,51.696,75.343c0.833,8.692,0.882,17.889,0.171,27.442    C216.928,134.374,192.862,127.958,168.524,127.229z M294.012,36.135c12.493-9.593,27.283-14.876,41.646-14.876    c6.319,0,12.439,1.063,17.925,3.095c1.879,19.322-8.321,40.328-26.772,54.496c-12.486,9.588-27.271,14.868-41.633,14.868    c-1.064,0-2.125-0.03-3.178-0.089c0-0.002-0.001-0.004-0.001-0.007c-0.6-2.712-1.256-5.385-1.984-8.005    c11.677-11.827,28.485-26.935,47-37.461c3.601-2.047,4.86-6.626,2.813-10.227c-2.048-3.601-6.626-4.86-10.227-2.813    c-17.284,9.827-33.021,23.188-44.973,34.733c-0.841-2.054-1.723-4.077-2.654-6.061C276.616,53.192,284.184,43.681,294.012,36.135z     M194.186,29.687c-0.578-0.246-0.864-0.918-0.652-1.531l4.254-12.298c0.221-0.637,0.961-1.038,1.601-0.77    c20.987,8.727,37.673,21.78,49.596,38.797c12.912,18.43,19.435,40.724,21.444,62.968c0.865,9.58,0.957,19.661,0.275,30.025    c-2.127,1.106-4.242,2.25-6.327,3.433c-2.967,1.684-6.348,2.39-9.666,2.131c1.214-12.208,1.293-23.966,0.232-35.038    C250.844,74.599,230.402,45.086,194.186,29.687z"/>
		<path d="M79.794,173.582c3.095-2.753,3.371-7.494,0.618-10.588c-2.754-3.095-7.495-3.371-10.588-0.618    c-20.329,18.088-35.18,42.204-42.948,69.74c-8.398,29.774-8.592,62.525-0.574,97.344C64.238,494.213,149.882,512,184.943,512    c22.284,0,34.579-3.251,45.427-6.119c17.736-4.689,33.661-4.674,51.336,0c10.848,2.868,23.144,6.119,45.429,6.119    c21.644,0,63.546-6.785,101-52.227c2.634-3.196,2.179-7.923-1.018-10.558c-3.196-2.635-7.924-2.179-10.558,1.018    C383.021,490.924,346.136,497,327.135,497c-20.335,0-31.142-2.857-41.594-5.621c-20.262-5.358-38.814-5.338-59.004,0    c-10.452,2.764-21.259,5.621-41.594,5.621c-17.802,0-44.723-4.966-71.882-28.625c-32.687-28.474-56.958-76.344-72.142-142.282    C26.597,263.896,40.767,208.307,79.794,173.582z"/>
	</g>
</g>















</svg>
