<?xml version="1.0" encoding="iso-8859-1"?>
<!-- Generator: Adobe Illustrator 19.0.0, SVG Export Plug-In . SVG Version: 6.00 Build 0)  -->
<svg xmlns="http://www.w3.org/2000/svg" xmlns:xlink="http://www.w3.org/1999/xlink" version="1.1" id="Layer_1" x="0px" y="0px" viewBox="0 0 512 512" style="enable-background:new 0 0 512 512;" xml:space="preserve" width="512" height="512">
<g>
	<g>
		<path style="fill:#3A484A;" d="M248.313,488.204l-9.004-22.651l-18.553-24.443l-18.553,24.443l-9.004,22.651    c-3.106,7.813,2.651,16.296,11.058,16.296h32.997C245.663,504.5,251.419,496.018,248.313,488.204z"/>
		<path style="fill:#3A484A;" d="M367.2,488.204l9.004-22.651l18.553-24.443l18.553,24.443l9.004,22.651    c3.106,7.813-2.651,16.296-11.058,16.296h-32.997C369.851,504.5,364.094,496.018,367.2,488.204z"/>
		<g>
			<path style="fill:#506366;" d="M220.757,337.641H119.633c-33.477,0-60.714-27.236-60.714-60.714     c0-33.478,27.236-60.714,60.714-60.714h27.29v30.346h-27.29c-16.745,0-30.368,13.624-30.368,30.368s13.623,30.368,30.368,30.368     h101.124V337.641z"/>
		</g>
		<rect x="202.204" y="208.864" style="fill:#506366;" width="37.106" height="256.69"/>
		<rect x="376.204" y="208.864" style="fill:#506366;" width="37.106" height="256.69"/>
		<path style="fill:#FADC60;" d="M441.849,197.227L411.894,31.474C409.386,17.595,397.303,7.5,383.199,7.5H232.314    c-14.104,0-26.186,10.094-28.694,23.974l-29.955,165.753c-3.216,17.794,10.458,34.159,28.539,34.159H413.31    C431.392,231.386,445.065,215.02,441.849,197.227z"/>
		<path style="fill:#E6CB59;" d="M203.664,197.226L233.62,31.474C236.128,17.595,248.21,7.5,262.314,7.5h-30    c-14.104,0-26.186,10.095-28.694,23.974l-29.955,165.753c-3.216,17.794,10.458,34.16,28.539,34.16h30    C214.122,231.386,200.448,215.02,203.664,197.226z"/>
		<path style="fill:#FADC60;" d="M418.887,296.137H196.626c-18.884,0-34.193,15.309-34.193,34.193v0    c0,10.199,8.268,18.467,18.467,18.467h253.713c10.199,0,18.467-8.268,18.467-18.467v0    C453.08,311.446,437.771,296.137,418.887,296.137z"/>
		<path style="fill:#E6CB59;" d="M192.433,330.331L192.433,330.331c0-18.885,15.309-34.193,34.193-34.193h-30    c-18.884,0-34.193,15.309-34.193,34.193l0,0c0,10.199,8.268,18.467,18.467,18.467h30    C200.701,348.798,192.433,340.53,192.433,330.331z"/>
		<path style="fill:#FD6F71;" d="M285.234,208.864H143.735c-12.439,0-22.522,10.084-22.522,22.522v0    c0,12.439,10.084,22.522,22.522,22.522h141.499c12.439,0,22.522-10.084,22.522-22.522v0    C307.757,218.947,297.673,208.864,285.234,208.864z"/>
		<path style="fill:#E36465;" d="M151.213,231.386L151.213,231.386c0-12.439,10.084-22.522,22.522-22.522h-30    c-12.439,0-22.522,10.083-22.522,22.522l0,0c0,12.439,10.084,22.522,22.522,22.522h30    C161.297,253.909,151.213,243.825,151.213,231.386z"/>
	</g>
	<g>
		<path d="M225.753,107.543v13.484c0,4.142,3.358,7.5,7.5,7.5s7.5-3.358,7.5-7.5v-13.484c0-4.142-3.358-7.5-7.5-7.5    S225.753,103.401,225.753,107.543z"/>
		<path d="M382.26,128.527c4.142,0,7.5-3.358,7.5-7.5v-13.484c0-4.142-3.358-7.5-7.5-7.5s-7.5,3.358-7.5,7.5v13.484    C374.76,125.169,378.118,128.527,382.26,128.527z"/>
		<path d="M307.757,135.725c9.331,0,18.091-3.9,24.035-10.7c2.726-3.119,2.408-7.857-0.71-10.583    c-3.119-2.727-7.857-2.409-10.583,0.71c-3.096,3.541-7.74,5.572-12.742,5.572s-9.646-2.031-12.742-5.572    c-2.727-3.118-7.465-3.437-10.583-0.71c-3.119,2.726-3.437,7.464-0.71,10.583C289.666,131.824,298.426,135.725,307.757,135.725z"/>
		<path d="M266.974,7.5c0-4.142-3.358-7.5-7.5-7.5h-27.16c-17.747,0-32.918,12.675-36.075,30.14l-29.956,165.754    c-0.329,1.821-0.519,3.647-0.573,5.47h-21.976c-7.508,0-14.376,2.777-19.646,7.35h-4.456c-37.613,0-68.214,30.601-68.214,68.214    s30.601,68.214,68.214,68.214h39.956c4.696,6.736,12.495,11.157,21.312,11.157h13.803v107.82c0,0-8.464,21.295-8.473,21.316    C181.25,497.966,190.799,512,204.258,512c0,0,32.97,0,32.997,0c13.473,0,23.006-14.042,18.028-26.566l-8.474-21.317V356.297    h72.664c4.142,0,7.5-3.358,7.5-7.5s-3.358-7.5-7.5-7.5H180.9c-4.515,0-8.4-2.744-10.079-6.651    c-2.02-4.7-0.683-10.245,1.238-14.751c4.071-9.548,13.55-16.258,24.568-16.258h222.261c14.719,0,26.693,11.975,26.693,26.693    c0,6.047-4.92,10.967-10.967,10.967h-85.14c-4.142,0-7.5,3.358-7.5,7.5s3.358,7.5,7.5,7.5h19.23v107.819    c0,0-8.467,21.3-8.474,21.317C355.25,497.964,364.814,512,378.259,512c0,0,32.968,0,32.997,0c13.47,0,23.008-14.04,18.028-26.566    l-8.473-21.316v-107.82h13.803c14.318,0,25.967-11.649,25.967-25.967c0-22.345-17.67-40.635-39.771-41.644v-50.584    c7.96-1.664,15.19-5.945,20.512-12.314c6.955-8.324,9.837-19.22,7.908-29.895L419.274,30.139C416.118,12.675,400.947,0,383.2,0    h-93.726c-4.142,0-7.5,3.358-7.5,7.5s3.358,7.5,7.5,7.5H383.2c10.485,0,19.449,7.489,21.314,17.807l29.956,165.753    c1.136,6.288-0.562,12.707-4.659,17.61s-10.111,7.716-16.5,7.716c0,0-99.001,0-99.005-0.013c-1.28-4.945-3.891-9.584-7.428-13.265    c-5.629-5.858-13.507-9.243-21.643-9.245H180.722c0.046-0.934,0.154-1.869,0.322-2.803L211,32.807    C212.865,22.489,221.829,15,232.314,15h27.16C263.616,15,266.974,11.642,266.974,7.5z M240.896,495.071    c-0.394,0.58-1.536,1.929-3.641,1.929c0,0-32.997,0-33,0c-3.073-0.002-5.216-3.183-4.085-6.025l7.124-17.921h26.927l7.124,17.921    C242.121,492.93,241.29,494.491,240.896,495.071z M231.81,356.297v101.756h-22.106V356.297H231.81z M414.875,495.058    c-0.783,1.15-2.091,1.942-3.62,1.942c0,0-32.997,0-32.998,0c-3.073-0.001-5.219-3.179-4.088-6.025l7.124-17.921h26.927    c0,0,7.124,17.921,7.125,17.924C415.913,492.407,415.655,493.911,414.875,495.058z M405.81,458.053h-22.106V356.297h22.106    V458.053z M285.234,216.363c7.766,0,14.174,5.923,14.945,13.489c0.889,8.724-6.173,16.556-14.945,16.556c0,0-141.476,0-141.499,0    c-8.146,0-15.022-6.868-15.022-15.022c0-8.168,6.868-15.022,15.022-15.022H285.234z M194.704,288.686    c-10.182,0.465-19.418,4.6-26.425,11.108h-48.646c-12.609,0-22.868-10.258-22.868-22.868s10.258-22.868,22.868-22.868h4.456    c5.27,4.572,12.137,7.35,19.646,7.35h50.968V288.686z M285.234,261.408c13.966,0,25.735-9.585,29.074-22.522h54.396v49.751H246.81    v-27.229H285.234z M66.419,276.927c0-27.661,21.214-50.46,48.227-52.982c-1.259,4.967-1.231,10.257,0.092,15.208    c0.019,0.071,0.032,0.144,0.052,0.215c-18.6,2.386-33.023,18.32-33.023,37.56c0,20.88,16.987,37.868,37.868,37.868h38.295    c-0.123,0.305-0.231,0.616-0.346,0.924c-1.706,4.562-2.626,9.513-2.648,14.422h-35.3    C90.291,330.141,66.419,306.269,66.419,276.927z M209.704,288.637v-27.229h22.106v27.229H209.704z M405.81,238.886v49.751h-22.106    v-49.751H405.81z"/>
	</g>
</g>















</svg>
