<?xml version="1.0" encoding="iso-8859-1"?>
<!-- Generator: Adobe Illustrator 19.0.0, SVG Export Plug-In . SVG Version: 6.00 Build 0)  -->
<svg xmlns="http://www.w3.org/2000/svg" xmlns:xlink="http://www.w3.org/1999/xlink" version="1.1" id="Layer_1" x="0px" y="0px" viewBox="0 0 512 512" style="enable-background:new 0 0 512 512;" xml:space="preserve" width="512" height="512">
<g>
	<g>
		<path style="fill:#3A484A;" d="M63.601,420.493l-50.322,50.322c-7.706,7.706-7.706,20.199,0,27.905s20.199,7.706,27.905,0    l50.322-50.322L63.601,420.493z"/>
		<path style="fill:#3A484A;" d="M344.523,368.497l98.642-98.642c15.504-15.504,15.504-40.642,0-56.146l0,0l-61.952,5.444    l-90.433,90.433l22.366,34.142c-15.299,15.299-15.299,40.104,0,55.403l0,0c8.093,8.093,21.165,9.061,29.929,1.699    C353.06,392.441,353.543,377.517,344.523,368.497z"/>
		<polygon style="fill:#FADC60;" points="443.165,213.709 474.496,182.378 425.479,74.617 329.622,37.504 298.291,68.835     338.596,191.228 443.165,213.709 443.165,213.709 443.165,213.709 443.165,213.709   "/>
		<polygon style="fill:#E6CB59;" points="319.504,90.048 350.835,58.717 432.656,90.396 425.479,74.617 329.622,37.504     298.291,68.835 338.596,191.228 353.908,194.52   "/>
		<polygon style="fill:#FADC60;" points="173.118,343.282 76.748,290.378 45.416,321.71 106.353,409.149 190.29,466.583     221.621,435.252   "/>
		<polygon style="fill:#E6CB59;" points="66.629,342.923 97.961,311.591 180.221,356.748 173.118,343.282 76.748,290.378     45.416,321.71 106.353,409.149 118.644,417.559   "/>
		<path style="fill:#6EE3FF;" d="M190.29,466.583c-20.006,20.006-46.222,30.006-72.437,30.006    c-26.215,0-52.438-10.007-72.437-30.006c-40.005-40.005-40.005-104.869,0-144.874L190.29,466.583z"/>
		<path style="fill:#42C3E2;" d="M66.63,342.922l-21.213-21.213c-40.005,40.005-40.005,104.869,0,144.874    c3.603,3.603,7.411,6.876,11.381,9.831C26.954,436.305,30.228,379.324,66.63,342.922z"/>
		
			<rect x="103.301" y="149.602" transform="matrix(0.7071 -0.7071 0.7071 0.7071 -102.0823 257.6386)" style="fill:#6EE3FF;" width="313.309" height="204.883"/>
		
			<rect x="41.471" y="175.213" transform="matrix(0.7071 -0.7071 0.7071 0.7071 -76.4713 195.8083)" style="fill:#42C3E2;" width="313.309" height="30"/>
		<path style="fill:#6EE3FF;" d="M474.496,182.378L329.622,37.504c40.005-40.005,104.869-40.005,144.874,0    S514.501,142.373,474.496,182.378z"/>
		<path style="fill:#42C3E2;" d="M484.327,48.885c-2.955-3.97-6.228-7.778-9.831-11.382c-40.005-40.005-104.869-40.005-144.874,0    l21.213,21.213C387.237,22.316,444.218,19.042,484.327,48.885z"/>
	</g>
	<g>
		<path d="M216.294,207.397c1.919,0,3.839-0.732,5.303-2.197l8.669-8.669c2.929-2.929,2.929-7.678,0-10.606    c-2.929-2.929-7.678-2.929-10.606,0l-8.669,8.669c-2.929,2.929-2.929,7.678,0,10.606    C212.455,206.665,214.374,207.397,216.294,207.397z"/>
		<path d="M312.096,303.2c1.919,0,3.839-0.732,5.303-2.197l8.669-8.669c2.929-2.929,2.929-7.678,0-10.606    c-2.929-2.929-7.678-2.929-10.606,0l-8.669,8.669c-2.929,2.929-2.929,7.678,0,10.606C308.257,302.467,310.177,303.2,312.096,303.2    z"/>
		<path d="M275.224,266.564c0.632,0,1.266-0.021,1.899-0.063c4.133-0.277,7.258-3.853,6.98-7.985    c-0.277-4.133-3.862-7.258-7.985-6.981c-4.072,0.274-8.17-1.334-11.248-4.412c-3.077-3.077-4.686-7.177-4.412-11.248    c0.278-4.133-2.847-7.708-6.98-7.986c-4.147-0.278-7.708,2.848-7.986,6.98c-0.564,8.39,2.633,16.722,8.771,22.86    C259.939,263.404,267.488,266.564,275.224,266.564z"/>
		<path d="M117.847,504.089c29.366,0,56.975-11.437,77.741-32.204l98.641-98.642c0.437,11.341,4.967,22.552,13.606,31.19    c10.656,10.656,28.402,11.929,40.056,2.138c10.846-9.112,13.667-25.132,6.54-37.384l94.03-94.03    c16.598-16.599,18.22-42.583,4.877-61.023c0,0,26.453-26.453,26.454-26.454c20.765-20.765,32.201-48.373,32.201-77.74    c0-29.366-11.436-56.975-32.201-77.74C459.028,11.436,431.419,0,402.053,0c-29.366,0-56.974,11.435-77.74,32.201    c0,0-284.206,284.205-284.208,284.208c-36.219,36.222-41.83,91.636-16.838,133.807L7.97,465.512    c-10.618,10.618-10.618,27.894,0,38.512C13.113,509.167,19.952,512,27.226,512c7.273,0,14.112-2.833,19.255-7.976l15.274-15.274    C78.553,498.75,97.789,504.089,117.847,504.089z M437.855,264.552c0,0-98.589,98.589-98.642,98.642    c-2.893,2.893-2.892,7.716,0,10.606c5.939,5.937,5.431,15.91-0.969,21.287c-5.779,4.855-14.572,3.97-19.802-1.259    c-12.349-12.349-12.35-32.441-0.004-44.792l124.097-124.097C450.145,237.341,448.585,253.822,437.855,264.552z M469.186,42.807    c35.232,35.233,36.931,91.496,5.096,128.756l-89.861-89.861c-2.929-2.929-7.678-2.929-10.606,0c-2.929,2.929-2.929,7.678,0,10.606    l90.068,90.068l-20.725,20.725L308.891,68.835l20.725-20.725l23.192,23.191c2.929,2.929,7.678,2.929,10.606,0    c2.929-2.929,2.929-7.678,0-10.606l-22.987-22.986C357.597,23.013,379.209,15,402.053,15    C427.413,15,451.255,24.875,469.186,42.807z M76.741,300.984l95.739,95.739c2.929,2.929,7.678,2.929,10.606,0    c2.929-2.929,2.929-7.678,0-10.606l-95.739-95.739L298.285,79.441l134.267,134.268L221.615,424.646l-17.625-17.625    c-2.929-2.929-7.678-2.929-10.606,0c-2.85,2.851-2.883,7.724,0,10.606l17.625,17.625l-20.725,20.725L56.017,321.709    L76.741,300.984z M45.618,332.523l133.855,133.854c-17.17,14.697-38.783,22.711-61.625,22.711    c-19.049,0-37.241-5.573-52.716-15.947c-0.078-0.058-0.151-0.121-0.231-0.175c-10.159-6.841-18.991-15.652-25.832-25.814    C15.581,412.271,17.764,365.124,45.618,332.523z M35.874,493.417c-4.716,4.716-12.587,4.711-17.298,0    c-4.769-4.769-4.769-12.53,0-17.299l13.362-13.362c0.058,0.072,0.118,0.142,0.176,0.214c2.495,3.116,5.171,6.091,7.993,8.916    c2.888,2.888,5.941,5.615,9.128,8.171C49.235,480.058,35.879,493.413,35.874,493.417z"/>
	</g>
</g>















</svg>
