<?xml version="1.0" encoding="iso-8859-1"?>
<!-- Generator: Adobe Illustrator 19.0.0, SVG Export Plug-In . SVG Version: 6.00 Build 0)  -->
<svg xmlns="http://www.w3.org/2000/svg" xmlns:xlink="http://www.w3.org/1999/xlink" version="1.1" id="Layer_1" x="0px" y="0px" viewBox="0 0 511.963 511.963" style="enable-background:new 0 0 511.963 511.963;" xml:space="preserve" width="512" height="512">
<g>
	<g>
		<path style="fill:#506366;" d="M275.693,234.218c9.037-5.887,21.133-3.337,27.02,5.698l131.93,202.435l-23.307,15.296    l-23.307-15.296L269.995,261.238C264.107,252.203,266.658,240.106,275.693,234.218z"/>
		<path style="fill:#506366;" d="M297.016,234.218c-9.037-5.887-21.133-3.337-27.02,5.698l-131.93,202.435l23.307,15.296    l23.307-15.296l118.034-181.113C308.602,252.203,306.051,240.106,297.016,234.218z"/>
		<polygon style="fill:#937FE6;" points="112.711,259.289 78.454,250.577 36.096,267.36 29.811,292.136 51.361,305.883     93.718,289.1   "/>
		<path style="fill:#B6A4FF;" d="M458.386,122.319l-45.182-57.954L89.025,223.235c-10.119,4.959-14.723,16.866-10.571,27.342    L93.718,289.1c4.151,10.476,15.661,15.998,26.43,12.681L465.16,195.492L458.386,122.319z"/>
		<path style="fill:#FF98C9;" d="M503.568,180.273L451.611,49.147c-2.632-6.641-10.149-9.892-16.79-7.26l-14.357,5.689    c-6.641,2.632-9.892,10.149-7.26,16.79l51.957,131.126c2.632,6.641,10.149,9.892,16.79,7.26l14.357-5.689    C502.949,194.432,506.2,186.914,503.568,180.273z"/>
		<path style="fill:#FF98C9;" d="M51.361,305.883L36.096,267.36c-2.249-5.677-8.675-8.455-14.351-6.206l-7.278,2.884    c-5.677,2.249-8.455,8.675-6.206,14.351l15.264,38.523c2.249,5.677,8.675,8.455,14.351,6.206l7.278-2.884    C50.831,317.985,53.61,311.56,51.361,305.883z"/>
		<path style="fill:#3A484A;" d="M302.713,239.915c-5.887-9.035-17.984-11.585-27.02-5.698c-9.035,5.889-11.586,17.986-5.698,27.021    l40.752,62.53c12.676-4.236,23.907-11.658,32.707-21.339L302.713,239.915z"/>
		<path style="fill:#3A484A;" d="M297.016,234.218c-9.037-5.887-21.133-3.337-27.02,5.698l-40.741,62.513    c8.8,9.682,20.031,17.103,32.707,21.339l40.752-62.53C308.602,252.204,306.051,240.106,297.016,234.218z"/>
		<path style="fill:#937FE6;" d="M286.354,173.412c-42.549,0-77.165,34.616-77.165,77.165c0,7.904,1.199,15.533,3.418,22.719    l147.495-45.439C350.379,196.363,320.998,173.412,286.354,173.412z"/>
		<circle style="fill:#EFEDEE;" cx="286.354" cy="250.577" r="52.165"/>
		<circle style="fill:#506366;" cx="286.354" cy="250.577" r="22.546"/>
		<path style="fill:#FF98C9;" d="M388.029,442.351h46.614c7.908,0,14.319,6.411,14.319,14.319v0c0,7.908-6.411,14.319-14.319,14.319    h-46.614c-7.908,0-14.319-6.411-14.319-14.319v0C373.709,448.762,380.12,442.351,388.029,442.351z"/>
		<path style="fill:#FF98C9;" d="M184.68,442.351h-46.614c-7.908,0-14.319,6.411-14.319,14.319v0    c0,7.908,6.411,14.319,14.319,14.319h46.614c7.908,0,14.319-6.411,14.319-14.319v0    C198.999,448.762,192.588,442.351,184.68,442.351z"/>
	</g>
	<g>
		<path d="M316.385,250.575c0-16.567-13.479-30.046-30.046-30.046s-30.046,13.479-30.046,30.046s13.479,30.046,30.046,30.046    S316.385,267.143,316.385,250.575z M271.293,250.575c0-8.296,6.75-15.046,15.046-15.046s15.046,6.75,15.046,15.046    c0,8.297-6.75,15.046-15.046,15.046S271.293,258.872,271.293,250.575z"/>
		<path d="M469.06,209.482c4.948,2.139,10.631,2.226,15.638,0.241l14.357-5.689c10.475-4.15,15.621-16.05,11.47-26.525l-30.57-77.15    c-1.525-3.851-5.887-5.735-9.735-4.21c-3.851,1.526-5.736,5.885-4.21,9.735l30.57,77.15c1.104,2.786-0.265,5.951-3.051,7.055    c0,0-14.31,5.67-14.357,5.689c-2.751,1.09-5.97-0.315-7.054-3.051c0,0-51.957-131.126-51.957-131.127    c-1.103-2.786,0.265-5.95,3.051-7.054l14.357-5.689c2.785-1.104,5.951,0.265,7.055,3.05l10.468,26.417    c1.526,3.851,5.887,5.736,9.735,4.21c3.851-1.526,5.736-5.885,4.21-9.735l-10.468-26.418    c-4.151-10.475-16.049-15.621-26.525-11.47l-14.357,5.689c-8.175,3.239-13.079,11.199-12.877,19.517L85.71,216.499    c-11.222,5.499-17.432,17.551-16.074,29.497l-30.812,12.209c-3.394-3.354-8.015-5.332-13.024-5.332    c-2.344,0-4.642,0.439-6.833,1.308c0,0-7.273,2.882-7.278,2.884c-9.397,3.723-14.143,14.68-10.416,24.086    c0,0,15.252,38.491,15.264,38.523c3.719,9.387,14.702,14.133,24.087,10.416l7.278-2.884c4.608-1.826,8.229-5.337,10.196-9.886    c0.924-2.137,1.415-4.383,1.504-6.642l30.835-12.218c5.505,7.371,14.269,11.762,23.439,11.762c2.813,0,5.662-0.412,8.464-1.275    l32.275-9.943c3.959-1.22,6.179-5.417,4.959-9.376c-1.219-3.958-5.417-6.179-9.375-4.959l-32.275,9.943    c-6.981,2.15-14.558-1.484-17.249-8.276c0,0-15.264-38.523-15.265-38.524c-2.69-6.791,0.34-14.628,6.899-17.843L409.204,74.669    l45.98,116.042l-114.464,35.263c-8.712-19.394-26.981-32.591-48.221-34.746c-0.08-0.008-0.161-0.014-0.241-0.022    c-28.899-2.819-56.406,16.274-63.691,44.431c-2.059,7.958-2.433,16.403-1.114,24.517c0.037,0.227,0.064,0.456,0.104,0.683    l-49.275,15.18c-3.959,1.219-6.178,5.417-4.959,9.375s5.417,6.18,9.375,4.959l49.3-15.188c0.808,1.779,1.7,3.511,2.673,5.192    l-100.97,154.929c-9.955,2.021-17.471,10.84-17.471,21.383c0,12.031,9.788,21.819,21.819,21.819h46.614    c12.031,0,21.819-9.788,21.819-21.819c0-7.754-4.069-14.571-10.18-18.442l83.637-128.334c2.103,0.225,4.237,0.348,6.398,0.348    s4.295-0.123,6.398-0.348l83.637,128.334c-6.111,3.871-10.18,10.688-10.18,18.442c0,12.031,9.788,21.819,21.819,21.819h46.614    c12.031,0,21.819-9.788,21.819-21.819c0-10.542-7.516-19.361-17.471-21.383l-100.97-154.93c5.076-8.771,7.997-18.938,7.997-29.781    c0-3.498-0.32-6.921-0.9-10.256l116.833-35.993C463.887,206.514,466.29,208.284,469.06,209.482z M74.229,260.311l9.739,24.578    l-28.412,11.258l-9.739-24.578L74.229,260.311z M44.321,311.362c-0.363,0.839-1.043,1.541-1.944,1.898    c0,0-7.271,2.881-7.277,2.884c-1.807,0.716-3.905-0.181-4.616-1.996c0,0-15.264-38.523-15.265-38.526    c-0.716-1.81,0.196-3.9,1.997-4.613c0,0,7.249-2.873,7.278-2.884c1.745-0.691,3.885,0.153,4.616,1.996l15.264,38.523    C44.732,309.551,44.683,310.525,44.321,311.362z M184.664,463.488H138.05c-3.76,0-6.819-3.059-6.819-6.819    s3.059-6.819,6.819-6.819h46.614c3.76,0,6.819,3.059,6.819,6.819S188.425,463.488,184.664,463.488z M264.498,306.115    L180.6,434.849h-28.71l92.465-141.878c5.393,5.36,11.735,9.594,18.707,12.539c0.054,0.023,0.109,0.046,0.164,0.069    C263.65,305.757,264.069,305.947,264.498,306.115z M277.659,294.318c-17.707-3.772-32.625-18.69-35.45-36.844    c-0.007-0.044-0.016-0.088-0.022-0.132c-4.041-26.258,17.553-51.432,44.153-51.432c24.31,0,44.665,20.358,44.665,44.664    C331.004,277.523,304.341,300.002,277.659,294.318z M434.628,463.488h-46.614c-3.76,0-6.819-3.059-6.819-6.819    s3.059-6.819,6.819-6.819h46.614c3.76,0,6.819,3.059,6.819,6.819S438.388,463.488,434.628,463.488z M392.078,434.849    L308.18,306.115c0.426-0.167,0.84-0.355,1.261-0.532c0.062-0.026,0.124-0.052,0.185-0.078c6.968-2.945,13.307-7.177,18.697-12.535    l92.464,141.879H392.078z"/>
	</g>
</g>















</svg>
