<?xml version="1.0" encoding="iso-8859-1"?>
<!-- Generator: Adobe Illustrator 19.0.0, SVG Export Plug-In . SVG Version: 6.00 Build 0)  -->
<svg xmlns="http://www.w3.org/2000/svg" xmlns:xlink="http://www.w3.org/1999/xlink" version="1.1" id="Layer_1" x="0px" y="0px" viewBox="0 0 512 512" style="enable-background:new 0 0 512 512;" xml:space="preserve" width="512" height="512">
<g>
	<g>
		<g>
			<path style="fill:#FD6F71;" d="M313.263,133.274c-9.883,0-17.895-8.012-17.895-17.895V82.658     c0-21.708-17.661-39.368-39.368-39.368c-21.708,0-39.368,17.661-39.368,39.368v32.722c0,9.883-8.012,17.895-17.895,17.895     s-17.895-8.012-17.895-17.895V82.658C180.842,41.216,214.558,7.5,256,7.5c41.442,0,75.158,33.716,75.158,75.158v32.722     C331.157,125.263,323.146,133.274,313.263,133.274z"/>
		</g>
		<path style="fill:#42C3E2;" d="M75.221,263.438c-32.65,13.552-54.681,44.574-56.718,79.865l-3.997,69.243    c-2.127,36.842,27.176,67.886,64.08,67.886h43.459L75.221,263.438z"/>
		<path style="fill:#42C3E2;" d="M436.778,263.438c32.65,13.552,54.681,44.574,56.718,79.865l3.997,69.243    c2.127,36.842-27.176,67.886-64.08,67.886h-43.459L436.778,263.438z"/>
		<g>
			<path style="fill:#E36465;" d="M198.737,133.274c9.883,0,17.895-8.012,17.895-17.895V82.658c0-9.593,3.453-18.392,9.176-25.229     c-14.92,0.857-29.011,2.485-42.238,5.212c-1.765,6.378-2.728,13.085-2.728,20.017v32.722     C180.842,125.263,188.854,133.274,198.737,133.274z"/>
			<path style="fill:#E36465;" d="M295.368,82.658v32.722c0,9.883,8.012,17.895,17.895,17.895c9.883,0,17.895-8.012,17.895-17.895     V82.658c0-6.932-0.963-13.639-2.728-20.017c-13.227-2.728-27.318-4.355-42.238-5.212     C291.915,64.266,295.368,73.064,295.368,82.658z"/>
		</g>
		<path style="fill:#FADC60;" d="M444.308,432.489c0-308.929-47.196-350.853-188.308-350.853S67.691,123.56,67.691,432.489H444.308z    "/>
		<path style="fill:#E6CB59;" d="M444.308,432.489c0-55.397-1.518-102.208-4.823-141.731c-15.622-21.822-38.294-38.358-67.416-49.14    c-30.552-11.312-68.519-16.811-116.07-16.811s-85.518,5.499-116.069,16.811c-29.122,10.782-51.794,27.318-67.416,49.14    c-3.305,39.523-4.823,86.333-4.823,141.731H444.308z"/>
		<path style="fill:#FD6F71;" d="M256,249.807c-184.808,0-188.308,88.184-188.308,182.681c0,61.423,79.56,72.078,135.252,72.011    c35.371-0.042,70.741-0.042,106.112,0c55.692,0.066,135.252-10.588,135.252-72.011C444.308,337.991,440.808,249.807,256,249.807z"/>
		<path style="fill:#6EE3FF;" d="M309.098,468.711C291.4,468.69,273.7,468.679,256,468.679s-35.399,0.011-53.099,0.032h-0.468    c-31.317,0-57.363-3.675-75.322-10.629c-23.63-9.149-23.63-19.846-23.63-25.593c0-45.495,1.345-82.195,18.27-106.094    c19.44-27.453,63.353-40.798,134.249-40.798s114.809,13.345,134.249,40.798c16.924,23.899,18.269,60.599,18.269,106.094    c0,5.747,0,16.446-23.629,25.594c-17.958,6.953-44.003,10.628-75.323,10.628H309.098z"/>
		<path style="fill:#EFEDEE;" d="M288.707,161.191h-65.416c-9.044,0-16.375,7.331-16.375,16.375v21.781    c0,9.044,7.331,16.375,16.375,16.375h65.416c9.044,0,16.375-7.331,16.375-16.375v-21.781    C305.082,168.523,297.751,161.191,288.707,161.191z"/>
	</g>
	<g>
		<path d="M416.019,432.489c0-46.847-1.447-84.725-19.649-110.428c-20.948-29.583-66.864-43.964-140.37-43.964    c-28.135,0-52.549,2.14-72.563,6.358c-4.053,0.854-6.646,4.833-5.792,8.886c0.854,4.054,4.833,6.646,8.886,5.792    c19-4.005,42.373-6.036,69.47-6.036c68.286,0,110.197,12.31,128.128,37.633c15.646,22.095,16.89,57.617,16.89,101.759    c0,4.502,0,11.307-18.837,18.6c-17.101,6.622-42.211,10.122-72.614,10.122h-0.46c-35.403-0.043-70.818-0.043-106.207,0h-0.468    c-30.402,0-55.512-3.5-72.614-10.124c-18.838-7.293-18.838-14.097-18.838-18.599c0-44.143,1.244-79.665,16.89-101.759    c6.986-9.866,17.906-17.878,32.455-23.814c3.835-1.565,5.676-5.942,4.111-9.777c-1.565-3.836-5.943-5.675-9.778-4.111    c-17.235,7.032-30.367,16.801-39.029,29.034c-18.202,25.703-19.649,63.581-19.649,110.428c0,10.048,3.23,22.833,28.421,32.586    c18.812,7.285,45.794,11.136,78.03,11.136h0.477c35.393-0.043,70.78-0.043,106.188,0h0.469c32.237,0,59.219-3.851,78.03-11.134    C412.788,455.324,416.019,442.538,416.019,432.489z"/>
		<path d="M180.685,387.831c4.142,0,7.5-3.358,7.5-7.5V366.7c0-4.142-3.358-7.5-7.5-7.5s-7.5,3.358-7.5,7.5v13.631    C173.185,384.473,176.543,387.831,180.685,387.831z"/>
		<path d="M338.815,380.331V366.7c0-4.142-3.358-7.5-7.5-7.5s-7.5,3.358-7.5,7.5v13.631c0,4.142,3.358,7.5,7.5,7.5    S338.815,384.473,338.815,380.331z"/>
		<path d="M256,395.107c9.409,0,18.243-3.932,24.236-10.789c2.726-3.119,2.408-7.856-0.711-10.583    c-3.119-2.726-7.856-2.408-10.583,0.711c-3.144,3.597-7.861,5.66-12.942,5.66s-9.798-2.063-12.942-5.661    c-2.727-3.118-7.464-3.437-10.583-0.71s-3.437,7.464-0.711,10.583C237.757,391.175,246.591,395.107,256,395.107z"/>
		<path d="M223.292,153.691c-13.165,0-23.875,10.71-23.875,23.875v21.781c0,13.165,10.71,23.875,23.875,23.875h65.416    c13.165,0,23.875-10.71,23.875-23.875v-21.781c0-13.165-10.71-23.875-23.875-23.875H223.292z M297.583,177.566v21.781    c0,4.894-3.981,8.875-8.875,8.875h-65.416c-4.894,0-8.875-3.981-8.875-8.875v-21.781c0-4.894,3.981-8.875,8.875-8.875h65.416    C293.601,168.691,297.583,172.673,297.583,177.566z"/>
		<path d="M7.019,412.113c-1.149,19.901,5.754,38.844,19.437,53.339c13.683,14.496,32.196,22.479,52.13,22.479h12.255    c6.027,4.005,12.906,7.526,20.636,10.519c23.219,8.991,53.82,13.549,90.952,13.549h0.524c35.365-0.042,70.729-0.042,106.094,0    c0,0,0.524,0,0.529,0c37.129,0,67.729-4.558,90.946-13.548c7.731-2.994,14.611-6.515,20.639-10.521h12.252    c19.934,0,38.448-7.983,52.13-22.479c13.683-14.496,20.586-33.439,19.437-53.339l-3.998-69.242    c-1.081-18.725-7.392-36.704-18.251-51.996c-10-14.081-23.429-25.262-39.017-32.559c-4.445-36.522-10.799-65.554-19.26-88.896    c-1.412-3.895-5.713-5.907-9.607-4.495c-3.895,1.411-5.907,5.712-4.496,9.606c8.401,23.177,14.653,52.395,18.966,89.548    c0.006,0.074,0.002,0.147,0.011,0.222c1.777,15.334,3.229,32.097,4.367,50.427c-6.131-11.843-14.43-22.601-24.358-31.504    c-27.881-25.002-66.644-34.469-102.956-38.385c-16.729-1.804-33.56-2.532-50.381-2.532c-27.849,0-55.861,1.744-83.092,7.873    c-23.774,5.351-47.661,14.246-66.629,29.949c-11.5,9.521-21.099,21.319-27.967,34.584c5.245-84.311,17.326-137.616,37.857-170.963    c13.293-21.591,30.479-35.546,54.083-43.917c27.219-9.653,57.147-10.698,85.748-10.698c24.598,0,49.334,0.884,73.314,6.952    c0.222,0.056,0.446,0.09,0.67,0.126c29.79,7.725,52.259,23.097,68.623,52.252c2.027,3.612,6.599,4.897,10.211,2.87    c3.612-2.027,4.897-6.599,2.87-10.211c-17.769-31.66-42.038-48.957-73.03-58v-0.467C338.658,37.08,301.577,0,256,0    s-82.658,37.08-82.658,82.658v0.401c-29.22,8.501-52.425,24.369-69.946,52.828c-15.336,24.909-26.118,59.685-32.961,106.317    c-0.76,5.183-1.476,10.558-2.15,16.113c-15.588,7.297-29.016,18.478-39.016,32.559c-10.859,15.292-17.171,33.271-18.251,51.996    L7.019,412.113z M256,74.135c-10.784,0-21.088,0.242-30.924,0.831C228.526,61.099,241.079,50.79,256,50.79    c14.926,0,27.482,10.316,30.928,24.191C277.083,74.383,266.777,74.135,256,74.135z M256,15c36.223,0,65.889,28.611,67.582,64.422    c-6.59-1.313-13.597-2.363-21.15-3.172C299.298,53.427,279.67,35.79,256,35.79c-23.666,0-43.291,17.632-46.43,40.45    c-7.338,0.784-14.385,1.823-21.15,3.165C190.122,43.602,219.783,15,256,15z M395.107,484.464    c-43.616,16.89-93.33,12.503-139.107,12.503c-45.779,0-95.489,4.384-139.106-12.505c-7.407-2.868-13.799-6.168-19.21-9.909    c-0.107-0.084-0.2-0.181-0.312-0.26c-15.845-11.164-22.211-27.727-22.172-46.798c0.075-28.01,0.884-53.041,5.647-74.917    c3.543-16.271,9.808-32.244,20.025-45.517C136.134,261.25,202.95,257.307,256,257.307c52.108,0,120.387,4.651,155.129,49.754    c25.81,33.508,25.557,79.909,25.672,120.16c0.056,19.497-5.82,35.59-22.171,47.073c-0.117,0.083-0.215,0.183-0.326,0.271    C408.895,478.302,402.507,481.599,395.107,484.464z M445.708,276.406c23.292,14.358,38.699,39.581,40.301,67.329l3.997,69.243    c0.909,15.736-4.55,30.715-15.37,42.178c-9.71,10.287-22.497,16.427-36.412,17.577c9.026-11.227,13.583-24.697,13.583-40.245    c0-31.399-0.639-62.765-1.846-94.14C448.96,315.649,447.546,295.076,445.708,276.406z M21.994,412.979l3.997-69.243    c1.602-27.749,17.01-52.971,40.301-67.329c-3.586,36.427-6.101,148.613-6.101,156.083c0,15.547,4.557,29.018,13.583,40.245    c-13.914-1.151-26.701-7.291-36.412-17.578C26.544,443.693,21.085,428.715,21.994,412.979z"/>
	</g>
</g>















</svg>
