<?xml version="1.0" encoding="iso-8859-1"?>
<!-- Generator: Adobe Illustrator 19.0.0, SVG Export Plug-In . SVG Version: 6.00 Build 0)  -->
<svg xmlns="http://www.w3.org/2000/svg" xmlns:xlink="http://www.w3.org/1999/xlink" version="1.1" id="Layer_1" x="0px" y="0px" viewBox="0 0 511.987 511.987" style="enable-background:new 0 0 511.987 511.987;" xml:space="preserve" width="512" height="512">
<g>
	<g>
		<path style="fill:#D2D2D2;" d="M292.325,48.775l-35.786-35.786c-7.322-7.322-19.199-7.322-26.521,0l-42.672,42.672l14.118,48.195    l48.195,14.118l42.672-42.672C299.653,67.98,299.653,56.104,292.325,48.775z"/>
		<path style="fill:#B8B8B8;" d="M208.559,76.874l42.672-42.672c7.322-7.322,19.199-7.322,26.521,0l-21.213-21.213    c-7.322-7.322-19.199-7.322-26.521,0l-42.672,42.672l14.118,48.195l16.407,4.806L208.559,76.874z"/>
		<path style="fill:#D2D2D2;" d="M498.999,255.45l-35.786-35.786c-7.328-7.328-19.205-7.328-26.527-0.006l-42.672,42.672    l14.118,48.195l48.195,14.118l42.672-42.672C506.321,274.648,506.327,262.778,498.999,255.45z"/>
		<path style="fill:#B8B8B8;" d="M415.227,283.542l42.672-42.672c7.322-7.322,19.199-7.322,26.527,0.006l-21.213-21.213    c-7.328-7.328-19.205-7.328-26.527-0.006l-42.672,42.672l14.118,48.195l16.407,4.806L415.227,283.542z"/>
		<path style="fill:#FD6F71;" d="M456.327,324.642L333.221,447.749c-35.649,35.649-83.793,56.4-134.204,56.736    c-51.296,0.349-99.577-19.467-135.812-55.702S7.155,364.267,7.497,312.977c0.343-50.418,21.087-98.555,56.742-134.21    L187.346,55.661l62.313,62.313L126.316,241.317c-39.831,39.831-40.815,104.674-1.221,144.729    c39.768,40.229,104.842,40.36,144.779,0.424l124.14-124.14L456.327,324.642z"/>
		<g>
			<path style="fill:#E36465;" d="M146.308,407.259c39.769,40.229,104.842,40.36,144.779,0.423l124.14-124.14l-21.213-21.213     l-124.14,124.14c-36.18,36.18-92.989,39.475-132.925,9.865C139.768,400.139,142.883,403.794,146.308,407.259z"/>
			<path style="fill:#E36465;" d="M28.711,334.191c0.343-50.418,21.087-98.555,56.742-134.21L208.559,76.874l-21.213-21.213     L64.24,178.767c-35.655,35.655-56.4,83.793-56.742,134.21c-0.343,51.29,19.473,99.57,55.708,135.805     c3.559,3.559,7.238,6.954,11.021,10.192C44.491,424.244,28.402,380.443,28.711,334.191z"/>
		</g>
	</g>
	<g>
		<path d="M504.31,287.223c10.236-10.237,10.236-26.892,0-37.127c0,0-35.745-35.745-35.787-35.787    c-10.127-10.127-27.014-10.127-37.133-0.006c0,0-166.761,166.761-166.812,166.812c-36.585,36.584-97.809,36.361-134.141-0.393    c-36.446-36.87-35.912-97.05,1.19-134.153c0,0,165.995-165.995,166.015-166.015c10.12-10.12,10.101-27.026-0.006-37.133    c0,0-35.759-35.759-35.787-35.787c-10.121-10.121-27.018-10.109-37.127,0l-70.969,70.968c-2.929,2.929-2.929,7.678,0,10.606    c2.929,2.929,7.678,2.929,10.606,0l22.993-22.993l51.707,51.707l-118.04,118.04c-42.917,42.917-43.479,112.586-1.252,155.304    c42.127,42.617,113.085,42.785,155.416,0.455l118.837-118.836l51.707,51.706L327.925,442.394    c-23.413,23.412-52.501,40.2-84.123,48.548c-4.005,1.057-6.394,5.161-5.337,9.166c1.039,3.936,5.236,6.375,9.166,5.337    c34.182-9.024,65.615-27.159,90.9-52.444L504.31,287.223z M235.328,18.241c4.342-4.342,11.579-4.335,15.914,0    c0,0,35.744,35.744,35.787,35.787c4.342,4.342,4.345,11.581,0.006,15.92l-37.369,37.369L197.959,55.61    C197.959,55.61,235.271,18.299,235.328,18.241z M441.996,224.909c4.353-4.352,11.572-4.341,15.92,0.006l35.787,35.787    c4.388,4.387,4.387,11.526,0,15.914l-37.369,37.369l-51.707-51.707C404.628,262.278,441.911,224.995,441.996,224.909z"/>
		<path d="M197.686,511.938c6.261,0,12.519-0.312,18.751-0.913c4.123-0.397,7.143-4.063,6.745-8.186s-4.056-7.145-8.186-6.745    c-5.752,0.555-11.528,0.844-17.306,0.844c-48.806-0.002-94.64-18.975-129.175-53.509c-34.837-34.837-53.841-81.166-53.511-130.452    c0.328-48.313,19.7-94.111,54.545-128.958l73.597-73.597c2.929-2.929,2.929-7.678,0-10.606c-2.929-2.929-7.678-2.929-10.606,0    l-73.597,73.597c-18.511,18.511-33.05,40.023-43.213,63.939C5.472,261.494,0.181,286.903,0.005,312.877    c-0.356,53.331,20.208,103.462,57.905,141.159C95.282,491.408,144.872,511.939,197.686,511.938z"/>
	</g>
</g>















</svg>
