<?xml version="1.0" encoding="iso-8859-1"?>
<!-- Generator: Adobe Illustrator 19.0.0, SVG Export Plug-In . SVG Version: 6.00 Build 0)  -->
<svg xmlns="http://www.w3.org/2000/svg" xmlns:xlink="http://www.w3.org/1999/xlink" version="1.1" id="Layer_1" x="0px" y="0px" viewBox="0 0 512 512" style="enable-background:new 0 0 512 512;" xml:space="preserve" width="512" height="512">
<g>
	<g>
		<path style="fill:#FADC60;" d="M465.379,18.162H46.62C25.018,18.162,7.5,35.68,7.5,57.293v287.157L256,381.57l248.5-37.12V57.293    C504.5,35.68,486.981,18.162,465.379,18.162z"/>
		<path style="fill:#E6CB59;" d="M37.5,344.45V57.293c0-21.612,17.519-39.131,39.121-39.131h-30    C25.018,18.162,7.5,35.681,7.5,57.293V344.45L256,381.57l15-2.241L37.5,344.45z"/>
		<path style="fill:#58B78C;" d="M504.5,344.449v110.258c0,21.612-17.519,39.131-39.121,39.131H46.62    c-21.602,0-39.121-17.519-39.121-39.131V344.449H504.5z"/>
		<path style="fill:#46926F;" d="M37.5,454.707V344.45h-30v110.258c0,21.612,17.519,39.131,39.121,39.131h30    C55.018,493.838,37.5,476.32,37.5,454.707z"/>
		<path style="fill:#FD6F71;" d="M387.261,98.486c-25.025-10.27-54.856-17.653-87.511-21.179L256,180.501l43.75,103.195    c32.656-3.526,62.486-10.909,87.511-21.179l35.436-78.922L387.261,98.486z"/>
		<path style="fill:#6EE3FF;" d="M212.249,77.307c-32.656,3.526-62.486,10.909-87.511,21.179l-35.436,85.109l35.436,78.922    c25.025,10.27,54.856,17.653,87.511,21.179L256,180.501L212.249,77.307z"/>
		<path style="fill:#E36465;" d="M299.75,110.307c32.656,3.526,62.486,10.909,87.511,21.179c5.94,2.435,11.605,5.034,16.979,7.778    l-16.979-40.778h0c-25.025-10.27-54.856-17.653-87.511-21.179h0l-13.479,31.792C290.812,109.432,295.31,109.83,299.75,110.307z"/>
		<path style="fill:#42C3E2;" d="M124.738,131.486c25.025-10.27,54.856-17.653,87.511-21.179c4.44-0.477,8.938-0.875,13.479-1.208    l-13.479-31.792h0c-32.656,3.526-62.486,10.909-87.511,21.179h0l-16.979,40.778C113.133,136.52,118.798,133.921,124.738,131.486z"/>
		<path style="fill:#FA9F6A;" d="M299.75,77.307v206.389c-14.106,1.516-28.748,2.32-43.75,2.32c-15.003,0-29.645-0.804-43.75-2.32    V77.307c14.106-1.516,28.748-2.32,43.75-2.32C271.002,74.987,285.644,75.791,299.75,77.307z"/>
		<path style="fill:#FF98C9;" d="M124.738,98.486v164.031c-47.194-19.344-77.365-48.896-77.365-82.015S77.544,117.83,124.738,98.486    z"/>
		<path style="fill:#B6A4FF;" d="M464.626,180.501c0,33.12-30.171,62.671-77.365,82.015V98.486    C434.456,117.83,464.626,147.382,464.626,180.501z"/>
		<path style="fill:#937FE6;" d="M462.069,197.001c0.582-1.873,1.062-3.762,1.449-5.666c0.048-0.236,0.097-0.472,0.141-0.708    c0.099-0.519,0.191-1.039,0.274-1.561c0.086-0.541,0.162-1.083,0.232-1.625c0.061-0.472,0.116-0.944,0.165-1.417    c0.067-0.656,0.125-1.314,0.168-1.973c0.019-0.282,0.036-0.564,0.05-0.848c0.045-0.898,0.077-1.798,0.077-2.701    c0-14.49-5.775-28.297-16.224-40.865c-13.434-16.159-34.594-30.27-61.141-41.15v33    C426.455,147.551,453.888,170.659,462.069,197.001z"/>
		<path style="fill:#E0824A;" d="M272.716,75.321c-5.515-0.221-11.091-0.334-16.717-0.334s-11.201,0.113-16.717,0.334    c-9.192,0.369-18.218,1.039-27.034,1.986v33c14.106-1.516,28.748-2.32,43.75-2.32c15.003,0,29.645,0.805,43.75,2.32v-33    C290.934,76.36,281.909,75.69,272.716,75.321z"/>
		<path style="fill:#EB6DA8;" d="M63.597,139.637c-10.449,12.568-16.224,26.375-16.224,40.865c0,0.903,0.032,1.803,0.077,2.701    c0.014,0.283,0.031,0.565,0.05,0.848c0.043,0.659,0.102,1.317,0.168,1.973c0.049,0.473,0.104,0.946,0.165,1.417    c0.07,0.543,0.146,1.085,0.232,1.625c0.084,0.521,0.176,1.042,0.274,1.561c0.044,0.237,0.094,0.473,0.141,0.708    c0.387,1.904,0.867,3.793,1.449,5.666c8.181-26.342,35.614-49.451,74.808-65.515v-33    C98.191,109.367,77.031,123.478,63.597,139.637z"/>
	</g>
	<g>
		<path d="M135.434,403.451v20.463c0,4.142,3.358,7.5,7.5,7.5s7.5-3.358,7.5-7.5v-20.463c0-4.143-3.358-7.5-7.5-7.5    S135.434,399.308,135.434,403.451z"/>
		<path d="M361.567,403.451v20.463c0,4.142,3.358,7.5,7.5,7.5s7.5-3.358,7.5-7.5v-20.463c0-4.143-3.358-7.5-7.5-7.5    S361.567,399.308,361.567,403.451z"/>
		<path d="M278.26,417.554c-5.435,6.217-13.548,9.782-22.26,9.782s-16.825-3.565-22.259-9.782    c-2.727-3.119-7.464-3.437-10.583-0.711c-3.119,2.726-3.437,7.464-0.711,10.583c8.283,9.477,20.513,14.911,33.553,14.911    c13.04,0,25.27-5.435,33.553-14.91c2.726-3.119,2.408-7.856-0.71-10.583C285.725,414.118,280.986,414.434,278.26,417.554z"/>
		<path d="M46.621,501.338h418.758c25.707,0,46.621-20.918,46.621-46.631V57.293c0-25.712-20.914-46.631-46.621-46.631H133.66    c-4.142,0-7.5,3.358-7.5,7.5s3.358,7.5,7.5,7.5h331.719c17.436,0,31.621,14.189,31.621,31.631v279.657h-49.34    c-4.142,0-7.5,3.358-7.5,7.5s3.358,7.5,7.5,7.5H497v102.758c0,17.441-14.185,31.631-31.621,31.631H46.621    c-17.436,0-31.621-14.19-31.621-31.631V351.949h402.66c4.142,0,7.5-3.358,7.5-7.5s-3.358-7.5-7.5-7.5H15V57.293    c0-17.441,14.185-31.631,31.621-31.631h57.039c4.142,0,7.5-3.358,7.5-7.5s-3.358-7.5-7.5-7.5H46.621    C20.914,10.662,0,31.58,0,57.293v397.415C0,480.42,20.914,501.338,46.621,501.338z"/>
		<path d="M39.874,180.501c0,35.167,29.896,67.59,82.024,88.956c40.246,19.645,89.892,24.058,134.103,24.058    c45.406,0,91.916-6.748,134.106-24.059c52.125-21.365,82.021-53.788,82.021-88.955s-29.895-67.59-82.026-88.957    c-82.249-33.711-185.857-33.752-268.206,0.001C69.769,112.911,39.874,145.334,39.874,180.501z M457.127,180.501    c0,26.55-22.57,51.904-62.365,70.542V109.959C434.557,128.597,457.127,153.951,457.127,180.501z M379.762,257.43    c-21.489,8.296-46.311,14.393-72.511,17.818V85.755c26.201,3.425,51.023,9.521,72.511,17.818V257.43z M292.25,84.103V276.9    c-23.865,2.146-48.635,2.146-72.5,0V84.103C243.616,81.957,268.386,81.957,292.25,84.103z M204.75,275.248    c-26.201-3.425-51.023-9.521-72.511-17.818V103.573c21.488-8.296,46.31-14.393,72.511-17.818V275.248z M117.239,109.959v141.085    c-39.795-18.639-62.365-43.992-62.365-70.542S77.444,128.597,117.239,109.959z"/>
	</g>
</g>















</svg>
