<?xml version="1.0" encoding="iso-8859-1"?>
<!-- Generator: Adobe Illustrator 19.0.0, SVG Export Plug-In . SVG Version: 6.00 Build 0)  -->
<svg xmlns="http://www.w3.org/2000/svg" xmlns:xlink="http://www.w3.org/1999/xlink" version="1.1" id="Layer_1" x="0px" y="0px" viewBox="0 0 512 512" style="enable-background:new 0 0 512 512;" xml:space="preserve" width="512" height="512">
<g>
	<g>
		<path style="fill:#E0824A;" d="M88.846,11.961C43.991,11.961,7.5,48.453,7.5,93.307s36.492,81.346,81.346,81.346l49.333,20.341    l79.247-20.341V11.961H88.846z"/>
		<path style="fill:#EFEDEE;" d="M465.139,48.698c-24.598,0-44.609,20.012-44.609,44.609s20.012,44.609,44.609,44.609v19.069    H192.593l-34.635-43.191V62.047l38.709-29.745h268.471V48.698z"/>
		<path style="fill:#D2D2D2;" d="M157.959,62.047v17.915h264.612c5.687-18.098,22.618-31.263,42.568-31.263H175.33L157.959,62.047z"/>
		<path style="fill:#FA9F6A;" d="M465.139,137.917H217.426c-24.598,0-44.609-20.012-44.609-44.609s20.012-44.609,44.609-44.609    h247.713c10.145,0,18.369-8.224,18.369-18.369s-8.224-18.369-18.369-18.369H217.426c-44.855,0-81.346,36.492-81.346,81.346    s36.492,81.346,81.346,81.346l124.906,27.29l80.822-27.29h41.985c10.145,0,18.369-8.224,18.369-18.369    S475.283,137.917,465.139,137.917z"/>
		<path style="fill:#E36465;" d="M423.153,174.654h-128.58v162.693l87.294,26.416l41.285-26.416    c44.855,0,81.346-36.492,81.346-81.346S468.008,174.654,423.153,174.654z"/>
		<path style="fill:#EFEDEE;" d="M46.861,211.391c24.598,0,44.609,20.012,44.609,44.609s-20.012,44.609-44.609,44.609v19.069    h272.545l34.635-43.191v-51.748l-38.709-29.745H46.861V211.391z"/>
		<path style="fill:#D2D2D2;" d="M89.432,242.663h264.609v-17.924l-17.36-13.339H47.214    C67.013,211.555,83.782,224.668,89.432,242.663z"/>
		<path style="fill:#FD6F71;" d="M294.574,174.654H46.861c-10.145,0-18.369,8.224-18.369,18.369    c0,10.145,8.224,18.369,18.369,18.369h247.713c24.598,0,44.609,20.012,44.609,44.609s-20.012,44.609-44.609,44.609H46.861    c-10.145,0-18.369,8.224-18.369,18.369c0,10.145,8.224,18.369,18.369,18.369h41.985l43.21,26.416l162.518-26.416    c44.855,0,81.346-36.492,81.346-81.346S339.428,174.654,294.574,174.654z"/>
		<path style="fill:#42C3E2;" d="M88.846,500.039c-44.855,0-81.346-36.492-81.346-81.346s36.492-81.346,81.346-81.346h128.58    v162.693H88.846z"/>
		<path style="fill:#EFEDEE;" d="M465.139,374.083c-24.598,0-44.609,20.012-44.609,44.609c0,24.598,20.012,44.609,44.609,44.609    v19.069H192.593l-34.635-43.191v-51.748l38.709-29.745h268.471V374.083z"/>
		<path style="fill:#D2D2D2;" d="M463.111,374.135H175.263l-17.304,13.297v17.966h264.594    C428.03,387.89,444.03,374.993,463.111,374.135z"/>
		<path style="fill:#6EE3FF;" d="M465.139,500.039H217.426c-44.855,0-81.346-36.492-81.346-81.346s36.492-81.346,81.346-81.346    h247.713c10.145,0,18.369,8.224,18.369,18.369c0,10.145-8.224,18.369-18.369,18.369H217.426    c-24.598,0-44.609,20.012-44.609,44.609c0,24.598,20.012,44.609,44.609,44.609h247.713c10.145,0,18.369,8.224,18.369,18.369    S475.283,500.039,465.139,500.039z"/>
	</g>
	<g>
		<path d="M0,418.692c0,48.99,39.856,88.847,88.846,88.847c0,0,128.58,0,128.584,0h247.708c14.264,0,25.869-11.604,25.869-25.869    s-11.604-25.869-25.869-25.869c-20.462,0-37.109-16.647-37.109-37.109c0-20.459,16.642-37.104,37.109-37.109    c14.264,0,25.869-11.604,25.869-25.868c0-12.124-8.385-22.321-19.659-25.11C495.793,314.759,512,287.238,512,256    c0-31.238-16.207-58.759-40.652-74.605c11.274-2.789,19.66-12.987,19.66-25.11c0-14.264-11.604-25.868-25.869-25.868    c-20.462,0-37.109-16.647-37.109-37.109s16.647-37.109,37.109-37.109c14.264,0,25.869-11.604,25.869-25.869    c0-14.264-11.604-25.868-25.869-25.868h-60.778c-4.142,0-7.5,3.358-7.5,7.5s3.358,7.5,7.5,7.5h60.778    c5.993,0,10.869,4.875,10.869,10.868c0,5.993-4.875,10.869-10.869,10.869c0,0-247.569,0-247.713,0    c-28.075,0-52.109,24.087-52.109,52.109c0,28.733,23.376,52.109,52.109,52.109h247.713c5.993,0,10.869,4.875,10.869,10.868    s-4.875,10.869-10.869,10.869h-41.985h-128.58h-77.15c-40.717-0.001-73.844-33.129-73.844-73.846    c0-40.131,33.757-73.846,73.846-73.846h156.935c4.142,0,7.5-3.358,7.5-7.5s-3.358-7.5-7.5-7.5H217.426H88.846    C39.856,4.461,0,44.317,0,93.307c0,31.237,16.207,58.759,40.652,74.604c-11.274,2.789-19.66,12.986-19.66,25.11    c0,14.264,11.604,25.869,25.875,25.869C67.326,218.894,83.97,235.541,83.97,256s-16.645,37.105-37.109,37.109    c-14.264,0-25.868,11.605-25.868,25.869c0,12.124,8.385,22.321,19.659,25.11C16.207,359.934,0,387.455,0,418.692z     M217.426,130.417c-20.462,0-37.109-16.647-37.109-37.109s16.647-37.109,37.109-37.109h211.165    c-9.601,9.457-15.562,22.601-15.562,37.109c0,14.508,5.961,27.652,15.562,37.109H217.426z M413.029,418.692    c0,14.509,5.961,27.652,15.562,37.109H217.426c-20.462,0-37.109-16.647-37.109-37.109c0-20.163,16.958-37.11,37.109-37.11h211.165    C418.99,391.041,413.029,404.184,413.029,418.692z M465.139,344.846c5.993,0,10.869,4.875,10.869,10.869    c0,5.992-4.874,10.867-10.869,10.868c0,0-247.709,0-247.713,0c-28.239,0-52.109,23.678-52.109,52.109    c0,28.105,23.996,52.11,52.109,52.11h247.713c5.993,0,10.869,4.876,10.869,10.869s-4.875,10.869-10.869,10.869H217.426    c-40.719,0-73.846-33.128-73.846-73.847s33.127-73.846,73.846-73.846H465.139z M423.153,182.153    C463.873,182.153,497,215.281,497,256c0,40.719-33.127,73.846-73.847,73.846h-79.228c0.042-0.028,0.082-0.057,0.123-0.085    c17.988-12.098,31.463-31.035,36.725-52.196c1.725-6.938,2.646-14.325,2.646-21.565c0-21.99-8.453-43.926-23.429-60.053    c-4.777-5.144-10.114-9.786-15.941-13.707c-0.042-0.028-0.083-0.058-0.125-0.086H423.153z M15,93.307    c0-40.719,33.127-73.846,73.846-73.846h79.228c-0.044,0.029-0.086,0.061-0.13,0.09c-24.371,16.293-39.364,44.466-39.364,73.756    c0,29.321,15.145,57.348,39.362,73.754c0.045,0.03,0.088,0.062,0.133,0.092h-79.23C48.126,167.152,15,134.024,15,93.307z     M46.861,329.846c-5.993,0-10.868-4.875-10.868-10.869s4.875-10.869,10.868-10.869h0.007h80.493c4.142,0,7.5-3.358,7.5-7.5    s-3.358-7.5-7.5-7.5H83.408C93.009,283.651,98.97,270.508,98.97,256s-5.961-27.652-15.563-37.109h211.166    c20.462,0,37.109,16.647,37.109,37.109s-16.647,37.109-37.109,37.109H157.361c-4.142,0-7.5,3.358-7.5,7.5s3.358,7.5,7.5,7.5    h137.213c28.733,0,52.109-23.376,52.109-52.109c0-28.733-23.376-52.109-52.109-52.109H46.868h-0.007    c-5.993,0-10.868-4.876-10.868-10.869s4.875-10.869,10.868-10.869h247.713c40.719,0,73.847,33.127,73.847,73.847    c0,40.719-33.127,73.846-73.847,73.846H46.861z M88.846,344.846h79.228c-0.041,0.027-0.08,0.056-0.121,0.083    c-9.404,6.328-17.635,14.509-24.012,23.879c-9.968,14.645-15.362,32.17-15.362,49.884c0,11.54,2.306,23.171,6.701,33.838    c6.642,16.124,18.179,30.21,32.664,39.918c0.044,0.029,0.086,0.061,0.13,0.09H88.846C48.127,492.539,15,459.412,15,418.692    C15,377.974,48.127,344.846,88.846,344.846z"/>
	</g>
</g>















</svg>
