<?xml version="1.0" encoding="iso-8859-1"?>
<!-- Generator: Adobe Illustrator 19.0.0, SVG Export Plug-In . SVG Version: 6.00 Build 0)  -->
<svg xmlns="http://www.w3.org/2000/svg" xmlns:xlink="http://www.w3.org/1999/xlink" version="1.1" id="Layer_1" x="0px" y="0px" viewBox="0 0 511.995 511.995" style="enable-background:new 0 0 511.995 511.995;" xml:space="preserve" width="512" height="512">
<g>
	<g>
		<polygon style="fill:#E0824A;" points="114.476,237.054 25.919,267.454 25.919,478.661 147.047,478.661 162.017,410.583     162.017,267.454   "/>
		<polygon style="fill:#E0824A;" points="397.519,237.054 486.076,267.454 486.076,478.661 364.948,478.661 349.978,410.583     349.978,267.454   "/>
		<path style="fill:#C86D5C;" d="M50.436,198.713l-41.63,57.834c-3.278,4.555-0.024,10.908,5.588,10.908h147.622v-68.742H50.436z"/>
		<path style="fill:#EFEDEE;" d="M98.88,319.477H74.085c-8.082,0-14.634,6.552-14.634,14.634v53.513l27.031,13.89l27.031-13.89    V334.11C113.514,326.028,106.962,319.477,98.88,319.477z"/>
		<path style="fill:#C86D5C;" d="M461.559,198.713l41.63,57.834c3.278,4.555,0.024,10.908-5.588,10.908H349.978v-68.742H461.559z"/>
		<path style="fill:#EFEDEE;" d="M413.114,319.477h24.795c8.082,0,14.634,6.552,14.634,14.634v53.513l-27.031,13.89l-27.031-13.89    V334.11C398.481,326.028,405.032,319.477,413.114,319.477z"/>
		<polygon style="fill:#FA9F6A;" points="321.511,478.661 364.948,478.661 364.948,134.952 255.997,61.229 147.047,135.948     147.047,478.661 190.483,478.661 255.997,420.191   "/>
		<path style="fill:#E0824A;" d="M147.047,135.949v56.363c5.188-0.79,10.114-2.773,14.462-5.858l94.489-67.026l94.489,67.026    c4.348,3.083,9.274,5.067,14.462,5.857v-57.359L255.997,61.229L147.047,135.949z"/>
		<path style="fill:#C86D5C;" d="M393.77,125.434L270.407,37.926c-8.63-6.123-20.188-6.123-28.82,0l-123.363,87.508    c-4.005,2.841-4.949,8.391-2.108,12.396l18.532,26.125c2.841,4.005,8.391,4.949,12.396,2.108l108.953-77.286l108.953,77.286    c4.005,2.841,9.555,1.897,12.396-2.108l18.531-26.124C398.719,133.825,397.775,128.275,393.77,125.434z"/>
		<path style="fill:#E0824A;" d="M321.511,380.061v98.6H190.483v-98.6c0-10.132,8.209-18.341,18.341-18.341h94.346    C313.302,361.72,321.511,369.93,321.511,380.061z"/>
		<circle style="fill:#EFEDEE;" cx="255.997" cy="208.327" r="59.127"/>
		<path style="fill:#FA9F6A;" d="M113.514,387.623H59.451c-5.851,0-10.594,4.743-10.594,10.594v17.186h75.251v-17.186    C124.108,392.366,119.365,387.623,113.514,387.623z"/>
		<path style="fill:#FA9F6A;" d="M398.481,387.623h54.063c5.851,0,10.594,4.743,10.594,10.594v17.186h-75.251v-17.186    C387.887,392.366,392.63,387.623,398.481,387.623z"/>
	</g>
	<g>
		<path d="M208.321,254.798c0.399,0.409,0.792,0.803,1.201,1.202c12.013,11.713,28.411,18.95,46.476,18.95    c18.065,0,34.463-7.237,46.476-18.951c0.412-0.402,0.837-0.745,1.199-1.199c11.714-12.014,18.952-28.412,18.952-46.477    c0-18.064-7.237-34.463-18.951-46.477c-0.402-0.413-0.745-0.837-1.2-1.2c-12.013-11.714-28.411-18.951-46.476-18.951    c-18.064,0-34.461,7.236-46.475,18.95c-0.413,0.403-0.84,0.747-1.202,1.203c-11.713,12.013-18.95,28.411-18.95,46.475    S196.607,242.785,208.321,254.798z M215.373,200.823h-10.451c1.263-8.642,4.67-16.597,9.669-23.3l7.377,7.377    c1.464,1.464,3.384,2.196,5.303,2.196s3.839-0.732,5.303-2.196c2.929-2.929,2.929-7.678,0-10.607l-7.377-7.377    c6.704-5,14.658-8.406,23.3-9.669v10.451c0,4.142,3.358,7.5,7.5,7.5c4.142,0,7.5-3.358,7.5-7.5v-10.451    c8.642,1.263,16.596,4.669,23.3,9.669l-7.377,7.377c-2.929,2.929-2.929,7.677,0,10.606c1.464,1.464,3.384,2.196,5.303,2.196    s3.839-0.732,5.303-2.196l7.377-7.377c5,6.704,8.406,14.659,9.669,23.3h-10.451c-4.142,0-7.5,3.358-7.5,7.5s3.358,7.5,7.5,7.5    h10.451c-1.263,8.642-4.67,16.597-9.669,23.3l-7.377-7.377c-2.929-2.929-7.678-2.929-10.606,0c-2.929,2.929-2.929,7.678,0,10.606    l7.377,7.377c-6.704,5-14.658,8.406-23.3,9.669v-10.451c0-4.142-3.358-7.5-7.5-7.5c-4.142,0-7.5,3.358-7.5,7.5v10.451    c-8.642-1.264-16.596-4.67-23.3-9.669l7.377-7.377c2.929-2.929,2.929-7.678,0-10.607c-2.929-2.929-7.677-2.929-10.607,0    l-7.377,7.377c-5-6.704-8.406-14.659-9.669-23.3h10.451c4.142,0,7.5-3.358,7.5-7.5S219.515,200.823,215.373,200.823z"/>
		<path d="M255.998,215.823h12.604c4.142,0,7.5-3.358,7.5-7.5s-3.358-7.5-7.5-7.5h-5.104v-5.104c0-4.142-3.358-7.5-7.5-7.5    c-4.142,0-7.5,3.358-7.5,7.5v12.604C248.498,212.465,251.855,215.823,255.998,215.823z"/>
		<path d="M510.403,267.124c2.473-4.827,2.041-10.561-1.128-14.963l-41.629-57.834c-1.409-1.958-3.674-3.119-6.087-3.119h-89.11    v-16.193c0.131-0.019,0.263-0.028,0.394-0.05c4.316-0.734,8.089-3.105,10.621-6.677c0,0,18.524-26.114,18.531-26.124    c5.173-7.293,3.394-17.689-3.886-22.853l-38.97-27.643c-3.379-2.397-8.06-1.6-10.457,1.778c-2.396,3.379-1.601,8.06,1.778,10.457    l38.971,27.643c0.627,0.445,0.776,1.31,0.329,1.939c0,0-18.531,26.125-18.532,26.126c-0.446,0.628-1.318,0.769-1.941,0.327    L260.337,82.655c-2.599-1.844-6.08-1.844-8.679,0l-108.953,77.286c-0.626,0.444-1.497,0.296-1.94-0.33    c0,0-18.532-26.125-18.533-26.127c-0.443-0.626-0.292-1.495,0.332-1.938l123.363-87.508c6.024-4.273,14.118-4.273,20.142,0    l59.573,42.259c3.379,2.396,8.06,1.6,10.457-1.778c2.396-3.378,1.601-8.06-1.778-10.457l-59.573-42.259    c-11.213-7.955-26.283-7.956-37.499,0c0,0-123.312,87.472-123.362,87.508c-7.284,5.167-9.055,15.567-3.886,22.853l18.532,26.125    c2.697,3.801,6.731,6.092,11.016,6.715v16.203H50.436c-2.413,0-4.678,1.161-6.087,3.119L2.72,252.161    c-3.168,4.402-3.601,10.135-1.128,14.963c2.473,4.827,7.379,7.826,12.803,7.826h4.024v203.707c0,4.142,3.358,7.5,7.5,7.5h460.157    c4.142,0,7.5-3.358,7.5-7.5V274.95h4.024C503.024,274.95,507.93,271.951,510.403,267.124z M33.419,274.95h21.26    c4.142,0,7.5-3.358,7.5-7.5s-3.358-7.5-7.5-7.5H15.595l38.683-53.742h85.269v53.742H84.242c-4.142,0-7.5,3.358-7.5,7.5    s3.358,7.5,7.5,7.5h55.305v196.207H33.419V274.95z M154.547,169.932l101.451-71.964l101.451,71.964v301.226h-28.437v-91.1    c0-14.249-11.592-25.841-25.841-25.841h-94.345c-14.249,0-25.841,11.592-25.841,25.841v91.1h-28.437V169.932z M197.984,471.157    v-91.1c0-5.978,4.863-10.841,10.841-10.841h94.345c5.978,0,10.841,4.863,10.841,10.841v91.1H197.984z M478.576,471.157H372.448    V274.95h106.127V471.157z M372.448,259.95v-53.742h85.268L496.4,259.95H372.448z"/>
		<path d="M121.014,381.767v-47.661c0-12.205-9.929-22.134-22.134-22.134H74.085c-12.205,0-22.134,9.929-22.134,22.134v47.661    c-6.24,2.857-10.594,9.146-10.594,16.446v17.186c0,4.142,3.358,7.5,7.5,7.5h75.25c4.143,0,7.5-3.358,7.5-7.5v-17.186    C131.608,390.913,127.254,384.624,121.014,381.767z M74.085,326.972h24.795c3.934,0,7.134,3.2,7.134,7.134v46.013H66.951v-46.013    C66.951,330.172,70.152,326.972,74.085,326.972z M116.608,407.898h-60.25v-9.686c0-1.706,1.387-3.093,3.092-3.094    c0,0,0.001,0,0.001,0h54.063h0.001c1.706,0.001,3.092,1.388,3.092,3.094V407.898z"/>
		<path d="M387.887,422.898h75.25c4.142,0,7.5-3.358,7.5-7.5v-17.186c0-7.3-4.354-13.588-10.594-16.446v-47.661    c0-12.205-9.929-22.134-22.134-22.134h-24.795c-12.205,0-22.134,9.929-22.134,22.134v47.661    c-6.24,2.857-10.594,9.146-10.594,16.446v17.186C380.387,419.54,383.745,422.898,387.887,422.898z M455.637,407.898h-60.25v-9.686    c0-1.706,1.387-3.093,3.092-3.094h0.001h54.063c0,0,0.001,0,0.001,0c1.705,0.001,3.092,1.388,3.092,3.094V407.898z     M413.115,326.972h24.795c3.934,0,7.134,3.2,7.134,7.134v46.013h-39.063v-46.013C405.981,330.172,409.181,326.972,413.115,326.972    z"/>
	</g>
</g>















</svg>
