<?xml version="1.0" encoding="iso-8859-1"?>
<!-- Generator: Adobe Illustrator 19.0.0, SVG Export Plug-In . SVG Version: 6.00 Build 0)  -->
<svg xmlns="http://www.w3.org/2000/svg" xmlns:xlink="http://www.w3.org/1999/xlink" version="1.1" id="Layer_1" x="0px" y="0px" viewBox="0 0 511.664 511.664" style="enable-background:new 0 0 511.664 511.664;" xml:space="preserve" width="512" height="512">
<g>
	<g>
		<circle style="fill:#FADC60;" cx="98.165" cy="413.499" r="51.53"/>
		<path style="fill:#E6CB59;" d="M82.941,398.275c16.434-16.434,41.203-19.44,60.695-9.033c-2.337-4.377-5.344-8.49-9.034-12.18    c-20.124-20.124-52.751-20.124-72.874,0c-20.124,20.124-20.124,52.751,0,72.874c3.69,3.69,7.803,6.697,12.18,9.034    C63.5,439.478,66.507,414.709,82.941,398.275z"/>
		<path style="fill:#FD6F71;" d="M222.887,494.027c4.049-4.882,7.452-9.459,10.35-13.813l-82.69-119.097L31.45,278.427    c-4.354,2.898-8.931,6.301-13.813,10.35c-12.973,10.759-13.805,30.389-1.887,42.307l164.83,164.83    C192.498,507.832,212.128,506.999,222.887,494.027z"/>
		<path style="fill:#E36465;" d="M38.85,309.99c4.882-4.05,9.459-7.453,13.813-10.35l106.577,73.997l-8.693-12.52L31.45,278.427    c-4.354,2.898-8.931,6.301-13.813,10.35c-12.973,10.759-13.805,30.389-1.887,42.307l21.213,21.213    C25.045,340.379,25.878,320.749,38.85,309.99z"/>
		<path style="fill:#C86D5C;" d="M237.108,228.489L411.715,25.647c18.983-22.053,52.249-24.541,74.301-5.558    c22.052,18.983,24.541,52.249,5.558,74.301c-1.671,1.941-3.683,3.921-5.558,5.558L283.175,274.556    c-13.673,11.769-34.297,10.227-46.067-3.446C226.418,258.691,226.718,240.534,237.108,228.489z"/>
		<path style="fill:#AD4F3D;" d="M258.321,249.702L432.929,46.86c16.478-19.142,43.713-23.532,65.039-11.945    c-2.967-5.477-6.95-10.521-11.951-14.826c-22.052-18.983-55.318-16.494-74.301,5.558L237.108,228.489    c-10.389,12.045-10.69,30.202,0,42.621c4.096,4.758,9.266,8.043,14.841,9.813C248.576,270.306,250.812,258.408,258.321,249.702z"/>
		<path style="fill:#FADC60;" d="M233.237,480.214L31.45,278.427c39.469-26.288,60.533-11.019,120.955-57.368    c76.53-58.698,132.256,5.944,132.256,5.944s64.642,55.726,5.944,132.256C244.256,419.681,259.525,440.745,233.237,480.214z"/>
		<path style="fill:#E6CB59;" d="M294.782,238.095c-5.581-7.177-10.121-11.092-10.121-11.092s-55.726-64.642-132.256-5.944    c-60.421,46.349-81.486,31.08-120.954,57.368l21.213,21.213c39.469-26.288,60.533-11.019,120.954-57.368    C229.867,199.13,274.876,222.617,294.782,238.095z"/>
	</g>
	<g>
		<path d="M145.617,258.017l-8.829,8.829c-2.929,2.929-2.929,7.678,0,10.606c2.815,2.815,7.684,2.923,10.607,0l8.829-8.829    c2.929-2.929,2.929-7.678,0-10.606C153.294,255.088,148.545,255.087,145.617,258.017z"/>
		<path d="M243.181,355.58l-8.829,8.829c-2.929,2.929-2.929,7.678,0,10.607c2.816,2.816,7.678,2.927,10.607,0l8.829-8.829    c2.929-2.929,2.929-7.678,0-10.606C250.859,352.651,246.11,352.651,243.181,355.58z"/>
		<path d="M203.024,324.873c-4.183,0.283-8.399-1.371-11.561-4.534c-3.162-3.162-4.814-7.375-4.533-11.561    c0.278-4.133-2.847-7.708-6.98-7.985c-4.147-0.275-7.708,2.848-7.986,6.98c-0.572,8.504,2.67,16.95,8.893,23.173    c5.752,5.753,13.405,8.957,21.247,8.957c4.727,0,9.263-2.728,8.906-8.05C210.733,327.72,207.162,324.597,203.024,324.873z"/>
		<path d="M447.34,0.211c-15.444,1.157-30.451,8.097-41.141,20.516l-29.704,34.507c-2.702,3.14-2.348,7.875,0.791,10.577    c3.141,2.702,7.875,2.348,10.577-0.791c0,0,29.692-34.493,29.704-34.508c16.067-18.666,45.064-20.828,63.724-4.767    c20.524,17.666,20.291,50.774,0,68.491L307.855,243.532c-7.663-12.444-15.767-20.114-17.714-21.87    c-1.757-1.948-9.427-10.051-21.869-17.714l99.954-116.116c2.702-3.14,2.348-7.875-0.791-10.577    c-3.141-2.702-7.875-2.348-10.577,0.791L254.615,196.822c-1.487-0.643-3.011-1.264-4.579-1.853    c-23.217-8.718-59.765-12.306-102.028,20.11c-33.991,26.074-54.484,31.815-74.303,37.367c-14.779,4.14-28.739,8.051-46.246,19.711    c-13.497,8.989-26.603,19.373-27.419,36.885c-0.473,10.166,3.381,20.122,10.576,27.316l41.023,41.023    c-17.904,23.134-16.263,56.61,4.955,77.829c11.149,11.149,25.973,17.29,41.74,17.29c13.238,0,25.802-4.343,36.093-12.33    c0,0,41.005,41.005,41.018,41.018c14.804,14.804,39.995,13.733,53.383-2.402c15.104-18.207,24.195-38.074,30.529-60.687    c5.552-19.819,11.292-40.313,37.367-74.304c32.416-42.263,28.828-78.81,20.11-102.028c-0.589-1.567-1.209-3.092-1.852-4.579    c0,0,176.135-151.619,176.136-151.619c27.275-23.803,27.529-67.461-0.04-91.193C478.646,3.675,462.775-0.945,447.34,0.211z     M98.332,457.501c-11.761,0-22.818-4.58-31.134-12.896c-15.359-15.36-16.977-39.338-4.852-56.513l61.369,61.369    C116.342,454.685,107.554,457.501,98.332,457.501z M284.822,354.666c-27.836,36.288-34.251,59.186-39.909,79.388    c-3.282,11.713-6.193,22.108-12.923,34.11l-28.653-28.653c-2.929-2.929-7.678-2.929-10.606,0c-2.846,2.847-2.896,7.71,0,10.607    l30.93,30.929c-1.951,2.671-4.062,5.373-6.377,8.163c-7.835,9.447-22.586,10.018-31.232,1.373l-45.978-45.978    c0,0-118.819-118.819-118.852-118.852c-8.682-8.682-8.078-23.395,1.373-31.231c2.789-2.313,5.491-4.425,8.163-6.377l140.76,140.76    c2.929,2.929,7.678,2.929,10.606,0c2.929-2.929,2.929-7.678,0-10.606L43.64,279.814c12.002-6.73,22.397-9.642,34.11-12.923    c20.202-5.659,43.099-12.073,79.386-39.909c29.349-22.511,58.646-28.625,87.076-18.174c14.409,5.296,24.398,13.982,35.705,23.836    c10.489,9.141,18.302,21.956,23.077,34.947C313.446,296.021,307.331,325.317,284.822,354.666z"/>
	</g>
</g>















</svg>
