<?xml version="1.0" encoding="iso-8859-1"?>
<!-- Generator: Adobe Illustrator 19.0.0, SVG Export Plug-In . SVG Version: 6.00 Build 0)  -->
<svg xmlns="http://www.w3.org/2000/svg" xmlns:xlink="http://www.w3.org/1999/xlink" version="1.1" id="Layer_1" x="0px" y="0px" viewBox="0 0 512 512" style="enable-background:new 0 0 512 512;" xml:space="preserve" width="512" height="512">
<g>
	<g>
		<path style="fill:#EFEDEE;" d="M130.398,353.84c-8.585,9.95-17.908,22.718-25.995,38.295    c-8.097,15.567-14.959,33.943-18.664,55.107c-3.008,17.24-3.914,36.323-1.673,57.258h46.332l36.309-49.797L130.398,353.84z"/>
		<path style="fill:#EFEDEE;" d="M426.26,447.242c-7.373-42.15-27.305-73.225-44.438-93.15l-0.064-0.252l-0.045,0.124    c-0.004-0.005-0.008-0.01-0.012-0.014v0.048l-36.252,100.705l36.252,49.719v0.078h46.233    C430.175,483.565,429.268,464.482,426.26,447.242z"/>
		<path style="fill:#C86D5C;" d="M410.521,68.791C369.158,29.267,314.281,7.5,256,7.5c-58.281,0-113.158,21.767-154.522,61.291    c-41.713,39.859-64.746,92.978-64.854,149.572v0.114c0.031,16.505,2.013,32.715,5.839,48.386    c10.471,42.885,48.939,73.034,93.083,73.034h240.905c44.145,0,82.613-30.149,93.083-73.034c3.826-15.671,5.808-31.88,5.839-48.385    v-0.114C475.266,161.769,452.235,108.65,410.521,68.791z"/>
		<path style="fill:#AD4F3D;" d="M82.464,266.863c-3.826-15.671-5.808-31.88-5.839-48.386v-0.114    c0.108-56.594,23.14-109.713,64.854-149.572C178.074,33.823,225.25,12.768,276,8.375C269.388,7.803,262.718,7.5,256,7.5    c-58.281,0-113.158,21.767-154.521,61.291c-41.714,39.859-64.746,92.978-64.854,149.572v0.114    c0.031,16.505,2.013,32.714,5.839,48.386c10.471,42.885,48.939,73.034,93.083,73.034h40    C131.402,339.896,92.934,309.748,82.464,266.863z"/>
		<path style="fill:#506366;" d="M381.641,353.88c0.02,0.02,0.04,0.05,0.06,0.07V504.5H130.398V353.84L381.641,353.88z"/>
		<path style="fill:#D2D2D2;" d="M399.507,378.035c-5.821-9.243-11.911-17.229-17.685-23.943l-0.064-0.252l-0.045,0.124    c-0.004-0.005-0.008-0.01-0.012-0.015v0.049l-17.266,47.962C376.815,395.167,388.558,387.17,399.507,378.035z"/>
		<path style="fill:#D2D2D2;" d="M130.398,353.84c-5.835,6.763-12.01,14.831-17.907,24.194    c11.008,9.184,22.816,17.218,35.269,24.035L130.398,353.84z"/>
		<path style="fill:#3A484A;" d="M130.398,353.84v37.663c36.574,24.669,80.049,37.959,125.602,37.959    c45.595,0,89.106-13.316,125.701-38.028v-37.485c-0.02-0.02-0.04-0.05-0.06-0.069L130.398,353.84z"/>
		<path style="fill:#FD6F71;" d="M158.943,353.84l1.663,15.517c0.329,3.107,2.55,19.65,13.525,40.695    c14.402,27.608,37.777,50.834,67.586,67.178l14.362,7.868l14.362-7.868c29.809-16.344,53.185-39.57,67.586-67.178    c10.976-21.045,13.187-37.588,13.525-40.695l1.653-15.477L158.943,353.84z M256.079,451.026    c-60.216-32.996-65.764-84.847-65.764-84.847h131.528C321.843,366.18,316.286,418.03,256.079,451.026z"/>
		<path style="fill:#EFEDEE;" d="M321.843,366.18c0,0-5.558,51.85-65.764,84.847c-60.216-32.996-65.764-84.847-65.764-84.847    H321.843z"/>
		<path id="XMLID_61_" style="fill:#E3B098;" d="M438.858,187.46c-21.219,2.236-37.755,20.182-37.755,41.993    c0,23.324,18.908,42.232,42.232,42.232s42.232-18.908,42.232-42.232c0-21.811-16.536-39.757-37.755-41.993H438.858z"/>
		<path id="XMLID_60_" style="fill:#E3B098;" d="M73.142,187.46c21.219,2.236,37.755,20.182,37.755,41.993    c0,23.324-18.908,42.232-42.232,42.232s-42.232-18.908-42.232-42.232c0-21.811,16.536-39.757,37.755-41.993H73.142z"/>
		<path style="fill:#D2D2D2;" d="M223.69,427.2c10.607,1.499,21.398,2.262,32.31,2.262c10.974,0,21.826-0.772,32.491-2.289    c29.974-29.513,33.352-60.994,33.352-60.994H190.316C190.316,366.18,193.689,397.68,223.69,427.2z"/>
		<path style="fill:#E36465;" d="M288.499,427.166c16.039-2.281,31.652-6.245,46.612-11.802c1.008-1.752,1.983-3.522,2.917-5.312    c10.976-21.045,13.187-37.588,13.525-40.695l1.653-15.477l-94.256-0.02l-100.007-0.016l1.663,15.513    c0.329,3.107,2.55,19.65,13.525,40.695c0.948,1.816,1.939,3.611,2.964,5.389c14.953,5.538,30.557,9.484,46.586,11.75    c-29.992-29.518-33.365-61.012-33.365-61.012h131.528C321.843,366.18,318.466,397.655,288.499,427.166z"/>
		<path style="fill:#FBC4AC;" d="M274.836,93.821c-9.978-11.198-27.535-11.198-37.513,0c-27.232,30.56-83.823,81.228-167.84,93.64    l-0.13-0.159c-1.847,10.111-2.829,20.507-2.849,31.119C66.694,318.438,151.459,399.462,256,399.462    c104.54,0,189.305-81.024,189.496-181.042c-0.02-10.557-0.993-20.9-2.822-30.961C358.658,175.048,302.068,124.38,274.836,93.821z"/>
		<g id="XMLID_59_">
			<path style="fill:#F98084;" d="M166.68,289.287h-27.264c-4.142,0-7.5-3.358-7.5-7.5s3.358-7.5,7.5-7.5h27.264     c4.142,0,7.5,3.358,7.5,7.5S170.822,289.287,166.68,289.287z"/>
		</g>
		<g id="XMLID_56_">
			<path style="fill:#F98084;" d="M372.583,289.287h-27.264c-4.142,0-7.5-3.358-7.5-7.5s3.358-7.5,7.5-7.5h27.264     c4.142,0,7.5,3.358,7.5,7.5S376.725,289.287,372.583,289.287z"/>
		</g>
	</g>
	<g>
		<path d="M153.049,259.864c4.142,0,7.5-3.357,7.5-7.5v-20.018c0-4.142-3.358-7.5-7.5-7.5s-7.5,3.358-7.5,7.5v20.018    C145.549,256.506,148.907,259.864,153.049,259.864z"/>
		<path d="M358.951,259.864c4.142,0,7.5-3.357,7.5-7.5v-20.018c0-4.142-3.358-7.5-7.5-7.5s-7.5,3.358-7.5,7.5v20.018    C351.451,256.506,354.809,259.864,358.951,259.864z"/>
		<path d="M256,288.156c9.341,0,18.11-3.904,24.061-10.711c2.726-3.118,2.408-7.856-0.711-10.582    c-3.12-2.727-7.857-2.408-10.583,0.711c-3.101,3.548-7.754,5.582-12.767,5.582s-9.666-2.035-12.768-5.583    c-2.726-3.118-7.464-3.437-10.583-0.71s-3.437,7.464-0.71,10.583C237.89,284.252,246.659,288.156,256,288.156z"/>
		<path d="M477.561,265.483c9.54-9.067,15.506-21.86,15.506-36.029c0-11.937-4.184-22.941-11.23-31.547    c-4.959-50.763-28.372-98.456-66.134-134.538C372.938,22.504,316.221,0,256,0C195.78,0,139.063,22.504,96.297,63.369    c-37.762,36.083-61.175,83.775-66.134,134.539c-7.046,8.606-11.229,19.609-11.229,31.546c0,14.168,5.966,26.962,15.505,36.028    c0.253,1.12,0.496,2.162,0.739,3.16c9.024,36.959,37.244,65.605,73.928,75.29c2.526,2.704,5.131,5.356,7.834,7.939    c0.996,0.952,2.005,1.886,3.019,2.815c-8.543,10.643-16.006,22.042-22.208,33.988c-9.373,18.019-15.899,37.29-19.398,57.279    c-3.329,19.08-3.915,39.047-1.743,59.346c0.408,3.812,3.625,6.702,7.458,6.702h343.868c3.833,0,7.049-2.89,7.458-6.702    c2.172-20.299,1.586-40.266-1.743-59.349c-7.129-40.757-25.696-71.425-41.599-91.271c1.011-0.926,2.017-1.858,3.011-2.808    c2.704-2.583,5.308-5.236,7.834-7.939c36.684-9.685,64.903-38.331,73.927-75.29C477.063,267.654,477.308,266.602,477.561,265.483z     M457.99,260.919c-3.409,1.589-7.086,2.635-10.822,3.044c2.373-9.158,4.029-18.529,4.954-28.05    c1.141-11.755,1.128-23.621-0.051-35.372c-0.162-1.613-0.334-3.228-0.539-4.836c6.706,1.624,12.813,5.225,17.525,10.414    c5.783,6.369,9.009,14.723,9.009,23.334c0,11.545-5.667,21.786-14.361,28.105C461.922,258.855,460.003,259.982,457.99,260.919z     M106.66,74.213C146.621,36.029,199.658,15,256,15c56.342,0,109.378,21.029,149.34,59.213    c31.474,30.074,52.249,68.771,59.567,110.403c-2.521-1.208-5.164-2.21-7.91-2.987c-0.01-0.003-0.02-0.005-0.029-0.008    c-2.882-0.865-6.129-1.661-9.155-1.661c-2.843,0-5.385-0.135-8.19-0.599c-21.402-3.535-42.251-9.872-62.047-18.733    c-33.702-15.085-64.098-37.205-89.693-63.758c-3.731-3.871-7.003-8.211-11.191-11.621c-5.785-4.708-13.153-7.328-20.612-7.328    c-9.139,0-18.224,4.029-24.355,10.909c-14.94,16.766-39.995,40.854-74.505,60.393c-3.604,2.041-4.872,6.618-2.831,10.222    s6.618,4.872,10.222,2.831c36.294-20.549,62.62-45.856,78.314-63.467c3.274-3.674,8.161-5.888,13.157-5.888    c5.027,0,9.823,2.146,13.157,5.888c29.985,33.647,67.43,61.203,109.118,78.511c18.385,7.633,37.675,13.249,57.299,16.606    c0.166,0.028,0.328,0.063,0.495,0.091c0.031,0.204,0.061,0.409,0.09,0.613c3.625,24.837,1.48,50.418-6.164,74.322    c-0.009,0.027-0.013,0.055-0.021,0.083c-7.486,23.366-19.838,44.608-36.717,63.137c-0.009,0.01-0.015,0.021-0.024,0.031    c-34.487,38.38-85.967,59.758-137.312,59.758c-49.735,0-104.895-20.329-137.066-59.493c-0.18-0.219-0.368-0.43-0.571-0.627    c-16.722-18.45-28.973-39.577-36.414-62.8c-0.009-0.029-0.014-0.059-0.023-0.089c-3.246-10.151-5.503-20.562-6.755-31.111    c-1.685-14.311-1.465-28.819,0.573-43.083c0.034-0.238,0.07-0.476,0.105-0.714c0.193-0.033,0.385-0.073,0.578-0.106    c2.465-0.424,4.925-0.872,7.376-1.367c7.607-1.536,15.245-3.231,22.645-5.585c9.827-2.88,19.495-6.328,28.93-10.309    c4.016-1.694,5.744-6.703,3.661-10.517c-1.819-3.331-6.001-4.775-9.492-3.303c-3.61,1.523-7.249,2.961-10.913,4.313    c-15.876,5.857-32.228,10.1-48.77,12.646c-0.68,0.105-1.372,0-2.051,0.143c-4.446,0-8.484,0.365-12.767,1.657    c-0.016,0.005-0.033,0.009-0.05,0.014c-2.745,0.777-5.385,1.779-7.905,2.986C54.41,142.985,75.186,104.289,106.66,74.213z     M260.452,406.913c5.855-0.129,11.702-0.511,17.528-1.12c7.161-0.758,14.239-1.873,21.205-3.359    c-0.057,0.087-0.117,0.175-0.175,0.262c-6.68,10.09-14.964,19.083-24.296,26.774c-5.797,4.777-12.105,9.132-18.635,12.941    c-10.589-6.177-20.449-13.682-29.005-22.474c-5.111-5.252-9.814-11.067-13.907-17.206c-0.058-0.087-0.117-0.174-0.174-0.261    c6.938,1.474,13.986,2.581,21.116,3.333C242.853,406.732,251.661,407.107,260.452,406.913z M192.607,397.002    c0.028,0.058,0.059,0.117,0.087,0.174c4.896,9.937,11.168,19.179,18.408,27.553c7.127,8.243,15.313,15.621,24.147,21.994    c5.419,3.909,11.072,7.487,16.925,10.71c2.354,1.296,5.116,1.483,7.511,0.17c10.959-6.007,21.291-13.222,30.487-21.697    c8.983-8.279,16.93-17.715,23.379-28.098c2.15-3.461,4.19-7.013,5.942-10.693c0.028-0.058,0.059-0.117,0.087-0.174    c6.559-2.137,12.991-4.605,19.273-7.4c-1.829,5.125-4.255,10.87-7.474,17.042c-13.71,26.282-36.028,48.437-64.541,64.069    l-10.758,5.894l-10.756-5.893c-28.514-15.633-50.833-37.789-64.542-64.07c-3.203-6.142-5.622-11.86-7.447-16.96    C179.616,392.41,186.048,394.873,192.607,397.002z M63.971,263.864c-5.665-0.764-11.122-2.979-15.737-6.348    c-8.66-6.322-14.301-16.543-14.301-28.062c0-8.522,3.24-17.004,9.009-23.333c4.711-5.189,10.819-8.79,17.525-10.415    c-1.676,13.137-1.892,26.455-0.644,39.64c0.017,0.178,0.031,0.357,0.049,0.535c0.923,9.532,2.581,18.914,4.956,28.083    C64.739,263.954,64.167,263.89,63.971,263.864z M53.483,276.807c0.539,0.173,1.083,0.331,1.63,0.486    c4.674,1.324,9.527,1.967,14.386,1.884c5.055,14.228,11.882,27.828,20.383,40.546C73.472,309.864,60.645,294.869,53.483,276.807z     M93.127,448.535c3.234-18.472,9.266-36.283,17.933-52.944c3.522-6.785,7.479-13.382,11.839-19.746V497H90.912    C89.663,480.41,90.405,464.136,93.127,448.535z M137.898,369.286c5.508,3.972,11.199,7.656,17.063,11.026    c1.92,8.26,5.576,19.895,12.52,33.208c15.085,28.918,39.508,53.223,70.632,70.287l14.362,7.868c2.198,1.204,4.974,1.224,7.207,0    l14.364-7.869c31.122-17.063,55.545-41.368,70.631-70.287c6.964-13.353,10.624-25.028,12.541-33.314    c5.836-3.363,11.5-7.034,16.983-10.993V497H137.898V369.286z M421.088,497h-31.887V376.022    c12.218,17.917,24.372,42.213,29.671,72.508C421.595,464.136,422.337,480.41,421.088,497z M422.118,319.722    c8.5-12.717,15.326-26.317,20.381-40.545c0.115,0.002,0.228-0.002,0.343-0.001c4.752,0.04,9.466-0.584,14.037-1.881    c0.549-0.156,1.096-0.314,1.637-0.488C451.354,294.869,438.529,309.864,422.118,319.722z"/>
	</g>
</g>















</svg>
