<?xml version="1.0" encoding="iso-8859-1"?>
<!-- Generator: Adobe Illustrator 19.0.0, SVG Export Plug-In . SVG Version: 6.00 Build 0)  -->
<svg xmlns="http://www.w3.org/2000/svg" xmlns:xlink="http://www.w3.org/1999/xlink" version="1.1" id="Layer_1" x="0px" y="0px" viewBox="0 0 511.832 511.832" style="enable-background:new 0 0 511.832 511.832;" xml:space="preserve" width="512" height="512">
<g>
	<g>
		<path style="fill:#6EE3FF;" d="M493.053,164.645L347.187,18.779c-15.151-15.151-39.716-15.151-54.867,0L179.445,131.653    l74.763,134.163l125.97,66.569l112.875-112.875C508.203,204.361,508.203,179.795,493.053,164.645z"/>
		<path style="fill:#E36465;" d="M66.573,244.525L18.78,292.319c-15.152,15.152-15.152,39.719,0,54.872l145.861,145.861    c15.152,15.152,39.719,15.152,54.872,0l47.793-47.793L66.573,244.525z"/>
		<path style="fill:#FD6F71;" d="M380.178,332.386L267.304,445.261c-15.151,15.151-39.716,15.151-54.867,0L66.571,299.395    c-15.151-15.151-15.151-39.716,0-54.867l112.875-112.875L380.178,332.386z"/>
	</g>
	<g>
		<path d="M298.121,117.349l10.421-10.421c2.929-2.929,2.929-7.678,0-10.606c-2.929-2.929-7.678-2.929-10.606,0l-10.421,10.421    c-2.929,2.929-2.929,7.678,0,10.607C290.417,120.252,295.225,120.247,298.121,117.349z"/>
		<path d="M413.281,232.509l10.421-10.421c2.929-2.929,2.929-7.677,0-10.606c-2.929-2.929-7.678-2.929-10.606,0l-10.421,10.421    c-2.929,2.929-2.929,7.677-0.001,10.606C405.453,235.288,410.343,235.447,413.281,232.509z"/>
		<path d="M337.414,147.206c-4.131-0.277-7.708,2.849-7.985,6.98c-0.648,9.648,3.034,19.236,10.104,26.306    c6.536,6.536,15.225,10.177,24.124,10.177c4.791,0,9.531-2.551,9.161-8.059c-0.277-4.133-3.846-7.258-7.985-6.98    c-5.331,0.358-10.685-1.736-14.693-5.744c-4.008-4.009-6.102-9.364-5.744-14.693C344.672,151.059,341.547,147.484,337.414,147.206    z"/>
		<path d="M13.56,352.41l145.861,145.861c8.745,8.745,20.372,13.561,32.739,13.561s23.995-4.816,32.739-13.561l72.016-72.016    c2.929-2.929,2.929-7.678,0-10.606c-2.929-2.929-7.678-2.929-10.606,0c0,0-24.21,24.21-24.225,24.225    c-11.938,11.938-32.322,11.946-44.26,0L71.958,294.008c-12.202-12.203-12.202-32.058,0-44.261l107.571-107.571l190.126,190.126    l-62.133,62.133c-2.929,2.929-2.929,7.677,0,10.606c2.929,2.929,7.678,2.929,10.606,0c0,0,180.103-180.103,180.31-180.31    c17.841-17.841,17.817-47.658,0-65.474c0,0-145.73-145.73-145.866-145.866c-17.861-17.861-47.624-17.849-65.473,0l-66.533,66.533    c-2.929,2.929-2.929,7.678,0,10.606c2.929,2.929,7.678,2.929,10.606,0l66.533-66.533c12.203-12.202,32.057-12.203,44.26,0    c0,0,145.494,145.495,145.865,145.866c12.092,12.092,12.066,32.196,0.001,44.261L380.261,321.695L190.135,131.569l19.825-19.824    c2.929-2.929,2.929-7.678,0-10.607c-2.929-2.929-7.678-2.928-10.606,0L13.56,286.931C-4.492,304.984-4.492,334.358,13.56,352.41z     M207.217,450.48c8.105,8.105,19.135,12.978,30.583,13.507c0.05,0.002,0.099,0.007,0.149,0.01    c-12.223,11.969-31.899,11.896-44.025-0.229L48.063,317.907c-12.132-12.133-12.198-31.826-0.208-44.047    c0.002,0.04,0.006,0.081,0.008,0.122c0.476,11.417,5.374,22.522,13.488,30.632C61.351,304.614,207.213,450.476,207.217,450.48z     M23.965,297.751c0.474,11.189,4.968,22.238,13.492,30.763l145.861,145.86c8.525,8.525,19.573,13.019,30.763,13.493    c-5.888,5.781-13.658,8.965-21.92,8.965c-8.36,0-16.22-3.256-22.132-9.167L24.167,341.803    C12.033,329.669,11.969,309.971,23.965,297.751z"/>
	</g>
</g>















</svg>
