<?xml version="1.0" encoding="iso-8859-1"?>
<!-- Generator: Adobe Illustrator 19.0.0, SVG Export Plug-In . SVG Version: 6.00 Build 0)  -->
<svg xmlns="http://www.w3.org/2000/svg" xmlns:xlink="http://www.w3.org/1999/xlink" version="1.1" id="Layer_1" x="0px" y="0px" viewBox="0 0 512 512" style="enable-background:new 0 0 512 512;" xml:space="preserve" width="512" height="512">
<g>
	<g>
		<path style="fill:#AD4F3D;" d="M253.548,7.5h-22.707c-7.301,0-13.219,5.918-13.219,13.219v37.925h49.145V20.719    C266.767,13.418,260.848,7.5,253.548,7.5z"/>
		<path style="fill:#C86D5C;" d="M153.68,327.426c-11.483-4.837-24.715,0.55-29.554,12.034L59.489,492.887    c-2.323,5.514,1.726,11.613,7.709,11.613h30.813c3.365,0,6.403-2.016,7.709-5.118l59.993-142.402    C170.552,345.497,165.164,332.265,153.68,327.426z"/>
		<path style="fill:#C86D5C;" d="M424.899,492.887L360.263,339.46c-4.839-11.485-18.068-16.87-29.554-12.034    c-11.485,4.839-16.872,18.071-12.034,29.554l59.992,142.402c1.306,3.101,4.344,5.118,7.709,5.118h30.814    C423.174,504.5,427.222,498.401,424.899,492.887z"/>
		<rect x="33.103" y="57.296" style="fill:#D2D2D2;" width="418.183" height="290.924"/>
		<path style="fill:#EFEDEE;" d="M451.285,79.6L242.194,58.644L33.103,79.6c0,0-8.402,170.706,42.622,221.729h418.183    C442.884,250.306,451.285,79.6,451.285,79.6z"/>
		<path style="fill:#AD4F3D;" d="M153.68,327.426c-11.483-4.836-24.715,0.551-29.554,12.034l-25.726,61.064h48.968l18.345-43.544    C170.552,345.497,165.164,332.265,153.68,327.426z"/>
		<path style="fill:#AD4F3D;" d="M360.263,339.46c-4.839-11.484-18.068-16.87-29.554-12.034    c-11.485,4.839-16.872,18.071-12.034,29.554l18.344,43.544h48.969L360.263,339.46z"/>
		<path style="fill:#C86D5C;" d="M451.285,325.916H33.103c-8.29,0-15.011,6.721-15.011,15.011v14.587    c0,8.29,6.721,15.011,15.011,15.011h418.183c8.29,0,15.011-6.721,15.011-15.011v-14.587    C466.296,332.637,459.576,325.916,451.285,325.916z"/>
		<path style="fill:#D2D2D2;" d="M451.286,79.6L242.194,58.644L33.103,79.6c0,0-0.577,11.745-0.51,29.987    c0.17,0.002,0.339,0.013,0.509,0.013h417.673C450.708,91.35,451.286,79.6,451.286,79.6z"/>
		<path style="fill:#C86D5C;" d="M451.285,34.992H33.103c-8.29,0-15.011,6.721-15.011,15.011v14.587    c0,8.29,6.721,15.011,15.011,15.011h418.183c8.29,0,15.011-6.72,15.011-15.011V50.003    C466.296,41.712,459.576,34.992,451.285,34.992z"/>
	</g>
	<g>
		<path d="M141.86,171.08c-4.142,0-7.5,3.358-7.5,7.5v18.159c0,4.142,3.358,7.5,7.5,7.5s7.5-3.358,7.5-7.5V178.58    C149.36,174.438,146.002,171.08,141.86,171.08z"/>
		<path d="M342.529,171.08c-4.142,0-7.5,3.358-7.5,7.5v18.159c0,4.142,3.358,7.5,7.5,7.5s7.5-3.358,7.5-7.5V178.58    C350.029,174.438,346.671,171.08,342.529,171.08z"/>
		<path d="M271.894,189.829c-3.119-2.726-7.857-2.408-10.583,0.711c-4.662,5.333-11.63,8.392-19.117,8.392    c-7.487,0-14.455-3.059-19.117-8.392c-2.727-3.119-7.464-3.438-10.583-0.711s-3.437,7.464-0.711,10.583    c7.511,8.593,18.595,13.521,30.411,13.521c11.815,0,22.899-4.928,30.411-13.52C275.331,197.293,275.013,192.555,271.894,189.829z"/>
		<path d="M458.564,85.885c8.85-3.033,15.232-11.431,15.232-21.296V50.002c0-12.413-10.098-22.511-22.511-22.511H274.267v-6.773    C274.267,9.294,264.972,0,253.548,0h-22.707c-11.424,0-20.719,9.294-20.719,20.719v6.773H33.103    c-12.413,0-22.511,10.098-22.511,22.511v14.586c0,9.701,6.168,17.988,14.789,21.146c-0.263,9.2,0.222,233.971,0.222,233.971    c-8.735,3.097-15.011,11.438-15.011,21.221v14.587c0,12.412,10.098,22.511,22.511,22.511h66.638l-47.164,111.95    c-2.069,4.911-1.545,10.494,1.402,14.935c2.948,4.44,7.889,7.091,13.218,7.091h30.813c6.397,0,12.136-3.81,14.621-9.706    l52.354-124.27h154.416l52.353,124.27c2.484,5.896,8.223,9.706,14.621,9.706h30.814c5.33,0,10.271-2.651,13.218-7.091    c2.947-4.44,3.472-10.023,1.402-14.935l-47.164-111.95h66.638c12.413,0,22.511-10.099,22.511-22.511v-14.587    c0-9.783-6.275-18.125-15.011-21.221v-10.876h35.122c3.034,0,5.768-1.827,6.929-4.63c1.161-2.803,0.519-6.028-1.626-8.173    c-19.581-19.581-32.811-62.867-38.262-125.18C457.668,133.332,458.176,99.209,458.564,85.885z M98.809,496.47    c-0.136,0.322-0.449,0.53-0.797,0.53H67.198c-0.115,0-0.464,0-0.721-0.387c-0.257-0.387-0.121-0.709-0.077-0.814l49.617-117.774    h32.691L98.809,496.47z M417.911,496.613C417.655,497,417.305,497,417.191,497h-30.814c-0.349,0-0.662-0.208-0.797-0.529    l-49.9-118.446h32.692l49.617,117.774C418.032,495.904,418.168,496.227,417.911,496.613z M225.122,20.719    c0-3.153,2.565-5.719,5.719-5.719h22.707c3.153,0,5.719,2.565,5.719,5.719v6.773h-34.145V20.719z M458.797,355.514    c0,4.141-3.369,7.511-7.511,7.511H33.103c-4.142,0-7.511-3.37-7.511-7.511v-14.587c0-4.142,3.369-7.511,7.511-7.511h418.183    c4.142,0,7.511,3.369,7.511,7.511V355.514z M401.949,293.829c-4.142,0-7.5,3.358-7.5,7.5c0,4.261,3.687,7.762,7.942,7.512    c0.055-0.003,0.11-0.007,0.165-0.012h41.229v9.587H40.603v-70.123c5.89,20.986,13.41,37.632,22.524,49.837    c3.155,4.226,6.508,10.699,12.598,10.699h295.609c0.347,0.028,0.7,0.032,1.057,0.012c3.977-0.234,7.047-3.525,7.06-7.456    c0-0.01-0.001-0.021,0-0.056c0-4.038-3.464-7.5-7.5-7.5H78.949c-0.664-0.74-1.32-1.511-1.968-2.308    c-0.736-0.906-1.317-1.954-2.145-2.781c-12.996-17.727-22.689-47.481-28.497-86.95c-3.134-21.407-4.832-43.01-5.659-64.623    C39.83,115,40.089,96.654,40.347,87.1h43.604c4.142,0,7.5-3.358,7.5-7.5s-3.358-7.5-7.5-7.5H33.103    c-4.142,0-7.511-3.369-7.511-7.511V50.002c0-4.141,3.369-7.511,7.511-7.511h418.183c4.142,0,7.511,3.37,7.511,7.511v14.586    c0,4.142-3.369,7.511-7.511,7.511H113.951c-4.142,0-7.5,3.358-7.5,7.5s3.358,7.5,7.5,7.5h329.553    c-0.924,32.116-1.702,151.376,34.797,206.729H401.949z"/>
	</g>
</g>















</svg>
