<?xml version="1.0" encoding="iso-8859-1"?>
<!-- Generator: Adobe Illustrator 19.0.0, SVG Export Plug-In . SVG Version: 6.00 Build 0)  -->
<svg xmlns="http://www.w3.org/2000/svg" xmlns:xlink="http://www.w3.org/1999/xlink" version="1.1" id="Layer_1" x="0px" y="0px" viewBox="0 0 511.975 511.975" style="enable-background:new 0 0 511.975 511.975;" xml:space="preserve" width="512" height="512">
<g>
	<g>
		<path style="fill:#C86D5C;" d="M225.054,343.871L57.42,491.566c-11.899,10.485-29.909,9.925-41.13-1.296    s-11.781-29.231-1.296-41.13l147.923-167.892L225.054,343.871z"/>
		<path style="fill:#AD4F3D;" d="M18.055,491.797c3.358,2.901,7.34,5.083,11.675,6.246c-2.53-9.43-0.407-19.877,6.477-27.689    l147.846-167.804l-21.136-21.301L14.994,449.14c-6.225,7.065-8.557,16.284-7.076,24.958    C9.097,480.996,12.818,487.272,18.055,491.797z"/>
		<path style="fill:#D2D2D2;" d="M342.987,239.971l-117.934,103.9c-11.494-8.239-22.516-17.568-32.92-27.972    c-10.927-10.927-20.668-22.538-29.216-34.65l103.671-117.676L342.987,239.971z"/>
		<path style="fill:#B8B8B8;" d="M184.13,302.461l103.671-117.675l-21.213-21.213l-51.835,58.838l-51.836,58.838l0,0    c5.77,8.176,12.097,16.117,18.952,23.78L184.13,302.461z"/>
		<path style="fill:#FF98C9;" d="M455.811,184.83c7.459-14.292,14.638-32.147,19.711-53.831    c8.762-37.434,19.24-64.949,27.022-82.333c5.677-12.701-1.598-27.457-15.146-30.564c-34.79-7.989-99.614-12.878-167.987,33.156    v30.164l107.017,107.017L455.811,184.83z"/>
		<path style="fill:#EB6DA8;" d="M348.937,34.259c-10.236,4.944-20.109,10.657-29.526,16.998l0,30.164l3.845,3.845    c5.804-4.638,11.598-8.909,17.368-12.796c65.74-44.261,128.185-41.443,163.822-34.059c-0.13-2.357-0.637-4.661-1.486-6.842    c-1.608-4.529-5.267-8.52-9.412-10.968c-4.975-2.939-11.105-3.651-16.705-4.625C433.55,8.446,388.46,15.172,348.937,34.259z"/>
		<path style="fill:#506366;" d="M421.771,230.399c-40.07,40.07-105.166,39.856-144.963-0.648    c-39.643-40.349-38.074-105.475,2.194-145.199c13.474-13.298,27.008-24.269,40.408-33.296l5.949,1.517    c12.76,3.247,22.73,13.217,25.977,25.977c1.627,6.384,4.926,12.068,9.425,16.567c4.491,4.491,10.176,7.79,16.559,9.417    c6.384,1.627,12.068,4.926,16.559,9.417s7.79,10.176,9.417,16.559c1.627,6.384,4.926,12.068,9.417,16.559    c4.499,4.499,10.183,7.797,16.567,9.425s12.068,4.926,16.567,9.425c4.491,4.491,7.79,10.176,9.417,16.559l0.545,2.15    C439.48,216.167,421.771,230.399,421.771,230.399z"/>
		<path style="fill:#3A484A;" d="M288.911,75.198c-3.373,3.043-6.676,6.164-9.909,9.354    c-40.269,39.724-41.837,104.849-2.182,145.211c2.752,2.799,5.665,5.423,8.71,7.898c0.133,0.108,0.266,0.216,0.4,0.323    c0.977,0.782,1.962,1.547,2.96,2.287c-29.966-40.447-25.553-98.128,11.325-134.507c13.474-13.298,27.008-24.269,40.408-33.296    c2.083-1.403,4.163-2.756,6.239-4.065c-4.841-7.648-12.464-13.331-21.503-15.631l-5.949-1.517    c-3.085,2.078-6.178,4.272-9.275,6.561C302.781,63.254,295.704,69.07,288.911,75.198z"/>
	</g>
	<g>
		<path d="M300.567,110.487l-7.816,7.816c-2.929,2.929-2.929,7.678,0,10.606c1.464,1.465,3.384,2.197,5.303,2.197    s3.839-0.732,5.303-2.197l7.816-7.816c2.929-2.929,2.929-7.677,0-10.606C308.245,107.558,303.496,107.558,300.567,110.487z"/>
		<path d="M386.941,196.862l-7.816,7.816c-2.929,2.929-2.929,7.678,0,10.606c1.465,1.465,3.384,2.197,5.303,2.197    c1.919,0,3.839-0.732,5.303-2.197l7.816-7.816c2.929-2.929,2.929-7.678,0-10.606C394.619,193.933,389.87,193.933,386.941,196.862z    "/>
		<path d="M351.941,169.426c-3.457,0.234-6.945-1.139-9.569-3.763c-2.624-2.624-3.996-6.112-3.763-9.569    c0.278-4.133-2.847-7.708-6.98-7.986c-4.135-0.277-7.708,2.847-7.986,6.98c-0.522,7.776,2.438,15.497,8.123,21.182    c5.255,5.255,12.249,8.182,19.419,8.182c4.684,0,9.092-2.841,8.743-8.045C359.649,172.273,356.079,169.151,351.941,169.426z"/>
		<path d="M489.064,10.803c-18.424-4.231-37.494-5.983-56.682-5.21c-4.139,0.167-7.359,3.658-7.192,7.796    c0.167,4.139,3.664,7.359,7.796,7.192c17.857-0.721,35.594,0.908,52.722,4.842c4.232,0.971,7.773,3.762,9.716,7.658    c1.964,3.94,2.059,8.509,0.261,12.531c-7.544,16.85-18.435,45.047-27.48,83.689c-3.068,13.112-7.135,25.64-12.141,37.416    c-0.333-0.478-0.678-0.948-1.031-1.413c-1.192-1.575-2.499-3.079-3.896-4.476c-5.497-5.497-12.484-9.469-20.018-11.389    c-9.999-2.548-18.019-10.567-20.569-20.569c-3.896-15.281-16.113-27.497-31.392-31.392c-10.007-2.551-18.017-10.557-20.568-20.566    c-1.396-5.485-3.912-10.711-7.284-15.252c-3.831-5.161-8.835-9.443-14.516-12.45c21.447-12.476,44.014-20.984,67.275-25.35    c4.071-0.764,6.752-4.684,5.988-8.755s-4.684-6.752-8.755-5.988c-30.108,5.65-59.073,17.739-86.094,35.931    c-14.328,9.652-28.286,21.151-41.485,34.177c-27.581,27.208-38.077,65.262-31.301,100.431c0,0-85.143,96.644-85.145,96.646    L9.355,444.194c-13.073,14.836-12.362,37.411,1.62,51.392c7.292,7.292,16.92,10.975,26.57,10.974    c8.853,0,17.723-3.099,24.821-9.354l40.868-36.007c3.108-2.738,3.408-7.478,0.669-10.585s-7.478-3.408-10.585-0.669    l-40.868,36.007c-8.912,7.853-22.47,7.425-30.868-0.972c-8.398-8.398-8.825-21.957-0.972-30.869l141.759-160.894    c0.26,0.342,0.528,0.68,0.79,1.021c7.29,9.489,15.199,18.516,23.66,26.977c8.244,8.244,17.087,16.038,26.321,23.16l-97.268,85.698    c-3.108,2.738-3.408,7.478-0.669,10.585s7.478,3.408,10.585,0.669l104.212-91.816l95.696-84.308    c7.755,1.715,15.757,2.601,23.902,2.601c29.142,0,56.547-11.302,77.211-31.834c2.725-2.284,19.836-17.335,35.64-47.658    c8.85-16.956,15.701-35.66,20.365-55.592c8.774-37.484,19.289-64.726,26.567-80.981c3.638-8.139,3.444-17.378-0.53-25.35    C504.897,18.461,497.685,12.78,489.064,10.803z M224.62,334.258c-0.481,0.424-10.911-8.685-11.858-9.491    c-5.298-4.512-10.417-9.238-15.338-14.159c-9.003-9.003-17.343-18.663-24.927-28.89l74.723-84.817    c2.624,7.076,5.996,13.873,10.039,20.244c0.016,0.025,0.031,0.051,0.048,0.077c4.59,7.221,10.035,13.841,16.165,19.807    c0.009,0.009,0.019,0.018,0.028,0.026c10.367,10.024,22.362,17.759,35.386,22.966C308.885,260.021,224.622,334.257,224.62,334.258    z M417.061,224.565c-0.211,0.17-0.413,0.352-0.605,0.543c-17.666,17.666-41.876,27.695-66.86,27.695    c-23.012,0-45.535-8.48-62.76-23.838c-0.059-0.052-0.117-0.105-0.176-0.158c-13.196-11.766-22.94-27.328-27.717-44.353    c-0.021-0.074-0.043-0.147-0.063-0.222c-9.002-32.366-0.465-68.837,25.377-94.33c11.687-11.534,23.978-21.792,36.573-30.529    c11.137,2.84,20.271,9.628,23.226,21.241c1.607,6.303,4.676,12.246,8.858,17.227c5.461,6.504,12.763,11.278,20.906,13.697    c10.66,3.167,19.348,9.861,22.197,21.037c3.896,15.283,16.118,27.504,31.399,31.399c4.915,1.253,9.537,3.864,13.116,7.46    c0.051,0.051,0.097,0.107,0.148,0.158c3.363,3.414,5.829,7.692,7.121,12.318C432.895,211.51,417.207,224.447,417.061,224.565z"/>
	</g>
</g>















</svg>
