<?xml version="1.0" encoding="iso-8859-1"?>
<!-- Generator: Adobe Illustrator 19.0.0, SVG Export Plug-In . SVG Version: 6.00 Build 0)  -->
<svg xmlns="http://www.w3.org/2000/svg" xmlns:xlink="http://www.w3.org/1999/xlink" version="1.1" id="Layer_1" x="0px" y="0px" viewBox="0 0 512 512" style="enable-background:new 0 0 512 512;" xml:space="preserve" width="512" height="512">
<g>
	<g>
		<path style="fill:#D2D2D2;" d="M435.195,75.684H76.804c-20.585,0-37.272,16.687-37.272,37.272v294.242h432.934V112.956    C472.466,92.371,455.779,75.684,435.195,75.684z"/>
		<rect x="83.214" y="119.366" style="fill:#506366;" width="345.57" height="215.03"/>
		<path style="fill:#B8B8B8;" d="M341.538,378.074h147.091c4.378,0,8.348,1.776,11.221,4.65c2.873,2.873,4.65,6.843,4.65,11.231    c0,23.394-18.968,42.362-42.362,42.362H49.861c-11.697,0-22.287-4.737-29.956-12.406C12.237,416.242,7.5,405.651,7.5,393.954    c0-8.775,7.106-15.881,15.871-15.881h147.091L256,392.634L341.538,378.074z"/>
		<path style="fill:#EFEDEE;" d="M341.538,378.074c-1.854,16.395-15.754,29.121-32.635,29.121H203.096    c-16.881,0-30.781-12.726-32.635-29.121H341.538z"/>
	</g>
	<g>
		<path d="M152.627,334.396c0,4.142,3.358,7.5,7.5,7.5h268.658c4.142,0,7.5-3.358,7.5-7.5v-215.03c0-4.142-3.358-7.5-7.5-7.5H83.215    c-4.142,0-7.5,3.358-7.5,7.5v215.03c0,4.142,3.358,7.5,7.5,7.5h46.912c4.142,0,7.5-3.358,7.5-7.5s-3.358-7.5-7.5-7.5H90.715    v-200.03h330.57v200.03H160.127C155.985,326.896,152.627,330.254,152.627,334.396z"/>
		<path d="M172.254,233.406v-16.514c0-4.143-3.358-7.5-7.5-7.5s-7.5,3.357-7.5,7.5v16.514c0,4.142,3.358,7.5,7.5,7.5    S172.254,237.548,172.254,233.406z"/>
		<path d="M354.746,233.406v-16.514c0-4.143-3.358-7.5-7.5-7.5s-7.5,3.357-7.5,7.5v16.514c0,4.142,3.358,7.5,7.5,7.5    S354.746,237.548,354.746,233.406z"/>
		<path d="M256,249.72c10.941,0,21.208-4.566,28.167-12.528c2.726-3.118,2.408-7.856-0.71-10.583    c-3.119-2.726-7.857-2.408-10.583,0.711c-4.111,4.703-10.262,7.4-16.875,7.4c-6.613,0-12.764-2.697-16.874-7.4    c-2.727-3.119-7.464-3.437-10.583-0.711c-3.119,2.726-3.437,7.464-0.711,10.583C234.792,245.154,245.058,249.72,256,249.72z"/>
		<circle cx="256" cy="98.511" r="7.119"/>
		<path d="M505.154,377.42c-4.415-4.415-10.284-6.847-16.525-6.847h-8.662V112.956c0-24.687-20.084-44.771-44.771-44.771h-42.402    c-4.142,0-7.5,3.358-7.5,7.5s3.358,7.5,7.5,7.5h42.402c16.416,0,29.771,13.355,29.771,29.771v257.618H47.033V112.956    c0-16.416,13.355-29.771,29.771-29.771h285.989c4.142,0,7.5-3.358,7.5-7.5s-3.358-7.5-7.5-7.5H76.805    c-24.687,0-44.771,20.084-44.771,44.771v257.618h-8.662C10.484,370.573,0,381.062,0,393.954c0,13.32,5.186,25.842,14.603,35.26    c9.416,9.416,21.938,14.602,35.259,14.602h412.277c27.494,0,49.861-22.368,49.861-49.861    C512,387.707,509.569,381.835,505.154,377.42z M331.163,386.483c-2.591,4.759-6.783,8.66-11.732,10.917    c-3.291,1.5-6.91,2.295-10.527,2.295H203.097c-3.83,0-7.696-0.902-11.137-2.58c-5.008-2.442-9.126-6.542-11.581-11.541h151.244    C331.567,385.686,331.265,386.295,331.163,386.483z M462.139,428.816H49.862c-9.314,0-18.07-3.625-24.652-10.208    C18.625,412.024,15,403.268,15,393.954c0-4.621,3.755-8.381,8.371-8.381h140.961c0.038,0.133,0.083,0.262,0.122,0.395    c1.894,6.332,5.393,12.179,10.053,16.862c4.587,4.61,10.26,8.025,16.45,10c3.879,1.238,7.975,1.862,12.046,1.862    c0.031,0,0.062,0.002,0.093,0.002h105.807c0.031,0,0.062-0.002,0.093-0.002c6.854-0.017,14.209-1.724,20.073-5.389    c5.534-3.186,10.159-7.66,13.683-12.97c2.187-3.295,3.827-6.961,4.917-10.76c0,0,140.934,0,140.96,0    c4.571,0,8.371,3.819,8.371,8.381C497,413.177,481.361,428.816,462.139,428.816z"/>
	</g>
</g>















</svg>
