<?xml version="1.0" encoding="iso-8859-1"?>
<!-- Generator: Adobe Illustrator 19.0.0, SVG Export Plug-In . SVG Version: 6.00 Build 0)  -->
<svg xmlns="http://www.w3.org/2000/svg" xmlns:xlink="http://www.w3.org/1999/xlink" version="1.1" id="Layer_1" x="0px" y="0px" viewBox="0 0 512 512" style="enable-background:new 0 0 512 512;" xml:space="preserve" width="512" height="512">
<g>
	<g>
		<path style="fill:#EFEDEE;" d="M411.032,7.5H75.719c-14.13,0-25.585,11.455-25.585,25.585V52.68h13.893    c12.476,0,22.59,10.114,22.59,22.59v0.01c0,12.476-10.114,22.59-22.59,22.59H50.134v45.18h13.894    c12.476,0,22.59,10.114,22.59,22.59v0c0,12.476-10.114,22.59-22.59,22.59H50.134v45.18h13.894c12.476,0,22.59,10.114,22.59,22.59    v0c0,12.476-10.114,22.59-22.59,22.59H50.134v45.18h13.894c12.476,0,22.59,10.114,22.59,22.59v0    c0,12.476-10.114,22.59-22.59,22.59H50.134v45.19h13.894c12.476,0,22.59,10.114,22.59,22.59v0c0,12.476-10.114,22.59-22.59,22.59    H50.134v19.595c0,14.13,11.455,25.585,25.585,25.585h335.312c28.075,0,50.834-22.759,50.834-50.834V58.334    C461.865,30.259,439.106,7.5,411.032,7.5z"/>
		<path style="fill:#D2D2D2;" d="M411.032,7.5h-50c28.075,0,50.834,22.759,50.834,50.833v395.333    c0,28.075-22.759,50.834-50.834,50.834h50c28.075,0,50.834-22.759,50.834-50.834V58.334C461.865,30.259,439.106,7.5,411.032,7.5z"/>
	</g>
	<g>
		<path d="M411.032,497h-55.225c-4.142,0-7.5,3.358-7.5,7.5s3.358,7.5,7.5,7.5h55.225c32.165,0,58.333-26.168,58.333-58.334V58.333    C469.366,26.168,443.197,0,411.032,0H181.807c-4.142,0-7.5,3.358-7.5,7.5s3.358,7.5,7.5,7.5h229.225    c23.894,0,43.333,19.439,43.333,43.333v9.436H93.171c-3.341-12.975-15.14-22.59-29.144-22.59h-6.394V33.085    C57.634,23.113,65.748,15,75.72,15h76.087c4.142,0,7.5-3.358,7.5-7.5s-3.358-7.5-7.5-7.5H75.72    C57.477,0,42.634,14.842,42.634,33.085V52.68c0,4.142,3.358,7.5,7.5,7.5h13.894c8.32,0,15.09,6.77,15.09,15.1    c0,8.321-6.77,15.09-15.09,15.09H50.134c-4.142,0-7.5,3.358-7.5,7.5v45.18c0,4.142,3.358,7.5,7.5,7.5h13.894    c8.32,0,15.09,6.77,15.09,15.09c0,8.321-6.77,15.09-15.09,15.09H50.134c-4.142,0-7.5,3.358-7.5,7.5v45.18    c0,4.142,3.358,7.5,7.5,7.5h13.894c8.32,0,15.09,6.77,15.09,15.09c0,8.32-6.77,15.09-15.09,15.09H50.134    c-4.142,0-7.5,3.358-7.5,7.5v45.18c0,4.142,3.358,7.5,7.5,7.5h13.894c8.32,0,15.09,6.769,15.09,15.09s-6.77,15.09-15.09,15.09    H50.134c-4.142,0-7.5,3.358-7.5,7.5v45.19c0,4.142,3.358,7.5,7.5,7.5h13.894c8.32,0,15.09,6.77,15.09,15.09    s-6.77,15.09-15.09,15.09H50.134c-4.142,0-7.5,3.358-7.5,7.5v19.595C42.634,497.158,57.477,512,75.72,512h250.087    c4.142,0,7.5-3.358,7.5-7.5s-3.358-7.5-7.5-7.5H75.72c-9.972,0-18.085-8.113-18.085-18.085V466.82h6.394    c14.003,0,25.803-9.615,29.144-22.59h361.194v9.437C454.366,477.561,434.926,497,411.032,497z M64.028,135.55h-6.394v-30.18h6.394    c14.005,0,25.805-9.617,29.144-22.6h361.194v75.37H93.171C89.83,145.165,78.031,135.55,64.028,135.55z M64.028,225.91h-6.394    v-30.18h6.394c14.003,0,25.803-9.615,29.144-22.59h361.194v75.36H93.171C89.83,235.525,78.031,225.91,64.028,225.91z     M64.028,316.27h-6.394v-30.18h6.394c14.003,0,25.803-9.615,29.144-22.59h361.194v75.36H93.171    C89.83,325.885,78.031,316.27,64.028,316.27z M93.171,429.229c-3.341-12.975-15.14-22.59-29.144-22.59h-6.394v-30.19h6.394    c14.003,0,25.802-9.615,29.144-22.59h361.194v75.37H93.171z"/>
	</g>
</g>















</svg>
