<?xml version="1.0" encoding="iso-8859-1"?>
<!-- Generator: Adobe Illustrator 19.0.0, SVG Export Plug-In . SVG Version: 6.00 Build 0)  -->
<svg xmlns="http://www.w3.org/2000/svg" xmlns:xlink="http://www.w3.org/1999/xlink" version="1.1" id="Layer_1" x="0px" y="0px" viewBox="0 0 512 512" style="enable-background:new 0 0 512 512;" xml:space="preserve" width="512" height="512">
<g>
	<g>
		<g>
			<path style="fill:#AD4F3D;" d="M324.93,124.382c-9.655,0-17.482-7.827-17.482-17.482V59.569c0-9.431-7.673-17.104-17.104-17.104     h-68.689c-9.431,0-17.104,7.673-17.104,17.104V106.9c0,9.655-7.827,17.482-17.482,17.482c-9.655,0-17.482-7.827-17.482-17.482     V59.569c0-28.711,23.358-52.069,52.069-52.069h68.689c28.71,0,52.069,23.358,52.069,52.069V106.9     C342.413,116.555,334.586,124.382,324.93,124.382z"/>
		</g>
		<path style="fill:#C86D5C;" d="M485.768,267.738v197.591c0,21.638-17.532,39.171-39.171,39.171H65.401    c-21.638,0-39.171-17.532-39.171-39.171V267.738H485.768z"/>
		<path style="fill:#AD4F3D;" d="M485.768,267.738H26.231v31.849l189.665,67.617c12.907,4.602,26.4,6.934,40.104,6.934    s27.196-2.333,40.104-6.934l189.665-67.617V267.738z"/>
		<path style="fill:#FA9F6A;" d="M65.401,469.535c-2.319,0-4.206-2.602-4.206-5.801V239.422h389.608v224.313    c0,3.199-1.887,5.801-4.206,5.801H65.401z"/>
		<path style="fill:#E0824A;" d="M450.804,239.421H61.196v72.631l154.701,55.152c12.907,4.602,26.4,6.934,40.104,6.934    s27.196-2.333,40.104-6.934l154.7-55.152V239.421z"/>
		<path style="fill:#C86D5C;" d="M485.768,125.092v142.647l-199.739,71.208c-19.42,6.923-40.639,6.923-60.06,0L26.231,267.738    V125.092c0-21.638,17.532-39.171,39.171-39.171h381.196C468.236,85.921,485.768,103.453,485.768,125.092z"/>
		<path style="fill:#AD4F3D;" d="M115.438,69.581H99.607c-6.201,0-11.229,5.027-11.229,11.229v277.264    c0,6.201,5.027,11.229,11.229,11.229h15.831c6.201,0,11.229-5.027,11.229-11.229V80.809    C126.667,74.608,121.64,69.581,115.438,69.581z"/>
		<path style="fill:#FADC60;" d="M129.851,226.756H85.194c-4.565,0-8.266,3.701-8.266,8.266v8.8c0,4.565,3.701,8.266,8.266,8.266    h44.657c4.565,0,8.266-3.701,8.266-8.266v-8.8C138.117,230.457,134.416,226.756,129.851,226.756z"/>
		<path style="fill:#AD4F3D;" d="M396.561,69.581h15.831c6.201,0,11.229,5.027,11.229,11.229v277.264    c0,6.201-5.027,11.229-11.229,11.229h-15.831c-6.201,0-11.229-5.027-11.229-11.229V80.809    C385.332,74.608,390.36,69.581,396.561,69.581z"/>
		<path style="fill:#FADC60;" d="M382.148,226.756h44.657c4.565,0,8.266,3.701,8.266,8.266v8.8c0,4.565-3.701,8.266-8.266,8.266    h-44.657c-4.565,0-8.266-3.701-8.266-8.266v-8.8C373.883,230.457,377.583,226.756,382.148,226.756z"/>
		<ellipse style="fill:#E6CB59;" cx="256" cy="293.213" rx="39.46" ry="21.464"/>
		<path style="fill:#FADC60;" d="M256,260.246c-6.621,0-11.988,5.367-11.988,11.988v41.958c0,6.621,5.367,11.988,11.988,11.988    s11.988-5.367,11.988-11.988v-41.958C267.988,265.613,262.62,260.246,256,260.246z"/>
	</g>
	<g>
		<path d="M176.426,171.953c-4.142,0-7.5,3.357-7.5,7.5v14.401c0,4.142,3.358,7.5,7.5,7.5s7.5-3.358,7.5-7.5v-14.401    C183.926,175.311,180.568,171.953,176.426,171.953z"/>
		<path d="M335.574,171.953c-4.142,0-7.5,3.357-7.5,7.5v14.401c0,4.142,3.358,7.5,7.5,7.5s7.5-3.358,7.5-7.5v-14.401    C343.074,175.311,339.716,171.953,335.574,171.953z"/>
		<path d="M256,209.042c9.819,0,19.035-4.102,25.287-11.254c2.726-3.119,2.408-7.856-0.711-10.583    c-3.119-2.726-7.857-2.408-10.583,0.711c-3.402,3.893-8.502,6.125-13.993,6.125s-10.59-2.233-13.993-6.126    c-2.726-3.118-7.464-3.436-10.583-0.71c-3.119,2.726-3.437,7.464-0.711,10.583C236.965,204.94,246.181,209.042,256,209.042z"/>
		<path d="M274.627,266.51c-2.451-7.961-9.873-13.764-18.627-13.764c-8.754,0-16.176,5.803-18.627,13.764    c-17.386,4.402-28.333,14.542-28.333,26.703c0,12.16,10.948,22.301,28.333,26.703c2.451,7.96,9.873,13.764,18.627,13.764    c8.754,0,16.175-5.803,18.627-13.763c17.386-4.403,28.334-14.543,28.334-26.704C302.961,281.052,292.013,270.912,274.627,266.51z     M224.04,293.212c0-3.48,4.529-7.835,12.472-10.753v21.507C228.57,301.048,224.04,296.692,224.04,293.212z M260.488,314.191    c0,2.475-2.013,4.488-4.488,4.488s-4.488-2.013-4.488-4.488v-0.518c0-0.003,0-0.006,0-0.009V272.76c0-0.003,0-0.006,0-0.009    v-0.518c0-2.475,2.014-4.488,4.488-4.488s4.488,2.013,4.488,4.488v0.527v40.905V314.191z M275.488,303.966v-21.507    c7.943,2.917,12.473,7.273,12.473,10.753C287.961,296.692,283.43,301.048,275.488,303.966z"/>
		<path d="M493.269,465.329V125.092c0-25.734-20.936-46.671-46.67-46.671h-15.647c-1.179-9.201-9.042-16.34-18.559-16.34h-15.831    c-9.516,0-17.38,7.14-18.559,16.34h-28.089V59.568C349.913,26.722,323.191,0,290.344,0h-68.688    c-32.846,0-59.569,26.722-59.569,59.568v18.853h-28.09c-1.179-9.201-9.042-16.34-18.559-16.34H99.608    c-9.516,0-17.38,7.14-18.559,16.34H65.402c-25.734,0-46.671,20.937-46.671,46.671v340.237c0,25.734,20.937,46.671,46.671,46.671    H367.92c4.142,0,7.5-3.358,7.5-7.5s-3.358-7.5-7.5-7.5H65.402c-17.463,0-31.671-14.208-31.671-31.671V278.375l19.965,7.117    v178.242c0,7.458,5.142,13.301,11.706,13.301h53.518c4.142,0,7.5-3.358,7.5-7.5s-3.358-7.5-7.5-7.5H68.696V290.839l12.183,4.343    v62.891c0,10.327,8.402,18.729,18.729,18.729h15.831c10.327,0,18.729-8.402,18.729-18.729v-43.893l89.285,31.83    c10.476,3.734,21.426,5.628,32.548,5.628s22.073-1.894,32.548-5.628l89.284-31.83v43.893c0,10.327,8.402,18.729,18.729,18.729    h15.831c10.327,0,18.729-8.402,18.729-18.729v-62.891l12.183-4.343L443.3,462.035H148.92c-4.142,0-7.5,3.358-7.5,7.5    s3.358,7.5,7.5,7.5h297.679c6.564,0,11.706-5.843,11.706-13.301V285.492l19.964-7.117v186.955    c0,17.463-14.208,31.671-31.67,31.671H397.92c-4.142,0-7.5,3.358-7.5,7.5s3.358,7.5,7.5,7.5h48.679    C472.333,512,493.269,491.063,493.269,465.329z M426.805,234.256c0.417,0,0.766,0.348,0.766,0.766v8.8    c0,0.422-0.343,0.766-0.766,0.766h-44.656c-0.422,0-0.766-0.344-0.766-0.766v-8.8c0-0.413,0.357-0.765,0.766-0.765    C382.151,234.256,426.805,234.256,426.805,234.256z M478.269,125.092V262.45l-47.147,16.808v-20.271    c6.662-1.87,11.45-8.253,11.45-15.165c0,0,0-8.798,0-8.8c0-6.851-4.872-13.272-11.45-15.165V93.421h15.477    C464.061,93.421,478.269,107.628,478.269,125.092z M392.833,80.81c0-2.056,1.673-3.729,3.729-3.729h15.831    c2.056,0,3.729,1.673,3.729,3.729v5.111v133.335h-23.289V85.921V80.81z M377.833,219.856c-4.129,1.188-7.634,4.09-9.632,7.886    c-1.177,2.236-1.817,4.751-1.817,7.279v8.8c0,2.858,0.824,5.746,2.305,8.187c2.042,3.364,5.363,5.897,9.144,6.978v39.269    l-94.321,33.626c-17.741,6.324-37.281,6.324-55.022,0l-94.322-33.626v-39.269c0.068-0.02,0.134-0.046,0.202-0.066    c6.553-1.926,11.248-8.29,11.248-15.099v-8.8c0-2.68-0.709-5.393-2.033-7.723c-2.029-3.573-5.443-6.298-9.417-7.442V93.421    h243.666V219.856z M129.851,234.256c0.417,0,0.766,0.348,0.766,0.766v8.8c0,0.422-0.343,0.766-0.766,0.766H85.195    c-0.422,0-0.766-0.344-0.766-0.766v-8.8c0-0.413,0.356-0.765,0.766-0.765C85.198,234.256,129.851,234.256,129.851,234.256z     M299.948,78.421h-87.896V59.568c0-5.295,4.308-9.604,9.604-9.604h68.688c5.296,0,9.604,4.308,9.604,9.604V78.421z     M177.087,59.568c0-24.575,19.994-44.568,44.569-44.568h68.688c24.575,0,44.569,19.993,44.569,44.568v18.853h-19.965V59.568    c0-13.566-11.037-24.604-24.604-24.604h-68.688c-13.567,0-24.604,11.037-24.604,24.604v18.853h-19.965V59.568z M95.879,80.81    c0-2.056,1.673-3.729,3.729-3.729h15.831c2.056,0,3.729,1.673,3.729,3.729v5.111v133.335H95.879V85.921V80.81z M33.731,125.092    c0-17.463,14.208-31.671,31.671-31.671h15.477v126.436c-0.07,0.02-0.136,0.047-0.205,0.067c-5.169,1.555-9.26,5.81-10.69,11.007    c-0.366,1.331-0.555,2.71-0.555,4.091v8.8c0,5.257,2.757,10.387,7.201,13.218c1.312,0.836,2.75,1.519,4.249,1.947v20.271    L33.731,262.45V125.092z M119.167,358.074c0,0.257-0.026,0.508-0.076,0.75c-0.348,1.698-1.854,2.979-3.653,2.979H99.608    c-2.056,0-3.729-1.673-3.729-3.729v-98.487h23.289V358.074z M416.121,358.074c0,0.257-0.026,0.508-0.076,0.75    c-0.348,1.698-1.854,2.979-3.653,2.979h-15.831c-2.056,0-3.729-1.673-3.729-3.729v-98.487h23.289V358.074z"/>
	</g>
</g>















</svg>
