<?xml version="1.0" encoding="iso-8859-1"?>
<!-- Generator: Adobe Illustrator 19.0.0, SVG Export Plug-In . SVG Version: 6.00 Build 0)  -->
<svg xmlns="http://www.w3.org/2000/svg" xmlns:xlink="http://www.w3.org/1999/xlink" version="1.1" id="Layer_1" x="0px" y="0px" viewBox="0 0 512 512" style="enable-background:new 0 0 512 512;" xml:space="preserve" width="512" height="512">
<g>
	<g>
		<path style="fill:#58B78C;" d="M200.775,114.922h-10.463l-61.755-25.46l-61.755,25.46l3.702,1.305    c-6.762,2.692-11.548,9.283-11.548,17.004v14.303c0,10.112,8.197,18.309,18.309,18.309l61.755,25.809l51.291-25.809h10.463    c10.112,0,18.309-8.197,18.309-18.309v-14.303C219.084,123.119,210.887,114.922,200.775,114.922z"/>
		<path style="fill:#46926F;" d="M107.266,165.842c-10.112,0-18.309-8.197-18.309-18.309v-14.303    c0-7.721,4.786-14.312,11.548-17.004l-3.702-1.305l46.755-19.276l-15-6.184l-61.755,25.46l3.702,1.305    c-6.762,2.692-11.548,9.283-11.548,17.004v14.303c0,10.112,8.197,18.309,18.309,18.309l61.755,25.809l13.612-6.849    L107.266,165.842z"/>
		<path style="fill:#E6CB59;" d="M60.302,428.781v55.782c0,8.7,7.052,15.752,15.752,15.752h22.418c8.7,0,15.752-7.052,15.752-15.752    v-55.782H60.302z"/>
		<path style="fill:#E6CB59;" d="M452.744,428.781v55.782c0,8.7-7.052,15.752-15.752,15.752h-22.418    c-8.7,0-15.752-7.052-15.752-15.752v-55.782H452.744z"/>
		<path style="fill:#6EE3FF;" d="M190.312,64.001H66.803c-10.112,0-18.309,8.197-18.309,18.309v14.303    c0,10.112,8.197,18.309,18.309,18.309h123.509c10.112,0,18.309-8.197,18.309-18.309V82.31    C208.621,72.198,200.424,64.001,190.312,64.001z"/>
		<path style="fill:#42C3E2;" d="M78.494,96.613V82.31c0-10.112,8.197-18.309,18.309-18.309h-30    c-10.112,0-18.309,8.197-18.309,18.309v14.303c0,10.112,8.197,18.309,18.309,18.309h30    C86.691,114.922,78.494,106.725,78.494,96.613z"/>
		<path style="fill:#FF98C9;" d="M190.312,165.842H66.803c-10.112,0-18.309,8.197-18.309,18.309v14.303    c0,10.112,8.197,18.309,18.309,18.309l61.755,21.624l61.755-21.624c10.112,0,18.309-8.197,18.309-18.309v-14.303    C208.621,174.04,200.424,165.842,190.312,165.842z"/>
		<path style="fill:#EB6DA8;" d="M96.803,216.763c-10.112,0-18.309-8.197-18.309-18.309v-14.303    c0-10.112,8.197-18.309,18.309-18.309h-30c-10.112,0-18.309,8.197-18.309,18.309v14.303c0,10.112,8.197,18.309,18.309,18.309    l61.755,21.624l15-5.252L96.803,216.763z"/>
		<path style="fill:#506366;" d="M452.184,216.763L434.366,42.145c-1.765-17.301-16.336-30.46-33.726-30.46h-81.063    c-17.391,0-31.961,13.159-33.726,30.46l-17.818,174.618l92.076,39.062L452.184,216.763z"/>
		<polygon style="fill:#D2D2D2;" points="415.752,220.48 398.183,48.306 322.033,48.306 304.464,220.48   "/>
		<path style="fill:#FADC60;" d="M256.523,251.989l-230.23,29.646v135.494c0,18.783,15.227,34.009,34.009,34.009h391.396    c18.783,0,34.009-15.227,34.009-34.009V281.635L256.523,251.989z"/>
		<polygon style="fill:#E6CB59;" points="26.292,281.635 26.292,311.635 26.293,311.635 485.707,311.635 485.707,311.635     485.707,281.635 256.523,251.989   "/>
		<path style="fill:#FD6F71;" d="M485.707,216.763H26.292c-10.379,0-18.793,8.414-18.793,18.793v27.286    c0,10.379,8.414,18.793,18.793,18.793h459.414c10.379,0,18.793-8.414,18.793-18.793v-27.286    C504.5,225.177,496.086,216.763,485.707,216.763z"/>
		<path style="fill:#E36465;" d="M37.5,262.842v-27.286c0-10.379,8.414-18.792,18.793-18.792h-30    c-10.379,0-18.793,8.414-18.793,18.792v27.286c0,10.379,8.414,18.793,18.793,18.793h30C45.913,281.635,37.5,273.221,37.5,262.842z    "/>
	</g>
	<g>
		<path d="M168.995,369.921c4.142,0,7.5-3.358,7.5-7.5v-15.841c0-4.143-3.358-7.5-7.5-7.5s-7.5,3.357-7.5,7.5v15.841    C161.495,366.563,164.853,369.921,168.995,369.921z"/>
		<path d="M344.052,369.921c4.142,0,7.5-3.358,7.5-7.5v-15.841c0-4.143-3.358-7.5-7.5-7.5s-7.5,3.357-7.5,7.5v15.841    C336.552,366.563,339.91,369.921,344.052,369.921z"/>
		<path d="M256.523,378.377c10.584,0,20.516-4.418,27.25-12.122c2.726-3.119,2.408-7.856-0.711-10.583    c-3.119-2.726-7.857-2.408-10.583,0.711c-3.886,4.445-9.702,6.994-15.957,6.994s-12.071-2.549-15.956-6.994    c-2.726-3.119-7.465-3.437-10.583-0.711c-3.119,2.726-3.438,7.464-0.711,10.583C236.007,373.958,245.939,378.377,256.523,378.377z    "/>
		<path d="M18.793,288.039v129.089c0,20.327,14.69,37.276,34.009,40.817v26.617c0,12.821,10.431,23.252,23.252,23.252h22.418    c12.821,0,23.252-10.431,23.252-23.252v-25.925h269.598v25.925c0,12.821,10.431,23.252,23.252,23.252h22.418    c12.821,0,23.252-10.431,23.252-23.252v-26.814c18.802-3.951,32.963-20.661,32.963-40.62V288.039    C504.062,284.802,512,274.734,512,262.842v-27.286c0-14.498-11.795-26.293-26.293-26.293h-26.749L447.67,98.641    c-0.42-4.121-4.107-7.12-8.223-6.7c-4.121,0.421-7.121,4.102-6.7,8.223l11.133,109.1h-21.733L405.645,47.545    c-0.391-3.828-3.614-6.739-7.461-6.739h-76.15c-3.847,0-7.071,2.911-7.461,6.739L298.07,209.263h-21.733l16.975-166.356    c1.38-13.523,12.671-23.722,26.265-23.722h81.063c13.594,0,24.885,10.198,26.265,23.721l2.83,27.736    c0.42,4.121,4.111,7.121,8.223,6.7c4.121-0.42,7.121-4.102,6.7-8.222l-2.83-27.737c-2.165-21.206-19.871-37.198-41.188-37.198    h-81.063c-21.317,0-39.023,15.992-41.188,37.198l-17.13,167.88H213.74c1.524-3.291,2.381-6.951,2.381-10.809v-14.303    c0-4.957-1.408-9.59-3.84-13.525c8.47-4.238,14.303-12.995,14.303-23.093V133.23c0-10.098-5.833-18.855-14.303-23.092    c2.432-3.936,3.84-8.569,3.84-13.525V82.31c0-14.231-11.578-25.809-25.809-25.809H66.803c-14.231,0-25.809,11.578-25.809,25.809    v14.303c0,10.087,5.82,18.836,14.276,23.079c-2.446,3.973-3.813,8.625-3.813,13.539v14.303c0,4.957,1.408,9.59,3.84,13.526    c-8.47,4.238-14.303,12.994-14.303,23.092v14.303c0,3.858,0.857,7.519,2.381,10.809H26.293C11.795,209.263,0,221.058,0,235.556    v27.286C0,274.734,7.938,284.802,18.793,288.039z M106.724,484.563c0,4.55-3.702,8.252-8.252,8.252H76.054    c-4.55,0-8.252-3.702-8.252-8.252v-25.925h38.922V484.563z M445.244,484.563c0,4.55-3.702,8.252-8.252,8.252h-22.418    c-4.55,0-8.252-3.702-8.252-8.252v-25.925h38.922V484.563z M328.807,55.806h62.604l15.658,153.457h-93.92L328.807,55.806z     M66.457,147.533V133.23c0-4.447,2.678-8.386,6.822-10.036c0.52-0.207,1.006-0.467,1.454-0.773h115.579c0.003,0,0.006,0,0.01,0    h10.454c5.96,0,10.809,4.849,10.809,10.809v14.303c0,5.96-4.849,10.809-10.809,10.809h-10.463H77.266    C71.306,158.342,66.457,153.494,66.457,147.533z M55.994,82.31c0-5.96,4.849-10.809,10.809-10.809h123.509    c5.96,0,10.809,4.849,10.809,10.809v14.303c0,5.958-4.847,10.806-10.804,10.809H66.803c-0.001,0-0.002,0-0.003,0    c-5.959-0.001-10.806-4.85-10.806-10.809V82.31z M55.994,198.454v-14.303c0-5.96,4.849-10.809,10.809-10.809h10.463h113.046    c5.96,0,10.809,4.849,10.809,10.809v14.303c0,5.96-4.849,10.809-10.809,10.809H66.803    C60.843,209.263,55.994,204.415,55.994,198.454z M15,235.556c0-6.227,5.066-11.293,11.293-11.293h459.414    c6.227,0,11.293,5.066,11.293,11.293v27.286c0,6.227-5.066,11.293-11.293,11.293H124.756c-4.142,0-7.5,3.358-7.5,7.5    s3.358,7.5,7.5,7.5h353.451v127.994c0,14.328-11.429,26.03-25.648,26.487c-0.015,0-392.257,0.022-392.257,0.022    c-14.617,0-26.509-11.892-26.509-26.509V289.135h60.963c4.142,0,7.5-3.358,7.5-7.5s-3.358-7.5-7.5-7.5H26.293    c-6.227,0-11.293-5.066-11.293-11.293V235.556z"/>
	</g>
</g>















</svg>
