<?xml version="1.0" encoding="iso-8859-1"?>
<!-- Generator: Adobe Illustrator 19.0.0, SVG Export Plug-In . SVG Version: 6.00 Build 0)  -->
<svg xmlns="http://www.w3.org/2000/svg" xmlns:xlink="http://www.w3.org/1999/xlink" version="1.1" id="Layer_1" x="0px" y="0px" viewBox="0 0 512 512" style="enable-background:new 0 0 512 512;" xml:space="preserve" width="512" height="512">
<g>
	<g>
		<g>
			<path style="fill:#FADC60;" d="M365.815,161.799c-11.346,0-20.543-9.197-20.543-20.543V87.664     c0-10.512-8.552-19.064-19.064-19.064H250.34c-10.512,0-19.064,8.552-19.064,19.064v53.592c0,11.346-9.197,20.543-20.543,20.543     s-20.543-9.197-20.543-20.543V87.664c0-33.167,26.983-60.15,60.15-60.15h75.869c33.167,0,60.15,26.983,60.15,60.15v53.592     C386.359,152.602,377.161,161.799,365.815,161.799z"/>
		</g>
		<path style="fill:#FD6F71;" d="M504.5,207.223v235.892c0,22.847-18.521,41.368-41.368,41.368H189.189l-42.474-159.277    l42.474-117.983L355.544,161.8L504.5,207.223"/>
		<g>
			<path style="fill:#E6CB59;" d="M210.733,161.799c11.346,0,20.543-9.197,20.543-20.543V87.664c0-0.435,0.036-0.86,0.065-1.288     h-41.119c-0.009,0.43-0.033,0.856-0.033,1.288v53.592C190.19,152.602,199.387,161.799,210.733,161.799z"/>
			<path style="fill:#E6CB59;" d="M345.272,87.664v53.592c0,11.346,9.197,20.543,20.543,20.543s20.543-9.197,20.543-20.543V87.664     c0-0.432-0.024-0.858-0.033-1.288h-41.119C345.236,86.804,345.272,87.229,345.272,87.664z"/>
		</g>
		<path style="fill:#E36465;" d="M504.5,207.223c0-50.173-40.673-90.846-90.847-90.846h0H98.342l90.847,90.846H504.5z"/>
		<path style="fill:#42C3E2;" d="M98.341,116.373c-50.177,0-90.842,40.675-90.842,90.852l90.847,28.802l90.847-28.802    C189.193,157.049,148.518,116.373,98.341,116.373z"/>
		<path style="fill:#6EE3FF;" d="M189.193,207.225v277.26H48.863c-22.844,0-41.364-18.53-41.364-41.374V207.225H189.193z"/>
	</g>
	<g>
		<path d="M257.802,342.481c4.142,0,7.5-3.358,7.5-7.5v-16.976c0-4.142-3.358-7.5-7.5-7.5s-7.5,3.358-7.5,7.5v16.976    C250.302,339.124,253.66,342.481,257.802,342.481z"/>
		<path d="M452.904,334.981v-16.976c0-4.142-3.358-7.5-7.5-7.5s-7.5,3.358-7.5,7.5v16.976c0,4.142,3.358,7.5,7.5,7.5    S452.904,339.124,452.904,334.981z"/>
		<path d="M351.603,351.543c11.187,0,21.684-4.668,28.798-12.807c2.727-3.119,2.408-7.857-0.71-10.583s-7.857-2.408-10.583,0.711    c-4.266,4.88-10.646,7.679-17.505,7.679c-6.859,0-13.239-2.799-17.504-7.679c-2.726-3.119-7.465-3.436-10.583-0.711    c-3.119,2.726-3.438,7.464-0.711,10.583C329.918,346.875,340.415,351.543,351.603,351.543z"/>
		<path d="M512,443.115V207.223c0-54.229-44.118-98.347-98.347-98.347h-19.794V87.664c0-37.302-30.348-67.649-67.65-67.649H250.34    c-37.302,0-67.65,30.348-67.65,67.649v21.212c0,0-84.146,0-84.147,0c-0.067,0-0.134-0.002-0.201-0.002    C44.116,108.874,0,152.994,0,207.225v235.887c0,26.949,21.92,48.874,48.864,48.874l177.868-0.003c4.142,0,7.5-3.358,7.5-7.5    s-3.358-7.5-7.5-7.5h-30.038V214.723h223.038c4.142,0,7.5-3.358,7.5-7.5s-3.358-7.5-7.5-7.5c0,0-223.321-0.001-223.322-0.009    c-0.518-6.845-1.739-13.672-3.711-20.25c-0.004-0.015-0.009-0.029-0.013-0.043c-6.862-23.241-22.093-42.923-42.193-55.544h263.161    c43.43,0,79.208,33.389,83.012,75.847h-46.934c-4.142,0-7.5,3.358-7.5,7.5s3.358,7.5,7.5,7.5H497v228.392    c0,18.675-15.193,33.868-33.868,33.868H256.731c-4.142,0-7.5,3.358-7.5,7.5s3.358,7.5,7.5,7.5h206.401    C490.078,491.982,512,470.06,512,443.115z M98.342,123.874c14.013,0,27.935,3.6,40.202,10.373    c19.779,10.921,34.475,29.769,40.289,51.591c1.211,4.545,2.083,9.202,2.506,13.887H15.334    C19.138,157.265,54.914,123.874,98.342,123.874z M15,443.112V214.725h166.694v262.26H48.864C30.191,476.986,15,461.79,15,443.112z     M337.772,108.876h-98.996V87.664c0-6.376,5.188-11.563,11.563-11.563h75.869c6.376,0,11.563,5.188,11.563,11.563V108.876z     M352.772,108.876V87.664c0-14.647-11.917-26.563-26.563-26.563H250.34c-14.647,0-26.563,11.916-26.563,26.563v21.212H197.69    V87.664c0-29.031,23.619-52.649,52.65-52.649h75.869c29.031,0,52.65,23.618,52.65,52.649v21.212H352.772z"/>
	</g>
</g>















</svg>
