<?xml version="1.0" encoding="iso-8859-1"?>
<!-- Generator: Adobe Illustrator 19.0.0, SVG Export Plug-In . SVG Version: 6.00 Build 0)  -->
<svg xmlns="http://www.w3.org/2000/svg" xmlns:xlink="http://www.w3.org/1999/xlink" version="1.1" id="Layer_1" x="0px" y="0px" viewBox="0 0 511.649 511.649" style="enable-background:new 0 0 511.649 511.649;" xml:space="preserve" width="512" height="512">
<g>
	<g>
		<path style="fill:#FADC60;" d="M417.458,64.462l-71.104-26.41L50.968,333.438c-17.532,17.532-17.525,45.953,0,63.479    l34.035,34.035c17.525,17.525,45.947,17.532,63.479,0l295.386-295.386L417.458,64.462z"/>
		<path style="fill:#506366;" d="M493.492,85.942l-49.624,49.624l-97.514-97.514l7.611-7.611    c17.83-17.83,43.624-25.151,68.158-19.347l53.721,12.697c6.677,1.585,12.792,4.991,17.641,9.839    C507.936,48.081,507.936,71.498,493.492,85.942z"/>
		<polygon style="fill:#999999;" points="227.496,254.425 210.478,237.407 169.847,278.038 152.593,329.327 175.969,339.986     216.6,299.355   "/>
		<polygon style="fill:#999999;" points="152.593,329.327 129.216,318.669 88.586,359.299 71.331,410.589 94.707,421.248     135.338,380.617   "/>
		<polygon style="fill:#999999;" points="71.331,410.589 47.955,399.93 7.324,440.561 13.446,502.509 54.077,461.879   "/>
		<polygon style="fill:#B8B8B8;" points="175.969,339.986 135.338,380.617 129.216,318.669 169.847,278.038   "/>
		<polygon style="fill:#B8B8B8;" points="94.707,421.248 54.077,461.879 47.955,399.93 88.586,359.299   "/>
		<path style="fill:#3A484A;" d="M379.814,136.144l-34.03-34.04c-7.11-7.11-18.64-7.11-25.74,0l-22.13,22.13l11.41,44.59    l48.36,15.18l22.13-22.13C386.924,154.774,386.924,143.244,379.814,136.144z"/>
		<polygon style="fill:#B8B8B8;" points="250.784,197.101 210.478,237.407 216.6,299.355 284.819,231.136 286.824,197.101   "/>
		<path style="fill:#506366;" d="M357.684,184.004l-47.13,47.13c-7.1,7.11-18.63,7.11-25.74,0l-34.03-34.03    c-7.11-7.11-7.11-18.63,0-25.74l47.13-47.13L357.684,184.004z"/>
		
			<rect x="315.273" y="82.3" transform="matrix(0.7071 0.7071 -0.7071 0.7071 181.6174 -243.0747)" style="fill:#E6CB59;" width="137.905" height="30.788"/>
	</g>
	<g>
		<circle cx="241.527" cy="240.613" r="8.907"/>
		<path d="M85.565,441.217c9.26,6.928,20.304,10.401,31.354,10.401c13.415,0,26.83-5.106,37.043-15.319    c0,0,344.788-344.788,345.009-345.009c24.174-24.174,11.954-66.88-21.225-74.754L424.027,3.839    c-27.267-6.45-55.374,1.528-75.188,21.342L105.827,268.193c-2.929,2.929-2.929,7.677,0,10.606c2.84,2.84,7.694,2.913,10.606,0    L346.53,48.702l48.054,48.054c2.929,2.929,7.678,2.929,10.606,0c2.929-2.929,2.929-7.677,0-10.606l-48.054-48.054l2.308-2.308    c16.108-16.108,38.958-22.596,61.13-17.352c0,0,53.686,12.689,53.714,12.696c22.073,5.217,30.092,33.535,14.076,49.551    l-44.32,44.32c0,0-17.727-17.727-17.757-17.757c-3.058-3.058-8.386-2.791-11.121,0.57c-2.355,2.894-2.19,7.332,0.515,10.037    l17.757,17.757L143.355,425.693c-12.761,12.761-32.527,14.351-47.035,4.769l0.336-0.336l189.12-189.12    c3.676,1.964,7.802,3.006,12.087,3.006c6.868,0,13.322-2.675,18.169-7.529c0,0,69.205-69.205,69.256-69.256    c9.906-9.906,9.915-26.444,0.005-36.34c0,0-34.009-34.019-34.03-34.041c-9.911-9.913-26.447-9.915-36.347,0l-69.26,69.26    c-8.176,8.176-9.678,20.534-4.513,30.25L51.679,385.82c-9.582-14.507-7.992-34.273,4.769-47.034l38.773-38.773    c2.929-2.929,2.929-7.677,0-10.606c-2.929-2.929-7.678-2.929-10.606,0l-38.773,38.773c-18.625,18.624-20.258,47.894-4.917,68.397    L2.197,435.302c-1.588,1.588-2.381,3.805-2.161,6.041c0,0,6.111,61.84,6.122,61.948c0.611,6.186,8.37,8.963,12.767,4.566    L85.565,441.217z M123.487,335.224l4.214,42.643l-26.913,26.913l-4.214-42.643L123.487,335.224z M82.857,375.855l4.214,42.643    l-26.913,26.913l-4.214-42.643L82.857,375.855z M204.749,253.963l4.214,42.643l-26.913,26.913l-4.214-42.643L204.749,253.963z     M274.387,231.182l-51.706,51.706l-4.214-42.643l32.491-32.491L274.387,231.182z M325.528,107.448    c4.135-4.135,10.996-4.129,15.128,0.003c0,0,33.981,33.991,34.035,34.045c4.128,4.129,4.122,10.999-0.004,15.119l-16.827,16.826    l-49.164-49.163C308.696,124.279,325.505,107.471,325.528,107.448z M256.263,176.712l41.827-41.827l49.164,49.164    c0,0-41.75,41.75-41.83,41.83c-4.124,4.124-11.014,4.112-15.13-0.004c0,0-0.053-0.053-0.06-0.06l-33.92-33.92l-0.05-0.05    C252.091,187.673,252.092,180.884,256.263,176.712z M164.118,294.594l4.214,42.643l-26.913,26.913l-4.214-42.643L164.118,294.594z     M15.313,443.399l26.913-26.913l4.214,42.643l-26.913,26.913L15.313,443.399z"/>
	</g>
</g>















</svg>
