<?xml version="1.0" encoding="iso-8859-1"?>
<!-- Generator: Adobe Illustrator 19.0.0, SVG Export Plug-In . SVG Version: 6.00 Build 0)  -->
<svg xmlns="http://www.w3.org/2000/svg" xmlns:xlink="http://www.w3.org/1999/xlink" version="1.1" id="Layer_1" x="0px" y="0px" viewBox="0 0 512 512" style="enable-background:new 0 0 512 512;" xml:space="preserve" width="512" height="512">
<g>
	<g>
		<path style="fill:#506366;" d="M126.025,440.866v50.184c0,7.428,6.022,13.45,13.449,13.45h39.644    c7.428,0,13.449-6.022,13.449-13.45v-50.184H126.025z"/>
		<path style="fill:#506366;" d="M385.975,440.866v50.184c0,7.428-6.022,13.45-13.449,13.45h-39.644    c-7.428,0-13.449-6.022-13.449-13.45v-50.184H385.975z"/>
		<path style="fill:#FD6F71;" d="M385.975,7.5h-259.95c-16.777,0-30.377,13.6-30.377,30.377v401.591    c0,16.777,13.6,30.377,30.377,30.377h259.95c16.777,0,30.377-13.6,30.377-30.377V37.878C416.352,21.101,402.752,7.5,385.975,7.5z"/>
		<path style="fill:#E36465;" d="M126.025,469.846h67c-16.777,0-30.377-13.6-30.377-30.377V37.877    c0-16.773,13.595-30.372,30.368-30.377h-66.99c-16.777,0-30.377,13.601-30.377,30.377v401.591c0,2.621,0.332,5.165,0.956,7.592    c0.125,0.485,0.261,0.966,0.409,1.442c1.183,3.805,3.095,7.289,5.571,10.29c0.31,0.375,0.628,0.742,0.955,1.102    C109.095,466.007,117.112,469.846,126.025,469.846z"/>
		<rect x="139.116" y="50.969" style="fill:#B8B8B8;" width="233.767" height="375.407"/>
		<rect x="139.116" y="50.969" style="fill:#999999;" width="23.531" height="375.407"/>
		<circle style="fill:#999999;" cx="316.534" cy="244.33" r="29.301"/>
	</g>
	<g>
		<path d="M330.587,433.876h42.296c4.142,0,7.5-3.358,7.5-7.5V50.969c0-4.142-3.358-7.5-7.5-7.5H139.117c-4.142,0-7.5,3.358-7.5,7.5    v375.407c0,4.142,3.358,7.5,7.5,7.5h161.546c4.142,0,7.5-3.358,7.5-7.5s-3.358-7.5-7.5-7.5H146.617V58.469h218.767v360.407    h-34.796c-4.142,0-7.5,3.358-7.5,7.5S326.445,433.876,330.587,433.876z"/>
		<path d="M199.007,97.272h113.985c4.142,0,7.5-3.357,7.5-7.5c0-4.142-3.358-7.5-7.5-7.5H199.007c-4.142,0-7.5,3.358-7.5,7.5    C191.507,93.915,194.865,97.272,199.007,97.272z"/>
		<path d="M199.007,126.252h113.985c4.142,0,7.5-3.357,7.5-7.5c0-4.142-3.358-7.5-7.5-7.5H199.007c-4.142,0-7.5,3.358-7.5,7.5    C191.507,122.895,194.865,126.252,199.007,126.252z"/>
		<path d="M199.007,155.231h113.985c4.142,0,7.5-3.358,7.5-7.5s-3.358-7.5-7.5-7.5H199.007c-4.142,0-7.5,3.358-7.5,7.5    S194.865,155.231,199.007,155.231z"/>
		<path d="M316.535,281.131c20.292,0,36.801-16.509,36.801-36.802c0-20.292-16.509-36.801-36.801-36.801    s-36.801,16.509-36.801,36.801C279.733,264.622,296.242,281.131,316.535,281.131z M316.535,222.528    c12.021,0,21.801,9.78,21.801,21.801c0,12.021-9.78,21.802-21.801,21.802s-21.801-9.78-21.801-21.802    C294.733,232.308,304.513,222.528,316.535,222.528z"/>
		<circle cx="316.535" cy="244.329" r="9.499"/>
		<path d="M332.882,512h39.644c11.551,0,20.949-9.398,20.949-20.95v-14.454c17.305-3.49,30.377-18.81,30.377-37.129V37.877    C423.853,16.991,406.861,0,385.975,0H195.924c-4.142,0-7.5,3.358-7.5,7.5s3.358,7.5,7.5,7.5h190.051    c12.615,0,22.877,10.263,22.877,22.877v401.591c0,12.615-10.263,22.877-22.877,22.877h-259.95    c-12.615,0-22.877-10.263-22.877-22.877V37.877C103.147,25.263,113.41,15,126.025,15h39.953c4.142,0,7.5-3.358,7.5-7.5    s-3.358-7.5-7.5-7.5h-39.953c-20.886,0-37.877,16.991-37.877,37.877v401.591c0,18.318,13.072,33.638,30.377,37.129v14.454    c0,11.552,9.398,20.95,20.95,20.95h39.644c11.551,0,20.949-9.398,20.949-20.95v-13.705h111.865v13.705    C311.933,502.602,321.331,512,332.882,512z M378.475,477.345v13.705c0,3.281-2.669,5.95-5.949,5.95h-39.644    c-3.281,0-5.95-2.669-5.95-5.95v-13.705H378.475z M185.067,491.05c0,3.281-2.669,5.95-5.949,5.95h-39.644    c-3.281,0-5.95-2.669-5.95-5.95v-13.705h51.542V491.05z"/>
	</g>
</g>















</svg>
