<?xml version="1.0" encoding="iso-8859-1"?>
<!-- Generator: Adobe Illustrator 19.0.0, SVG Export Plug-In . SVG Version: 6.00 Build 0)  -->
<svg xmlns="http://www.w3.org/2000/svg" xmlns:xlink="http://www.w3.org/1999/xlink" version="1.1" id="Layer_1" x="0px" y="0px" viewBox="0 0 512 512" style="enable-background:new 0 0 512 512;" xml:space="preserve" width="512" height="512">
<g>
	<g>
		<rect x="44.396" y="123.213" style="fill:#EFEDEE;" width="422.161" height="334.607"/>
		<polygon style="fill:#C86D5C;" points="504.5,90.197 7.5,90.197 29.904,166.567 63.245,149.484 448.754,149.484 476.066,166.567     495.906,107.836   "/>
		<polygon style="fill:#C86D5C;" points="494.531,479.32 470.598,425.823 442.725,438.886 63.245,438.886 35.372,425.823     7.5,498.174 504.5,498.174   "/>
		<polygon style="fill:#E6CB59;" points="381.549,287.814 418.353,399.279 386.424,386.48 368.395,415.774 331.591,304.309   "/>
		<polygon style="fill:#FADC60;" points="303.288,287.814 266.484,399.279 298.412,386.48 316.442,415.774 353.246,304.309   "/>
		<path style="fill:#FD6F71;" d="M405.937,234.957c-3.825-3.954-5.612-9.452-4.841-14.9v0c1.347-9.526-5.103-18.404-14.579-20.067h0    c-5.419-0.951-10.096-4.349-12.675-9.209l0,0c-4.509-8.499-14.946-11.89-23.59-7.665h0c-4.943,2.416-10.724,2.416-15.667,0h0    c-8.643-4.225-19.081-0.834-23.59,7.665l0,0c-2.579,4.86-7.256,8.258-12.675,9.209h0c-9.476,1.662-15.927,10.54-14.579,20.067v0    c0.77,5.447-1.016,10.946-4.841,14.9c-6.689,6.915-6.689,17.889,0,24.804c3.825,3.954,5.612,9.452,4.841,14.9    c-1.347,9.526,5.103,18.404,14.579,20.067h0c5.419,0.951,10.096,4.349,12.675,9.209h0c4.509,8.499,14.946,11.89,23.59,7.665h0    c4.943-2.416,10.724-2.416,15.667,0h0c8.643,4.225,19.081,0.834,23.59-7.665h0c2.579-4.86,7.256-8.258,12.675-9.209h0    c9.476-1.662,15.927-10.541,14.579-20.067c-0.77-5.448,1.016-10.946,4.841-14.9C412.626,252.846,412.626,241.871,405.937,234.957z    "/>
		<polygon style="fill:#AD4F3D;" points="63.245,438.886 7.5,498.174 7.5,90.197 63.245,149.484   "/>
		<polygon style="fill:#AD4F3D;" points="448.754,438.886 504.5,498.174 504.5,90.197 448.754,149.484   "/>
		<circle style="fill:#FADC60;" cx="252.985" cy="33.254" r="19.427"/>
		<path style="fill:#E6CB59;" d="M262.985,42.681c-10.73,0-19.428-8.698-19.428-19.427c0-2.773,0.59-5.405,1.637-7.791    c-6.848,3.004-11.637,9.834-11.637,17.791c0,10.729,8.698,19.427,19.427,19.427c7.957,0,14.787-4.789,17.791-11.637    C268.389,42.091,265.758,42.681,262.985,42.681z"/>
		<rect x="63.245" y="149.484" style="fill:#D2D2D2;" width="385.509" height="29.26"/>
	</g>
	<g>
		<path d="M104.767,210.242h148.218c4.142,0,7.5-3.358,7.5-7.5s-3.358-7.5-7.5-7.5H104.767c-4.142,0-7.5,3.358-7.5,7.5    S100.625,210.242,104.767,210.242z"/>
		<path d="M104.767,248.929h108.023c4.142,0,7.5-3.358,7.5-7.5s-3.358-7.5-7.5-7.5H104.767c-4.142,0-7.5,3.358-7.5,7.5    S100.625,248.929,104.767,248.929z"/>
		<path d="M104.767,287.617h108.023c4.142,0,7.5-3.358,7.5-7.5s-3.358-7.5-7.5-7.5H104.767c-4.142,0-7.5,3.358-7.5,7.5    S100.625,287.617,104.767,287.617z"/>
		<path d="M212.791,372.687H104.767c-4.142,0-7.5,3.358-7.5,7.5s3.358,7.5,7.5,7.5h108.023c4.142,0,7.5-3.358,7.5-7.5    S216.933,372.687,212.791,372.687z"/>
		<path d="M374.9,505.674c4.142,0,7.5-3.358,7.5-7.5s-3.358-7.5-7.5-7.5H24.847l41.641-44.287h376.238    c0.822,0,1.637-0.135,2.412-0.398l42.016,44.686H404.9c-4.142,0-7.5,3.358-7.5,7.5s3.358,7.5,7.5,7.5c0,0,99.597,0,99.602,0    c3.921,0,7.339-3.3,7.493-7.216C511.998,498.363,512,90.214,512,90.197c0-2.416-1.257-4.766-3.225-6.155    c-1.227-0.866-2.773-1.345-4.275-1.345H313.034L276.57,46.232c2.128-3.852,3.343-8.275,3.343-12.978    c0-14.848-12.08-26.928-26.928-26.928c-14.848,0-26.927,12.08-26.927,26.928c0,4.703,1.215,9.126,3.343,12.978l-36.465,36.465    h-77.369c-4.142,0-7.5,3.358-7.5,7.5s3.358,7.5,7.5,7.5h371.586l-42.016,44.686c-0.774-0.263-378.65-0.398-378.65-0.398    L24.847,97.697h60.72c4.142,0,7.5-3.358,7.5-7.5s-3.358-7.5-7.5-7.5c0,0-77.99,0-78.067,0c-4.059,0-7.5,3.441-7.5,7.5    c0,0,0,407.849,0,407.977c0,2.89,1.792,5.612,4.407,6.817c0.97,0.447,2.024,0.683,3.093,0.683H374.9z M252.985,21.326    c6.577,0,11.928,5.351,11.928,11.928c0,6.577-5.351,11.927-11.928,11.927c-6.577,0-11.927-5.351-11.927-11.927    C241.058,26.677,246.409,21.326,252.985,21.326z M240.007,56.838c3.852,2.128,8.275,3.343,12.978,3.343    c4.703,0,9.126-1.215,12.978-3.343l25.858,25.858h-77.672L240.007,56.838z M15,479.248V109.122l40.746,43.334v283.458L15,479.248z     M456.255,435.914V152.573v-0.117L497,109.122v370.126L456.255,435.914z M441.255,157.157v274.135l-0.2,0.094H70.746V156.984    h370.17L441.255,157.157z"/>
		<path d="M276.315,273.61c-1.635,11.561,4.687,22.333,14.926,26.77c0,0-31.808,96.335-31.878,96.547    c-1.962,5.942,4.108,11.642,9.912,9.313l26.063-10.448c0,0,14.694,23.875,14.717,23.913c3.286,5.339,11.55,4.353,13.509-1.58    l18.854-57.103c0,0,18.81,56.969,18.854,57.103c1.957,5.927,10.239,6.893,13.509,1.58l14.717-23.913    c0,0,26.007,10.425,26.063,10.448c5.795,2.323,11.864-3.402,9.913-9.313l-31.878-96.547c10.239-4.437,16.56-15.209,14.926-26.77    c-0.45-3.18,0.573-6.327,2.806-8.635c9.556-9.878,9.556-25.354,0-35.233c-2.232-2.308-3.255-5.455-2.805-8.635    c1.924-13.609-7.172-26.129-20.71-28.504c-3.163-0.555-5.84-2.5-7.346-5.337c-4.407-8.306-12.987-13.465-22.394-13.465    c-3.876,0-7.616,0.867-11.115,2.578c-2.811,1.374-6.268,1.374-9.079,0c-3.499-1.71-7.239-2.578-11.115-2.578    c-9.406,0-17.987,5.16-22.394,13.465c-1.505,2.837-4.183,4.782-7.346,5.337c-13.537,2.375-22.634,14.896-20.709,28.504    c0.45,3.179-0.573,6.327-2.806,8.635c-9.556,9.879-9.556,25.355,0,35.233C275.743,267.283,276.765,270.43,276.315,273.61z     M314.377,398.109c0,0-9.574-15.556-9.577-15.56c-1.886-3.065-5.84-4.369-9.178-3.03l-16.96,6.799l25.914-78.485    c0.113,0.205,0.24,0.399,0.358,0.6c1.686,2.864,3.89,5.413,6.578,7.382c4.431,3.247,9.75,5.103,15.253,5.102    c3.876,0,7.616-0.867,11.114-2.578c0.986-0.482,2.057-0.786,3.143-0.929L314.377,398.109z M389.215,379.519    c-3.388-1.359-7.264-0.08-9.178,3.03l-9.577,15.56l-20.143-61.008l5.381-16.296c0.078,0.007,0.157,0.004,0.235,0.011    c5.785,0.489,11.652-1.059,16.453-4.326c3.256-2.216,5.971-5.211,7.875-8.658l25.914,78.484L389.215,379.519z M284.291,240.171    c5.473-5.657,7.979-13.372,6.877-21.165c-0.785-5.552,2.926-10.66,8.449-11.629c7.752-1.359,14.314-6.127,18.003-13.081    c2.574-4.852,8.75-6.847,13.672-4.442c6.889,3.367,15.362,3.368,22.254,0c4.851-2.371,11.059-0.481,13.67,4.441    c3.689,6.953,10.251,11.721,18.004,13.081c5.523,0.969,9.234,6.077,8.449,11.629c-1.102,7.794,1.404,15.508,6.877,21.165    c3.899,4.03,3.899,10.344,0,14.374c-5.473,5.657-7.979,13.371-6.877,21.165c0.785,5.552-2.926,10.661-8.449,11.629    c-6.087,1.068-11.432,4.243-15.237,8.92c-0.046,0.057-0.094,0.113-0.139,0.17c-1.348,1.678-2.217,3.634-3.499,5.344    c-3.786,5.054-9.264,4.453-14.442,2.366c-6.565-2.645-14.053-2.418-20.439,0.644c-0.057,0.027-0.116,0.051-0.173,0.078    c-4.95,2.421-11.089,0.422-13.67-4.442c-3.642-6.861-10.354-11.739-18.004-13.081c-5.523-0.969-9.234-6.077-8.449-11.629    c1.102-7.793-1.404-15.508-6.877-21.165C280.392,250.516,280.392,244.202,284.291,240.171z"/>
	</g>
</g>















</svg>
