<?xml version="1.0" encoding="iso-8859-1"?>
<!-- Generator: Adobe Illustrator 19.0.0, SVG Export Plug-In . SVG Version: 6.00 Build 0)  -->
<svg xmlns="http://www.w3.org/2000/svg" xmlns:xlink="http://www.w3.org/1999/xlink" version="1.1" id="Layer_1" x="0px" y="0px" viewBox="0 0 512 512" style="enable-background:new 0 0 512 512;" xml:space="preserve" width="512" height="512">
<g>
	<g>
		<circle style="fill:#FADC60;" cx="123.72" cy="213.602" r="32.068"/>
		<path style="fill:#E6CB59;" d="M117.044,236.278c-12.523-12.523-12.523-32.827,0-45.351c4.209-4.209,9.299-6.997,14.675-8.377    c-10.619-2.725-22.361,0.063-30.675,8.377c-12.523,12.523-12.523,32.827,0,45.351c8.314,8.314,20.056,11.102,30.675,8.376    C126.343,243.275,121.253,240.487,117.044,236.278z"/>
		<path style="fill:#B8B8B8;" d="M230.186,283.623c3.135-17.92-1.848-35.468-1.848-35.468l-53.029-90.462l-86.142-48.71    c0,0-17.548-4.983-35.468-1.848c-13.048,2.282-18.038,18.408-8.672,27.774l157.385,157.385    C211.779,301.662,227.904,296.671,230.186,283.623z"/>
		<circle style="fill:#B8B8B8;" cx="297.924" cy="39.398" r="31.898"/>
		<path style="fill:#B8B8B8;" d="M439.551,266.717L272.316,99.482l-32.393,32.393l155.533,155.534l-92.616,184.177h51.277    l89.702-178.381C448.256,284.38,446.536,273.702,439.551,266.717z"/>
		<polygon style="fill:#999999;" points="272.316,99.482 239.922,131.875 300.706,192.659 326.397,153.563   "/>
		<path style="fill:#EFEDEE;" d="M307.035,128.4c18.449-28.075,14.644-65.247-9.111-89.002l0,0    c-23.755-23.755-60.927-27.56-89.002-9.111L89.167,108.984l139.172,139.172L307.035,128.4z"/>
		<path style="fill:#999999;" d="M395.455,287.409l-26.245,52.19c11.061,10.569,25.19,17.939,40.907,20.623l33.701-67.017    c4.438-8.825,2.718-19.503-4.267-26.488L395.455,287.409z"/>
		<circle style="fill:#EFEDEE;" cx="423.354" cy="282.914" r="48.447"/>
		<path style="fill:#D2D2D2;" d="M377.502,449.19H218.346c-30.547,0-55.31,24.763-55.31,55.31v0h269.777v0    C432.812,473.953,408.049,449.19,377.502,449.19z"/>
	</g>
	<g>
		<circle cx="423.257" cy="282.914" r="15.52"/>
		<path d="M391.751,329.119c6.316,4.302,13.451,7.231,20.937,8.728c0.057,0.011,0.114,0.025,0.171,0.036l-25.294,50.3    c-1.861,3.701-0.369,8.209,3.331,10.07c3.701,1.86,8.209,0.37,10.07-3.331l28.359-56.395    c28.005-3.035,49.879-26.814,49.879-55.613c0-30.85-25.098-55.947-55.947-55.947c-4.015,0-7.928,0.434-11.706,1.241    l-97.323-97.324c11.661-18.741,14.519-41.088,9.132-61.504c0.802-0.682,1.585-1.383,2.325-2.124    c15.361-15.361,15.361-40.356,0-55.717C318.244,4.098,308.351,0,297.827,0c-10.524,0-20.417,4.098-27.859,11.54    c-0.741,0.74-1.442,1.523-2.124,2.325c-21.01-5.544-44.073-2.374-63.138,10.155L87.669,100.93    c-6.374-1.39-20.647-3.757-35.359-1.182c-18.701,3.273-26.067,27.082-12.684,40.465l51.217,51.217    c-4.412,6.493-6.789,14.149-6.789,22.172c0,10.569,4.116,20.505,11.589,27.979c7.473,7.473,17.409,11.589,27.979,11.589    c8.023,0,15.679-2.377,22.172-6.789c0,0,51.197,51.197,51.218,51.217c13.37,13.37,37.198,5.989,40.465-12.683    c2.573-14.712,0.207-28.985-1.182-35.359l43.861-66.744l88.396,88.396c-0.807,3.777-1.241,7.691-1.241,11.706    c0,10.309,2.814,19.968,7.698,28.27l-65.627,130.505h-91.131c-34.634,0-62.811,28.177-62.811,62.811c0,4.142,3.358,7.5,7.5,7.5    h269.777c4.142,0,7.5-3.358,7.5-7.5c0-34.619-28.154-62.786-62.768-62.81l10.16-20.204c1.861-3.701,0.369-8.209-3.331-10.07    c-3.701-1.86-8.209-0.37-10.07,3.331l-13.548,26.942h-34.488l59.168-117.661C387.346,325.879,389.493,327.58,391.751,329.119z     M377.405,456.689c23.813,0,43.615,17.497,47.223,40.311H171.026c3.609-22.813,23.411-40.311,47.223-40.311H377.405z     M464.204,282.914c0,22.199-17.759,40.315-39.816,40.918c-22.499,0.615-41.878-18.056-42.077-40.551    c-0.001-0.123-0.001-0.245-0.002-0.368c-0.105-20.505,16.373-38.612,36.698-40.727c1.411-0.147,2.83-0.22,4.249-0.22    C445.836,241.967,464.204,260.335,464.204,282.914z M283.388,19.725c4.161-3.067,9.173-4.725,14.439-4.725    c6.517,0,12.644,2.538,17.252,7.146c8.623,8.624,9.43,22.148,2.419,31.688c-2.641-5.188-5.856-10.033-9.605-14.517    c-3.023-3.615-6.363-6.956-9.978-9.979C293.429,25.585,288.58,22.367,283.388,19.725z M134.871,235.458    c-3.437,1.773-7.271,2.712-11.249,2.712c-6.563,0-12.732-2.555-17.372-7.195s-7.196-10.81-7.196-17.372    c0-3.979,0.939-7.812,2.713-11.249l16.552,16.552L134.871,235.458z M222.702,282.331c-1.224,6.992-10.118,9.626-15.083,4.661    c0,0-157.05-157.049-157.385-157.384c-4.977-4.977-2.316-13.864,4.661-15.084c12.816-2.242,25.726,0.186,30.346,1.238    l23.748,23.748c2.929,2.929,7.678,2.929,10.606,0c2.929-2.929,2.929-7.678,0-10.606l-18.709-18.709l112.058-73.638    c22.43-14.739,51.7-13.469,72.744,2.244c4.794,3.579,9.139,7.933,12.752,12.757c15.701,21.042,16.965,50.302,2.23,72.725    l-73.638,112.058l-86.381-86.381c-2.929-2.929-7.678-2.929-10.606,0c-2.929,2.929-2.929,7.678,0,10.606l91.419,91.419    C222.519,256.616,224.942,269.517,222.702,282.331z M305.847,143.717l90.26,90.261c-9.17,5.073-16.713,12.617-21.787,21.787    l-85.753-85.753L305.847,143.717z"/>
	</g>
</g>















</svg>
