<?xml version="1.0" encoding="iso-8859-1"?>
<!-- Generator: Adobe Illustrator 19.0.0, SVG Export Plug-In . SVG Version: 6.00 Build 0)  -->
<svg xmlns="http://www.w3.org/2000/svg" xmlns:xlink="http://www.w3.org/1999/xlink" version="1.1" id="Layer_1" x="0px" y="0px" viewBox="0 0 512 512" style="enable-background:new 0 0 512 512;" xml:space="preserve" width="512" height="512">
<g>
	<g>
		<path style="fill:#FD6F71;" d="M274.596,19.45c-1.135-6.893-7.094-11.95-14.079-11.95h-9.034c-6.986,0-12.944,5.058-14.079,11.95    l-13.956,84.735h65.104L274.596,19.45z"/>
		<path style="fill:#E36465;" d="M205.842,161.773c0,0-6.194-69.284,50.157-69.284s50.157,69.284,50.157,69.284L256,183.944    L205.842,161.773z"/>
		<path style="fill:#FD6F71;" d="M306.157,161.773H205.842c-15.205,0-27.532,12.326-27.532,27.532v10.766L256,226.439l77.689-26.368    v-10.766C333.688,174.099,321.362,161.773,306.157,161.773z"/>
		<path style="fill:#EFEDEE;" d="M351.042,200.071H160.957c-23.019,0-41.679,18.66-41.679,41.679v221.071    c0,23.019,18.66,41.679,41.679,41.679h190.085c23.019,0,41.679-18.66,41.679-41.679V241.75    C392.721,218.731,374.061,200.071,351.042,200.071z"/>
		<path style="fill:#D2D2D2;" d="M145.278,462.821V241.75c0-23.019,18.66-41.679,41.679-41.679h-26    c-23.019,0-41.679,18.66-41.679,41.679v221.071c0,23.019,18.66,41.679,41.679,41.679h26    C163.939,504.5,145.278,485.84,145.278,462.821z"/>
		<rect x="156.23" y="258.147" style="fill:#FD6F71;" width="199.539" height="188.277"/>
	</g>
	<g>
		<path d="M180.458,342.842v12.314c0,4.142,3.358,7.5,7.5,7.5s7.5-3.358,7.5-7.5v-12.314c0-4.142-3.358-7.5-7.5-7.5    S180.458,338.7,180.458,342.842z"/>
		<path d="M331.541,355.156v-12.314c0-4.142-3.358-7.5-7.5-7.5s-7.5,3.358-7.5,7.5v12.314c0,4.142,3.358,7.5,7.5,7.5    S331.541,359.298,331.541,355.156z"/>
		<path d="M267.146,349.363c-2.703,3.093-6.766,4.866-11.146,4.866c-4.381,0-8.444-1.774-11.147-4.866    c-2.727-3.118-7.465-3.438-10.583-0.71c-3.119,2.726-3.437,7.464-0.71,10.583c5.552,6.352,13.731,9.994,22.44,9.994    s16.888-3.643,22.44-9.994c2.726-3.119,2.408-7.857-0.711-10.583S269.873,346.245,267.146,349.363z"/>
		<path d="M302.32,258.147c0-4.142-3.358-7.5-7.5-7.5H156.23c-4.142,0-7.5,3.358-7.5,7.5v188.276c0,4.142,3.358,7.5,7.5,7.5H355.77    c4.142,0,7.5-3.358,7.5-7.5V258.147c0-4.142-3.358-7.5-7.5-7.5h-30.95c-4.142,0-7.5,3.358-7.5,7.5s3.358,7.5,7.5,7.5h23.45    v173.276H163.73V265.647H294.82C298.962,265.647,302.32,262.29,302.32,258.147z"/>
		<path d="M313.862,155.138c-0.07-12.229-2.267-37.057-17.54-53.756c-0.248-0.271-0.508-0.524-0.761-0.788l-13.565-82.362    C280.256,7.667,271.223,0,260.517,0h-9.034c-10.707,0-19.74,7.667-21.48,18.231l-13.565,82.362    c-0.252,0.265-0.513,0.517-0.761,0.789c-15.273,16.699-17.47,41.527-17.54,53.756c-15.62,3.521-27.326,17.499-27.326,34.167v3.267    h-9.854c-27.117,0-49.179,22.062-49.179,49.179v221.071c0,27.117,22.062,49.179,49.179,49.179h32.862c4.142,0,7.5-3.358,7.5-7.5    s-3.358-7.5-7.5-7.5h-32.862c-18.846,0-34.179-15.333-34.179-34.179V241.75c0-18.846,15.333-34.179,34.179-34.179h190.084    c18.847,0,34.179,15.333,34.179,34.179v221.071c0,18.846-15.333,34.179-34.179,34.179H223.82c-4.142,0-7.5,3.358-7.5,7.5    s3.358,7.5,7.5,7.5h127.222c27.118,0,49.179-22.062,49.179-49.179V241.75c0-27.117-22.062-49.179-49.179-49.179h-9.854v-3.267    C341.188,172.636,329.483,158.659,313.862,155.138z M244.804,20.669c0.541-3.285,3.35-5.669,6.679-5.669h9.034    c3.329,0,6.138,2.384,6.679,5.669L278.45,89c-4.999-1.997-10.464-3.256-16.381-3.758c-4.029-0.34-8.109-0.36-12.137,0    c-5.917,0.502-11.383,1.76-16.382,3.758L244.804,20.669z M214.02,142.702c1.251-9.252,4.475-22.175,12.727-31.197    c7.545-8.247,18.323-11.516,29.254-11.516c10.743,0,21.795,3.383,29.217,11.476c11.489,12.524,13.444,32.41,13.618,42.809h-85.684    C213.203,151.144,213.419,147.141,214.02,142.702z M185.811,192.571v-3.267c0-11.045,8.986-20.031,20.032-20.031h100.314    c11.045,0,20.032,8.986,20.032,20.031v3.267H185.811z"/>
	</g>
</g>















</svg>
