<?xml version="1.0" encoding="iso-8859-1"?>
<!-- Generator: Adobe Illustrator 19.0.0, SVG Export Plug-In . SVG Version: 6.00 Build 0)  -->
<svg xmlns="http://www.w3.org/2000/svg" xmlns:xlink="http://www.w3.org/1999/xlink" version="1.1" id="Layer_1" x="0px" y="0px" viewBox="0 0 511.993 511.993" style="enable-background:new 0 0 511.993 511.993;" xml:space="preserve" width="512" height="512">
<g>
	<g>
		<path style="fill:#46926F;" d="M479.913,88.474l-242.968,0v0c0-16.565-13.429-29.993-29.993-29.993H42.926    c-16.811,0-29.461,15.314-26.288,31.822l38.875,202.239c4.407,22.927,24.468,39.5,47.816,39.5h305.336    c23.347,0,43.408-16.572,47.816-39.5c0,0,27.095-141.057,36.207-188.622C494.223,95.902,488.077,88.474,479.913,88.474z"/>
		<path style="fill:#EFEDEE;" d="M434.112,125.871H77.881c-12.003,0-21.733,9.73-21.733,21.733v47.657h399.697v-47.657    C455.845,135.602,446.115,125.871,434.112,125.871z"/>
		<path style="fill:#58B78C;" d="M476.753,170.083H35.24c-17.417,0-30.524,15.866-27.236,32.97l40.277,209.534    c4.566,23.755,25.351,40.925,49.541,40.925h316.35c24.189,0,44.974-17.17,49.54-40.925l40.277-209.534    C507.277,185.949,494.17,170.083,476.753,170.083z"/>
		<rect x="56.148" y="147.605" style="fill:#D2D2D2;" width="399.697" height="22.479"/>
	</g>
	<g>
		<path d="M129.263,295.249v21.58c0,4.142,3.358,7.5,7.5,7.5s7.5-3.358,7.5-7.5v-21.58c0-4.142-3.358-7.5-7.5-7.5    S129.263,291.107,129.263,295.249z"/>
		<path d="M382.73,316.828v-21.58c0-4.142-3.358-7.5-7.5-7.5s-7.5,3.358-7.5,7.5v21.58c0,4.142,3.358,7.5,7.5,7.5    S382.73,320.97,382.73,316.828z"/>
		<path d="M255.997,335.847c13.633,0,26.418-5.68,35.075-15.584c2.726-3.119,2.408-7.857-0.711-10.583    c-3.119-2.726-7.857-2.408-10.583,0.711c-5.809,6.645-14.477,10.456-23.781,10.456c-9.305,0-17.973-3.811-23.782-10.457    c-2.725-3.118-7.463-3.437-10.583-0.711c-3.118,2.726-3.437,7.464-0.71,10.583C229.578,330.167,242.363,335.847,255.997,335.847z"/>
		<path d="M60.033,95.974h133.518c4.142,0,7.5-3.358,7.5-7.5s-3.358-7.5-7.5-7.5H60.033c-4.143,0-7.5,3.358-7.5,7.5    S55.891,95.974,60.033,95.974z"/>
		<path d="M8.075,175.378c-6.717,8.131-9.427,18.734-7.436,29.091l40.277,209.534c5.236,27.239,29.167,47.009,56.905,47.009h41.592    c4.142,0,7.5-3.358,7.5-7.5s-3.358-7.5-7.5-7.5H97.822c-20.557,0-38.294-14.652-42.175-34.841c0,0-40.207-209.167-40.277-209.534    c-2.361-12.283,7.354-24.055,19.871-24.055c0,0,441.413,0,441.512,0c12.507,0,22.231,11.78,19.871,24.054l-40.277,209.535    c-3.88,20.188-21.617,34.84-42.175,34.84H169.413c-4.142,0-7.5,3.358-7.5,7.5s3.358,7.5,7.5,7.5h244.758    c27.738,0,51.67-19.77,56.906-47.009l40.277-209.534c1.991-10.357-0.72-20.96-7.437-29.091c-4.09-4.952-9.366-8.608-15.245-10.718    c4.572-23.825,8.734-45.519,11.38-59.327c2.389-12.47-7.487-24.359-20.14-24.359H243.692    c-3.484-17.092-18.634-29.993-36.74-29.993c0,0-163.87,0-164.026,0c-21.203,0-37.655,19.916-33.653,40.738l14.023,72.95    C17.427,166.78,12.16,170.433,8.075,175.378z M28.071,72.978c3.673-4.446,9.088-6.997,14.855-6.997h164.026    c12.403,0,22.493,10.09,22.493,22.493c0,4.142,3.358,7.5,7.5,7.5c0,0,242.968,0,242.968,0c3.4,0,6.046,3.204,5.408,6.535    c-2.673,13.952-6.894,35.952-11.523,60.074h-10.453v-14.979c0-16.119-13.114-29.233-29.233-29.233h-50.823    c-4.142,0-7.5,3.358-7.5,7.5c0,4.142,3.358,7.5,7.5,7.5h50.823c7.848,0,14.233,6.385,14.233,14.233v14.979H63.648v-14.979    c0-7.848,6.385-14.233,14.233-14.233h275.553c4.142,0,7.5-3.358,7.5-7.5c0-4.142-3.358-7.5-7.5-7.5H77.881    c-16.12,0-29.233,13.114-29.233,29.233v14.979H38.169L24.003,88.888C22.915,83.224,24.397,77.424,28.071,72.978z"/>
	</g>
</g>















</svg>
