<?xml version="1.0" encoding="iso-8859-1"?>
<!-- Generator: Adobe Illustrator 19.0.0, SVG Export Plug-In . SVG Version: 6.00 Build 0)  -->
<svg xmlns="http://www.w3.org/2000/svg" xmlns:xlink="http://www.w3.org/1999/xlink" version="1.1" id="Layer_1" x="0px" y="0px" viewBox="0 0 512 512" style="enable-background:new 0 0 512 512;" xml:space="preserve" width="512" height="512">
<g>
	<g>
		<path style="fill:#EFEDEE;" d="M130.398,353.84c-8.585,9.95-17.908,22.718-25.995,38.295    c-8.097,15.567-14.959,33.943-18.664,55.107c-3.008,17.24-3.914,36.323-1.673,57.258h46.332l36.309-49.797L130.398,353.84z"/>
		<path style="fill:#EFEDEE;" d="M426.26,447.242c-7.373-42.15-27.305-73.225-44.438-93.15l-0.064-0.252l-0.045,0.124    c-0.004-0.005-0.008-0.01-0.012-0.014v0.049l-36.252,100.705l36.252,49.719v0.078h46.233    C430.175,483.565,429.268,464.482,426.26,447.242z"/>
		<path style="fill:#506366;" d="M381.641,353.88c0.02,0.02,0.04,0.05,0.06,0.07V504.5H130.398V353.84L381.641,353.88z"/>
		<path style="fill:#AD4F3D;" d="M381.701,31.667c52.632-45.333,79.965-2.667,85.965,22s34.667,30.667,34.667,30.667    s-11.328,36.293-54.331,33.146l-54.984-13.813L381.701,31.667z"/>
		<path style="fill:#AD4F3D;" d="M130.299,31.667c-52.632-45.333-79.965-2.667-85.965,22S9.666,84.333,9.666,84.333    s11.328,36.293,54.331,33.146l54.984-13.813L130.299,31.667z"/>
		<path style="fill:#C86D5C;" d="M427.655,87.779c-5.509-6.728-11.477-13.177-17.895-19.305    c-11.718-11.19-24.527-20.95-38.189-29.186c0.111-0.067,0.073-0.106-0.171-0.106C337.098,18.547,297.419,7.5,256,7.5    c-41.419,0-81.099,11.047-115.4,31.682c-13.726,8.258-26.593,18.055-38.36,29.292c-6.418,6.128-12.387,12.577-17.895,19.305    c-30.132,36.76-46.518,81.869-46.598,129.426v0.11h436.506v-0.11C474.173,169.648,457.787,124.539,427.655,87.779z"/>
		<circle style="fill:#FF98C9;" cx="371.57" cy="39.288" r="21.448"/>
		<path style="fill:#EB6DA8;" d="M381.57,50.736c-11.846,0-21.448-9.603-21.448-21.448c0-3.338,0.785-6.486,2.145-9.303    c-7.18,3.467-12.145,10.796-12.145,19.303c0,11.846,9.603,21.448,21.448,21.448c8.507,0,15.836-4.966,19.303-12.145    C388.056,49.951,384.909,50.736,381.57,50.736z"/>
		<circle style="fill:#FF98C9;" cx="140.429" cy="39.288" r="21.448"/>
		<path style="fill:#EB6DA8;" d="M150.429,50.736c-11.846,0-21.448-9.603-21.448-21.448c0-3.338,0.785-6.486,2.145-9.303    c-7.18,3.467-12.145,10.796-12.145,19.303c0,11.846,9.603,21.448,21.448,21.448c8.507,0,15.836-4.966,19.303-12.145    C156.915,49.951,153.767,50.736,150.429,50.736z"/>
		<path id="XMLID_54_" style="fill:#E3B098;" d="M439.598,186.177c-21.304,2.245-37.908,20.264-37.908,42.163    c0,23.418,18.984,42.402,42.402,42.402c23.418,0,42.402-18.984,42.402-42.402c0-21.9-16.603-39.918-37.908-42.163H439.598z"/>
		<path id="XMLID_52_" style="fill:#E3B098;" d="M72.402,186.177c21.304,2.245,37.908,20.264,37.908,42.163    c0,23.418-18.984,42.402-42.402,42.402s-42.402-18.984-42.402-42.402c0-21.9,16.603-39.918,37.908-42.163H72.402z"/>
		<path style="fill:#D2D2D2;" d="M399.433,377.918c-5.799-9.193-11.862-17.141-17.611-23.826l-0.064-0.252l-0.045,0.124    c-0.004-0.005-0.008-0.01-0.012-0.014v0.049l-17.126,47.576C376.868,394.848,388.54,386.944,399.433,377.918z"/>
		<path style="fill:#D2D2D2;" d="M130.398,353.84c-5.811,6.734-11.958,14.764-17.833,24.078    c10.952,9.074,22.689,17.016,35.055,23.765L130.398,353.84z"/>
		<path style="fill:#3A484A;" d="M130.398,353.84v37.395c36.611,24.566,80.07,37.803,125.601,37.803    c45.572,0,89.069-13.259,125.701-37.868v-37.22c-0.02-0.02-0.04-0.05-0.06-0.07L130.398,353.84z"/>
		<path style="fill:#EFEDEE;" d="M321.843,366.18c0,0-5.558,51.85-65.764,84.847c-60.216-32.996-65.764-84.847-65.764-84.847    H321.843z"/>
		<path style="fill:#FD6F71;" d="M158.942,353.84l1.663,15.517c0.329,3.107,2.55,19.65,13.525,40.695    c14.402,27.608,37.777,50.834,67.586,67.178l14.362,7.868l14.362-7.868c29.809-16.344,53.185-39.57,67.586-67.178    c10.976-21.045,13.187-37.588,13.525-40.695l1.653-15.477L158.942,353.84z M256.079,451.026    c-60.216-32.996-65.764-84.847-65.764-84.847h131.528C321.843,366.18,316.286,418.03,256.079,451.026z"/>
		<path style="fill:#E36465;" d="M288.984,426.682c15.963-2.297,31.502-6.26,46.397-11.793c0.911-1.597,1.798-3.208,2.647-4.837    c10.976-21.045,13.187-37.588,13.525-40.695l1.653-15.478l-98.259-0.02l-96.004-0.015l1.663,15.513    c0.329,3.107,2.55,19.65,13.525,40.695c0.862,1.654,1.761,3.289,2.688,4.91c14.89,5.516,30.422,9.462,46.377,11.744    c-29.54-29.377-32.88-60.527-32.88-60.527h131.528C321.843,366.18,318.498,397.312,288.984,426.682z"/>
		<path style="fill:#D2D2D2;" d="M321.843,366.18H190.315c0,0,3.341,31.153,32.885,60.531c10.765,1.539,21.72,2.326,32.799,2.326    c11.142,0,22.159-0.798,32.983-2.354C318.498,397.313,321.843,366.18,321.843,366.18z"/>
		<path style="fill:#FBC4AC;" d="M446.258,216.353c-0.393-55.943-42.806-102.899-98.426-108.915    c-29.259-3.165-62.593,1.395-91.862,25.742c-29.153-24.251-62.332-28.866-91.499-25.77c-48.645,5.164-87.74,42.221-96.625,90.325    c-1.294,7.008-2.1,13.699-2.111,19.527C65.928,317.685,151.036,399.037,256,399.037c104.964,0,190.072-81.352,190.263-181.775    C446.262,216.959,446.261,216.656,446.258,216.353z"/>
		<g id="XMLID_45_">
			<g id="XMLID_49_">
				<path style="fill:#F98084;" d="M166.319,288.385h-27.375c-4.142,0-7.5-3.358-7.5-7.5s3.358-7.5,7.5-7.5h27.375      c4.142,0,7.5,3.358,7.5,7.5S170.461,288.385,166.319,288.385z"/>
			</g>
			<g id="XMLID_47_">
				<path style="fill:#F98084;" d="M373.055,288.385H345.68c-4.142,0-7.5-3.358-7.5-7.5s3.358-7.5,7.5-7.5h27.375      c4.142,0,7.5,3.358,7.5,7.5S377.197,288.385,373.055,288.385z"/>
			</g>
		</g>
	</g>
	<g>
		<path d="M152.631,258.843c4.142,0,7.5-3.358,7.5-7.5v-20.099c0-4.142-3.358-7.5-7.5-7.5s-7.5,3.358-7.5,7.5v20.099    C145.131,255.485,148.489,258.843,152.631,258.843z"/>
		<path d="M359.367,258.843c4.142,0,7.5-3.358,7.5-7.5v-20.099c0-4.142-3.358-7.5-7.5-7.5s-7.5,3.358-7.5,7.5v20.099    C351.867,255.485,355.225,258.843,359.367,258.843z"/>
		<path d="M279.423,265.923c-3.119-2.726-7.857-2.408-10.583,0.711c-3.119,3.569-7.8,5.616-12.841,5.616    c-5.041,0-9.722-2.047-12.841-5.616c-2.726-3.119-7.464-3.437-10.583-0.711s-3.437,7.464-0.711,10.583    c5.968,6.828,14.766,10.744,24.135,10.744c9.37,0,18.167-3.916,24.135-10.744C282.86,273.387,282.542,268.649,279.423,265.923z"/>
		<path d="M503.894,76.998c-0.241-0.052-24.159-5.447-28.94-25.104c-2.689-11.053-8.263-22.123-15.294-30.37    C450.006,10.2,437.831,4.214,424.452,4.214c-11.101,0-22.898,4.109-35.139,12.225c-4.905-3.817-11.061-6.1-17.743-6.1    c-8.44,0-16.046,3.632-21.342,9.414C320.684,6.644,289.017,0,255.999,0c-9.329,0-18.83,0.571-28.238,1.698    c-4.113,0.492-7.048,4.226-6.555,8.338c0.492,4.113,4.227,7.048,8.338,6.555C238.364,15.535,247.264,15,255.999,15    c30.585,0,59.919,6.082,87.296,18.086c-0.004,0.017-0.006,0.033-0.01,0.05c-0.445,2.016-0.664,4.087-0.664,6.151    c0,15.962,12.986,28.948,28.948,28.948c6.79,0,13.484-2.443,18.671-6.823c4.937,3.927,9.874,8.022,14.339,12.486    c30.366,28.996,51.512,67.097,59.014,108.484c-2.787-1.176-5.71-2.107-8.764-2.774c-2.016-0.44-4.17-0.932-6.243-0.932h-1.249    c-2.903-8.416-6.776-16.522-11.507-24.065c-12.629-20.249-31.084-36.124-52.917-45.58c-0.024-0.01-0.048-0.021-0.073-0.031    c-10.486-4.555-21.66-7.51-33.005-8.882c-29.644-3.585-60.174,1.643-85.579,17.758c-2.836,1.799-5.606,3.712-8.287,5.735    c-2.678-2.021-5.444-3.925-8.274-5.726c-0.009-0.005-0.017-0.011-0.026-0.016c-21.858-13.861-47.113-20.097-75.359-18.598    c-36.514,1.937-70.503,19.521-91.754,49.516c-6.534,9.165-11.703,19.204-15.408,29.89c-1.554,0-3.064,0.08-4.602,0.31    c-1.138,0.17-2.271,0.38-3.396,0.626c-3.035,0.662-5.958,1.593-8.747,2.77c4.038-22.274,11.925-43.621,23.312-63.261    c12.646-21.81,30.027-41.79,50.04-57.71c2.933,2.477,6.328,4.341,9.984,5.49c2.801,0.883,5.75,1.334,8.688,1.334    c15.962,0,28.948-12.986,28.948-28.948c0-2.064-0.225-4.132-0.664-6.148c-0.003-0.016-0.006-0.033-0.009-0.049    c10.241-4.477,20.923-8.175,31.84-11.021c4.008-1.045,6.411-5.141,5.367-9.149c-1.044-4.008-5.137-6.41-9.149-5.367    c-12.005,3.129-23.743,7.231-34.984,12.206c-5.296-5.786-12.906-9.421-21.349-9.421c-6.682,0-12.838,2.282-17.743,6.1    C110.445,8.323,98.647,4.214,87.546,4.214c-13.381,0-25.556,5.986-35.209,17.31c-7.03,8.246-12.604,19.316-15.292,30.371    C32.265,71.546,8.359,76.943,8.13,76.993c-4.267,0.927-6.933,5.38-5.623,9.576c3.875,12.413,18.962,35.098,49.182,38.23    c-10.631,21.725-17.458,45.106-20.135,69.305c-8.436,8.961-13.55,21.026-13.55,34.236c0,27.516,22.386,49.902,49.902,49.902    c0.284,0,0.57-0.011,0.855-0.016c9.66,27.204,25.783,52.124,47.635,73.004c1.195,1.142,2.403,2.266,3.623,3.375    c-21.232,26.424-35.837,57.916-41.67,91.346c-3.329,19.08-3.915,39.047-1.743,59.346c0.408,3.811,3.625,6.702,7.458,6.702h343.868    c3.833,0,7.049-2.89,7.458-6.702c2.173-20.298,1.587-40.265-1.743-59.349c-7.139-40.81-25.746-71.506-41.662-91.35    c1.217-1.107,2.423-2.229,3.616-3.368c21.85-20.879,37.973-45.796,47.633-73.004c0.286,0.005,0.573,0.016,0.857,0.016    c27.516,0,49.902-22.386,49.902-49.902c0-13.21-5.114-25.274-13.55-34.236c-2.677-24.2-9.504-47.581-20.135-69.305    c30.224-3.129,45.309-25.817,49.182-38.232c0.627-2.01,0.368-4.193-0.692-6.013C507.74,78.736,505.952,77.443,503.894,76.998z     M357.622,39.288c0-7.589,6.375-13.948,13.948-13.948c7.33,0,13.689,6.208,13.941,13.523c0.265,7.716-6.242,14.374-13.941,14.374    C363.879,53.236,357.622,46.979,357.622,39.288z M152.843,32.961c0.996,1.942,1.533,4.143,1.533,6.327    c0,7.691-6.257,13.948-13.948,13.948c-5.689,0-11.071-3.758-13.063-9.081c-0.58-1.551-0.886-3.21-0.886-4.867    c0-6.21,4.328-11.778,10.282-13.443c1.192-0.333,2.428-0.506,3.666-0.506C145.841,25.339,150.532,28.444,152.843,32.961z     M59.564,110.168c-0.256,0.003-0.51,0.005-0.765,0.005c-22.561,0-33.851-12.99-38.768-21.309    c10.39-4.166,26.792-13.705,31.588-33.425c3.048-12.529,14.479-36.226,35.926-36.226c7.893,0,16.635,3.091,26.052,9.2    c0.034,0.022-1.078,3.134-1.152,3.409c-1.504,5.6-1.238,11.751,0.737,17.24c-0.101,0.079-0.198,0.162-0.298,0.241    c-12.609,9.971-24.157,21.281-34.341,33.721C71.546,91.573,65.179,100.653,59.564,110.168z M33.004,228.34    c0-16.376,11.828-30.942,27.903-34.195c-1.249,6.089-2.158,12.286-2.524,18.494c-1.191,7.355,0.016,14.827,0.727,22.166    c0.929,9.582,2.596,19.013,4.987,28.23C46.638,261.131,33.004,246.298,33.004,228.34z M298.074,404.093    c-5.889,8.623-12.961,16.422-20.849,23.257c-4.984,4.318-10.299,8.253-15.85,11.813c-0.646,0.414-4.83,3.521-5.297,3.249    c-7.175-4.186-14.014-8.976-20.338-14.365c-8.804-7.502-16.606-16.151-22.927-25.847c-0.043-0.067-0.089-0.134-0.133-0.201    c6.997,1.492,14.106,2.611,21.298,3.37c0.113,0.012,0.226,0.024,0.338,0.036c14.427,1.499,29.015,1.515,43.44-0.008    c0.12-0.013,0.24-0.025,0.359-0.038c7.22-0.766,14.357-1.892,21.38-3.396c-0.043,0.066-0.088,0.133-0.131,0.199    C298.942,402.809,298.511,403.453,298.074,404.093z M192.381,396.546c0.03,0.061,0.062,0.124,0.092,0.186    c11.466,23.501,30.278,42.75,52.401,56.457c2.689,1.665,5.51,3.659,8.462,4.819c1.95,0.766,4.378,0.675,6.346-0.404    c19.701-10.797,37.244-25.628,50.132-44.116c3.565-5.114,6.764-10.497,9.532-16.083c0.152-0.306,0.306-0.612,0.455-0.919    c6.525-2.125,12.925-4.578,19.176-7.351c-1.823,5.168-4.285,11.092-7.601,17.449c-13.71,26.281-36.028,48.437-64.541,64.069    l-10.759,5.894l-10.756-5.893c-28.515-15.634-50.833-37.79-64.542-64.07c-3.3-6.328-5.755-12.223-7.575-17.368    C179.457,391.982,185.856,394.428,192.381,396.546z M93.126,448.535c4.532-25.972,14.881-50.953,29.771-72.69V497H90.911    C89.662,480.41,90.404,464.137,93.126,448.535z M137.897,369.05c5.483,3.93,11.148,7.573,16.981,10.912    c1.908,8.332,5.573,20.082,12.602,33.559c15.085,28.918,39.508,53.222,70.632,70.287l14.362,7.868    c2.193,1.202,4.972,1.224,7.207,0l14.365-7.87c31.122-17.063,55.545-41.368,70.63-70.286c7.046-13.51,10.714-25.298,12.62-33.658    c5.806-3.331,11.444-6.968,16.903-10.885V497H137.897V369.05z M421.087,497H389.2V376.022    c12.218,17.917,24.373,42.214,29.672,72.509C421.595,464.136,422.336,480.41,421.087,497z M385.239,340.386    c-30.398,29.046-70.777,46.847-112.617,50.428c-0.054,0.005-0.108,0.009-0.163,0.014c-10.951,0.937-21.984,0.937-32.936-0.001    c-0.05-0.004-0.099-0.008-0.148-0.012c-38.404-3.344-74.828-18.217-103.993-42.717c-0.026-0.022-0.055-0.041-0.082-0.063    c-23.294-19.018-47.34-49.31-53.932-79.344c-0.05-0.228-0.105-0.456-0.177-0.68c-5.833-18.253-9.473-38.726-7.564-57.917    c2.572-25.868,13.703-50.275,32.755-68.155c21.359-20.048,49.834-28.9,78.832-27.785c0.063,0.002,0.127,0.005,0.19,0.007    c21.609,0.858,41.01,7.165,57.86,18.79c3.332,2.299,6.117,5.657,9.934,7.179c2.498,0.996,5.409,0.615,7.569-1.183    c2.543-2.116,5.184-4.114,7.907-5.993c16.869-11.639,36.297-17.95,57.939-18.802c0.031-0.001,0.063-0.002,0.095-0.003    c16.46-0.633,33.146,1.613,48.441,7.894c28.635,11.76,50.793,36.563,59.486,66.244c7.53,25.71,4.216,54.532-3.828,79.726    c-0.068,0.214-0.12,0.431-0.169,0.648C421.98,295.45,406.574,320,385.239,340.386z M447.899,263.036    c2.387-9.204,4.054-18.623,4.984-28.192c1.275-13.112,1.281-27.243-1.348-40.592c1.634,0.352,3.237,0.803,4.803,1.389    c13.507,5.046,22.656,18.336,22.656,32.7C478.995,246.299,465.36,261.133,447.899,263.036z M453.2,110.173    c-0.254,0-0.509-0.001-0.766-0.005c-5.621-9.513-11.978-18.59-18.977-27.14c-9.898-12.091-21.076-23.082-33.265-32.853    c-0.062-0.05-1.404-1.034-1.375-1.111c0.009-0.025,0.015-0.051,0.024-0.076c1.784-4.918,2.14-10.346,1.103-15.468    c-0.09-0.445-1.538-5.111-1.543-5.108c9.417-6.109,18.16-9.2,26.052-9.2c21.447,0,32.878,23.696,35.926,36.226    c4.793,19.704,21.173,29.244,31.564,33.415C486.998,97.163,475.665,110.175,453.2,110.173z"/>
	</g>
</g>















</svg>
