<?xml version="1.0" encoding="iso-8859-1"?>
<!-- Generator: Adobe Illustrator 19.0.0, SVG Export Plug-In . SVG Version: 6.00 Build 0)  -->
<svg xmlns="http://www.w3.org/2000/svg" xmlns:xlink="http://www.w3.org/1999/xlink" version="1.1" id="Layer_1" x="0px" y="0px" viewBox="0 0 512 512" style="enable-background:new 0 0 512 512;" xml:space="preserve" width="512" height="512">
<g>
	<g>
		<rect x="213.075" y="413.766" style="fill:#AD4F3D;" width="31.774" height="70.535"/>
		<g>
			<path style="fill:#C86D5C;" d="M228.962,428.838c-63.493,0-123.186-24.725-168.083-69.622l20.856-20.856     c39.326,39.325,91.612,60.983,147.227,60.983c55.614,0,107.9-21.658,147.226-60.983c39.325-39.326,60.983-91.612,60.983-147.227     c0-55.615-21.658-107.901-60.983-147.226l20.856-20.856c44.897,44.896,69.622,104.589,69.622,168.082     s-24.725,123.187-69.622,168.083C352.148,404.113,292.455,428.838,228.962,428.838z"/>
		</g>
		<g>
			<path style="fill:#AD4F3D;" d="M118.902,367.953c-13.316-8.324-25.787-18.213-37.166-29.593l-20.856,20.856     c11.34,11.34,23.627,21.388,36.677,30.082L118.902,367.953z"/>
			<path style="fill:#AD4F3D;" d="M397.044,23.052l-20.856,20.856c11.379,11.379,21.269,23.85,29.593,37.166l21.345-21.345     C418.433,46.678,408.384,34.391,397.044,23.052z"/>
		</g>
		<path style="fill:#C86D5C;" d="M407.668,21.744l-9.316-9.317c-4.146-4.147-10.869-4.147-15.016,0L50.256,345.508    c-4.147,4.147-4.147,10.869,0,15.016l9.317,9.316c4.147,4.146,10.869,4.146,15.016,0l333.08-333.08    C411.815,32.613,411.815,25.891,407.668,21.744z"/>
		<path style="fill:#58B78C;" d="M345.243,121.302l-41.404-91.108L278.05,14.136C262.428,9.81,245.96,7.5,228.961,7.5    c-60.101,0-113.468,28.876-146.965,73.522L64.121,125.89l8.937,60.449l53.54,82.826l78.923,52.705l44.243,31.462l37.921,11.847    c13.696-4.621,26.664-10.805,38.698-18.356v-0.02l36.446-55.084l5.899-55.713L345.243,121.302z"/>
		<path style="fill:#6EE3FF;" d="M287.686,365.179c-18.444,6.214-38.187,9.586-58.725,9.586    c-101.415,0-183.628-82.213-183.628-183.628c0-41.313,13.646-79.441,36.663-110.116c-0.354,89.439,41.598,52.738,51.43,115.661    c8.17,52.285,47.566-1.789,56.513,44.263c6.194,31.875,22.937,60.741,47.694,81.751L287.686,365.179z"/>
		<path style="fill:#46926F;" d="M73.058,186.339l2.288,3.539c0.275-40.828,13.868-78.494,36.65-108.857    c30.673-40.882,78.011-68.523,131.919-72.897c-1.691-0.136-3.391-0.244-5.094-0.338c-3.284-0.181-6.571-0.287-9.86-0.287    c-26.294,0-51.3,5.527-73.916,15.484c-28.797,12.678-54.17,32.875-73.049,58.038L64.121,125.89L73.058,186.339z"/>
		<path style="fill:#42C3E2;" d="M232.757,374.726c3.778-0.077,7.527-0.269,11.245-0.571    c-94.417-7.613-168.669-86.641-168.669-183.018c0-23.214,4.309-45.422,12.168-65.868c-3.452-9.959-5.586-23.801-5.506-44.248    c-1.438,1.917-2.84,3.864-4.205,5.838c-21.087,30.517-32.458,67.196-32.458,104.278c0,37.87,11.93,75.436,33.878,106.3    c11.094,15.6,24.564,29.391,39.882,40.847c31.582,23.619,70.437,36.48,109.867,36.48    C229.351,374.765,231.882,374.741,232.757,374.726z"/>
		<path style="fill:#6EE3FF;" d="M412.588,191.137c0,65.627-34.431,123.211-86.205,155.686v-0.02c0,0,23.341-38.039,18.09-67.534    c-5.24-29.495-28.178-9.635-30.144-53.327c-1.966-43.682-137.645-15.495-64.565-54.173c73.079-38.668,67.957-53.622,45.609-71.378    c-22.338-17.756,8.691-50.496-17.314-86.234c0-0.01-0.01-0.01-0.01-0.02C355.633,35.609,412.588,106.712,412.588,191.137z"/>
		<path style="fill:#C86D5C;" d="M247.622,464.103h-37.319c-22.311,0-40.397,18.086-40.397,40.397v0h118.114v0    C288.019,482.189,269.932,464.103,247.622,464.103z"/>
	</g>
	<g>
		<path d="M402.348,364.519c46.313-46.312,71.818-107.888,71.818-173.385c0-25.545-3.89-50.698-11.563-74.761    c-1.258-3.947-5.479-6.125-9.424-4.867c-3.946,1.258-6.125,5.478-4.867,9.424c7.202,22.587,10.854,46.208,10.854,70.204    c0,61.491-23.945,119.3-67.425,162.779c-39.854,39.855-91.753,63.282-147.487,66.913c-8.526,0.554-17.068,0.643-25.604,0.278    c-49.02-2.188-96.013-19.926-134.071-50.648l10.318-10.317c37.936,30.167,85.269,46.705,134.065,46.705    c57.618,0,111.787-22.438,152.53-63.179c40.742-40.743,63.179-94.913,63.179-152.53c0-48.797-16.538-96.129-46.705-134.065    l10.319-10.319c11.805,14.608,21.754,30.562,29.632,47.527c1.744,3.757,6.204,5.389,9.961,3.644    c3.757-1.744,5.388-6.204,3.644-9.961c-8.927-19.224-20.352-37.225-33.989-53.578c1.807-6.157,0.288-13.092-4.56-17.941    c0,0-9.312-9.312-9.316-9.316c-6.982-6.982-18.648-6.976-25.623-0.001l-32.558,32.559c-19.472-14.977-41.747-26.221-65.423-32.775    C263.499,2.324,246.309,0,228.961,0C169.193,0,111.859,28.725,75.997,76.52c-24.967,33.274-38.164,72.908-38.164,114.617    c0,15.401,1.852,30.764,5.505,45.663c0.986,4.022,5.045,6.483,9.07,5.498c4.023-0.986,6.484-5.047,5.498-9.07    c-3.367-13.73-5.074-27.892-5.074-42.09c0-30.768,7.792-60.31,22.7-86.597c1.048,10.033,2.864,17.985,5.306,24.542    c5.622,15.427,14.225,22.319,22.66,29.07c10.006,8.009,18.647,14.927,22.517,39.688c1.006,6.439,2.641,12.999,5.922,18.687    c5.536,9.677,13.44,12.214,20.973,12.519c5.831,0.237,11.564-1.058,17.378-1.058c2.237,0,4.521,0.228,6.418,1.53    c2.303,1.698,4.398,5.282,5.869,12.857c6.518,33.539,24.347,64.095,50.203,86.039l39.465,33.496    c-14.087,3.557-28.593,5.354-43.284,5.354c-49.597,0-96.073-20.973-128.88-56.107c-0.074-0.08-0.149-0.16-0.224-0.24    c-12.641-13.595-23.109-29.181-30.89-46.036c-1.907-4.127-5.806-7.171-10.511-5.032c-3.774,1.706-5.452,6.149-3.746,9.923    c6.172,13.656,13.846,26.343,22.767,37.908l-32.524,32.524c-7.064,7.064-7.064,18.558,0,25.622c0,0,9.313,9.312,9.317,9.316    c4.648,4.648,11.646,6.419,17.948,4.564c37.87,31.561,84.392,50.83,133.358,55.505v21.625c-24.2,2.382-43.17,22.846-43.17,47.662    c0,4.142,3.358,7.5,7.5,7.5h118.114c4.142,0,7.5-3.358,7.5-7.5c0-24.815-18.97-45.28-43.17-47.662v-21.604    C309.016,429.907,361.593,405.275,402.348,364.519z M357.073,49.298l31.567-31.567c1.206-1.206,3.208-1.202,4.41,0l9.316,9.316    c1.216,1.216,1.215,3.194,0,4.41l-31.569,31.569c-0.078-0.086-0.159-0.169-0.237-0.255    C366.294,58.063,361.784,53.559,357.073,49.298z M356.813,70.008c0.015,0.016,0.029,0.031,0.044,0.047    c30.771,32.823,48.231,76.021,48.231,121.082c0,51.155-21.717,98.653-59.237,131.81c0.073-0.202,0.143-0.411,0.216-0.615    c5.015-14.083,8.451-29.428,5.791-44.376c-2.455-13.818-8.589-19.395-14.345-23.118c-3.519-2.276-7.528-4.088-10.191-7.444    c-2.922-3.683-4.955-9.679-5.5-21.791c-0.508-11.275-7.339-19.941-20.289-25.83c-15.208-6.915-32.322-8.329-48.68-10.499    c-4.92-0.653-10.216-1.415-13.966-2.261c2.568-1.888,19.978-11.603,22.619-13.052c38.211-20.974,54.573-35.923,55.946-50.757    c1.148-12.401-8.523-21.624-17.412-28.686c-6.98-5.549-6.438-13.168-4.775-27.275c1.577-13.381,2.415-27-1.962-39.971    c-0.017-0.051-0.03-0.101-0.048-0.152C317.194,36.553,339.019,51.279,356.813,70.008z M197.301,239.515    c-1.64-8.445-4.915-17.4-12.336-22.427c-4.004-2.728-8.876-4.099-14.676-4.099c-7.118,0-18.457,4.132-24.062-2.038    c-3.724-4.1-4.57-10.171-5.391-15.426c-4.769-30.517-17.091-40.38-27.963-49.083c-7.212-5.773-13.507-11.889-17.156-20.543    c-5.083-12.053-5.939-25.724-6.175-38.652c-0.012-0.686-0.455-3.168-0.037-3.705c15.872-20.536,36.365-37.565,59.41-49.344    C173.836,21.458,200.767,15,228.961,15c15.086,0,30.036,1.905,44.481,5.664c3.376,5.106,5.81,10.807,7.089,16.797    c1.975,9.247,0.933,18.743-0.162,28.027c-1.725,14.634-3.508,29.767,10.34,40.774c4.557,3.621,12.437,8.796,11.808,15.559    c-0.793,8.567-16.414,21.341-46.47,38.018c-3.109,1.725-6.373,3.492-9.791,5.301c-17.348,9.182-27.068,16.278-25.42,25.38    c1.582,8.736,11.6,11.096,27.087,13.23c3,0.413,6.005,0.849,9.014,1.184c18.65,2.421,42.17,5.803,48.362,16.228    c0.917,1.545,1.454,3.244,1.539,5.117c1.185,26.34,9.704,33.489,19.878,39.537c5.404,3.212,8.665,5.15,10.374,14.768    c3.646,20.519-5.913,42.362-15.725,59.912c-0.177,0.316-0.354,0.632-0.534,0.946c-9.98,6.116-20.576,11.229-31.57,15.237    l-46.776-39.701C219.218,297.231,203.171,269.72,197.301,239.515z M290.081,372.286L290.081,372.286    c0.002,0,0.002-0.001,0.002-0.001c14.113-4.762,27.667-11.191,40.287-19.11c0,0,0.001-0.001,0.002-0.001    c26.925-16.889,49.421-40.427,65.057-68.069c16.132-28.52,24.659-61.014,24.659-93.968c0-42.6-13.706-82.899-39.636-116.555    l6.828-6.828c27.389,35.058,42.391,78.55,42.391,123.379c0,53.611-20.877,104.013-58.786,141.923    c-37.91,37.909-88.312,58.786-141.923,58.786c-44.829,0-88.321-15.002-123.38-42.391l6.875-6.875    c32.809,25.205,73.577,39.687,116.504,39.687C249.864,382.265,270.427,378.907,290.081,372.286z M55.559,355.22    c-1.215-1.216-1.215-3.193,0-4.409l31.568-31.567c4.339,4.798,8.927,9.388,13.725,13.726c0,0-31.498,31.498-31.567,31.567    c-1.194,1.194-3.217,1.193-4.409,0.001L55.559,355.22z M279.657,497H178.268c3.403-14.537,16.475-25.397,32.035-25.397h37.32    C263.182,471.603,276.254,482.462,279.657,497z M237.349,436.189v20.413h-16.774v-20.407c0.661,0.022,1.318,0.033,1.977,0.05    C227.483,436.375,232.421,436.36,237.349,436.189z"/>
	</g>
</g>















</svg>
