<?xml version="1.0" encoding="iso-8859-1"?>
<!-- Generator: Adobe Illustrator 19.0.0, SVG Export Plug-In . SVG Version: 6.00 Build 0)  -->
<svg xmlns="http://www.w3.org/2000/svg" xmlns:xlink="http://www.w3.org/1999/xlink" version="1.1" id="Layer_1" x="0px" y="0px" viewBox="0 0 511.833 511.833" style="enable-background:new 0 0 511.833 511.833;" xml:space="preserve" width="512" height="512">
<g>
	<g>
		<path style="fill:#FF98C9;" d="M494.492,86.982L424.85,17.34c-13.232-13.232-34.684-13.231-47.916,0l-42.683,42.683l42.306,75.252    l75.252,42.306l42.683-42.683C507.724,121.666,507.724,100.214,494.492,86.982z"/>
		<path style="fill:#EB6DA8;" d="M355.465,81.236l42.683-42.683c13.231-13.231,34.684-13.232,47.916,0L424.85,17.34    c-13.232-13.232-34.684-13.231-47.916,0l-42.683,42.683l42.306,75.252l13.579,7.634L355.465,81.236z"/>
		<polygon style="fill:#FA9F6A;" points="152.673,453.011 56.575,356.913 22.761,371.514 13.086,443.202 28.876,482.957     68.631,498.746 140.318,489.072   "/>
		<polygon style="fill:#6EE3FF;" points="376.557,135.275 301.305,92.969 253.384,140.891 295.689,216.143 370.941,258.449     418.863,210.527   "/>
		<polygon style="fill:#42C3E2;" points="274.597,162.104 322.518,114.182 384.191,148.854 376.557,135.275 301.305,92.969     253.384,140.891 295.69,216.143 309.269,223.777   "/>
		<polygon style="fill:#6EE3FF;" points="140.318,489.072 134.338,455.866 101.132,449.886 95.152,416.68 61.947,410.7     55.967,377.494 22.761,371.514 220.437,173.837 337.995,291.395   "/>
		<polygon style="fill:#42C3E2;" points="241.651,195.05 220.437,173.837 22.761,371.514 55.967,377.494 56.461,380.24   "/>
		<path style="fill:#FADC60;" d="M451.809,177.581L334.251,60.023c-9.098-9.098-23.848-9.098-32.946,0l0,0    c-9.098,9.098-9.098,23.848,0,32.946l117.558,117.558c9.098,9.098,23.848,9.098,32.946,0l0,0    C460.907,201.429,460.907,186.679,451.809,177.581z"/>
		<path style="fill:#E6CB59;" d="M322.518,81.236L322.518,81.236c9.098-9.098,23.848-9.098,32.946,0l-21.213-21.213    c-9.098-9.098-23.848-9.098-32.946,0l0,0c-9.098,9.098-9.098,23.848,0,32.946l21.213,21.213    C313.421,105.085,313.421,90.334,322.518,81.236z"/>
		<path style="fill:#FADC60;" d="M370.941,258.449L253.384,140.891c-9.098-9.098-23.848-9.098-32.946,0l0,0    c-9.098,9.098-9.098,23.848,0,32.946l117.558,117.558c9.098,9.098,23.848,9.098,32.946,0l0,0    C380.039,282.297,380.039,267.547,370.941,258.449z"/>
		<path style="fill:#E6CB59;" d="M241.651,162.104L241.651,162.104c9.098-9.098,23.848-9.098,32.946,0l-21.213-21.213    c-9.098-9.098-23.848-9.098-32.946,0l0,0c-9.098,9.098-9.098,23.848,0,32.946l21.213,21.213    C232.553,185.952,232.553,171.202,241.651,162.104z"/>
		<path style="fill:#3A484A;" d="M68.631,498.746l-40.786,5.504c-11.793,1.595-21.857-8.469-20.262-20.262l5.504-40.786    L68.631,498.746z"/>
	</g>
	<g>
		<path d="M482.493,74.833c-2.929,2.929-2.929,7.678,0,10.606c0,0,6.766,6.766,6.771,6.771c10.173,10.173,10.163,27.146,0,37.309    l-37.38,37.38L344.932,59.949c0,0,37.359-37.359,37.38-37.38c10.173-10.173,27.146-10.163,37.309,0l41.658,41.658    c2.929,2.929,7.678,2.929,10.606,0c2.929-2.929,2.929-7.678,0-10.606c0,0-41.638-41.638-41.658-41.658    c-15.957-15.957-42.58-15.943-58.522,0l-38.027,38.027c-4.732-2.845-10.162-4.364-15.825-4.364    c-16.771,0-30.797,14.048-30.797,30.796c0,5.664,1.519,11.094,4.364,15.826l-38.609,38.609    c-4.732-2.845-10.162-4.364-15.825-4.364c-16.785,0-30.797,14.036-30.797,30.796c0,5.664,1.519,11.094,4.364,15.826    l-121.3,121.299c-2.929,2.929-2.929,7.678,0,10.606c2.929,2.929,7.678,2.929,10.606,0l120.653-120.652L327.464,291.32    L145.233,473.552l-3.438-19.089c-0.555-3.083-2.969-5.497-6.052-6.052l-28.078-5.057l-5.056-28.077    c-0.555-3.083-2.969-5.497-6.052-6.052l-28.078-5.056l-5.056-28.078c-0.555-3.083-2.969-5.497-6.052-6.052L38.282,366.6    l40.365-40.365c2.929-2.929,2.929-7.678,0-10.606c-2.929-2.929-7.678-2.929-10.606,0l-50.508,50.508    c-1.145,1.145-1.913,2.695-2.129,4.3l-9.674,71.688c0,0-5.501,40.768-5.503,40.784c-2.214,16.41,12.29,30.917,28.697,28.7    l40.786-5.503c0,0,71.681-9.673,71.688-9.674c1.598-0.216,3.159-0.988,4.3-2.129l193.02-193.021    c4.732,2.845,10.162,4.364,15.826,4.364c16.784,0,30.797-14.036,30.797-30.796c0-5.664-1.519-11.094-4.364-15.826l38.609-38.609    c4.732,2.845,10.162,4.364,15.826,4.364c23.516,0,38.472-26.48,26.424-46.613c0,0,38.016-38.016,38.036-38.036    c15.954-15.954,15.941-42.581,0-58.522l-6.771-6.771C490.17,71.904,485.421,71.904,482.493,74.833z M26.914,496.743    c-6.768,0.913-12.737-5.078-11.824-11.827l3.478-25.775l34.123,34.123C52.692,493.264,26.944,496.739,26.914,496.743z     M71.383,490.742L21.091,440.45l8.129-60.24l20.364,3.667l5.056,28.078c0.555,3.083,2.969,5.497,6.052,6.052l28.078,5.056    l5.056,28.077c0.555,3.083,2.969,5.497,6.052,6.052l28.078,5.057l3.667,20.364L71.383,490.742z M365.713,286.017    c-5.991,5.991-16.197,6.142-22.34,0c0,0-117.419-117.419-117.557-117.557c-6.095-6.095-6.091-16.247-0.001-22.34    c6.096-6.098,16.251-6.09,22.34,0c0,0,117.402,117.402,117.558,117.558C371.785,269.75,371.77,279.96,365.713,286.017z     M371.016,247.768L264.065,140.817l37.315-37.315l106.951,106.951L371.016,247.768z M446.581,205.15    c-6.075,6.076-16.274,6.066-22.34,0c0,0-117.463-117.463-117.558-117.558c-6.084-6.084-6.073-16.267,0-22.339    c6.098-6.098,16.245-6.095,22.34,0L446.581,182.81C452.739,188.969,452.74,198.99,446.581,205.15z"/>
	</g>
</g>















</svg>
