<?xml version="1.0" encoding="iso-8859-1"?>
<!-- Generator: Adobe Illustrator 19.0.0, SVG Export Plug-In . SVG Version: 6.00 Build 0)  -->
<svg xmlns="http://www.w3.org/2000/svg" xmlns:xlink="http://www.w3.org/1999/xlink" version="1.1" id="Layer_1" x="0px" y="0px" viewBox="0 0 511.857 511.857" style="enable-background:new 0 0 511.857 511.857;" xml:space="preserve" width="512" height="512">
<g>
	<g>
		<g>
			<path style="fill:#E36465;" d="M481.416,151.553c-20.871,20.871-54.831,20.871-75.702,0c-20.871-20.871-20.871-54.831,0-75.702     s54.831-20.871,75.702,0C502.287,96.722,502.287,130.682,481.416,151.553z M426.084,96.221c-9.639,9.639-9.639,25.323,0,34.962     c9.639,9.639,25.322,9.639,34.962,0c9.639-9.639,9.639-25.323,0-34.962C451.407,86.583,435.723,86.582,426.084,96.221z"/>
		</g>
		<path style="fill:#FD6F71;" d="M236.171,136.238l-96.377,96.377c-3.938,3.938-3.938,10.321,0,14.259    c3.937,3.938,3.938,10.321,0,14.259l-26.481,26.481c-3.938,3.938-10.322,3.938-14.259,0c-3.938-3.938-10.321-3.938-14.259,0    L13.938,358.47c-8.68,8.68-8.68,22.753,0,31.433l55.264,55.264c9.169,9.169,24.169,8.528,32.613-1.312    c17.149-19.986,48.903-49.957,92.837-62.007c30.046-8.241,61.929-5.064,90.472,7.423c57.306,25.07,126.56,14.161,173.46-32.739    c61.144-61.144,61.125-160.291-0.057-221.411C397.221,73.877,297.446,74.962,236.171,136.238z"/>
		<circle style="fill:#E36465;" cx="347.907" cy="245.856" r="116.191"/>
	</g>
	<g>
		<path d="M260.373,158.461c-48.227,48.227-48.227,126.698,0,174.924c24.116,24.117,55.784,36.173,87.462,36.17    c31.67-0.003,63.352-12.06,87.462-36.17c14.8-14.8,25.661-33.204,31.409-53.222c1.143-3.981-1.158-8.136-5.139-9.279    c-3.985-1.141-8.135,1.159-9.279,5.139c-5.047,17.581-14.59,33.748-27.597,46.755c-42.379,42.378-111.333,42.378-153.712,0    c-42.378-42.378-42.378-111.333,0-153.711c42.379-42.378,111.333-42.378,153.712,0c21.248,21.248,32.823,50.674,31.758,80.732    c-0.147,4.14,3.09,7.614,7.229,7.761c4.124,0.15,7.614-3.09,7.761-7.229c1.213-34.204-11.96-67.689-36.142-91.87    C387.072,110.233,308.6,110.233,260.373,158.461z"/>
		<path d="M93.04,248.444c1.924,0.004,3.859-0.695,5.304-2.14c2.929-2.929,2.929-7.678,0-10.606l-13.071-13.071    c-2.929-2.929-7.678-2.929-10.606,0c-2.929,2.929-2.929,7.678,0,10.606c0,0,13.066,13.066,13.071,13.071    C89.146,247.712,91.087,248.44,93.04,248.444z"/>
		<path d="M52.828,255.228c-4.142,0-7.5,3.358-7.5,7.5s3.358,7.5,7.5,7.5h18.485c4.142,0,7.5-3.358,7.5-7.5s-3.358-7.5-7.5-7.5    H52.828z"/>
		<path d="M114.769,226.772c4.142,0,7.5-3.358,7.5-7.5v-18.485c0-4.142-3.358-7.5-7.5-7.5s-7.5,3.358-7.5,7.5v18.485    C107.269,223.414,110.627,226.772,114.769,226.772z"/>
		<path d="M486.648,156.924c11.511-11.511,17.85-26.836,17.85-43.154s-6.339-31.644-17.85-43.154s-26.836-17.85-43.154-17.85    c-16.317,0-31.644,6.339-43.154,17.85c-4.898,4.898-8.847,10.464-11.798,16.603c-12.972-3.246-26.446-4.92-40.191-4.92    c-44.399,0-86.148,17.296-117.555,48.704l-96.377,96.377c-6.855,6.855-6.855,18.01,0.001,24.867    c0.999,0.999,0.997,2.653-0.001,3.651l-26.482,26.482c-1,0.999-2.654,0.997-3.652-0.001c-6.778-6.778-18.094-6.771-24.865,0    c0,0-70.782,70.782-70.856,70.856c-11.432,11.432-11.405,30.635,0,42.039c0,0,55.215,55.215,55.264,55.264    c12.101,12.101,32.499,11.216,43.608-1.731c18.026-21.008,48.122-48.411,89.129-59.658c10.398-2.852,21.234-4.298,32.207-4.298    c18.121,0,36.045,3.822,53.276,11.359c20.821,9.109,42.959,13.729,65.808,13.73c43.8,0,84.985-17.061,115.96-48.036    c30.99-30.99,48.051-72.193,48.041-116.02c-0.007-31.814-9.018-62.238-25.813-88.376    C486.245,157.313,486.452,157.121,486.648,156.924z M410.946,81.222c15.993-15.995,42.263-17.849,60.296-4.186    c11.375,8.619,18.256,22.36,18.256,36.733c0,11.737-4.344,22.791-12.269,31.316c-1.365-1.744-2.776-3.458-4.216-5.153    c-0.394-0.464-4.899-5.373-4.831-5.454c4.869-5.789,7.521-13.042,7.522-20.709c0-8.614-3.348-16.706-9.426-22.784    c-12.41-12.409-33.171-12.398-45.569,0c-1.765,1.765-3.313,3.731-4.619,5.847c-4.238-1.924-8.556-3.67-12.95-5.221    C405.217,87.82,407.826,84.343,410.946,81.222z M429.526,103.705c0.536-0.743,1.128-1.451,1.79-2.113    c6.627-6.63,17.733-6.621,24.355,0c5.907,5.906,6.655,15.543,1.742,22.289C448.777,116.119,439.431,109.375,429.526,103.705z     M453.21,351.297c-42.887,42.887-109.578,55.481-165.15,31.17c-29.879-13.071-63.886-16.445-95.462-7.785    c-44.665,12.25-77.154,41.758-96.544,64.355c-5.518,6.431-15.617,6.895-21.619,0.893c0,0-55.193-55.193-55.264-55.264    c-5.682-5.682-5.67-15.156,0-20.826l70.856-70.857c1-0.999,2.656-0.996,3.652,0c6.776,6.776,18.097,6.769,24.866,0    c0,0,26.47-26.47,26.481-26.481c6.779-6.779,6.772-18.093,0-24.865c-1.007-1.007-1.007-2.646,0-3.653l96.377-96.377    c28.574-28.574,66.556-44.31,106.948-44.31c47.898,0,94.164,23.948,121.621,63.205c0.043,0.061,0.092,0.116,0.137,0.176    C512.66,217.715,502.526,301.981,453.21,351.297z"/>
	</g>
</g>















</svg>
