<?xml version="1.0" encoding="iso-8859-1"?>
<!-- Generator: Adobe Illustrator 19.0.0, SVG Export Plug-In . SVG Version: 6.00 Build 0)  -->
<svg xmlns="http://www.w3.org/2000/svg" xmlns:xlink="http://www.w3.org/1999/xlink" version="1.1" id="Layer_1" x="0px" y="0px" viewBox="0 0 512 512" style="enable-background:new 0 0 512 512;" xml:space="preserve" width="512" height="512">
<g>
	<g>
		<path style="fill:#EFEDEE;" d="M432.376,48.055H121.032c-14.325,0-25.94,11.615-25.94,25.94V478.56    c0,14.325,11.615,25.94,25.94,25.94h311.344c27.727,0,50.209-22.482,50.209-50.209V98.264    C482.585,70.537,460.103,48.055,432.376,48.055z"/>
		<path style="fill:#D2D2D2;" d="M432.376,48.055H121.032c-14.325,0-25.94,11.615-25.94,25.94V478.56    c0,2.566,0.379,5.043,1.073,7.385h297.364c39.816,0,72.209-32.393,72.209-72.209V60.756    C456.868,52.86,445.185,48.055,432.376,48.055z"/>
		<path style="fill:#42C3E2;" d="M122.285,7.5H82.186c-14.325,0-25.94,11.615-25.94,25.94v404.566    c0,14.325,11.615,25.94,25.94,25.94h40.099l39.818-228.223L122.285,7.5z"/>
		<path style="fill:#6EE3FF;" d="M443.739,57.709v356.027c0,27.727-22.482,50.209-50.209,50.209H122.285V7.5H393.53    C421.257,7.5,443.739,29.982,443.739,57.709z"/>
		<g>
			<path style="fill:#3A484A;" d="M68.877,64.787H43.616c-7.843,0-14.202,6.358-14.202,14.202c0,7.843,6.358,14.202,14.202,14.202     h25.261c7.843,0,14.202-6.358,14.202-14.202C83.078,71.145,76.72,64.787,68.877,64.787z"/>
			<path style="fill:#3A484A;" d="M68.877,190.174H43.616c-7.843,0-14.202,6.358-14.202,14.202c0,7.843,6.358,14.202,14.202,14.202     h25.261c7.843,0,14.202-6.358,14.202-14.202C83.078,196.532,76.72,190.174,68.877,190.174z"/>
			<path style="fill:#3A484A;" d="M68.877,127.48H43.616c-7.843,0-14.202,6.358-14.202,14.202c0,7.843,6.358,14.202,14.202,14.202     h25.261c7.843,0,14.202-6.358,14.202-14.202C83.078,133.839,76.72,127.48,68.877,127.48z"/>
			<path style="fill:#3A484A;" d="M68.877,252.868H43.616c-7.843,0-14.202,6.358-14.202,14.202c0,7.843,6.358,14.202,14.202,14.202     h25.261c7.843,0,14.202-6.358,14.202-14.202C83.078,259.226,76.72,252.868,68.877,252.868z"/>
			<path style="fill:#3A484A;" d="M68.877,315.562H43.616c-7.843,0-14.202,6.358-14.202,14.202c0,7.843,6.358,14.202,14.202,14.202     h25.261c7.843,0,14.202-6.358,14.202-14.202C83.078,321.92,76.72,315.562,68.877,315.562z"/>
			<path style="fill:#3A484A;" d="M68.877,378.255H43.616c-7.843,0-14.202,6.358-14.202,14.202c0,7.843,6.358,14.202,14.202,14.202     h25.261c7.843,0,14.202-6.358,14.202-14.202C83.078,384.614,76.72,378.255,68.877,378.255z"/>
		</g>
		<path style="fill:#EFEDEE;" d="M373.514,86.146H192.51c-9.544,0-17.282,7.737-17.282,17.282v69.464    c0,9.544,7.737,17.282,17.282,17.282h181.004c9.544,0,17.282-7.737,17.282-17.282v-69.464    C390.795,93.884,383.058,86.146,373.514,86.146z"/>
	</g>
	<g>
		<path d="M398.296,172.892v-69.464c0-13.665-11.117-24.782-24.782-24.782H192.51c-13.665,0-24.782,11.117-24.782,24.782v69.464    c0,13.665,11.117,24.782,24.782,24.782h181.004C387.179,197.674,398.296,186.557,398.296,172.892z M383.296,172.892    c0,5.394-4.388,9.782-9.782,9.782H192.51c-5.394,0-9.782-4.388-9.782-9.782v-69.464c0-5.394,4.388-9.782,9.782-9.782h181.004    c5.394,0,9.782,4.388,9.782,9.782V172.892z"/>
		<path d="M346.623,113.392H219.401c-4.142,0-7.5,3.358-7.5,7.5s3.358,7.5,7.5,7.5h127.222c4.142,0,7.5-3.358,7.5-7.5    S350.765,113.392,346.623,113.392z"/>
		<path d="M320.078,142.527h-74.132c-4.142,0-7.5,3.358-7.5,7.5s3.358,7.5,7.5,7.5h74.132c4.142,0,7.5-3.358,7.5-7.5    S324.22,142.527,320.078,142.527z"/>
		<path d="M196.144,299.255v15.494c0,4.142,3.358,7.5,7.5,7.5s7.5-3.358,7.5-7.5v-15.494c0-4.142-3.358-7.5-7.5-7.5    S196.144,295.113,196.144,299.255z"/>
		<path d="M367.368,299.255v15.494c0,4.142,3.358,7.5,7.5,7.5s7.5-3.358,7.5-7.5v-15.494c0-4.142-3.358-7.5-7.5-7.5    S367.368,295.113,367.368,299.255z"/>
		<path d="M304.739,308.735c-3.769,4.312-9.412,6.785-15.483,6.785c-6.071,0-11.715-2.473-15.483-6.785    c-2.727-3.119-7.464-3.437-10.583-0.711c-3.119,2.726-3.437,7.464-0.711,10.583c6.617,7.57,16.377,11.913,26.777,11.913    c10.399,0,20.16-4.342,26.777-11.913c2.726-3.119,2.408-7.857-0.711-10.583C312.203,305.298,307.465,305.616,304.739,308.735z"/>
		<path d="M449.365,43.113C442.883,18.337,420.31,0,393.53,0H209.097c-4.142,0-7.5,3.358-7.5,7.5s3.358,7.5,7.5,7.5    c0,0,184.343,0,184.433,0c23.032,0,42.709,19.664,42.709,42.709v356.027c0,23.55-19.159,42.709-42.709,42.709H129.785V15h49.312    c4.142,0,7.5-3.358,7.5-7.5s-3.358-7.5-7.5-7.5H82.186C63.748,0,48.747,15.001,48.747,33.439v23.847h-5.13    c-11.966,0-21.702,9.735-21.702,21.702s9.735,21.702,21.702,21.702h5.13v19.29h-5.13c-11.966,0-21.702,9.735-21.702,21.702    s9.735,21.702,21.702,21.702h5.13v19.291h-5.13c-11.966,0-21.702,9.735-21.702,21.702s9.735,21.702,21.702,21.702h5.13v19.291    h-5.13c-11.966,0-21.702,9.735-21.702,21.702s9.735,21.702,21.702,21.702h5.13v19.291h-5.13c-11.966,0-21.702,9.735-21.702,21.702    s9.735,21.702,21.702,21.702h5.13v19.291h-5.13c-11.966,0-21.702,9.735-21.702,21.702s9.735,21.702,21.702,21.702h5.13v23.847    c0,18.439,15.001,33.44,33.439,33.44h5.407v7.115c0,18.438,15.001,33.439,33.44,33.439h242.731c4.142,0,7.5-3.358,7.5-7.5    s-3.358-7.5-7.5-7.5H121.033c-10.168,0-18.44-8.272-18.44-18.439v-7.115H393.53c31.821,0,57.709-25.888,57.709-57.709V59.957    c14.262,7.071,23.846,21.868,23.846,38.307v356.027c0,23.55-19.159,42.709-42.709,42.709h-38.613c-4.142,0-7.5,3.358-7.5,7.5    s3.358,7.5,7.5,7.5h38.613c31.821,0,57.709-25.888,57.709-57.709V98.264C490.085,72.928,473.231,50.479,449.365,43.113z     M36.915,78.988c0-3.695,3.006-6.702,6.702-6.702h25.261c3.695,0,6.702,3.006,6.702,6.702c0,3.695-3.006,6.701-6.702,6.701    l-25.261,0C39.921,85.69,36.915,82.684,36.915,78.988z M36.915,141.682c0-3.695,3.006-6.702,6.702-6.702l25.261,0    c3.695,0,6.702,3.006,6.702,6.701c0,3.695-3.006,6.702-6.702,6.702H43.616C39.921,148.383,36.915,145.377,36.915,141.682z     M36.915,204.375c0-3.695,3.006-6.702,6.702-6.702h25.261c3.695,0,6.702,3.006,6.702,6.702s-3.006,6.702-6.702,6.702H43.616    C39.921,211.077,36.915,208.071,36.915,204.375z M36.915,267.069c0-3.695,3.006-6.702,6.702-6.702h25.261    c3.695,0,6.702,3.006,6.702,6.702s-3.006,6.702-6.702,6.702H43.616C39.921,273.771,36.915,270.765,36.915,267.069z     M36.915,329.763c0-3.695,3.006-6.702,6.702-6.702h25.261c3.695,0,6.702,3.006,6.702,6.702s-3.006,6.702-6.702,6.702H43.616    C39.921,336.465,36.915,333.458,36.915,329.763z M36.915,392.457c0-3.695,3.006-6.702,6.702-6.702h25.261    c3.695,0,6.702,3.006,6.702,6.702c0,3.695-3.006,6.701-6.702,6.701l-25.261,0C39.921,399.159,36.915,396.152,36.915,392.457z     M82.186,456.445c-10.167,0-18.439-8.272-18.439-18.44v-23.847c0,0,5.128,0,5.13,0c11.721,0,21.702-9.983,21.702-21.702    c0-11.967-9.735-21.702-21.702-21.702h-5.13v-19.29h5.13c11.966,0,21.702-9.735,21.702-21.702s-9.735-21.702-21.702-21.702h-5.13    v-19.291h5.13c11.966,0,21.702-9.735,21.702-21.702s-9.735-21.702-21.702-21.702h-5.13v-19.291h5.13    c11.966,0,21.702-9.735,21.702-21.702s-9.735-21.702-21.702-21.702h-5.13v-19.29c0,0,5.126,0,5.13,0    c12.135,0,22.29-10.704,21.673-22.817c-0.582-11.45-10.081-20.587-21.673-20.587h-5.13v-19.29c0,0,5.127,0,5.13,0    c11.751,0,21.702-9.965,21.702-21.702c0-11.967-9.735-21.702-21.702-21.702h-5.13V33.439C63.747,23.272,72.019,15,82.186,15    h32.599v441.445H82.186z"/>
	</g>
</g>















</svg>
