<?xml version="1.0" encoding="iso-8859-1"?>
<!-- Generator: Adobe Illustrator 19.0.0, SVG Export Plug-In . SVG Version: 6.00 Build 0)  -->
<svg xmlns="http://www.w3.org/2000/svg" xmlns:xlink="http://www.w3.org/1999/xlink" version="1.1" id="Layer_1" x="0px" y="0px" viewBox="0 0 512 512" style="enable-background:new 0 0 512 512;" xml:space="preserve" width="512" height="512">
<g>
	<g>
		<g>
			<path style="fill:#B8B8B8;" d="M487.933,241.136v35.616c0,77.694-63.209,140.903-140.904,140.903     c-8.668,0-15.695-7.027-15.695-15.695s7.027-15.695,15.695-15.695c60.387,0,109.515-49.128,109.515-109.514v-35.616H487.933z"/>
		</g>
		<path style="fill:#999999;" d="M486.939,225.493h-29.401c-8.639,0-15.643,7.004-15.643,15.643v0    c0,8.639,7.004,15.643,15.643,15.643h29.401c8.639,0,15.643-7.004,15.643-15.643v0    C502.581,232.497,495.578,225.493,486.939,225.493z"/>
		<path style="fill:#D2D2D2;" d="M47.085,289.864v169.844c0,24.738,20.054,44.793,44.793,44.793h241.748    c24.738,0,44.793-20.054,44.793-44.793V289.864H47.085z"/>
		<path style="fill:#B8B8B8;" d="M47.085,375.135c0.227,0.229,0.447,0.463,0.675,0.691c44.07,44.071,102.666,68.342,164.992,68.342    c62.325,0,120.921-24.271,164.992-68.342c0.228-0.228,0.447-0.462,0.674-0.691v-85.272H47.085V375.135z"/>
		<circle style="fill:#E36465;" cx="212.752" cy="210.834" r="203.334"/>
		<circle style="fill:#FD6F71;" cx="212.752" cy="210.834" r="167.062"/>
		<circle style="fill:#B8B8B8;" cx="102.341" cy="449.244" r="17.514"/>
		<circle style="fill:#B8B8B8;" cx="323.163" cy="449.244" r="17.514"/>
	</g>
	<g>
		<path d="M336.313,323.511c3.182,2.652,7.91,2.224,10.563-0.957c26.077-31.274,40.438-70.95,40.438-111.72    c0-96.253-78.308-174.562-174.562-174.562c-96.253,0-174.562,78.308-174.562,174.562c0,96.254,78.308,174.562,174.562,174.562    c40.894,0,80.664-14.441,111.985-40.662c3.176-2.659,3.595-7.389,0.937-10.565c-2.659-3.176-7.389-3.596-10.565-0.937    c-28.626,23.966-64.977,37.164-102.356,37.164c-87.982,0-159.562-71.579-159.562-159.562c0-87.982,71.579-159.562,159.562-159.562    c87.983,0,159.562,71.579,159.562,159.562c0,37.266-13.125,73.531-36.958,102.113    C332.703,316.129,333.132,320.858,336.313,323.511z"/>
		<path d="M102.342,424.231c-13.792,0-25.014,11.221-25.014,25.013s11.221,25.014,25.014,25.014s25.014-11.221,25.014-25.014    S116.134,424.231,102.342,424.231z M102.342,459.258c-5.521,0-10.014-4.492-10.014-10.014s4.492-10.013,10.014-10.013    s10.014,4.492,10.014,10.013S107.863,459.258,102.342,459.258z"/>
		<path d="M323.163,424.231c-13.792,0-25.014,11.221-25.014,25.013s11.221,25.014,25.014,25.014s25.013-11.221,25.013-25.014    S336.956,424.231,323.163,424.231z M323.163,459.258c-5.521,0-10.014-4.492-10.014-10.014s4.492-10.013,10.014-10.013    s10.013,4.492,10.013,10.013S328.685,459.258,323.163,459.258z"/>
		<path d="M112.355,197.94v16.813c0,4.142,3.358,7.5,7.5,7.5s7.5-3.358,7.5-7.5V197.94c0-4.142-3.358-7.5-7.5-7.5    S112.355,193.798,112.355,197.94z"/>
		<path d="M298.15,197.94v16.813c0,4.142,3.358,7.5,7.5,7.5s7.5-3.358,7.5-7.5V197.94c0-4.142-3.358-7.5-7.5-7.5    S298.15,193.798,298.15,197.94z"/>
		<path d="M230.033,208.647c-4.21,4.817-10.509,7.58-17.281,7.58c-6.771,0-13.07-2.763-17.282-7.58    c-2.725-3.119-7.463-3.438-10.583-0.71c-3.119,2.726-3.437,7.464-0.71,10.583c7.06,8.076,17.475,12.708,28.575,12.708    c11.101,0,21.516-4.632,28.575-12.708c2.726-3.119,2.408-7.857-0.711-10.583S232.76,205.529,230.033,208.647z"/>
		<path d="M486.939,217.994h-29.401c-12.761,0-23.143,10.382-23.143,23.143c0,9.763,6.079,18.127,14.649,21.521v14.095    c0,22.355-7.129,43.593-20.617,61.417c-10.977,14.506-25.827,25.916-42.508,32.854v-40.07    c23.73-34.106,37.667-75.513,37.667-120.119C423.586,94.58,329.007,0,212.752,0C164.859,0,119.715,15.657,82.2,45.279    c-3.251,2.567-3.805,7.283-1.238,10.534c2.567,3.251,7.283,3.805,10.534,1.238C126.336,29.542,168.266,15,212.752,15    c107.983,0,195.834,87.851,195.834,195.834c0,84.308-53.552,156.342-128.425,183.877c-0.151,0.055-0.303,0.109-0.454,0.164    c-43.008,15.607-90.904,15.628-133.909,0c-0.151-0.055-0.303-0.109-0.454-0.164C70.47,367.176,16.918,295.142,16.918,210.834    c0-50.112,18.923-97.794,53.283-134.262c2.841-3.015,2.7-7.761-0.315-10.602c-3.015-2.842-7.762-2.7-10.602,0.315    C22.291,105.548,1.918,156.883,1.918,210.834c0,44.607,13.937,86.014,37.667,120.12v128.753c0,28.834,23.458,52.292,52.292,52.292    h241.748c28.834,0,52.293-23.458,52.293-52.292v-39.73c29.911-8.149,56.927-25.779,76.579-50.098    c21.238-26.283,32.935-59.356,32.935-93.127v-14.095c8.569-3.394,14.648-11.758,14.648-21.521    C510.082,228.375,499.7,217.994,486.939,217.994z M457.538,232.994h29.401c4.49,0,8.143,3.653,8.143,8.143    c0,4.236-3.251,7.723-7.389,8.105c-0.078,0.002-0.156-0.002-0.235,0.003l-0.262,0.018c-0.095,0.006-0.19,0.015-0.257,0.018H457.56    c-0.093-0.003-0.186-0.011-0.279-0.018l-0.261-0.018c-0.078-0.005-0.155,0-0.233-0.003c-4.139-0.381-7.392-3.868-7.392-8.105    C449.395,236.646,453.048,232.994,457.538,232.994z M370.919,459.708c0,20.563-16.729,37.292-37.293,37.292H91.878    c-20.563,0-37.292-16.729-37.292-37.292V350.224c16.965,19.208,37.409,35.339,60.036,47.259    c30.118,15.867,64.098,24.185,98.131,24.185c33.973,0,68.065-8.345,98.131-24.185c22.626-11.92,43.071-28.051,60.036-47.259    V459.708z M480.433,276.752c0,30.351-10.513,60.076-29.602,83.699c-16.809,20.8-39.599,36.16-64.912,43.915V387.11    c21.458-7.607,40.645-21.62,54.469-39.89c15.476-20.451,23.656-44.818,23.656-70.468v-12.473h16.389V276.752z"/>
	</g>
</g>















</svg>
