<?xml version="1.0" encoding="iso-8859-1"?>
<!-- Generator: Adobe Illustrator 19.0.0, SVG Export Plug-In . SVG Version: 6.00 Build 0)  -->
<svg xmlns="http://www.w3.org/2000/svg" xmlns:xlink="http://www.w3.org/1999/xlink" version="1.1" id="Layer_1" x="0px" y="0px" viewBox="0 0 512 512" style="enable-background:new 0 0 512 512;" xml:space="preserve" width="512" height="512">
<g>
	<g>
		<path style="fill:#AD4F3D;" d="M435.414,11.032l-33.88,33.88c-2.246,2.246-3.508,5.293-3.508,8.469v57.191l57.835-75.25V19.501    C455.861,8.831,442.959,3.487,435.414,11.032z"/>
		<path style="fill:#AD4F3D;" d="M492.498,56.139h-15.821l-75.25,57.835l57.191,0c3.177,0,6.223-1.262,8.469-3.508l33.88-33.88    C508.513,69.041,503.169,56.139,492.498,56.139z"/>
		<path style="fill:#EFEDEE;" d="M239.092,504.5C111.392,504.5,7.5,400.608,7.5,272.907S111.392,41.315,239.092,41.315    s231.593,103.892,231.593,231.593S366.793,504.5,239.092,504.5z"/>
		<path style="fill:#506366;" d="M239.092,455.434c-100.645,0-182.526-81.881-182.526-182.526S138.447,90.381,239.092,90.381    s182.526,81.881,182.526,182.526S339.737,455.434,239.092,455.434z"/>
		<path style="fill:#6EE3FF;" d="M239.092,406.368c-73.59,0-133.46-59.87-133.46-133.46c0-73.59,59.87-133.46,133.46-133.46    c73.59,0,133.46,59.87,133.46,133.46C372.552,346.497,312.682,406.368,239.092,406.368z"/>
		<path style="fill:#FD6F71;" d="M239.092,357.301c-46.535,0-84.394-37.859-84.394-84.394c0-46.535,37.859-84.394,84.394-84.394    c46.535,0,84.394,37.859,84.394,84.394C323.486,319.443,285.628,357.301,239.092,357.301z"/>
		<circle style="fill:#FADC60;" cx="239.092" cy="272.907" r="35.328"/>
		<path style="fill:#C86D5C;" d="M239.092,252.09c-5.748,5.748-5.748,15.069,0,20.817c5.748,5.748,15.069,5.748,20.817,0    L476.678,56.139l-20.817-20.817L239.092,252.09z"/>
	</g>
	<g>
		<path d="M492.506,48.64h-12.714l-16.424-16.424V19.502C463.368,8.749,454.592,0,443.804,0c-5.131,0-9.992,2.035-13.686,5.729    l-33.879,33.88c-3.679,3.678-5.706,8.57-5.706,13.773v34.67C347.839,53.024,294.402,33.815,239.1,33.815    c-58.947,0-115.616,21.734-159.569,61.198c-3.082,2.767-3.337,7.509-0.57,10.591c2.768,3.083,7.509,3.337,10.591,0.57    c41.196-36.988,94.307-57.359,149.548-57.359c51.805,0,101.877,17.979,141.884,50.785l-24.218,24.219    C323.308,97.377,281.8,82.881,239.1,82.881c-104.781,0-190.026,85.246-190.026,190.026S134.319,462.934,239.1,462.934    s190.026-85.246,190.026-190.026c0-42.7-14.496-84.208-40.937-117.666l24.219-24.219c32.805,40.006,50.785,90.079,50.785,141.884    C463.192,396.473,362.665,497,239.1,497S15.007,396.473,15.007,272.908c0-53.516,19.257-105.362,54.225-145.99    c2.702-3.14,2.348-7.875-0.792-10.577c-3.139-2.702-7.875-2.347-10.577,0.792c-37.309,43.348-57.856,98.67-57.856,155.775    C0.007,404.744,107.264,512,239.1,512c131.836,0,239.092-107.256,239.092-239.092c0-55.302-19.209-108.74-54.236-151.433h34.67    c5.203,0,10.094-2.026,13.772-5.705l33.88-33.88c5.59-5.59,7.248-13.921,4.223-21.226C507.475,53.359,500.412,48.64,492.506,48.64    z M254.614,267.605c-2.745,2.745-7.461,2.749-10.21,0c-2.777-2.777-2.772-7.439,0-10.211L455.868,45.929l10.21,10.21    L254.614,267.605z M315.994,272.908c0,42.399-34.495,76.894-76.894,76.894s-76.894-34.495-76.894-76.894    s34.495-76.894,76.894-76.894c12.788,0,25.184,3.142,36.319,9.151l-26.145,26.145c-3.316-0.811-6.721-1.23-10.174-1.23    c-23.615,0-42.828,19.212-42.828,42.828s19.212,42.828,42.828,42.828s42.828-19.212,42.828-42.828    c0-3.453-0.419-6.857-1.23-10.174l26.146-26.145C312.852,247.723,315.994,260.12,315.994,272.908z M235.495,279.62    c3.849,3.173,8.746,5.099,14.014,5.099c5.843,0,11.581-2.378,15.711-6.508l1.44-1.44c-1.886,13.523-13.526,23.964-27.561,23.964    c-15.344,0-27.828-12.483-27.828-27.828c0-14.034,10.441-25.675,23.964-27.561c-4.753,4.753-7.948,10.242-7.948,17.152    C227.288,269.317,230.514,275.513,235.495,279.62z M405.533,53.382c0-1.196,0.466-2.32,1.312-3.166c0,0,33.812-33.813,33.88-33.88    c2.687-2.687,7.644-0.863,7.644,3.166v12.714l-42.835,42.835V53.382z M239.1,447.934c-96.51,0-175.026-78.517-175.026-175.026    S142.59,97.881,239.1,97.881c38.737,0,76.415,12.948,106.988,36.615l-24.319,24.319c-23.947-17.366-53.043-26.868-82.668-26.868    c-77.726,0-140.96,63.234-140.96,140.96c0,77.726,63.234,140.96,140.96,140.96c33.992,0,66.846-12.32,92.511-34.689    c3.123-2.722,3.448-7.459,0.726-10.582c-2.722-3.123-7.459-3.448-10.582-0.726c-22.934,19.989-52.288,30.997-82.656,30.997    c-69.455,0-125.96-56.505-125.96-125.96s56.505-125.96,125.96-125.96c26.073,0,50.77,7.791,71.925,22.611l-24.623,24.623    c-14.284-8.626-30.507-13.167-47.302-13.167c-50.67,0-91.894,41.224-91.894,91.894s41.224,91.894,91.894,91.894    s91.894-41.224,91.894-91.894c0-16.795-4.541-33.018-13.168-47.302l24.623-24.623c14.82,21.155,22.61,45.851,22.61,71.925    c0,26.797-8.348,52.405-24.14,74.055c-2.441,3.347-1.707,8.038,1.639,10.479c3.346,2.442,8.038,1.707,10.479-1.639    c17.678-24.235,27.022-52.899,27.022-82.895c0-29.626-9.501-58.722-26.868-82.669l24.319-24.319    c23.667,30.572,36.615,68.251,36.615,106.988C414.126,369.417,335.61,447.934,239.1,447.934z M495.672,71.283l-33.88,33.88    c-0.833,0.833-1.988,1.312-3.166,1.312h-21.669l42.835-42.835c0,0,12.714,0,12.715,0    C496.457,63.641,498.446,68.508,495.672,71.283z"/>
	</g>
</g>















</svg>
